<svg id="Группа_1" data-name="Группа 1" xmlns="http://www.w3.org/2000/svg" width="79.8" height="79.8" viewBox="0 0 4200 4200">
  <defs>
    <style>
      .cls-1 {
        fill: #fff;
      }

      .cls-1, .cls-2 {
        fill-rule: evenodd;
      }

      .cls-2 {
        fill: #ee2d24;
      }
    </style>
  </defs>
  <path id="Фигура_1" data-name="Фигура 1" class="cls-1" d="M3653.57,2275.36c236.01-4.14,385.22,76.41,462.52,227.7,141.24,276.4-70.28,539.76-291.74,597.72-262.85,68.79-462.27-113.81-519.45-284.63-24.02-71.8-33.22-202.36,0-277.51,41.49-93.83,126.44-186.86,220.59-227.71Q3589.525,2293.155,3653.57,2275.36ZM124.189,2296.7c216.219-3.69,492.826-32.89,583.487,92.51,64.181,88.77,93.345,460.79,28.463,583.48-18.917,35.77-70.848,88-106.736,106.74-54.512,28.47-123.3,28.46-206.355,28.46-72.683.01-159.9,9.42-213.471-14.23C125.928,3056.73,9.458,2945.52,45.916,2794.8c57.423-237.38,249.394-218.59,540.793-213.47,4.64-13.34,6.774-27.84,7.116-49.81-21.726-26.34-32.453-62.28-64.042-78.27-71.7-36.3-301.655-15.29-405.594-14.23V2296.7Zm775.611,0h163.66c25.34,75.72,7.71,208.95,7.12,298.86,205.96,3.96,320.83-100.81,320.2-298.86h170.78c1.05,120.8-33.39,221.61-85.39,291.75-25.21,34-72.87,52.89-92.5,92.5,120.09,71.38,191.77,207.48,192.12,398.48-40.13,13.61-111.68,7.67-163.66,7.12v-7.12h-7.12c4.65-228.05-104.67-332.06-334.43-327.32v14.23c-16.1,45.15-.63,236.15,0,313.09-41.98,14.22-116.821,7.68-170.78,7.12V2296.7Zm832.54,0c233.31-4.01,504.42-31.98,597.71,106.74,49.08,72.97,71.46,429.03,28.47,540.79-19.57,50.87-74.7,110.35-120.97,135.2-52.07,27.97-119.05,28.45-199.24,28.46-203.21.02-288.91-22.91-355.78-156.54-15.91-31.79-45.04-95.38-28.47-156.55,63.89-235.86,244.72-218.69,540.8-213.47,6.84-12.57,8.94-11.96,14.23-28.46-26.84-35.54-28.22-80.23-71.16-99.62-96.35-43.52-306.44-5.05-405.59-14.23V2296.7Zm775.61,0c353.23-4.64,532.81-15.3,654.64,220.59,31.2,60.42,65.36,179.15,35.58,277.51-88.3,291.61-309.56,296.55-690.22,291.75V2296.7Zm1174.09,128.09c-16.59,10.97-34.28,5.45-56.93,14.23-70.46,27.3-140.93,103-163.66,177.89-51.15,168.55,115.76,381.28,284.63,341.55,80.03-18.83,162.96-59.18,199.24-120.96C4063.56,2636.12,3910.28,2420.87,3682.04,2424.79ZM2678.72,2937.12c169.63,4.16,265.94-20.62,327.32-120.97,131.45-214.89-103.72-416.84-327.32-370.02v490.99Zm-2405.1-199.24c-19.158,16.88-66.748,70.54-64.041,113.85s36.373,89.12,92.5,106.73c33.082,9.76,100.859,5.77,129.319,5.77,102.364-9.16,124.1-16.03,155.309-98.27,11.714-47.42,23.386-97.12,7.116-135.2C477.661,2691.82,314.506,2701.85,273.618,2737.88Zm1665.072-14.24c-18.68,6.23-114.14.89-113.85,149.43,43.62,99.11,174.9,107.7,334.44,64.05,35.4-54.1,68.49-105.48,49.58-198.48-4.75,0-16.38-7.88-21.12-7.88C2143.33,2722.74,2002.17,2709.29,1938.69,2723.64Zm-519.44,811.19v35.58c15.66,11.84,14.41,20.18,35.57,28.47,31.01,27.42,136.53,15.42,192.13,14.23v78.27h-14.23c-29.6,19.87-132.44,7.78-163.67,0-74.56-18.58-120.01-33.27-142.31-99.62-45.5-135.35-1.19-325.16,120.97-334.44,29.55-2.78,51.63-7.09,78.27-7.11,107.3-.1,237.15,50.21,192.12,185C1683.25,3539.57,1564.12,3540.19,1419.25,3534.83Zm1124.27,78.28v78.27c-43.82,14.83-121.95,7.68-177.89,7.11-50.35-30.95-100.69-25.58-128.08-78.27-31.07-59.76-25.78-256,7.12-305.97,16.6-25.23,43.87-45.37,71.15-56.93,110.83-28.92,273.59-16.1,305.98,106.74,8.12,30.8-6.72,61.42-14.23,78.27-44.6,99.98-137.54,97-284.63,92.5C2320.71,3541.13,2251.63,3616.3,2543.52,3613.11Zm775.94-360.08c314.71-9.72,334.07,382.49,49.49,452.58-179.42,44.19-323.97-152.93-263.29-313.09,21.19-55.92,73.59-105.44,128.09-128.08C3258.49,3254.16,3294.01,3256.32,3319.46,3253.03ZM899.8,3257.32h370.02c6.57,18.98,7.47,49.32,7.11,78.27-34.63,11.8-96.23,7.67-142.31,7.12v348.67c-27.33.62-79.97,3.26-85.39,0-25.24-39.93-7.91-274.55-7.12-341.55-34.62-11.8-96.225-7.67-142.31-7.12v-85.39Zm960.62,441.17h-85.39c-69.87-208.19,41.41-361.06,28.46-341.55,60.26-90.78,171.97-101.45,327.32-99.62,32.27,97.03,7.69,316.46,7.12,434.06-20.59,7.12-54.61,7.54-85.39,7.11-7.26-5.72-1.95-2.52-14.23-7.11V3349.83c-14.58-5.08-28.6-13.29-56.93-7.12-50.56,17.45-83.43,33.53-106.73,78.27C1843.53,3480.74,1859.18,3614.42,1860.42,3698.49Zm1095.81-441.17h85.39c2.6,137.58-54.5,138.49-85.39,220.59,64.3,37.98,100.11,110.34,99.62,213.47-27.33.62-79.96,3.26-85.38,0-8.17-13.78-.35-36.29-7.12-56.93-24.03-73.26-78.16-121.4-177.89-120.96-14.83,43.82-7.68,121.95-7.12,177.89h-92.5V3264.44c20.59-7.12,54.61-7.54,85.39-7.12,13.61,40.13,7.67,111.68,7.11,163.66,17.42,6.05,44,7.4,71.16,7.12,44.76-50.61,98.85-49.41,99.62-149.43C2954.47,3271.03,2953.4,3271.94,2956.23,3257.32Zm1102.94,434.06h-92.51c-0.41-74.13-10.49-191.96,0-241.93h-7.11c-7.27,5.72-1.95,2.52-14.23,7.11-13.02,55.56-53.88,136.22-128.09,135.2-26.56-46.46-57.62-95.26-85.38-142.31h-14.24v241.93h-92.5V3264.44c20.59-7.12,54.61-7.54,85.39-7.12,7.26,5.72,1.95,2.53,14.23,7.12,9.69,34,95.53,186.67,120.97,199.24v-7.12c109.24-73.69,49.72-202.63,206.35-199.24C4084.32,3354.35,4059.73,3573.78,4059.17,3691.38ZM1461.94,3335.59c-15.5,16.16-26.83,17.85-35.58,42.7-8.81,13.08-7.75,40.58-7.11,64.04,35.75,19.66,109.69,12.07,163.65,11.5,24.92-11.19,42.72-22.08,42.7-82.66C1574.91,3333.54,1554.27,3333.82,1461.94,3335.59Zm896.58,0c-17.39,6.5-36.04,12.38-42.7,49.81-0.39,85.39,33.64,65.94,163.66,64.05,24.97-7.3,46.88-12.7,45.45-74.94-0.51-15.27-22.18-37.19-38.33-38.92C2443.91,3335.59,2403.1,3328.65,2358.52,3335.59Zm867.97,32.72c-25.01,19.64-23.52,54.33-35.44,66.9-6.99,70.67,4.27,150.89,66.43,171.08,41.11,20.62,92.36,13.89,136.35,1.24,31.89-27.48,72.17-51.15,81.81-128.9,0.15-29.54-.37-127.07-106.69-143.04C3294.59,3335.59,3282.06,3324.69,3226.49,3368.31Z"/>
  <path id="Эллипс_1" data-name="Эллипс 1" class="cls-2" d="M441.931,906.189c222.507,0,402.886,183.591,402.886,410.061S664.438,1726.3,441.931,1726.3,39.045,1542.71,39.045,1316.25,219.423,906.189,441.931,906.189Z"/>
  <path id="Эллипс_1_копия" data-name="Эллипс 1 копия" class="cls-2" d="M1688.79,695.856c336.65,0,609.55,277.759,609.55,620.394s-272.9,620.39-609.55,620.39-609.54-277.76-609.54-620.39S1352.15,695.856,1688.79,695.856Z"/>
  <path id="Эллипс_1_копия_2" data-name="Эллипс 1 копия 2" class="cls-2" d="M3348.11,488.088c449.38,0,813.68,370.78,813.68,828.162s-364.3,828.16-813.68,828.16-813.68-370.78-813.68-828.16S2898.73,488.088,3348.11,488.088Z"/>
</svg>
