<?xml version="1.0" encoding="UTF-8"?>
<!DOCTYPE svg PUBLIC "-//W3C//DTD SVG 1.1//EN" "http://www.w3.org/Graphics/SVG/1.1/DTD/svg11.dtd">
<svg xmlns="http://www.w3.org/2000/svg" version="1.1" width="401px" height="161px" style="shape-rendering:geometricPrecision; text-rendering:geometricPrecision; image-rendering:optimizeQuality; fill-rule:evenodd; clip-rule:evenodd" xmlns:xlink="http://www.w3.org/1999/xlink">
<g><path style="opacity:0.99" fill="red" d="M 312.5,-0.5 C 317.167,-0.5 321.833,-0.5 326.5,-0.5C 364.825,5.65334 388.658,27.6533 398,65.5C 402.861,110.293 384.361,140.793 342.5,157C 337.095,158.496 331.761,159.663 326.5,160.5C 321.5,160.5 316.5,160.5 311.5,160.5C 273.175,154.347 249.342,132.347 240,94.5C 235.264,58.8125 247.764,30.9792 277.5,11C 288.471,4.62004 300.138,0.786702 312.5,-0.5 Z"/></g>
<g><path style="opacity:0.988" fill="red" d="M 152.5,19.5 C 187.872,18.9076 210.038,35.5742 219,69.5C 222.582,100.515 210.415,122.682 182.5,136C 150.913,146.027 125.746,137.527 107,110.5C 93.7469,82.6178 97.5802,57.4511 118.5,35C 128.544,26.8083 139.877,21.6416 152.5,19.5 Z"/></g>
<g><path style="opacity:0.981" fill="red" d="M -0.5,87.5 C -0.5,82.5 -0.5,77.5 -0.5,72.5C 6.17252,49.646 21.5058,38.8126 45.5,40C 67.2705,44.6783 78.9371,58.1783 80.5,80.5C 78.59,101.841 67.2567,115.007 46.5,120C 22.1527,121.508 6.48606,110.674 -0.5,87.5 Z"/></g>
</svg>
