<?xml version="1.0" encoding="UTF-8"?>
<!DOCTYPE svg PUBLIC "-//W3C//DTD SVG 1.1//EN" "http://www.w3.org/Graphics/SVG/1.1/DTD/svg11.dtd">
<svg xmlns="http://www.w3.org/2000/svg" version="1.1" width="159px" height="159px" style="shape-rendering:geometricPrecision; text-rendering:geometricPrecision; image-rendering:optimizeQuality; fill-rule:evenodd; clip-rule:evenodd" xmlns:xlink="http://www.w3.org/1999/xlink">
<g><path style="opacity:1" fill="#ed2d24" d="M 158.5,73.5 C 158.5,77.1667 158.5,80.8333 158.5,84.5C 154.17,100.698 143.503,109.365 126.5,110.5C 107.571,108.404 97.2374,97.9044 95.5,79C 96.3944,63.1117 104.394,52.7784 119.5,48C 139.825,45.4859 152.825,53.9859 158.5,73.5 Z"/></g>
<g><path style="opacity:1" fill="#ed2d24" d="M 56.5,55.5 C 74.3486,53.5303 84.3486,61.3636 86.5,79C 85.3606,93.4728 77.5272,101.306 63,102.5C 44.6096,99.442 37.2762,88.7753 41,70.5C 44.1058,63.2253 49.2724,58.2253 56.5,55.5 Z"/></g>
<g><path style="opacity:1" fill="#ed2d24" d="M -0.5,82.5 C -0.5,80.1667 -0.5,77.8333 -0.5,75.5C 2.97533,65.5709 9.97533,61.7375 20.5,64C 30.1537,68.8224 32.987,76.3224 29,86.5C 22.4848,95.0575 14.6514,96.5575 5.5,91C 2.60473,88.6782 0.60473,85.8448 -0.5,82.5 Z"/></g>
</svg>
