<?xml version="1.0" encoding="UTF-8"?>
<!DOCTYPE svg PUBLIC "-//W3C//DTD SVG 1.1//EN" "http://www.w3.org/Graphics/SVG/1.1/DTD/svg11.dtd">
<svg xmlns="http://www.w3.org/2000/svg" version="1.1" width="1616px" height="260px" style="shape-rendering:geometricPrecision; text-rendering:geometricPrecision; image-rendering:optimizeQuality; fill-rule:evenodd; clip-rule:evenodd" xmlns:xlink="http://www.w3.org/1999/xlink">
<g><path style="opacity:0.364" fill="#433256" d="M 143.5,11.5 C 142.903,12.1386 142.07,12.472 141,12.5C 122.028,9.55708 103.195,10.2237 84.5,14.5C 103.805,7.81803 123.471,6.81803 143.5,11.5 Z"/></g>
<g><path style="opacity:0.376" fill="#433256" d="M 918.5,11.5 C 917.903,12.1386 917.07,12.472 916,12.5C 901.491,9.91183 886.991,9.91183 872.5,12.5C 871.287,12.2528 870.62,11.5862 870.5,10.5C 886.708,7.58101 902.708,7.91435 918.5,11.5 Z"/></g>
<g><path style="opacity:1" fill="#4f2681" d="M 1324.5,8.5 C 1329.5,8.5 1334.5,8.5 1339.5,8.5C 1349.45,10.1491 1359.45,12.1491 1369.5,14.5C 1369.83,14.5 1370.17,14.5 1370.5,14.5C 1376.5,17.6769 1382.5,21.1769 1388.5,25C 1389.77,25.3095 1390.93,25.8095 1392,26.5C 1392.46,25.9056 1392.63,25.2389 1392.5,24.5C 1393.94,26.0627 1395.61,27.396 1397.5,28.5C 1399.58,32.8757 1402.91,35.8757 1407.5,37.5C 1410.5,41.1667 1413.83,44.5 1417.5,47.5C 1418.17,50.1667 1419.83,51.8333 1422.5,52.5C 1422.55,55.6145 1423.89,57.9478 1426.5,59.5C 1426.43,61.0269 1427.09,62.0269 1428.5,62.5C 1431.85,69.2054 1435.19,75.8721 1438.5,82.5C 1438.23,84.3797 1438.9,85.713 1440.5,86.5C 1440.5,86.8333 1440.5,87.1667 1440.5,87.5C 1440.68,90.2165 1441.18,92.8832 1442,95.5C 1442.67,96.2524 1443.5,96.5858 1444.5,96.5C 1444.17,97.1667 1443.83,97.8333 1443.5,98.5C 1443.95,102.527 1444.62,106.527 1445.5,110.5C 1445.75,111.713 1446.41,112.38 1447.5,112.5C 1447.5,114.167 1447.5,115.833 1447.5,117.5C 1446.86,118.097 1446.53,118.93 1446.5,120C 1446.39,121.699 1447.05,122.866 1448.5,123.5C 1448.5,129.167 1448.5,134.833 1448.5,140.5C 1446.9,141.287 1446.23,142.62 1446.5,144.5C 1422.17,145.167 1397.83,145.833 1373.5,146.5C 1369.83,146.5 1366.17,146.5 1362.5,146.5C 1328.34,145.502 1294,145.168 1259.5,145.5C 1258.96,150.312 1259.96,154.645 1262.5,158.5C 1263.34,158.842 1263.67,159.508 1263.5,160.5C 1264.25,165.009 1266.25,168.676 1269.5,171.5C 1269.29,173.179 1269.95,174.179 1271.5,174.5C 1271.74,176.404 1272.74,177.738 1274.5,178.5C 1276.5,181.167 1278.83,183.5 1281.5,185.5C 1282.89,189.208 1285.55,191.541 1289.5,192.5C 1290.17,192.833 1290.83,193.167 1291.5,193.5C 1292.98,196.083 1295.32,197.416 1298.5,197.5C 1298.83,197.5 1299.17,197.5 1299.5,197.5C 1300.12,199.335 1301.46,200.502 1303.5,201C 1304.75,201.74 1305.75,201.573 1306.5,200.5C 1306.83,200.5 1307.17,200.5 1307.5,200.5C 1307.71,202.424 1308.38,202.757 1309.5,201.5C 1310.17,201.5 1310.83,201.5 1311.5,201.5C 1311.58,202.75 1312.24,203.583 1313.5,204C 1315.39,204.78 1317.05,204.613 1318.5,203.5C 1318.83,203.5 1319.17,203.5 1319.5,203.5C 1319.62,204.586 1320.29,205.253 1321.5,205.5C 1322.42,205.457 1323.08,205.124 1323.5,204.5C 1325.83,204.5 1328.17,204.5 1330.5,204.5C 1332.4,205.805 1334.73,206.471 1337.5,206.5C 1339.83,206.333 1342.17,206.167 1344.5,206C 1346.12,205.764 1347.12,204.931 1347.5,203.5C 1347.83,203.5 1348.17,203.5 1348.5,203.5C 1349.95,204.613 1351.61,204.78 1353.5,204C 1355.12,203.764 1356.12,202.931 1356.5,201.5C 1358.12,200.962 1359.78,200.629 1361.5,200.5C 1361.56,201.043 1361.89,201.376 1362.5,201.5C 1367.29,199.607 1371.95,197.44 1376.5,195C 1378.9,193.02 1380.9,190.853 1382.5,188.5C 1382.5,187.833 1382.83,187.5 1383.5,187.5C 1383.9,188.525 1384.56,188.692 1385.5,188C 1387.83,185.667 1390.17,183.333 1392.5,181C 1393.79,180.51 1395.13,180.343 1396.5,180.5C 1398.78,180.975 1400.78,181.975 1402.5,183.5C 1402.37,184.376 1402.7,185.043 1403.5,185.5C 1404.69,186.653 1405.69,186.653 1406.5,185.5C 1407.17,185.5 1407.5,185.833 1407.5,186.5C 1409.56,189.712 1412.56,191.712 1416.5,192.5C 1417.49,192.328 1418.16,192.662 1418.5,193.5C 1420.82,196.518 1423.82,198.851 1427.5,200.5C 1426.87,201.417 1426.54,202.417 1426.5,203.5C 1426.5,203.833 1426.5,204.167 1426.5,204.5C 1420.83,208.167 1416.17,212.833 1412.5,218.5C 1408.93,219.929 1406.26,222.263 1404.5,225.5C 1404.17,225.5 1403.83,225.5 1403.5,225.5C 1401.15,226.34 1399.15,227.674 1397.5,229.5C 1397.03,230.906 1396.03,231.573 1394.5,231.5C 1392.5,231.5 1391.5,232.5 1391.5,234.5C 1391.17,234.5 1390.83,234.5 1390.5,234.5C 1390.44,233.957 1390.11,233.624 1389.5,233.5C 1384.91,235.622 1380.58,237.956 1376.5,240.5C 1374.8,240.34 1373.13,240.506 1371.5,241C 1370.24,241.417 1369.58,242.25 1369.5,243.5C 1369.17,243.5 1368.83,243.5 1368.5,243.5C 1365.22,243.42 1362.22,244.087 1359.5,245.5C 1358.43,246.434 1357.1,246.768 1355.5,246.5C 1353.14,246.337 1350.81,246.503 1348.5,247C 1346.88,247.236 1345.88,248.069 1345.5,249.5C 1338.83,249.5 1332.17,249.5 1325.5,249.5C 1324.49,248.235 1322.99,247.569 1321,247.5C 1316.52,246.836 1312.02,246.502 1307.5,246.5C 1307.17,246.5 1306.83,246.5 1306.5,246.5C 1298.16,243.506 1289.82,240.173 1281.5,236.5C 1280.89,236.624 1280.56,236.957 1280.5,237.5C 1278.72,237.107 1277.05,236.441 1275.5,235.5C 1274.97,233.554 1273.63,232.554 1271.5,232.5C 1271.03,231.094 1270.03,230.427 1268.5,230.5C 1261.77,224.431 1254.77,218.764 1247.5,213.5C 1247.14,211.81 1246.14,210.81 1244.5,210.5C 1243.83,210.5 1243.5,210.167 1243.5,209.5C 1243.66,206.656 1242.32,204.989 1239.5,204.5C 1239.5,204.167 1239.5,203.833 1239.5,203.5C 1238.86,201.205 1237.53,199.539 1235.5,198.5C 1232.66,192.138 1229.32,186.138 1225.5,180.5C 1225.45,177.654 1224.45,175.32 1222.5,173.5C 1222.5,173.167 1222.5,172.833 1222.5,172.5C 1222.09,169.198 1220.76,166.531 1218.5,164.5C 1218.5,164.167 1218.5,163.833 1218.5,163.5C 1219.12,163.083 1219.46,162.416 1219.5,161.5C 1218.08,154.498 1216.42,147.831 1214.5,141.5C 1213.31,131.826 1213.31,122.16 1214.5,112.5C 1215.12,112.389 1215.62,112.056 1216,111.5C 1216.58,107.279 1217.41,103.112 1218.5,99C 1218.43,98.2352 1218.1,97.7352 1217.5,97.5C 1217.5,97.1667 1217.5,96.8333 1217.5,96.5C 1219.55,95.9473 1219.89,94.9473 1218.5,93.5C 1218.5,92.8333 1218.5,92.1667 1218.5,91.5C 1220.56,89.7396 1221.89,87.4062 1222.5,84.5C 1220.97,83.0755 1221.3,82.4088 1223.5,82.5C 1227.12,76.9821 1229.79,70.9821 1231.5,64.5C 1233.53,63.4613 1234.86,61.7946 1235.5,59.5C 1238.74,57.3696 1240.74,54.3696 1241.5,50.5C 1241.5,49.8333 1241.83,49.5 1242.5,49.5C 1244.79,47.8818 1246.79,45.8818 1248.5,43.5C 1249.17,42.1667 1250.17,41.1667 1251.5,40.5C 1254.12,37.853 1257.12,35.6863 1260.5,34C 1261.25,33.3292 1261.59,32.4959 1261.5,31.5C 1261.83,31.5 1262.17,31.5 1262.5,31.5C 1264.75,30.5448 1267.08,29.8782 1269.5,29.5C 1269.5,28.5 1269.5,27.5 1269.5,26.5C 1279.65,20.7284 1290.32,16.2284 1301.5,13C 1309.3,11.4597 1316.96,9.9597 1324.5,8.5 Z M 1339.5,54.5 C 1340.83,54.5 1342.17,54.5 1343.5,54.5C 1344.57,55.4345 1345.9,55.7678 1347.5,55.5C 1347.83,55.5 1348.17,55.5 1348.5,55.5C 1348.84,56.3382 1349.51,56.6716 1350.5,56.5C 1350.83,56.5 1351.17,56.5 1351.5,56.5C 1352.39,57.1098 1353.39,57.4431 1354.5,57.5C 1354.83,57.5 1355.17,57.5 1355.5,57.5C 1357.65,58.7362 1359.98,59.7362 1362.5,60.5C 1362.83,60.5 1363.17,60.5 1363.5,60.5C 1364.51,61.6737 1365.85,62.3404 1367.5,62.5C 1370.7,65.8521 1374.36,68.6855 1378.5,71C 1382.74,75.7316 1386.74,80.5649 1390.5,85.5C 1390.89,87.2838 1391.56,88.9505 1392.5,90.5C 1393.51,93.2572 1394.51,95.9239 1395.5,98.5C 1395.5,98.8333 1395.5,99.1667 1395.5,99.5C 1395.63,101.216 1395.96,102.883 1396.5,104.5C 1352.49,104.833 1308.49,104.5 1264.5,103.5C 1266.26,96.4102 1268.93,89.7436 1272.5,83.5C 1273.97,82.5637 1274.97,81.2303 1275.5,79.5C 1275.83,78.8333 1276.17,78.1667 1276.5,77.5C 1281.51,74.151 1285.85,70.151 1289.5,65.5C 1289.83,65.5 1290.17,65.5 1290.5,65.5C 1295.03,62.7755 1299.7,60.4422 1304.5,58.5C 1304.83,58.5 1305.17,58.5 1305.5,58.5C 1306.49,58.6716 1307.16,58.3382 1307.5,57.5C 1308.17,57.5 1308.83,57.5 1309.5,57.5C 1313.29,56.6152 1316.95,55.6152 1320.5,54.5C 1321.83,54.5 1323.17,54.5 1324.5,54.5C 1329.46,53.4631 1334.46,53.4631 1339.5,54.5 Z"/></g>
<g><path style="opacity:0.667" fill="#432c5d" d="M 1324.5,8.5 C 1316.96,9.9597 1309.3,11.4597 1301.5,13C 1290.32,16.2284 1279.65,20.7284 1269.5,26.5C 1269.41,25.5041 1269.75,24.6708 1270.5,24C 1287.46,14.843 1305.46,9.67629 1324.5,8.5 Z"/></g>
<g><path style="opacity:0.329" fill="#412d59" d="M 1339.5,8.5 C 1350.2,7.84076 1360.2,9.84076 1369.5,14.5C 1359.45,12.1491 1349.45,10.1491 1339.5,8.5 Z"/></g>
<g><path style="opacity:0.999" fill="#4f2681" d="M 143.5,11.5 C 144.167,11.8333 144.833,12.1667 145.5,12.5C 149.228,14.4536 153.228,16.1203 157.5,17.5C 158.107,17.3764 158.44,17.0431 158.5,16.5C 159.167,16.5 159.833,16.5 160.5,16.5C 161.967,18.3627 163.967,19.696 166.5,20.5C 167.107,20.3764 167.44,20.0431 167.5,19.5C 167.833,19.5 168.167,19.5 168.5,19.5C 168.5,20.5 168.5,21.5 168.5,22.5C 172.495,23.0526 176.161,24.386 179.5,26.5C 179.833,26.5 180.167,26.5 180.5,26.5C 181.574,29.0683 183.574,30.7349 186.5,31.5C 187.107,31.3764 187.44,31.0431 187.5,30.5C 188.167,30.5 188.5,30.8333 188.5,31.5C 191.614,34.3523 194.78,37.3523 198,40.5C 198.399,40.2716 198.565,39.9382 198.5,39.5C 199.167,39.5 199.5,39.8333 199.5,40.5C 200.326,42.2644 201.659,43.5977 203.5,44.5C 204.167,45.8333 205.167,46.8333 206.5,47.5C 210.132,52.4667 214.132,57.1334 218.5,61.5C 218.241,63.9893 219.241,65.656 221.5,66.5C 222.473,68.2501 223.807,69.7501 225.5,71C 225.167,71.3333 224.833,71.6667 224.5,72C 226.178,72.4839 226.844,73.3172 226.5,74.5C 228.989,81.9729 231.656,89.3063 234.5,96.5C 234.171,99.2282 234.837,101.562 236.5,103.5C 236.5,103.833 236.5,104.167 236.5,104.5C 236.335,107.518 236.502,110.518 237,113.5C 237.122,115.437 237.955,116.77 239.5,117.5C 239.5,118.833 239.5,120.167 239.5,121.5C 238.501,162.997 238.168,204.663 238.5,246.5C 222.5,246.5 206.5,246.5 190.5,246.5C 190.5,239.833 190.5,233.167 190.5,226.5C 188.62,226.229 187.287,226.896 186.5,228.5C 184.795,230.192 182.795,231.525 180.5,232.5C 174.642,235.347 168.642,238.014 162.5,240.5C 161.702,240.957 161.369,241.624 161.5,242.5C 160.292,243.234 158.959,243.567 157.5,243.5C 154.478,243.804 151.478,244.304 148.5,245C 147.944,245.383 147.611,245.883 147.5,246.5C 145.473,246.338 143.473,246.505 141.5,247C 139.881,247.236 138.881,248.069 138.5,249.5C 137.167,249.5 135.833,249.5 134.5,249.5C 133.053,248.115 132.053,248.448 131.5,250.5C 122.5,250.5 113.5,250.5 104.5,250.5C 104.38,249.414 103.713,248.747 102.5,248.5C 101.584,248.543 100.917,248.876 100.5,249.5C 99.5,249.5 98.5,249.5 97.5,249.5C 97.5299,248.503 97.0299,247.836 96,247.5C 93.5661,246.678 91.0661,246.344 88.5,246.5C 87.0413,246.567 85.7079,246.234 84.5,245.5C 84.2089,244.351 83.3756,243.684 82,243.5C 79.2687,242.383 76.4353,241.717 73.5,241.5C 73.1667,241.5 72.8333,241.5 72.5,241.5C 66.4792,237.734 60.3126,234.067 54,230.5C 53.6012,230.728 53.4346,231.062 53.5,231.5C 51.246,230.876 49.5794,229.543 48.5,227.5C 48.0269,226.094 47.0269,225.427 45.5,225.5C 45.1667,225.5 44.8333,225.5 44.5,225.5C 44.3318,222.949 43.3318,222.282 41.5,223.5C 40.5,223.167 39.8333,222.5 39.5,221.5C 39.573,219.973 38.9063,218.973 37.5,218.5C 36.8333,218.5 36.5,218.167 36.5,217.5C 34.5,214.833 32.1667,212.5 29.5,210.5C 28.8333,210.5 28.5,210.167 28.5,209.5C 27.5806,206.911 25.914,204.911 23.5,203.5C 23.5,201.5 22.5,200.5 20.5,200.5C 20.5,200.167 20.5,199.833 20.5,199.5C 20.4456,197.368 19.4456,196.035 17.5,195.5C 15.4919,189.471 12.4919,184.137 8.5,179.5C 8.323,175.292 6.98966,171.626 4.5,168.5C 4.96892,165.607 3.96892,163.607 1.5,162.5C 1.83333,161.833 2.16667,161.167 2.5,160.5C 2.5,159.167 1.83333,158.5 0.5,158.5C 0.5,157.833 0.5,157.167 0.5,156.5C 1.12395,156.083 1.45728,155.416 1.5,154.5C 0.988905,150.998 0.322238,147.665 -0.5,144.5C -0.5,133.833 -0.5,123.167 -0.5,112.5C 0.342545,109.674 1.00921,106.674 1.5,103.5C 1.45728,102.584 1.12395,101.917 0.5,101.5C 0.5,100.833 0.5,100.167 0.5,99.5C 1.4959,99.5858 2.32924,99.2524 3,98.5C 6.77119,86.3039 11.6045,74.6373 17.5,63.5C 18.0256,61.7697 19.0256,60.4363 20.5,59.5C 23.5497,57.4509 25.883,54.7843 27.5,51.5C 33.2269,46.7756 38.2269,41.4422 42.5,35.5C 42.8333,35.5 43.1667,35.5 43.5,35.5C 43.4346,35.9382 43.6012,36.2716 44,36.5C 46.2583,34.5704 48.7583,33.0704 51.5,32C 52.305,30.8873 52.9717,29.7206 53.5,28.5C 58.7441,27.0575 63.0774,24.3908 66.5,20.5C 67.8333,20.1667 69.1667,19.8333 70.5,19.5C 75.1301,19.2799 79.4634,17.6132 83.5,14.5C 83.8333,14.5 84.1667,14.5 84.5,14.5C 103.195,10.2237 122.028,9.55708 141,12.5C 142.07,12.472 142.903,12.1386 143.5,11.5 Z M 155.5,65.5 C 155.833,65.5 156.167,65.5 156.5,65.5C 162.475,70.4703 168.475,75.4703 174.5,80.5C 174.5,80.8333 174.5,81.1667 174.5,81.5C 175.124,83.754 176.457,85.4206 178.5,86.5C 179.136,88.7946 180.469,90.4613 182.5,91.5C 182.5,91.8333 182.5,92.1667 182.5,92.5C 184.808,96.778 186.808,101.111 188.5,105.5C 190.348,113.744 191.682,122.077 192.5,130.5C 191.597,138.587 190.263,146.587 188.5,154.5C 186.979,157.723 185.646,161.057 184.5,164.5C 183.662,164.842 183.328,165.508 183.5,166.5C 181.621,166.393 181.288,166.893 182.5,168C 180.548,169.412 179.215,171.245 178.5,173.5C 175.956,174.708 174.622,176.708 174.5,179.5C 172.833,180.833 171.167,182.167 169.5,183.5C 164.823,186.85 160.49,190.517 156.5,194.5C 150.413,196.858 144.413,199.191 138.5,201.5C 137.5,201.5 136.5,201.5 135.5,201.5C 132.345,201.99 129.345,202.656 126.5,203.5C 124.5,203.5 122.5,203.5 120.5,203.5C 118.5,203.5 116.5,203.5 114.5,203.5C 113.167,203.5 111.833,203.5 110.5,203.5C 107.209,202.743 103.876,202.076 100.5,201.5C 99.8333,201.5 99.1667,201.5 98.5,201.5C 93.3305,199.329 87.9971,197.329 82.5,195.5C 81.1007,194.11 79.4341,193.11 77.5,192.5C 77.5,190.5 76.5,189.5 74.5,189.5C 73.8333,189.167 73.1667,188.833 72.5,188.5C 70.4509,185.45 67.7843,183.117 64.5,181.5C 63.6608,178.145 61.6608,175.812 58.5,174.5C 58.573,172.973 57.9063,171.973 56.5,171.5C 56.573,169.973 55.9063,168.973 54.5,168.5C 51.2175,161.292 48.5509,153.959 46.5,146.5C 46.5,145.833 46.5,145.167 46.5,144.5C 46.8432,142.517 46.1765,141.183 44.5,140.5C 45.8333,133.167 45.8333,125.833 44.5,118.5C 47.3056,110.75 49.9723,102.75 52.5,94.5C 54.2503,93.3406 55.2503,91.674 55.5,89.5C 56.9063,89.0269 57.573,88.0269 57.5,86.5C 58.5,86.1667 59.1667,85.5 59.5,84.5C 61.9118,84.3059 62.9118,82.9726 62.5,80.5C 66.1925,77.1383 69.8592,73.8049 73.5,70.5C 73.8333,70.5 74.1667,70.5 74.5,70.5C 77.32,69.7645 79.32,68.0978 80.5,65.5C 86.464,62.8527 92.464,60.5194 98.5,58.5C 98.8333,58.5 99.1667,58.5 99.5,58.5C 100.791,58.7373 101.791,58.404 102.5,57.5C 121.073,54.5814 138.74,57.2481 155.5,65.5 Z"/></g>
<g><path style="opacity:0.999" fill="#4f2681" d="M 870.5,10.5 C 870.62,11.5862 871.287,12.2528 872.5,12.5C 886.991,9.91183 901.491,9.91183 916,12.5C 917.07,12.472 917.903,12.1386 918.5,11.5C 919.167,11.8333 919.833,12.1667 920.5,12.5C 923.321,14.7122 926.655,15.7122 930.5,15.5C 930.833,15.5 931.167,15.5 931.5,15.5C 935.212,17.7899 939.212,19.7899 943.5,21.5C 944.107,21.3764 944.44,21.0431 944.5,20.5C 944.833,20.5 945.167,20.5 945.5,20.5C 945.414,21.4959 945.748,22.3292 946.5,23C 949.336,23.9211 952.002,25.0877 954.5,26.5C 954.5,27.5 954.5,28.5 954.5,29.5C 961.78,31.277 967.947,34.9437 973,40.5C 973.399,40.2716 973.565,39.9382 973.5,39.5C 975.167,40.5 976.5,41.8333 977.5,43.5C 978.5,45.1667 979.833,46.5 981.5,47.5C 982.5,47.8333 983.167,48.5 983.5,49.5C 986.516,53.8419 989.849,57.8419 993.5,61.5C 993.427,63.0269 994.094,64.0269 995.5,64.5C 997.341,66.8485 998.674,69.5152 999.5,72.5C 1003.13,80.0878 1006.46,87.7544 1009.5,95.5C 1009.51,100.215 1010.01,104.882 1011,109.5C 1011.38,110.056 1011.88,110.389 1012.5,110.5C 1012.5,110.833 1012.5,111.167 1012.5,111.5C 1013.45,156.488 1013.79,201.488 1013.5,246.5C 997.5,246.5 981.5,246.5 965.5,246.5C 965.83,239.8 965.497,233.134 964.5,226.5C 963.893,226.624 963.56,226.957 963.5,227.5C 963.5,228.167 963.167,228.5 962.5,228.5C 962.44,227.957 962.107,227.624 961.5,227.5C 958.633,229.163 955.967,230.83 953.5,232.5C 952.4,233.558 951.066,234.392 949.5,235C 948.748,235.671 948.414,236.504 948.5,237.5C 948.167,237.5 947.833,237.5 947.5,237.5C 947.44,236.957 947.107,236.624 946.5,236.5C 941.658,238.085 937.325,240.418 933.5,243.5C 929.5,244.833 925.5,246.167 921.5,247.5C 920.054,246.387 918.387,246.22 916.5,247C 914.881,247.236 913.881,248.069 913.5,249.5C 911.833,249.5 910.167,249.5 908.5,249.5C 908.083,248.876 907.416,248.543 906.5,248.5C 905.287,248.747 904.62,249.414 904.5,250.5C 897.167,250.5 889.833,250.5 882.5,250.5C 881.848,249.275 880.681,248.608 879,248.5C 877.615,248.514 876.449,248.848 875.5,249.5C 874.5,249.5 873.5,249.5 872.5,249.5C 870.159,247.149 867.159,246.149 863.5,246.5C 863.167,246.5 862.833,246.5 862.5,246.5C 853.738,242.293 844.738,238.293 835.5,234.5C 834.893,234.624 834.56,234.957 834.5,235.5C 834.167,235.5 833.833,235.5 833.5,235.5C 832.968,232.54 832.301,232.207 831.5,234.5C 830.662,234.158 830.328,233.492 830.5,232.5C 830.027,231.094 829.027,230.427 827.5,230.5C 826.738,228.738 825.404,227.738 823.5,227.5C 823.027,226.094 822.027,225.427 820.5,225.5C 820.167,225.5 819.833,225.5 819.5,225.5C 817.833,221.833 815.167,219.167 811.5,217.5C 809.5,214.833 807.167,212.5 804.5,210.5C 804.167,210.5 803.833,210.5 803.5,210.5C 803.378,207.708 802.044,205.708 799.5,204.5C 798.92,202.251 797.587,200.585 795.5,199.5C 795.573,197.973 794.906,196.973 793.5,196.5C 789.486,188.753 785.486,181.087 781.5,173.5C 781.843,171.517 781.176,170.183 779.5,169.5C 779.5,169.167 779.5,168.833 779.5,168.5C 775.31,149.949 773.31,131.282 773.5,112.5C 773.5,112.167 773.5,111.833 773.5,111.5C 774.586,111.38 775.253,110.713 775.5,109.5C 775.457,108.584 775.124,107.917 774.5,107.5C 774.5,106.5 774.5,105.5 774.5,104.5C 775.75,104.423 776.583,103.756 777,102.5C 777.373,100.302 777.873,98.1351 778.5,96C 778.43,95.2352 778.097,94.7352 777.5,94.5C 777.5,94.1667 777.5,93.8333 777.5,93.5C 781.035,90.43 783.035,86.43 783.5,81.5C 786.218,77.0047 788.551,72.338 790.5,67.5C 792.262,66.7377 793.262,65.4044 793.5,63.5C 794.906,63.0269 795.573,62.0269 795.5,60.5C 796.075,58.5887 797.075,56.922 798.5,55.5C 803.094,51.2446 807.761,46.9113 812.5,42.5C 817.354,37.9205 822.354,33.5872 827.5,29.5C 828.436,28.0256 829.77,27.0256 831.5,26.5C 831.435,26.9382 831.601,27.2716 832,27.5C 837.156,24.34 842.656,21.84 848.5,20C 850.319,19.2597 851.652,18.0931 852.5,16.5C 852.833,16.5 853.167,16.5 853.5,16.5C 853.56,17.0431 853.893,17.3764 854.5,17.5C 858.311,17.027 861.644,15.6936 864.5,13.5C 866.639,12.8419 868.639,11.8419 870.5,10.5 Z M 907.5,57.5 C 908.167,57.5 908.833,57.5 909.5,57.5C 916.714,59.3532 923.714,62.0198 930.5,65.5C 931.391,66.1098 932.391,66.4431 933.5,66.5C 933.414,67.4959 933.748,68.3292 934.5,69C 940.231,71.8996 945.231,75.733 949.5,80.5C 949.5,80.8333 949.5,81.1667 949.5,81.5C 952.478,86.4685 955.811,91.1352 959.5,95.5C 962.762,103.211 965.095,111.211 966.5,119.5C 966.5,119.833 966.5,120.167 966.5,120.5C 966.401,123.237 966.735,125.904 967.5,128.5C 967.5,129.833 967.5,131.167 967.5,132.5C 966.908,135.127 966.575,137.794 966.5,140.5C 966.5,140.833 966.5,141.167 966.5,141.5C 965.358,145.071 964.691,148.738 964.5,152.5C 962.991,155.678 961.658,159.011 960.5,162.5C 959.596,163.209 959.263,164.209 959.5,165.5C 958.504,165.414 957.671,165.748 957,166.5C 955.82,168.86 954.653,171.193 953.5,173.5C 951.178,174.802 949.845,176.802 949.5,179.5C 947.167,181.5 944.833,183.5 942.5,185.5C 939.17,187.169 936.503,189.502 934.5,192.5C 932.973,192.427 931.973,193.094 931.5,194.5C 926.32,196.264 921.32,198.264 916.5,200.5C 916.167,200.5 915.833,200.5 915.5,200.5C 910.521,201.608 905.521,202.608 900.5,203.5C 895.833,203.5 891.167,203.5 886.5,203.5C 878.526,202.59 870.859,200.59 863.5,197.5C 858.835,196.172 854.835,193.839 851.5,190.5C 850.5,189.833 849.5,189.167 848.5,188.5C 848.167,188.5 847.833,188.5 847.5,188.5C 845.761,185.757 843.427,183.757 840.5,182.5C 840.5,181.833 840.167,181.5 839.5,181.5C 838.588,178.253 836.588,175.92 833.5,174.5C 833.573,172.973 832.906,171.973 831.5,171.5C 831.573,169.973 830.906,168.973 829.5,168.5C 829.672,167.508 829.338,166.842 828.5,166.5C 824.763,158.225 822.263,149.558 821,140.5C 820.617,139.944 820.117,139.611 819.5,139.5C 819.5,132.833 819.5,126.167 819.5,119.5C 820.117,119.389 820.617,119.056 821,118.5C 822.536,109.061 825.369,100.061 829.5,91.5C 830.338,91.1583 830.672,90.4916 830.5,89.5C 832.262,88.7377 833.262,87.4044 833.5,85.5C 834.167,85.5 834.5,85.1667 834.5,84.5C 836.167,83.5 837.5,82.1667 838.5,80.5C 838.5,80.1667 838.5,79.8333 838.5,79.5C 841.167,77.5 843.5,75.1667 845.5,72.5C 847.027,72.573 848.027,71.9063 848.5,70.5C 848.833,70.5 849.167,70.5 849.5,70.5C 852.109,69.5569 854.109,67.8903 855.5,65.5C 858.485,64.6743 861.151,63.341 863.5,61.5C 867.048,60.8699 870.381,59.8699 873.5,58.5C 873.833,58.5 874.167,58.5 874.5,58.5C 875.791,58.7373 876.791,58.404 877.5,57.5C 878.5,57.5 879.5,57.5 880.5,57.5C 889.493,56.1993 898.493,56.1993 907.5,57.5 Z"/></g>
<g><path style="opacity:1" fill="#4f2681" d="M 1096.5,52.5 C 1125.33,53.498 1154.33,53.8314 1183.5,53.5C 1183.5,68.5 1183.5,83.5 1183.5,98.5C 1155.07,99.1588 1126.74,99.8254 1098.5,100.5C 1097.5,100.414 1096.67,100.748 1096,101.5C 1095.51,116.173 1095.68,130.84 1096.5,145.5C 1096.34,148.518 1096.5,151.518 1097,154.5C 1097.12,156.437 1097.95,157.77 1099.5,158.5C 1099.5,159.167 1099.5,159.833 1099.5,160.5C 1098.86,161.097 1098.53,161.93 1098.5,163C 1099.33,166.164 1100.17,169.331 1101,172.5C 1101.81,175.177 1103.31,177.177 1105.5,178.5C 1105.5,178.833 1105.5,179.167 1105.5,179.5C 1105.74,181.404 1106.74,182.738 1108.5,183.5C 1110.17,184.5 1111.5,185.833 1112.5,187.5C 1113.99,190.323 1116.33,191.99 1119.5,192.5C 1121.4,195.27 1123.73,196.604 1126.5,196.5C 1127.17,196.5 1127.83,196.5 1128.5,196.5C 1129.57,198.284 1131.24,199.451 1133.5,200C 1134.75,200.74 1135.75,200.573 1136.5,199.5C 1136.83,199.5 1137.17,199.5 1137.5,199.5C 1137.88,200.931 1138.88,201.764 1140.5,202C 1147.13,203.052 1153.79,203.552 1160.5,203.5C 1169.17,203.5 1177.83,203.5 1186.5,203.5C 1187.5,217.657 1187.83,231.99 1187.5,246.5C 1182.17,246.5 1176.83,246.5 1171.5,246.5C 1167.5,246.5 1163.5,246.5 1159.5,246.5C 1156.83,246.5 1154.17,246.5 1151.5,246.5C 1147.82,244.75 1143.82,244.083 1139.5,244.5C 1139.03,243.307 1138.03,242.64 1136.5,242.5C 1129.2,241.788 1122.2,240.121 1115.5,237.5C 1114.89,237.624 1114.56,237.957 1114.5,238.5C 1113.04,238.567 1111.71,238.234 1110.5,237.5C 1110.42,236.25 1109.76,235.417 1108.5,235C 1107.13,234.598 1105.79,234.098 1104.5,233.5C 1103.89,233.624 1103.56,233.957 1103.5,234.5C 1103.17,234.5 1102.83,234.5 1102.5,234.5C 1102.5,233.167 1101.83,232.5 1100.5,232.5C 1098.18,232.008 1096.18,231.008 1094.5,229.5C 1093.69,228.163 1092.52,227.163 1091,226.5C 1090.6,226.728 1090.43,227.062 1090.5,227.5C 1089.83,227.5 1089.5,227.167 1089.5,226.5C 1088.1,224.517 1086.26,222.851 1084,221.5C 1083.6,221.728 1083.43,222.062 1083.5,222.5C 1083.17,222.5 1082.83,222.5 1082.5,222.5C 1078.9,217.226 1074.56,212.559 1069.5,208.5C 1067.37,204.138 1065.03,199.804 1062.5,195.5C 1062.04,194.702 1061.38,194.369 1060.5,194.5C 1060.32,190.292 1058.99,186.626 1056.5,183.5C 1056.5,183.167 1056.5,182.833 1056.5,182.5C 1056.45,179.432 1055.95,176.432 1055,173.5C 1054.58,172.244 1053.75,171.577 1052.5,171.5C 1052.5,170.5 1052.5,169.5 1052.5,168.5C 1053.14,167.903 1053.47,167.07 1053.5,166C 1052.8,160.826 1052.13,155.659 1051.5,150.5C 1052.11,144.729 1051.45,139.396 1049.5,134.5C 1049.5,133.833 1049.5,133.167 1049.5,132.5C 1050.5,92.3368 1050.83,52.0034 1050.5,11.5C 1065.83,11.5 1081.17,11.5 1096.5,11.5C 1096.5,25.1667 1096.5,38.8333 1096.5,52.5 Z"/></g>
<g><path style="opacity:0.525" fill="#442a64" d="M 497.5,13.5 C 474.122,13.187 450.788,13.5203 427.5,14.5C 438.814,13.1677 450.48,12.501 462.5,12.5C 474.338,12.5001 486.005,12.8335 497.5,13.5 Z"/></g>
<g><path style="opacity:0.526" fill="#462b66" d="M 743.5,13.5 C 714.438,12.9841 685.438,13.6508 656.5,15.5C 660.301,14.3611 664.301,13.5277 668.5,13C 693.67,12.17 718.67,12.3367 743.5,13.5 Z"/></g>
<g><path style="opacity:0.482" fill="#453558" d="M 1522.5,14.5 C 1507.24,13.5166 1491.91,13.1832 1476.5,13.5C 1475.5,54.9967 1475.17,96.6633 1475.5,138.5C 1474.5,96.67 1474.17,54.67 1474.5,12.5C 1490.87,11.8486 1506.87,12.5152 1522.5,14.5 Z"/></g>
<g><path style="opacity:0.459" fill="#3c2851" d="M 145.5,12.5 C 150.158,13.0889 154.491,14.4222 158.5,16.5C 158.44,17.0431 158.107,17.3764 157.5,17.5C 153.228,16.1203 149.228,14.4536 145.5,12.5 Z"/></g>
<g><path style="opacity:1" fill="#502681" d="M 308.5,13.5 C 308.5,52.8333 308.5,92.1667 308.5,131.5C 307.945,135.012 308.612,138.012 310.5,140.5C 310.5,140.833 310.5,141.167 310.5,141.5C 309.84,142.964 309.507,144.631 309.5,146.5C 309.918,150.843 310.418,155.176 311,159.5C 311.122,161.437 311.955,162.77 313.5,163.5C 313.5,163.833 313.5,164.167 313.5,164.5C 312.821,168.149 313.821,171.483 316.5,174.5C 318.008,176.181 319.008,178.181 319.5,180.5C 323.539,187.198 329.206,192.198 336.5,195.5C 337.107,195.376 337.44,195.043 337.5,194.5C 338.167,194.833 338.833,195.167 339.5,195.5C 339.577,196.75 340.244,197.583 341.5,198C 344.172,198.834 346.839,199.668 349.5,200.5C 350.107,200.376 350.44,200.043 350.5,199.5C 351.167,199.5 351.833,199.5 352.5,199.5C 353.23,201.045 354.563,201.878 356.5,202C 361.156,202.665 365.823,203.165 370.5,203.5C 379.5,203.5 388.5,203.5 397.5,203.5C 398.496,217.657 398.829,231.99 398.5,246.5C 396.821,246.285 395.821,246.952 395.5,248.5C 389.167,248.5 382.833,248.5 376.5,248.5C 375.448,246.744 373.781,246.077 371.5,246.5C 363.793,244.235 355.793,243.235 347.5,243.5C 346.5,243.5 345.5,243.5 344.5,243.5C 344.119,242.069 343.119,241.236 341.5,241C 336.898,240.224 332.398,239.058 328,237.5C 327.235,237.57 326.735,237.903 326.5,238.5C 326.167,238.5 325.833,238.5 325.5,238.5C 324.816,236.815 323.483,235.815 321.5,235.5C 320.893,235.624 320.56,235.957 320.5,236.5C 319.833,236.5 319.167,236.5 318.5,236.5C 317.513,233.914 315.513,232.581 312.5,232.5C 310.716,232.107 309.05,231.441 307.5,230.5C 307.063,228.926 306.063,227.759 304.5,227C 295.803,222.138 288.136,215.972 281.5,208.5C 275.726,199.61 271.56,189.943 269,179.5C 268.502,177.456 267.335,176.122 265.5,175.5C 265.833,174.833 266.167,174.167 266.5,173.5C 265.574,166.352 264.574,159.352 263.5,152.5C 263.88,150.302 263.213,148.635 261.5,147.5C 261.5,142.833 261.5,138.167 261.5,133.5C 262.499,93.6701 262.832,53.6701 262.5,13.5C 277.833,13.5 293.167,13.5 308.5,13.5 Z"/></g>
<g><path style="opacity:0.99" fill="#4f2681" d="M 497.5,13.5 C 500.881,13.4595 504.214,13.7929 507.5,14.5C 509.78,16.2227 512.447,16.8893 515.5,16.5C 516.5,16.5 517.5,16.5 518.5,16.5C 518.577,17.7498 519.244,18.5831 520.5,19C 522,19.5 523.5,20 525,20.5C 525.765,20.4301 526.265,20.0967 526.5,19.5C 526.833,19.5 527.167,19.5 527.5,19.5C 527.711,21.4241 528.377,21.7574 529.5,20.5C 530.833,20.8333 532.167,21.1667 533.5,21.5C 533.369,22.3764 533.702,23.0431 534.5,23.5C 535.687,24.6527 536.687,24.6527 537.5,23.5C 537.833,23.5 538.167,23.5 538.5,23.5C 539.035,25.4456 540.368,26.4456 542.5,26.5C 542.833,26.5 543.167,26.5 543.5,26.5C 543.821,28.0481 544.821,28.7148 546.5,28.5C 546.937,30.0744 547.937,31.2411 549.5,32C 552.249,33.1227 554.749,34.6227 557,36.5C 557.399,36.2716 557.565,35.9382 557.5,35.5C 557.833,35.5 558.167,35.5 558.5,35.5C 558.859,37.371 559.859,38.871 561.5,40C 564.397,42.41 567.397,44.5767 570.5,46.5C 571.5,46.8333 572.167,47.5 572.5,48.5C 575.71,52.9206 579.377,56.9206 583.5,60.5C 585.921,63.1357 587.588,62.469 588.5,58.5C 588.5,57.8333 588.833,57.5 589.5,57.5C 596.225,51.7772 602.225,45.4439 607.5,38.5C 607.973,37.0937 608.973,36.427 610.5,36.5C 610.435,36.9382 610.601,37.2716 611,37.5C 615.247,34.2916 619.747,31.4583 624.5,29C 627.043,27.6181 629.043,25.7848 630.5,23.5C 630.833,23.5 631.167,23.5 631.5,23.5C 631.56,24.0431 631.893,24.3764 632.5,24.5C 634.213,24.1207 635.213,23.1207 635.5,21.5C 637.746,20.5448 640.079,19.8782 642.5,19.5C 642.56,20.0431 642.893,20.3764 643.5,20.5C 647.353,18.8944 651.353,17.7278 655.5,17C 656.056,16.6174 656.389,16.1174 656.5,15.5C 685.438,13.6508 714.438,12.9841 743.5,13.5C 743.5,91.8333 743.5,170.167 743.5,248.5C 728.167,248.5 712.833,248.5 697.5,248.5C 696.84,185.373 696.174,122.373 695.5,59.5C 692.402,58.179 688.902,57.5123 685,57.5C 681.098,57.5123 677.598,58.179 674.5,59.5C 673.5,59.5 672.5,59.5 671.5,59.5C 668.382,57.9932 665.715,58.6599 663.5,61.5C 663.167,61.5 662.833,61.5 662.5,61.5C 662.265,60.9033 661.765,60.5699 661,60.5C 658.226,61.5358 655.393,62.3691 652.5,63C 651.244,63.4169 650.577,64.2502 650.5,65.5C 649.609,66.1098 648.609,66.4431 647.5,66.5C 645.027,66.0882 643.694,67.0882 643.5,69.5C 641.95,70.4408 640.284,71.1075 638.5,71.5C 638.565,71.0618 638.399,70.7284 638,70.5C 635.809,71.8334 633.976,73.5 632.5,75.5C 632.167,76.5 631.5,77.1667 630.5,77.5C 630.565,77.0618 630.399,76.7284 630,76.5C 626.511,79.4718 623.678,82.8051 621.5,86.5C 616.97,90.8847 613.97,96.2181 612.5,102.5C 612.5,102.833 612.5,103.167 612.5,103.5C 611.662,103.842 611.328,104.508 611.5,105.5C 610.113,107.877 609.279,110.543 609,113.5C 608.823,158.541 608.323,203.541 607.5,248.5C 593.167,248.5 578.833,248.5 564.5,248.5C 563.677,204.541 563.177,160.541 563,116.5C 562.261,112.699 560.761,109.366 558.5,106.5C 558.5,106.167 558.5,105.833 558.5,105.5C 558.771,103.62 558.104,102.287 556.5,101.5C 556.5,101.167 556.5,100.833 556.5,100.5C 555.864,98.2054 554.531,96.5387 552.5,95.5C 552.5,95.1667 552.5,94.8333 552.5,94.5C 551.567,91.6298 549.9,89.2964 547.5,87.5C 546.833,87.5 546.5,87.1667 546.5,86.5C 544.139,82.139 540.806,78.8057 536.5,76.5C 532.185,71.6687 526.852,68.3353 520.5,66.5C 517.828,65.4986 515.162,64.4986 512.5,63.5C 511.365,61.7868 509.698,61.1201 507.5,61.5C 506.833,61.5 506.167,61.5 505.5,61.5C 503.618,58.782 501.285,58.1153 498.5,59.5C 497.5,59.5 496.5,59.5 495.5,59.5C 495.082,58.7784 494.416,58.2784 493.5,58C 490.5,57.8333 487.5,57.6667 484.5,57.5C 481.061,57.5536 477.894,58.2203 475,59.5C 474.5,122.499 474.333,185.499 474.5,248.5C 458.833,248.5 443.167,248.5 427.5,248.5C 427.5,170.5 427.5,92.5 427.5,14.5C 450.788,13.5203 474.122,13.187 497.5,13.5 Z"/></g>
<g><path style="opacity:0.551" fill="#3c2a50" d="M 920.5,12.5 C 924.083,13.0073 927.417,14.0073 930.5,15.5C 926.655,15.7122 923.321,14.7122 920.5,12.5 Z"/></g>
<g><path style="opacity:0.122" fill="#362d41" d="M 1097.5,51.5 C 1097.5,52.1667 1097.17,52.5 1096.5,52.5C 1096.5,38.8333 1096.5,25.1667 1096.5,11.5C 1081.17,11.5 1065.83,11.5 1050.5,11.5C 1050.83,52.0034 1050.5,92.3368 1049.5,132.5C 1049.5,91.5 1049.5,50.5 1049.5,9.5C 1065.17,9.33341 1080.84,9.50008 1096.5,10C 1097,10.5 1097.5,11 1098,11.5C 1098.81,24.9085 1098.65,38.2418 1097.5,51.5 Z"/></g>
<g><path style="opacity:0.995" fill="#4f2681" d="M 1476.5,13.5 C 1491.91,13.1832 1507.24,13.5166 1522.5,14.5C 1521.97,59.8637 1522.64,105.197 1524.5,150.5C 1524.34,154.582 1524.84,158.582 1526,162.5C 1527.73,166.363 1529.07,170.363 1530,174.5C 1531.28,176.747 1532.78,178.747 1534.5,180.5C 1536.17,184.167 1538.83,186.833 1542.5,188.5C 1542.83,188.5 1543.17,188.5 1543.5,188.5C 1544.04,191.919 1546.04,193.586 1549.5,193.5C 1551.98,194.883 1554.64,195.883 1557.5,196.5C 1557.41,197.496 1557.75,198.329 1558.5,199C 1560.36,199.422 1562.19,199.922 1564,200.5C 1564.76,200.43 1565.26,200.097 1565.5,199.5C 1566.17,199.5 1566.83,199.5 1567.5,199.5C 1567.88,200.931 1568.88,201.764 1570.5,202C 1575.5,202.611 1580.5,203.111 1585.5,203.5C 1594.83,203.5 1604.17,203.5 1613.5,203.5C 1613.5,218.5 1613.5,233.5 1613.5,248.5C 1605.5,248.5 1597.5,248.5 1589.5,248.5C 1588.45,246.744 1586.78,246.077 1584.5,246.5C 1582.83,246.5 1581.17,246.5 1579.5,246.5C 1575.46,244.823 1571.12,244.156 1566.5,244.5C 1566.17,244.5 1565.83,244.5 1565.5,244.5C 1557.59,241.775 1549.26,239.775 1540.5,238.5C 1539.83,238.5 1539.17,238.5 1538.5,238.5C 1534.17,236.151 1529.84,233.485 1525.5,230.5C 1523.22,229.579 1520.89,228.913 1518.5,228.5C 1516.52,227.529 1514.52,226.529 1512.5,225.5C 1512.59,224.504 1512.25,223.671 1511.5,223C 1508.27,220.259 1504.94,217.759 1501.5,215.5C 1497.83,210.828 1494.16,206.161 1490.5,201.5C 1490.57,199.973 1489.91,198.973 1488.5,198.5C 1487.33,197.486 1486.66,196.153 1486.5,194.5C 1484.45,189.145 1482.78,183.645 1481.5,178C 1481.16,176.97 1480.5,176.47 1479.5,176.5C 1479.5,176.167 1479.5,175.833 1479.5,175.5C 1480.12,175.083 1480.46,174.416 1480.5,173.5C 1479.43,167.034 1478.43,160.701 1477.5,154.5C 1476.53,107.517 1476.2,60.5166 1476.5,13.5 Z"/></g>
<g><path style="opacity:0.224" fill="#2c2632" d="M 308.5,12.5 C 309.117,12.6107 309.617,12.944 310,13.5C 310.5,52.8319 310.667,92.1653 310.5,131.5C 309.833,131.5 309.167,131.5 308.5,131.5C 308.5,92.1667 308.5,52.8333 308.5,13.5C 308.5,13.1667 308.5,12.8333 308.5,12.5 Z"/></g>
<g><path style="opacity:0.851" fill="#4b2b72" d="M 1476.5,13.5 C 1476.2,60.5166 1476.53,107.517 1477.5,154.5C 1476.83,153.5 1476.17,152.5 1475.5,151.5C 1475.5,147.167 1475.5,142.833 1475.5,138.5C 1475.17,96.6633 1475.5,54.9967 1476.5,13.5 Z"/></g>
<g><path style="opacity:0.384" fill="#362748" d="M 308.5,12.5 C 308.5,12.8333 308.5,13.1667 308.5,13.5C 293.167,13.5 277.833,13.5 262.5,13.5C 262.832,53.6701 262.499,93.6701 261.5,133.5C 261.827,93.7905 261.494,54.1238 260.5,14.5C 260.709,13.914 261.043,13.414 261.5,13C 277.163,12.5001 292.83,12.3334 308.5,12.5 Z"/></g>
<g><path style="opacity:0.353" fill="#3e304e" d="M 507.5,14.5 C 510.373,14.8023 513.039,15.469 515.5,16.5C 512.447,16.8893 509.78,16.2227 507.5,14.5 Z"/></g>
<g><path style="opacity:0.361" fill="#432961" d="M 864.5,13.5 C 861.644,15.6936 858.311,17.027 854.5,17.5C 853.893,17.3764 853.56,17.0431 853.5,16.5C 856.907,14.9257 860.573,13.9257 864.5,13.5 Z"/></g>
<g><path style="opacity:0.402" fill="#3a2a4b" d="M 160.5,16.5 C 162.987,17.3228 165.321,18.3228 167.5,19.5C 167.44,20.0431 167.107,20.3764 166.5,20.5C 163.967,19.696 161.967,18.3627 160.5,16.5 Z"/></g>
<g><path style="opacity:0.243" fill="#402c56" d="M 518.5,16.5 C 521.167,17.5 523.833,18.5 526.5,19.5C 526.265,20.0967 525.765,20.4301 525,20.5C 523.5,20 522,19.5 520.5,19C 519.244,18.5831 518.577,17.7498 518.5,16.5 Z"/></g>
<g><path style="opacity:0.549" fill="#452c62" d="M 83.5,14.5 C 79.4634,17.6132 75.1301,19.2799 70.5,19.5C 74.377,16.8705 78.7103,15.2038 83.5,14.5 Z"/></g>
<g><path style="opacity:0.58" fill="#422b5d" d="M 656.5,15.5 C 656.389,16.1174 656.056,16.6174 655.5,17C 651.353,17.7278 647.353,18.8944 643.5,20.5C 642.893,20.3764 642.56,20.0431 642.5,19.5C 646.805,17.2538 651.471,15.9205 656.5,15.5 Z"/></g>
<g><path style="opacity:0.596" fill="#3e2b54" d="M 931.5,15.5 C 936.144,16.5995 940.478,18.2661 944.5,20.5C 944.44,21.0431 944.107,21.3764 943.5,21.5C 939.212,19.7899 935.212,17.7899 931.5,15.5 Z"/></g>
<g><path style="opacity:0.406" fill="#402b58" d="M 1370.5,14.5 C 1378.12,17.2597 1385.45,20.593 1392.5,24.5C 1392.63,25.2389 1392.46,25.9056 1392,26.5C 1390.93,25.8095 1389.77,25.3095 1388.5,25C 1382.5,21.1769 1376.5,17.6769 1370.5,14.5 Z"/></g>
<g><path style="opacity:0.416" fill="#3e2f4f" d="M 527.5,19.5 C 528.492,19.3284 529.158,19.6618 529.5,20.5C 528.377,21.7574 527.711,21.4241 527.5,19.5 Z"/></g>
<g><path style="opacity:0.462" fill="#452d60" d="M 852.5,16.5 C 851.652,18.0931 850.319,19.2597 848.5,20C 842.656,21.84 837.156,24.34 832,27.5C 831.601,27.2716 831.435,26.9382 831.5,26.5C 837.872,22.0326 844.872,18.6993 852.5,16.5 Z"/></g>
<g><path style="opacity:0.298" fill="#3f2f50" d="M 533.5,21.5 C 534.995,21.9887 536.329,22.6554 537.5,23.5C 536.687,24.6527 535.687,24.6527 534.5,23.5C 533.702,23.0431 533.369,22.3764 533.5,21.5 Z"/></g>
<g><path style="opacity:0.331" fill="#402b58" d="M 66.5,20.5 C 63.0774,24.3908 58.7441,27.0575 53.5,28.5C 57.2951,25.0955 61.6285,22.4288 66.5,20.5 Z"/></g>
<g><path style="opacity:0.604" fill="#43305b" d="M 635.5,21.5 C 635.213,23.1207 634.213,24.1207 632.5,24.5C 631.893,24.3764 631.56,24.0431 631.5,23.5C 632.514,22.3263 633.847,21.6596 635.5,21.5 Z"/></g>
<g><path style="opacity:0.027" fill="#3d2c50" d="M 945.5,20.5 C 949.088,21.7783 952.088,23.7783 954.5,26.5C 952.002,25.0877 949.336,23.9211 946.5,23C 945.748,22.3292 945.414,21.4959 945.5,20.5 Z"/></g>
<g><path style="opacity:0.322" fill="#442d60" d="M 168.5,19.5 C 173.014,20.7137 176.681,23.0471 179.5,26.5C 176.161,24.386 172.495,23.0526 168.5,22.5C 168.5,21.5 168.5,20.5 168.5,19.5 Z"/></g>
<g><path style="opacity:0.275" fill="#3b3046" d="M 538.5,23.5 C 540.632,23.5544 541.965,24.5544 542.5,26.5C 540.368,26.4456 539.035,25.4456 538.5,23.5 Z"/></g>
<g><path style="opacity:0.557" fill="#3a284e" d="M 543.5,26.5 C 544.71,26.9321 545.71,27.5987 546.5,28.5C 544.821,28.7148 543.821,28.0481 543.5,26.5 Z"/></g>
<g><path style="opacity:0.924" fill="#47296a" d="M 1269.5,26.5 C 1269.5,27.5 1269.5,28.5 1269.5,29.5C 1267.08,29.8782 1264.75,30.5448 1262.5,31.5C 1264.3,29.1 1266.63,27.4333 1269.5,26.5 Z"/></g>
<g><path style="opacity:0.573" fill="#402a5a" d="M 180.5,26.5 C 182.67,28.0862 185.004,29.4196 187.5,30.5C 187.44,31.0431 187.107,31.3764 186.5,31.5C 183.574,30.7349 181.574,29.0683 180.5,26.5 Z"/></g>
<g><path style="opacity:0.898" fill="#452d62" d="M 53.5,28.5 C 52.9717,29.7206 52.305,30.8873 51.5,32C 48.7583,33.0704 46.2583,34.5704 44,36.5C 43.6012,36.2716 43.4346,35.9382 43.5,35.5C 46.2749,32.3954 49.6082,30.0621 53.5,28.5 Z"/></g>
<g><path style="opacity:0.357" fill="#402b58" d="M 630.5,23.5 C 629.043,25.7848 627.043,27.6181 624.5,29C 619.747,31.4583 615.247,34.2916 611,37.5C 610.601,37.2716 610.435,36.9382 610.5,36.5C 616.799,31.6787 623.465,27.3454 630.5,23.5 Z"/></g>
<g><path style="opacity:0.278" fill="#462b66" d="M 1397.5,28.5 C 1400.87,31.1775 1404.21,33.8442 1407.5,36.5C 1407.5,36.8333 1407.5,37.1667 1407.5,37.5C 1402.91,35.8757 1399.58,32.8757 1397.5,28.5 Z"/></g>
<g><path style="opacity:0.192" fill="#432c5f" d="M 546.5,28.5 C 550.683,30.0875 554.35,32.4208 557.5,35.5C 557.565,35.9382 557.399,36.2716 557,36.5C 554.749,34.6227 552.249,33.1227 549.5,32C 547.937,31.2411 546.937,30.0744 546.5,28.5 Z"/></g>
<g><path style="opacity:0.222" fill="#3f3250" d="M 188.5,31.5 C 192.603,33.2164 195.936,35.8831 198.5,39.5C 198.565,39.9382 198.399,40.2716 198,40.5C 194.78,37.3523 191.614,34.3523 188.5,31.5 Z"/></g>
<g><path style="opacity:0.635" fill="#452c63" d="M 954.5,26.5 C 961.71,29.6008 968.043,33.9341 973.5,39.5C 973.565,39.9382 973.399,40.2716 973,40.5C 967.947,34.9437 961.78,31.277 954.5,29.5C 954.5,28.5 954.5,27.5 954.5,26.5 Z"/></g>
<g><path style="opacity:0.208" fill="#452e60" d="M 827.5,29.5 C 822.354,33.5872 817.354,37.9205 812.5,42.5C 812.5,42.1667 812.5,41.8333 812.5,41.5C 813.228,39.2654 814.561,37.4321 816.5,36C 820.222,33.8104 823.889,31.6437 827.5,29.5 Z"/></g>
<g><path style="opacity:0.004" fill="#2e2437" d="M 1407.5,36.5 C 1411.54,39.5367 1414.87,43.2034 1417.5,47.5C 1413.83,44.5 1410.5,41.1667 1407.5,37.5C 1407.5,37.1667 1407.5,36.8333 1407.5,36.5 Z"/></g>
<g><path style="opacity:0.278" fill="#3a2f47" d="M 1261.5,31.5 C 1261.59,32.4959 1261.25,33.3292 1260.5,34C 1257.12,35.6863 1254.12,37.853 1251.5,40.5C 1253.92,36.6005 1257.26,33.6005 1261.5,31.5 Z"/></g>
<g><path style="opacity:0.016" fill="#32293b" d="M 199.5,40.5 C 201.773,40.9568 203.106,42.2901 203.5,44.5C 201.659,43.5977 200.326,42.2644 199.5,40.5 Z"/></g>
<g><path style="opacity:0.255" fill="#432e5a" d="M 558.5,35.5 C 563.126,38.4578 567.126,42.1245 570.5,46.5C 567.397,44.5767 564.397,42.41 561.5,40C 559.859,38.871 558.859,37.371 558.5,35.5 Z"/></g>
<g><path style="opacity:0.6" fill="#463060" d="M 42.5,35.5 C 38.2269,41.4422 33.2269,46.7756 27.5,51.5C 27.5,50.8333 27.5,50.1667 27.5,49.5C 32.5261,44.8053 37.5261,40.1387 42.5,35.5 Z"/></g>
<g><path style="opacity:0.035" fill="#332d39" d="M 977.5,43.5 C 979.833,43.8333 981.167,45.1667 981.5,47.5C 979.833,46.5 978.5,45.1667 977.5,43.5 Z"/></g>
<g><path style="opacity:0.035" fill="#2f2a35" d="M 203.5,44.5 C 205.5,44.5 206.5,45.5 206.5,47.5C 205.167,46.8333 204.167,45.8333 203.5,44.5 Z"/></g>
<g><path style="opacity:0.102" fill="#33293c" d="M 1248.5,43.5 C 1246.79,45.8818 1244.79,47.8818 1242.5,49.5C 1243.52,46.4777 1245.52,44.4777 1248.5,43.5 Z"/></g>
<g><path style="opacity:0.333" fill="#392b48" d="M 812.5,41.5 C 812.5,41.8333 812.5,42.1667 812.5,42.5C 807.761,46.9113 803.094,51.2446 798.5,55.5C 802.188,49.8121 806.855,45.1454 812.5,41.5 Z"/></g>
<g><path style="opacity:0.112" fill="#44305b" d="M 607.5,38.5 C 602.225,45.4439 596.225,51.7772 589.5,57.5C 590.072,55.7446 590.906,54.0779 592,52.5C 597.336,47.9961 602.503,43.3295 607.5,38.5 Z"/></g>
<g><path style="opacity:0.055" fill="#352a41" d="M 1417.5,47.5 C 1420.14,48.1439 1421.81,49.8106 1422.5,52.5C 1419.83,51.8333 1418.17,50.1667 1417.5,47.5 Z"/></g>
<g><path style="opacity:0.327" fill="#462a6a" d="M 1097.5,51.5 C 1126.17,51.5 1154.83,51.5 1183.5,51.5C 1183.5,52.1667 1183.5,52.8333 1183.5,53.5C 1154.33,53.8314 1125.33,53.498 1096.5,52.5C 1097.17,52.5 1097.5,52.1667 1097.5,51.5 Z"/></g>
<g><path style="opacity:0.265" fill="#403152" d="M 206.5,47.5 C 211.617,51.2781 215.617,55.9448 218.5,61.5C 214.132,57.1334 210.132,52.4667 206.5,47.5 Z"/></g>
<g><path style="opacity:0.004" fill="#302a37" d="M 1339.5,54.5 C 1334.46,53.4631 1329.46,53.4631 1324.5,54.5C 1326.57,53.1914 1329.07,52.5248 1332,52.5C 1334.93,52.5248 1337.43,53.1914 1339.5,54.5 Z"/></g>
<g><path style="opacity:0.504" fill="#412c5a" d="M 155.5,65.5 C 138.74,57.2481 121.073,54.5814 102.5,57.5C 102.5,56.8333 102.167,56.5 101.5,56.5C 119.923,52.1802 137.589,54.5136 154.5,63.5C 155.298,63.9569 155.631,64.6236 155.5,65.5 Z"/></g>
<g><path style="opacity:0.491" fill="#45305c" d="M 907.5,57.5 C 898.493,56.1993 889.493,56.1993 880.5,57.5C 881.347,56.0337 882.68,55.2004 884.5,55C 891.36,54.2608 898.193,54.4275 905,55.5C 906.376,55.6842 907.209,56.3509 907.5,57.5 Z"/></g>
<g><path style="opacity:0.086" fill="#40344f" d="M 1183.5,51.5 C 1184.12,51.6107 1184.62,51.944 1185,52.5C 1185.67,68.1667 1185.67,83.8333 1185,99.5C 1184.62,100.056 1184.12,100.389 1183.5,100.5C 1183.5,99.8333 1183.5,99.1667 1183.5,98.5C 1183.5,83.5 1183.5,68.5 1183.5,53.5C 1183.5,52.8333 1183.5,52.1667 1183.5,51.5 Z"/></g>
<g><path style="opacity:0.043" fill="#3e324c" d="M 1347.5,55.5 C 1345.9,55.7678 1344.57,55.4345 1343.5,54.5C 1343.92,53.8761 1344.58,53.5427 1345.5,53.5C 1346.71,53.7472 1347.38,54.4138 1347.5,55.5 Z"/></g>
<g><path style="opacity:0.522" fill="#3d2c50" d="M 1241.5,50.5 C 1240.74,54.3696 1238.74,57.3696 1235.5,59.5C 1237.25,56.3197 1239.25,53.3197 1241.5,50.5 Z"/></g>
<g><path style="opacity:0.047" fill="#392d46" d="M 1320.5,54.5 C 1316.95,55.6152 1313.29,56.6152 1309.5,57.5C 1309.41,56.5041 1309.75,55.6708 1310.5,55C 1313,54.5 1315.5,54 1318,53.5C 1319.07,53.528 1319.9,53.8614 1320.5,54.5 Z"/></g>
<g><path style="opacity:0.059" fill="#392f45" d="M 1350.5,56.5 C 1349.51,56.6716 1348.84,56.3382 1348.5,55.5C 1349.62,54.2426 1350.29,54.5759 1350.5,56.5 Z"/></g>
<g><path style="opacity:0.431" fill="#372945" d="M 572.5,48.5 C 574.716,49.2026 576.549,50.5359 578,52.5C 580.08,55.0652 581.913,57.7318 583.5,60.5C 579.377,56.9206 575.71,52.9206 572.5,48.5 Z"/></g>
<g><path style="opacity:0.125" fill="#3e2c52" d="M 1351.5,56.5 C 1352.95,55.1148 1353.95,55.4482 1354.5,57.5C 1353.39,57.4431 1352.39,57.1098 1351.5,56.5 Z"/></g>
<g><path style="opacity:0.325" fill="#382c46" d="M 27.5,49.5 C 27.5,50.1667 27.5,50.8333 27.5,51.5C 25.883,54.7843 23.5497,57.4509 20.5,59.5C 22.8369,56.1185 25.1703,52.7851 27.5,49.5 Z"/></g>
<g><path style="opacity:0.008" fill="#31293b" d="M 101.5,56.5 C 102.167,56.5 102.5,56.8333 102.5,57.5C 101.791,58.404 100.791,58.7373 99.5,58.5C 99.5,57.1667 100.167,56.5 101.5,56.5 Z"/></g>
<g><path style="opacity:0.565" fill="#3f3051" d="M 695.5,59.5 C 688.5,59.5 681.5,59.5 674.5,59.5C 677.598,58.179 681.098,57.5123 685,57.5C 688.902,57.5123 692.402,58.179 695.5,59.5 Z"/></g>
<g><path style="opacity:0.008" fill="#32293c" d="M 877.5,57.5 C 876.791,58.404 875.791,58.7373 874.5,58.5C 875.053,56.4482 876.053,56.1148 877.5,57.5 Z"/></g>
<g><path style="opacity:0.141" fill="#3d2f4b" d="M 1307.5,57.5 C 1307.16,58.3382 1306.49,58.6716 1305.5,58.5C 1305.71,56.5759 1306.38,56.2426 1307.5,57.5 Z"/></g>
<g><path style="opacity:0.435" fill="#402f53" d="M 1422.5,52.5 C 1424.08,54.6626 1425.42,56.9959 1426.5,59.5C 1423.89,57.9478 1422.55,55.6145 1422.5,52.5 Z"/></g>
<g><path style="opacity:0.173" fill="#3f2b56" d="M 873.5,58.5 C 870.381,59.8699 867.048,60.8699 863.5,61.5C 866.517,58.8214 869.851,57.8214 873.5,58.5 Z"/></g>
<g><path style="opacity:0.216" fill="#3e2d52" d="M 1362.5,60.5 C 1359.98,59.7362 1357.65,58.7362 1355.5,57.5C 1358.37,56.6912 1360.7,57.6912 1362.5,60.5 Z"/></g>
<g><path style="opacity:0.231" fill="#433159" d="M 505.5,61.5 C 502.99,61.0733 500.657,60.4067 498.5,59.5C 501.285,58.1153 503.618,58.782 505.5,61.5 Z"/></g>
<g><path style="opacity:0.475" fill="#45315d" d="M 671.5,59.5 C 669.039,60.531 666.373,61.1977 663.5,61.5C 665.715,58.6599 668.382,57.9932 671.5,59.5 Z"/></g>
<g><path style="opacity:0.294" fill="#3f2f52" d="M 983.5,49.5 C 987.957,52.6187 991.291,56.6187 993.5,61.5C 989.849,57.8419 986.516,53.8419 983.5,49.5 Z"/></g>
<g><path style="opacity:0.314" fill="#3f2a57" d="M 98.5,58.5 C 92.464,60.5194 86.464,62.8527 80.5,65.5C 81.5736,64.1154 82.9069,62.9487 84.5,62C 88.7205,60.6393 92.8872,59.1393 97,57.5C 97.7648,57.5699 98.2648,57.9033 98.5,58.5 Z"/></g>
<g><path style="opacity:0.188" fill="#40364b" d="M 695.5,59.5 C 696.174,122.373 696.84,185.373 697.5,248.5C 696.504,248.586 695.671,248.252 695,247.5C 694.171,184.763 694.337,122.096 695.5,59.5 Z"/></g>
<g><path style="opacity:0.167" fill="#402d56" d="M 1304.5,58.5 C 1299.7,60.4422 1295.03,62.7755 1290.5,65.5C 1293.9,61.6185 1298.23,58.9519 1303.5,57.5C 1304.11,57.6236 1304.44,57.9569 1304.5,58.5 Z"/></g>
<g><path style="opacity:0.576" fill="#3f2d54" d="M 507.5,61.5 C 509.698,61.1201 511.365,61.7868 512.5,63.5C 510.597,63.2041 508.93,62.5375 507.5,61.5 Z"/></g>
<g><path style="opacity:0.702" fill="#45305e" d="M 588.5,58.5 C 587.588,62.469 585.921,63.1357 583.5,60.5C 585.514,60.6085 587.18,59.9418 588.5,58.5 Z"/></g>
<g><path style="opacity:0.624" fill="#3f2a56" d="M 930.5,65.5 C 923.714,62.0198 916.714,59.3532 909.5,57.5C 916.45,57.5851 923.117,59.5851 929.5,63.5C 930.298,63.9569 930.631,64.6236 930.5,65.5 Z"/></g>
<g><path style="opacity:0.357" fill="#3b2b4f" d="M 1363.5,60.5 C 1365.38,60.2291 1366.71,60.8958 1367.5,62.5C 1365.85,62.3404 1364.51,61.6737 1363.5,60.5 Z"/></g>
<g><path style="opacity:0.345" fill="#3b2e4c" d="M 1426.5,59.5 C 1427.91,59.9731 1428.57,60.9731 1428.5,62.5C 1427.09,62.0269 1426.43,61.0269 1426.5,59.5 Z"/></g>
<g><path style="opacity:0.365" fill="#3a3145" d="M 495.5,59.5 C 489.167,59.5 482.833,59.5 476.5,59.5C 476.667,121.834 476.5,184.168 476,246.5C 475.722,247.416 475.222,248.082 474.5,248.5C 474.333,185.499 474.5,122.499 475,59.5C 477.894,58.2203 481.061,57.5536 484.5,57.5C 487.5,57.6667 490.5,57.8333 493.5,58C 494.416,58.2784 495.082,58.7784 495.5,59.5 Z"/></g>
<g><path style="opacity:0.4" fill="#422a5c" d="M 662.5,61.5 C 658.624,63.1373 654.624,64.4706 650.5,65.5C 650.577,64.2502 651.244,63.4169 652.5,63C 655.393,62.3691 658.226,61.5358 661,60.5C 661.765,60.5699 662.265,60.9033 662.5,61.5 Z"/></g>
<g><path style="opacity:0.404" fill="#403051" d="M 795.5,60.5 C 795.573,62.0269 794.906,63.0269 793.5,63.5C 793.427,61.9731 794.094,60.9731 795.5,60.5 Z"/></g>
<g><path style="opacity:0.169" fill="#372c43" d="M 1235.5,59.5 C 1234.86,61.7946 1233.53,63.4613 1231.5,64.5C 1232.14,62.2054 1233.47,60.5387 1235.5,59.5 Z"/></g>
<g><path style="opacity:0.196" fill="#3b3245" d="M 993.5,61.5 C 994.906,61.9731 995.573,62.9731 995.5,64.5C 994.094,64.0269 993.427,63.0269 993.5,61.5 Z"/></g>
<g><path style="opacity:0.349" fill="#402f53" d="M 218.5,61.5 C 219.89,62.8993 220.89,64.5659 221.5,66.5C 219.241,65.656 218.241,63.9893 218.5,61.5 Z"/></g>
<g><path style="opacity:0.506" fill="#382c48" d="M 793.5,63.5 C 793.262,65.4044 792.262,66.7377 790.5,67.5C 790.468,65.3812 791.468,64.0478 793.5,63.5 Z"/></g>
<g><path style="opacity:0.082" fill="#3b2c4d" d="M 80.5,65.5 C 79.32,68.0978 77.32,69.7645 74.5,70.5C 75.2678,67.4384 77.2678,65.7717 80.5,65.5 Z"/></g>
<g><path style="opacity:0.061" fill="#3f2e53" d="M 520.5,66.5 C 526.852,68.3353 532.185,71.6687 536.5,76.5C 531.999,73.0803 526.999,70.4136 521.5,68.5C 520.702,68.0431 520.369,67.3764 520.5,66.5 Z"/></g>
<g><path style="opacity:0.016" fill="#372a45" d="M 647.5,66.5 C 646.564,67.9744 645.23,68.9744 643.5,69.5C 643.694,67.0882 645.027,66.0882 647.5,66.5 Z"/></g>
<g><path style="opacity:0.08" fill="#3f2d54" d="M 855.5,65.5 C 854.109,67.8903 852.109,69.5569 849.5,70.5C 850.268,67.4384 852.268,65.7717 855.5,65.5 Z"/></g>
<g><path style="opacity:0.257" fill="#3c2c4d" d="M 1367.5,62.5 C 1378.17,67.1667 1385.83,74.8333 1390.5,85.5C 1386.74,80.5649 1382.74,75.7316 1378.5,71C 1374.36,68.6855 1370.7,65.8521 1367.5,62.5 Z"/></g>
<g><path style="opacity:0.206" fill="#452e5e" d="M 1289.5,65.5 C 1285.85,70.151 1281.51,74.151 1276.5,77.5C 1279.55,72.1129 1283.89,68.1129 1289.5,65.5 Z"/></g>
<g><path style="opacity:0.098" fill="#3c304a" d="M 848.5,70.5 C 848.027,71.9063 847.027,72.573 845.5,72.5C 846.242,70.6503 847.242,69.9836 848.5,70.5 Z"/></g>
<g><path style="opacity:0.569" fill="#412d58" d="M 156.5,65.5 C 164.327,68.3292 170.327,73.3292 174.5,80.5C 168.475,75.4703 162.475,70.4703 156.5,65.5 Z"/></g>
<g><path style="opacity:0.588" fill="#412e56" d="M 933.5,66.5 C 940.411,69.4135 945.744,74.0802 949.5,80.5C 945.231,75.733 940.231,71.8996 934.5,69C 933.748,68.3292 933.414,67.4959 933.5,66.5 Z"/></g>
<g><path style="opacity:0.086" fill="#423254" d="M 638.5,71.5 C 636.853,73.3264 634.853,74.6597 632.5,75.5C 633.976,73.5 635.809,71.8334 638,70.5C 638.399,70.7284 638.565,71.0618 638.5,71.5 Z"/></g>
<g><path style="opacity:0.173" fill="#432c5e" d="M 845.5,72.5 C 843.5,75.1667 841.167,77.5 838.5,79.5C 839.833,76.1667 842.167,73.8333 845.5,72.5 Z"/></g>
<g><path style="opacity:0.196" fill="#432c5e" d="M 73.5,70.5 C 69.8592,73.8049 66.1925,77.1383 62.5,80.5C 62.1667,80.5 61.8333,80.5 61.5,80.5C 64.8316,76.3356 68.665,72.6689 73,69.5C 73.3988,69.7284 73.5654,70.0618 73.5,70.5 Z"/></g>
<g><path style="opacity:0.325" fill="#3b2c4b" d="M 790.5,67.5 C 788.551,72.338 786.218,77.0047 783.5,81.5C 783.343,80.1266 783.51,78.7932 784,77.5C 785.535,73.677 787.701,70.3437 790.5,67.5 Z"/></g>
<g><path style="opacity:0.78" fill="#442e5e" d="M 1231.5,64.5 C 1229.79,70.9821 1227.12,76.9821 1223.5,82.5C 1225.11,75.9557 1227.78,69.9557 1231.5,64.5 Z"/></g>
<g><path style="opacity:0.196" fill="#3e304f" d="M 1428.5,62.5 C 1429.79,63.2899 1430.96,64.2899 1432,65.5C 1434.75,70.9929 1436.92,76.6596 1438.5,82.5C 1435.19,75.8721 1431.85,69.2054 1428.5,62.5 Z"/></g>
<g><path style="opacity:0.204" fill="#453657" d="M 630.5,77.5 C 627.833,80.8333 624.833,83.8333 621.5,86.5C 623.678,82.8051 626.511,79.4718 630,76.5C 630.399,76.7284 630.565,77.0618 630.5,77.5 Z"/></g>
<g><path style="opacity:0.037" fill="#473064" d="M 536.5,76.5 C 540.806,78.8057 544.139,82.139 546.5,86.5C 542.5,83.8333 539.167,80.5 536.5,76.5 Z"/></g>
<g><path style="opacity:0.369" fill="#403151" d="M 1275.5,79.5 C 1274.97,81.2303 1273.97,82.5637 1272.5,83.5C 1272.09,81.0274 1273.09,79.6941 1275.5,79.5 Z"/></g>
<g><path style="opacity:0.051" fill="#342c3d" d="M 838.5,80.5 C 837.5,82.1667 836.167,83.5 834.5,84.5C 834.833,82.1667 836.167,80.8333 838.5,80.5 Z"/></g>
<g><path style="opacity:0.049" fill="#302838" d="M 61.5,80.5 C 61.8333,80.5 62.1667,80.5 62.5,80.5C 62.9118,82.9726 61.9118,84.3059 59.5,84.5C 59.7329,82.9382 60.3995,81.6049 61.5,80.5 Z"/></g>
<g><path style="opacity:0.286" fill="#3e2f50" d="M 174.5,81.5 C 177.297,81.9666 178.631,83.6333 178.5,86.5C 176.457,85.4206 175.124,83.754 174.5,81.5 Z"/></g>
<g><path style="opacity:0.176" fill="#392c47" d="M 999.5,72.5 C 1000.79,73.2899 1001.96,74.2899 1003,75.5C 1006.04,81.9037 1008.21,88.5703 1009.5,95.5C 1006.46,87.7544 1003.13,80.0878 999.5,72.5 Z"/></g>
<g><path style="opacity:0.145" fill="#312a38" d="M 1222.5,84.5 C 1221.89,87.4062 1220.56,89.7396 1218.5,91.5C 1219.11,88.5992 1220.44,86.2659 1222.5,84.5 Z"/></g>
<g><path style="opacity:0.235" fill="#392e43" d="M 1438.5,82.5 C 1439.67,83.5137 1440.34,84.847 1440.5,86.5C 1438.9,85.713 1438.23,84.3797 1438.5,82.5 Z"/></g>
<g><path style="opacity:0.522" fill="#392b49" d="M 226.5,74.5 C 230.537,81.2712 233.203,88.6045 234.5,96.5C 231.656,89.3063 228.989,81.9729 226.5,74.5 Z"/></g>
<g><path style="opacity:0.439" fill="#3f2e52" d="M 17.5,63.5 C 11.6045,74.6373 6.77119,86.3039 3,98.5C 2.32924,99.2524 1.4959,99.5858 0.5,99.5C 4.45064,87.8223 9.28397,76.489 15,65.5C 15.7083,64.6195 16.5416,63.9528 17.5,63.5 Z"/></g>
<g><path style="opacity:0.173" fill="#3e304d" d="M 57.5,86.5 C 57.573,88.0269 56.9063,89.0269 55.5,89.5C 55.427,87.9731 56.0937,86.9731 57.5,86.5 Z"/></g>
<g><path style="opacity:0.204" fill="#322a3e" d="M 178.5,86.5 C 180.522,87.507 181.855,89.1737 182.5,91.5C 180.469,90.4613 179.136,88.7946 178.5,86.5 Z"/></g>
<g><path style="opacity:0.149" fill="#3b3048" d="M 833.5,85.5 C 833.262,87.4044 832.262,88.7377 830.5,89.5C 830.738,87.5956 831.738,86.2623 833.5,85.5 Z"/></g>
<g><path style="opacity:0.69" fill="#3e2c52" d="M 783.5,81.5 C 783.035,86.43 781.035,90.43 777.5,93.5C 778.977,89.2134 780.977,85.2134 783.5,81.5 Z"/></g>
<g><path style="opacity:0.165" fill="#392f44" d="M 547.5,87.5 C 549.9,89.2964 551.567,91.6298 552.5,94.5C 550.1,92.7036 548.433,90.3702 547.5,87.5 Z"/></g>
<g><path style="opacity:0.09" fill="#372c43" d="M 949.5,81.5 C 951.371,81.8588 952.871,82.8588 954,84.5C 956.372,87.9099 958.205,91.5766 959.5,95.5C 955.811,91.1352 952.478,86.4685 949.5,81.5 Z"/></g>
<g><path style="opacity:0.502" fill="#402f52" d="M 1440.5,87.5 C 1441.68,90.5274 1443.01,93.5274 1444.5,96.5C 1443.5,96.5858 1442.67,96.2524 1442,95.5C 1441.18,92.8832 1440.68,90.2165 1440.5,87.5 Z"/></g>
<g><path style="opacity:0.29" fill="#392c47" d="M 55.5,89.5 C 55.2503,91.674 54.2503,93.3406 52.5,94.5C 52.7497,92.326 53.7497,90.6594 55.5,89.5 Z"/></g>
<g><path style="opacity:0.302" fill="#3c2f4c" d="M 1392.5,90.5 C 1394.57,92.3177 1395.9,94.651 1396.5,97.5C 1396.38,98.1067 1396.04,98.44 1395.5,98.5C 1394.51,95.9239 1393.51,93.2572 1392.5,90.5 Z"/></g>
<g><path style="opacity:0.933" fill="#412b58" d="M 182.5,92.5 C 184.456,93.1221 185.789,94.4554 186.5,96.5C 187.586,99.4196 188.252,102.42 188.5,105.5C 186.808,101.111 184.808,96.778 182.5,92.5 Z"/></g>
<g><path style="opacity:0.341" fill="#3a2e47" d="M 1218.5,93.5 C 1219.89,94.9473 1219.55,95.9473 1217.5,96.5C 1217.56,95.391 1217.89,94.391 1218.5,93.5 Z"/></g>
<g><path style="opacity:0.106" fill="#382f42" d="M 552.5,95.5 C 554.531,96.5387 555.864,98.2054 556.5,100.5C 554.003,99.8707 552.67,98.204 552.5,95.5 Z"/></g>
<g><path style="opacity:0.016" fill="#372e41" d="M 621.5,86.5 C 618.529,90.9442 616.196,95.7775 614.5,101C 614.164,102.03 613.497,102.53 612.5,102.5C 613.97,96.2181 616.97,90.8847 621.5,86.5 Z"/></g>
<g><path style="opacity:0.227" fill="#362b42" d="M 829.5,91.5 C 825.369,100.061 822.536,109.061 821,118.5C 820.617,119.056 820.117,119.389 819.5,119.5C 820.277,109.164 823.61,99.8306 829.5,91.5 Z"/></g>
<g><path style="opacity:0.372" fill="#2d1d41" d="M 1183.5,98.5 C 1183.5,99.1667 1183.5,99.8333 1183.5,100.5C 1155.17,100.5 1126.83,100.5 1098.5,100.5C 1126.74,99.8254 1155.07,99.1588 1183.5,98.5 Z"/></g>
<g><path style="opacity:0.027" fill="#3b3048" d="M 1443.5,98.5 C 1444.59,98.62 1445.25,99.2867 1445.5,100.5C 1446.38,104.473 1447.05,108.473 1447.5,112.5C 1446.41,112.38 1445.75,111.713 1445.5,110.5C 1444.62,106.527 1443.95,102.527 1443.5,98.5 Z"/></g>
<g><path style="opacity:0.396" fill="#3f3150" d="M 234.5,96.5 C 235.924,98.5145 236.59,100.848 236.5,103.5C 234.837,101.562 234.171,99.2282 234.5,96.5 Z"/></g>
<g><path style="opacity:0.027" fill="#2e2835" d="M 556.5,101.5 C 558.104,102.287 558.771,103.62 558.5,105.5C 557.548,104.548 556.548,103.548 555.5,102.5C 555.624,101.893 555.957,101.56 556.5,101.5 Z"/></g>
<g><path style="opacity:0.529" fill="#3d2f4d" d="M -0.5,101.5 C -0.166667,101.5 0.166667,101.5 0.5,101.5C 1.12395,101.917 1.45728,102.584 1.5,103.5C 1.00921,106.674 0.342545,109.674 -0.5,112.5C -0.5,108.833 -0.5,105.167 -0.5,101.5 Z"/></g>
<g><path style="opacity:0.075" fill="#3b2f49" d="M 777.5,94.5 C 778.097,94.7352 778.43,95.2352 778.5,96C 777.873,98.1351 777.373,100.302 777,102.5C 776.583,103.756 775.75,104.423 774.5,104.5C 775.193,101.059 776.193,97.7252 777.5,94.5 Z"/></g>
<g><path style="opacity:0.22" fill="#372c43" d="M 52.5,94.5 C 49.9723,102.75 47.3056,110.75 44.5,118.5C 45.0288,109.69 47.6955,101.69 52.5,94.5 Z"/></g>
<g><path style="opacity:0.008" fill="#392f45" d="M 612.5,103.5 C 613.757,104.623 613.424,105.289 611.5,105.5C 611.328,104.508 611.662,103.842 612.5,103.5 Z"/></g>
<g><path style="opacity:0.09" fill="#41354e" d="M 1272.5,83.5 C 1268.93,89.7436 1266.26,96.4102 1264.5,103.5C 1308.49,104.5 1352.49,104.833 1396.5,104.5C 1352.34,105.499 1308,105.832 1263.5,105.5C 1264.38,98.0616 1266.71,91.0616 1270.5,84.5C 1270.96,83.7025 1271.62,83.3691 1272.5,83.5 Z"/></g>
<g><path style="opacity:0.2" fill="#413155" d="M 1217.5,97.5 C 1218.1,97.7352 1218.43,98.2352 1218.5,99C 1217.41,103.112 1216.58,107.279 1216,111.5C 1215.62,112.056 1215.12,112.389 1214.5,112.5C 1214.97,107.362 1215.97,102.362 1217.5,97.5 Z"/></g>
<g><path style="opacity:0.6" fill="#45335b" d="M 1395.5,99.5 C 1398.07,101.037 1398.73,103.204 1397.5,106C 1352.66,106.831 1308,106.665 1263.5,105.5C 1308,105.832 1352.34,105.499 1396.5,104.5C 1395.96,102.883 1395.63,101.216 1395.5,99.5 Z"/></g>
<g><path style="opacity:0.886" fill="#452a63" d="M 1009.5,95.5 C 1011.37,100.206 1012.37,105.206 1012.5,110.5C 1011.88,110.389 1011.38,110.056 1011,109.5C 1010.01,104.882 1009.51,100.215 1009.5,95.5 Z"/></g>
<g><path style="opacity:0.667" fill="#3f3051" d="M 774.5,107.5 C 775.124,107.917 775.457,108.584 775.5,109.5C 775.253,110.713 774.586,111.38 773.5,111.5C 773.433,110.041 773.766,108.708 774.5,107.5 Z"/></g>
<g><path style="opacity:0.192" fill="#3b2a4d" d="M 959.5,95.5 C 961.485,95.8586 962.151,96.692 961.5,98C 965.422,104.87 967.089,112.037 966.5,119.5C 965.095,111.211 962.762,103.211 959.5,95.5 Z"/></g>
<g><path style="opacity:0.241" fill="#3f3050" d="M 236.5,104.5 C 237.256,108.839 238.256,113.173 239.5,117.5C 237.955,116.77 237.122,115.437 237,113.5C 236.502,110.518 236.335,107.518 236.5,104.5 Z"/></g>
<g><path style="opacity:0.855" fill="#462e61" d="M 611.5,105.5 C 610.696,152.485 610.196,199.485 610,246.5C 609.583,247.756 608.75,248.423 607.5,248.5C 608.323,203.541 608.823,158.541 609,113.5C 609.279,110.543 610.113,107.877 611.5,105.5 Z"/></g>
<g><path style="opacity:0.533" fill="#3f324e" d="M 1447.5,117.5 C 1448.34,119.379 1448.67,121.379 1448.5,123.5C 1447.05,122.866 1446.39,121.699 1446.5,120C 1446.53,118.93 1446.86,118.097 1447.5,117.5 Z"/></g>
<g><path style="opacity:0.647" fill="#3a2c4b" d="M 966.5,120.5 C 968.026,121.492 968.693,122.992 968.5,125C 968.486,126.385 968.152,127.551 967.5,128.5C 966.735,125.904 966.401,123.237 966.5,120.5 Z"/></g>
<g><path style="opacity:0.684" fill="#3c2b51" d="M 558.5,106.5 C 560.761,109.366 562.261,112.699 563,116.5C 563.177,160.541 563.677,204.541 564.5,248.5C 563.069,248.119 562.236,247.119 562,245.5C 561.667,202.5 561.333,159.5 561,116.5C 560.467,113.071 559.633,109.738 558.5,106.5 Z"/></g>
<g><path style="opacity:0.012" fill="#3a3344" d="M 1012.5,111.5 C 1013.17,114.758 1014,118.091 1015,121.5C 1015.17,142.333 1015.33,163.167 1015.5,184C 1015.5,205.178 1014.83,226.011 1013.5,246.5C 1013.79,201.488 1013.45,156.488 1012.5,111.5 Z"/></g>
<g><path style="opacity:0.282" fill="#433357" d="M 44.5,118.5 C 45.8333,125.833 45.8333,133.167 44.5,140.5C 43.1667,133.167 43.1667,125.833 44.5,118.5 Z"/></g>
<g><path style="opacity:0.392" fill="#3a2b4c" d="M 188.5,105.5 C 190.34,107.659 191.507,110.325 192,113.5C 193.97,124.506 193.97,135.506 192,146.5C 191.678,149.666 190.511,152.333 188.5,154.5C 190.263,146.587 191.597,138.587 192.5,130.5C 191.682,122.077 190.348,113.744 188.5,105.5 Z"/></g>
<g><path style="opacity:0.3" fill="#482e65" d="M 308.5,131.5 C 309.167,131.5 309.833,131.5 310.5,131.5C 310.5,134.5 310.5,137.5 310.5,140.5C 308.612,138.012 307.945,135.012 308.5,131.5 Z"/></g>
<g><path style="opacity:0.219" fill="#472a6a" d="M 1049.5,134.5 C 1051.45,139.396 1052.11,144.729 1051.5,150.5C 1050.83,149.167 1050.17,147.833 1049.5,146.5C 1049.5,142.5 1049.5,138.5 1049.5,134.5 Z"/></g>
<g><path style="opacity:0.757" fill="#3d2c51" d="M 967.5,132.5 C 968.156,133.622 968.489,134.955 968.5,136.5C 968.415,138.333 967.748,139.666 966.5,140.5C 966.575,137.794 966.908,135.127 967.5,132.5 Z"/></g>
<g><path style="opacity:0.435" fill="#392f46" d="M 1448.5,140.5 C 1448.77,142.099 1448.43,143.432 1447.5,144.5C 1447.17,144.5 1446.83,144.5 1446.5,144.5C 1446.23,142.62 1446.9,141.287 1448.5,140.5 Z"/></g>
<g><path style="opacity:0.047" fill="#3e304f" d="M 44.5,140.5 C 46.1765,141.183 46.8432,142.517 46.5,144.5C 44.8235,143.817 44.1568,142.483 44.5,140.5 Z"/></g>
<g><path style="opacity:0.02" fill="#3b2f49" d="M 819.5,139.5 C 820.117,139.611 820.617,139.944 821,140.5C 822.263,149.558 824.763,158.225 828.5,166.5C 826.864,165.251 825.697,163.584 825,161.5C 821.677,154.526 819.843,147.193 819.5,139.5 Z"/></g>
<g><path style="opacity:0.888" fill="#492f67" d="M 1446.5,144.5 C 1446.83,144.5 1447.17,144.5 1447.5,144.5C 1447.5,145.5 1447.5,146.5 1447.5,147.5C 1422.82,147.717 1398.15,147.383 1373.5,146.5C 1397.83,145.833 1422.17,145.167 1446.5,144.5 Z"/></g>
<g><path style="opacity:0.224" fill="#352942" d="M 966.5,141.5 C 967.139,142.097 967.472,142.93 967.5,144C 966.383,146.731 965.717,149.565 965.5,152.5C 965.167,152.5 964.833,152.5 964.5,152.5C 964.691,148.738 965.358,145.071 966.5,141.5 Z"/></g>
<g><path style="opacity:0.478" fill="#3f3050" d="M 310.5,141.5 C 311.354,148.85 312.354,156.183 313.5,163.5C 311.955,162.77 311.122,161.437 311,159.5C 310.418,155.176 309.918,150.843 309.5,146.5C 309.507,144.631 309.84,142.964 310.5,141.5 Z"/></g>
<g><path style="opacity:0.576" fill="#412f55" d="M 773.5,112.5 C 773.31,131.282 775.31,149.949 779.5,168.5C 777.745,166.239 776.578,163.572 776,160.5C 772.552,144.614 771.719,128.614 773.5,112.5 Z"/></g>
<g><path style="opacity:0.151" fill="#372f41" d="M 1096.5,145.5 C 1097.22,145.918 1097.72,146.584 1098,147.5C 1098.42,151.191 1098.92,154.858 1099.5,158.5C 1097.95,157.77 1097.12,156.437 1097,154.5C 1096.5,151.518 1096.34,148.518 1096.5,145.5 Z"/></g>
<g><path style="opacity:0.8" fill="#442d60" d="M 1362.5,146.5 C 1328.49,146.167 1294.49,146.5 1260.5,147.5C 1261.49,151.105 1262.16,154.772 1262.5,158.5C 1259.96,154.645 1258.96,150.312 1259.5,145.5C 1294,145.168 1328.34,145.502 1362.5,146.5 Z"/></g>
<g><path style="opacity:0.114" fill="#3b2d4b" d="M -0.5,144.5 C 0.322238,147.665 0.988905,150.998 1.5,154.5C 1.45728,155.416 1.12395,156.083 0.5,156.5C 0.166667,156.5 -0.166667,156.5 -0.5,156.5C -0.5,152.5 -0.5,148.5 -0.5,144.5 Z"/></g>
<g><path style="opacity:0.475" fill="#3b2e4b" d="M 1049.5,146.5 C 1050.17,147.833 1050.83,149.167 1051.5,150.5C 1052.13,155.659 1052.8,160.826 1053.5,166C 1053.47,167.07 1053.14,167.903 1052.5,168.5C 1050.93,161.381 1049.93,154.047 1049.5,146.5 Z"/></g>
<g><path style="opacity:0.125" fill="#322a3c" d="M 261.5,147.5 C 263.213,148.635 263.88,150.302 263.5,152.5C 263.5,153.167 263.167,153.5 262.5,153.5C 261.659,151.621 261.325,149.621 261.5,147.5 Z"/></g>
<g><path style="opacity:0.502" fill="#412b5b" d="M 964.5,152.5 C 964.833,152.5 965.167,152.5 965.5,152.5C 964.564,156.379 962.897,159.712 960.5,162.5C 961.658,159.011 962.991,155.678 964.5,152.5 Z"/></g>
<g><path style="opacity:0.431" fill="#362a45" d="M 188.5,154.5 C 188.514,158.475 187.181,161.808 184.5,164.5C 185.646,161.057 186.979,157.723 188.5,154.5 Z"/></g>
<g><path style="opacity:0.267" fill="#3d2d4f" d="M 1214.5,141.5 C 1216.42,147.831 1218.08,154.498 1219.5,161.5C 1219.46,162.416 1219.12,163.083 1218.5,163.5C 1216.15,156.386 1214.82,149.052 1214.5,141.5 Z"/></g>
<g><path style="opacity:0.247" fill="#393043" d="M 1475.5,151.5 C 1476.17,152.5 1476.83,153.5 1477.5,154.5C 1477.5,157.167 1477.5,159.833 1477.5,162.5C 1476.48,159.026 1475.81,155.36 1475.5,151.5 Z"/></g>
<g><path style="opacity:0.227" fill="#3b3246" d="M 0.5,158.5 C 1.83333,158.5 2.5,159.167 2.5,160.5C 1.16667,160.5 0.5,159.833 0.5,158.5 Z"/></g>
<g><path style="opacity:0.486" fill="#3a2c4a" d="M 46.5,146.5 C 48.5509,153.959 51.2175,161.292 54.5,168.5C 49.2046,161.934 46.538,154.601 46.5,146.5 Z"/></g>
<g><path style="opacity:0.153" fill="#3e334b" d="M 1.5,162.5 C 3.96892,163.607 4.96892,165.607 4.5,168.5C 3.50822,166.544 2.50822,164.544 1.5,162.5 Z"/></g>
<g><path style="opacity:0.298" fill="#403153" d="M 263.5,152.5 C 264.574,159.352 265.574,166.352 266.5,173.5C 265.351,173.209 264.684,172.376 264.5,171C 263.317,165.221 262.65,159.387 262.5,153.5C 263.167,153.5 263.5,153.167 263.5,152.5 Z"/></g>
<g><path style="opacity:0.173" fill="#3a2d48" d="M 313.5,164.5 C 314.499,167.829 315.499,171.162 316.5,174.5C 313.821,171.483 312.821,168.149 313.5,164.5 Z"/></g>
<g><path style="opacity:0.447" fill="#392d47" d="M 1263.5,160.5 C 1265.72,163.94 1267.72,167.607 1269.5,171.5C 1266.25,168.676 1264.25,165.009 1263.5,160.5 Z"/></g>
<g><path style="opacity:0.067" fill="#3a2d49" d="M 1099.5,160.5 C 1100.58,166.807 1102.58,172.807 1105.5,178.5C 1103.31,177.177 1101.81,175.177 1101,172.5C 1100.17,169.331 1099.33,166.164 1098.5,163C 1098.53,161.93 1098.86,161.097 1099.5,160.5 Z"/></g>
<g><path style="opacity:0.149" fill="#372d42" d="M 959.5,165.5 C 957.954,168.632 955.954,171.298 953.5,173.5C 954.653,171.193 955.82,168.86 957,166.5C 957.671,165.748 958.504,165.414 959.5,165.5 Z"/></g>
<g><path style="opacity:0.145" fill="#362d40" d="M 1218.5,164.5 C 1220.76,166.531 1222.09,169.198 1222.5,172.5C 1220.24,170.469 1218.91,167.802 1218.5,164.5 Z"/></g>
<g><path style="opacity:0.031" fill="#352a43" d="M 1524.5,150.5 C 1526.88,160.643 1530.22,170.643 1534.5,180.5C 1532.78,178.747 1531.28,176.747 1530,174.5C 1529.07,170.363 1527.73,166.363 1526,162.5C 1524.84,158.582 1524.34,154.582 1524.5,150.5 Z"/></g>
<g><path style="opacity:0.439" fill="#3f2d52" d="M 4.5,168.5 C 6.98966,171.626 8.323,175.292 8.5,179.5C 6.79216,176.05 5.45882,172.383 4.5,168.5 Z"/></g>
<g><path style="opacity:0.294" fill="#342a40" d="M 54.5,168.5 C 55.9063,168.973 56.573,169.973 56.5,171.5C 55.0937,171.027 54.427,170.027 54.5,168.5 Z"/></g>
<g><path style="opacity:0.31" fill="#3f2e52" d="M 183.5,166.5 C 183.392,168.783 182.559,170.783 181,172.5C 180.329,173.252 179.496,173.586 178.5,173.5C 179.215,171.245 180.548,169.412 182.5,168C 181.288,166.893 181.621,166.393 183.5,166.5 Z"/></g>
<g><path style="opacity:0.471" fill="#3e2c52" d="M 779.5,169.5 C 781.176,170.183 781.843,171.517 781.5,173.5C 780.326,172.486 779.66,171.153 779.5,169.5 Z"/></g>
<g><path style="opacity:0.275" fill="#362b43" d="M 829.5,168.5 C 830.906,168.973 831.573,169.973 831.5,171.5C 830.094,171.027 829.427,170.027 829.5,168.5 Z"/></g>
<g><path style="opacity:0.804" fill="#432c5e" d="M 1477.5,154.5 C 1478.43,160.701 1479.43,167.034 1480.5,173.5C 1480.46,174.416 1480.12,175.083 1479.5,175.5C 1478.09,171.317 1477.43,166.984 1477.5,162.5C 1477.5,159.833 1477.5,157.167 1477.5,154.5 Z"/></g>
<g><path style="opacity:0.282" fill="#342a3f" d="M 56.5,171.5 C 57.9063,171.973 58.573,172.973 58.5,174.5C 57.0937,174.027 56.427,173.027 56.5,171.5 Z"/></g>
<g><path style="opacity:0.333" fill="#382e44" d="M 831.5,171.5 C 832.906,171.973 833.573,172.973 833.5,174.5C 832.094,174.027 831.427,173.027 831.5,171.5 Z"/></g>
<g><path style="opacity:0.122" fill="#352d3e" d="M 1269.5,171.5 C 1270.91,171.973 1271.57,172.973 1271.5,174.5C 1269.95,174.179 1269.29,173.179 1269.5,171.5 Z"/></g>
<g><path style="opacity:0.075" fill="#362b42" d="M 178.5,173.5 C 178.378,176.292 177.044,178.292 174.5,179.5C 174.622,176.708 175.956,174.708 178.5,173.5 Z"/></g>
<g><path style="opacity:0.6" fill="#3f2f51" d="M 1052.5,171.5 C 1053.75,171.577 1054.58,172.244 1055,173.5C 1055.95,176.432 1056.45,179.432 1056.5,182.5C 1055.41,182.38 1054.75,181.713 1054.5,180.5C 1053.83,177.481 1053.16,174.481 1052.5,171.5 Z"/></g>
<g><path style="opacity:0.494" fill="#3a2b49" d="M 1222.5,173.5 C 1224.45,175.32 1225.45,177.654 1225.5,180.5C 1224.36,178.466 1223.02,176.466 1221.5,174.5C 1221.62,173.893 1221.96,173.56 1222.5,173.5 Z"/></g>
<g><path style="opacity:0.033" fill="#372d41" d="M 58.5,174.5 C 61.6608,175.812 63.6608,178.145 64.5,181.5C 61.7573,179.761 59.7573,177.427 58.5,174.5 Z"/></g>
<g><path style="opacity:0.171" fill="#3d304b" d="M 833.5,174.5 C 836.588,175.92 838.588,178.253 839.5,181.5C 836.757,179.761 834.757,177.427 833.5,174.5 Z"/></g>
<g><path style="opacity:0.302" fill="#40364c" d="M 1271.5,174.5 C 1273.26,175.262 1274.26,176.596 1274.5,178.5C 1272.74,177.738 1271.74,176.404 1271.5,174.5 Z"/></g>
<g><path style="opacity:0.329" fill="#352842" d="M 953.5,173.5 C 953.378,176.292 952.044,178.292 949.5,179.5C 949.845,176.802 951.178,174.802 953.5,173.5 Z"/></g>
<g><path style="opacity:0.345" fill="#372b44" d="M 1105.5,179.5 C 1107.26,180.262 1108.26,181.596 1108.5,183.5C 1106.74,182.738 1105.74,181.404 1105.5,179.5 Z"/></g>
<g><path style="opacity:0.502" fill="#3e2f4f" d="M 8.5,179.5 C 12.4919,184.137 15.4919,189.471 17.5,195.5C 13.5223,190.895 10.5223,185.562 8.5,179.5 Z"/></g>
<g><path style="opacity:0.369" fill="#3a2c49" d="M 1225.5,180.5 C 1229.32,186.138 1232.66,192.138 1235.5,198.5C 1233.57,197.358 1232.07,195.692 1231,193.5C 1228.62,189.406 1226.79,185.073 1225.5,180.5 Z"/></g>
<g><path style="opacity:0.467" fill="#46325c" d="M 1534.5,180.5 C 1537.5,182.833 1540.17,185.5 1542.5,188.5C 1538.83,186.833 1536.17,184.167 1534.5,180.5 Z"/></g>
<g><path style="opacity:0.02" fill="#352b41" d="M 64.5,181.5 C 67.7843,183.117 70.4509,185.45 72.5,188.5C 72.5654,188.938 72.3988,189.272 72,189.5C 69.2173,186.891 66.7173,184.224 64.5,181.5 Z"/></g>
<g><path style="opacity:0.518" fill="#43305a" d="M 1396.5,180.5 C 1395.13,180.343 1393.79,180.51 1392.5,181C 1390.17,183.333 1387.83,185.667 1385.5,188C 1384.56,188.692 1383.9,188.525 1383.5,187.5C 1386.6,184.899 1389.6,182.066 1392.5,179C 1394.35,178.227 1395.69,178.727 1396.5,180.5 Z"/></g>
<g><path style="opacity:0.376" fill="#362748" d="M 1402.5,183.5 C 1403.83,184.167 1405.17,184.833 1406.5,185.5C 1405.69,186.653 1404.69,186.653 1403.5,185.5C 1402.7,185.043 1402.37,184.376 1402.5,183.5 Z"/></g>
<g><path style="opacity:0.118" fill="#3c3149" d="M 840.5,182.5 C 843.427,183.757 845.761,185.757 847.5,188.5C 844.843,187.562 842.51,185.562 840.5,182.5 Z"/></g>
<g><path style="opacity:0.084" fill="#3b2d49" d="M 1281.5,185.5 C 1284.86,187.198 1287.52,189.532 1289.5,192.5C 1285.55,191.541 1282.89,189.208 1281.5,185.5 Z"/></g>
<g><path style="opacity:0.176" fill="#44305b" d="M 319.5,180.5 C 325.214,185.549 331.214,190.215 337.5,194.5C 337.44,195.043 337.107,195.376 336.5,195.5C 329.206,192.198 323.539,187.198 319.5,180.5 Z"/></g>
<g><path style="opacity:0.471" fill="#3d2c4f" d="M 1056.5,183.5 C 1058.99,186.626 1060.32,190.292 1060.5,194.5C 1058.8,191.061 1057.46,187.395 1056.5,183.5 Z"/></g>
<g><path style="opacity:0.247" fill="#402e55" d="M 1407.5,186.5 C 1411.05,187.723 1414.05,189.723 1416.5,192.5C 1412.56,191.712 1409.56,189.712 1407.5,186.5 Z"/></g>
<g><path style="opacity:0.273" fill="#3a2e48" d="M 1479.5,176.5 C 1480.5,176.47 1481.16,176.97 1481.5,178C 1482.78,183.645 1484.45,189.145 1486.5,194.5C 1482.62,189.218 1480.29,183.218 1479.5,176.5 Z"/></g>
<g><path style="opacity:0.357" fill="#3b2e4a" d="M 781.5,173.5 C 785.486,181.087 789.486,188.753 793.5,196.5C 787.716,189.938 783.716,182.271 781.5,173.5 Z"/></g>
<g><path style="opacity:0.235" fill="#3b2c4e" d="M 942.5,185.5 C 941.08,189.217 938.413,191.55 934.5,192.5C 936.503,189.502 939.17,187.169 942.5,185.5 Z"/></g>
<g><path style="opacity:0.129" fill="#432b5f" d="M 1112.5,187.5 C 1115.72,188.069 1118.05,189.736 1119.5,192.5C 1116.33,191.99 1113.99,190.323 1112.5,187.5 Z"/></g>
<g><path style="opacity:0.404" fill="#3e2f4e" d="M 74.5,189.5 C 76.5,189.5 77.5,190.5 77.5,192.5C 75.5,192.5 74.5,191.5 74.5,189.5 Z"/></g>
<g><path style="opacity:0.439" fill="#382d44" d="M 848.5,188.5 C 849.5,189.167 850.5,189.833 851.5,190.5C 851.631,191.239 851.464,191.906 851,192.5C 849.519,191.529 848.685,190.196 848.5,188.5 Z"/></g>
<g><path style="opacity:1" fill="#422860" d="M 169.5,183.5 C 166.925,187.419 163.925,191.085 160.5,194.5C 159.274,193.637 157.94,193.637 156.5,194.5C 160.49,190.517 164.823,186.85 169.5,183.5 Z"/></g>
<g><path style="opacity:0.302" fill="#3c2d4c" d="M 265.5,175.5 C 267.335,176.122 268.502,177.456 269,179.5C 271.56,189.943 275.726,199.61 281.5,208.5C 277.12,204.766 273.953,200.099 272,194.5C 269.91,188.062 267.743,181.729 265.5,175.5 Z"/></g>
<g><path style="opacity:0.541" fill="#3f2a58" d="M 1543.5,188.5 C 1545.82,189.82 1547.82,191.486 1549.5,193.5C 1546.04,193.586 1544.04,191.919 1543.5,188.5 Z"/></g>
<g><path style="opacity:0.561" fill="#3e2a56" d="M 1291.5,193.5 C 1294.03,194.596 1296.36,195.929 1298.5,197.5C 1295.32,197.416 1292.98,196.083 1291.5,193.5 Z"/></g>
<g><path style="opacity:0.431" fill="#402c57" d="M 1382.5,188.5 C 1380.9,190.853 1378.9,193.02 1376.5,195C 1371.95,197.44 1367.29,199.607 1362.5,201.5C 1361.89,201.376 1361.56,201.043 1361.5,200.5C 1369.21,197.808 1376.21,193.808 1382.5,188.5 Z"/></g>
<g><path style="opacity:0.459" fill="#422c5b" d="M 1418.5,193.5 C 1422.55,194.854 1425.88,197.188 1428.5,200.5C 1428.55,202.038 1427.88,203.038 1426.5,203.5C 1426.54,202.417 1426.87,201.417 1427.5,200.5C 1423.82,198.851 1420.82,196.518 1418.5,193.5 Z"/></g>
<g><path style="opacity:0.341" fill="#433157" d="M 1060.5,194.5 C 1061.38,194.369 1062.04,194.702 1062.5,195.5C 1065.03,199.804 1067.37,204.138 1069.5,208.5C 1068.36,208.092 1067.36,207.425 1066.5,206.5C 1064.04,202.711 1062.04,198.711 1060.5,194.5 Z"/></g>
<g><path style="opacity:0.502" fill="#3e2c52" d="M 1119.5,192.5 C 1122,193.584 1124.34,194.917 1126.5,196.5C 1123.73,196.604 1121.4,195.27 1119.5,192.5 Z"/></g>
<g><path style="opacity:0.125" fill="#3e304e" d="M 17.5,195.5 C 19.4456,196.035 20.4456,197.368 20.5,199.5C 19.0256,198.564 18.0256,197.23 17.5,195.5 Z"/></g>
<g><path style="opacity:0.584" fill="#3d2b52" d="M 339.5,195.5 C 343.253,196.859 346.919,198.193 350.5,199.5C 350.44,200.043 350.107,200.376 349.5,200.5C 346.839,199.668 344.172,198.834 341.5,198C 340.244,197.583 339.577,196.75 339.5,195.5 Z"/></g>
<g><path style="opacity:0.216" fill="#413351" d="M 793.5,196.5 C 794.906,196.973 795.573,197.973 795.5,199.5C 794.094,199.027 793.427,198.027 793.5,196.5 Z"/></g>
<g><path style="opacity:0.227" fill="#3a2b4c" d="M 1128.5,196.5 C 1131.17,197.5 1133.83,198.5 1136.5,199.5C 1135.75,200.573 1134.75,200.74 1133.5,200C 1131.24,199.451 1129.57,198.284 1128.5,196.5 Z"/></g>
<g><path style="opacity:0.788" fill="#422e59" d="M 1235.5,198.5 C 1237.53,199.539 1238.86,201.205 1239.5,203.5C 1237.46,202.421 1236.12,200.754 1235.5,198.5 Z"/></g>
<g><path style="opacity:0.247" fill="#3d2a52" d="M 1557.5,196.5 C 1560.25,197.512 1562.92,198.512 1565.5,199.5C 1565.26,200.097 1564.76,200.43 1564,200.5C 1562.19,199.922 1560.36,199.422 1558.5,199C 1557.75,198.329 1557.41,197.496 1557.5,196.5 Z"/></g>
<g><path style="opacity:0.333" fill="#3f2a57" d="M 82.5,195.5 C 87.9971,197.329 93.3305,199.329 98.5,201.5C 98.2648,202.097 97.7648,202.43 97,202.5C 91.6393,201.006 86.806,198.672 82.5,195.5 Z"/></g>
<g><path style="opacity:0.431" fill="#412a5d" d="M 156.5,194.5 C 151.537,197.219 146.703,200.219 142,203.5C 140.698,202.915 139.531,202.249 138.5,201.5C 144.413,199.191 150.413,196.858 156.5,194.5 Z"/></g>
<g><path style="opacity:0.408" fill="#3f2b57" d="M 931.5,194.5 C 927.959,197.309 923.959,199.476 919.5,201C 918.251,201.74 917.251,201.573 916.5,200.5C 921.32,198.264 926.32,196.264 931.5,194.5 Z"/></g>
<g><path style="opacity:0.412" fill="#402c57" d="M 1299.5,197.5 C 1301.92,198.305 1304.25,199.305 1306.5,200.5C 1305.75,201.573 1304.75,201.74 1303.5,201C 1301.46,200.502 1300.12,199.335 1299.5,197.5 Z"/></g>
<g><path style="opacity:0.231" fill="#403250" d="M 1488.5,198.5 C 1489.91,198.973 1490.57,199.973 1490.5,201.5C 1489.09,201.027 1488.43,200.027 1488.5,198.5 Z"/></g>
<g><path style="opacity:0.38" fill="#3e2e50" d="M 352.5,199.5 C 357.807,200.33 363.141,200.997 368.5,201.5C 369.167,202.167 369.833,202.833 370.5,203.5C 365.823,203.165 361.156,202.665 356.5,202C 354.563,201.878 353.23,201.045 352.5,199.5 Z"/></g>
<g><path style="opacity:0.39" fill="#44305b" d="M 1137.5,199.5 C 1143.77,200.728 1150.1,201.395 1156.5,201.5C 1157.83,202.167 1159.17,202.833 1160.5,203.5C 1153.79,203.552 1147.13,203.052 1140.5,202C 1138.88,201.764 1137.88,200.931 1137.5,199.5 Z"/></g>
<g><path style="opacity:0.322" fill="#352a41" d="M 1307.5,200.5 C 1308.49,200.328 1309.16,200.662 1309.5,201.5C 1308.38,202.757 1307.71,202.424 1307.5,200.5 Z"/></g>
<g><path style="opacity:0.365" fill="#402f53" d="M 1567.5,199.5 C 1573.12,200.54 1578.78,201.207 1584.5,201.5C 1584.83,202.167 1585.17,202.833 1585.5,203.5C 1580.5,203.111 1575.5,202.611 1570.5,202C 1568.88,201.764 1567.88,200.931 1567.5,199.5 Z"/></g>
<g><path style="opacity:0.188" fill="#403052" d="M 20.5,200.5 C 22.5,200.5 23.5,201.5 23.5,203.5C 22.1667,202.833 21.1667,201.833 20.5,200.5 Z"/></g>
<g><path style="opacity:0.329" fill="#2e2737" d="M 368.5,201.5 C 377.999,201.62 387.666,201.62 397.5,201.5C 397.5,202.167 397.5,202.833 397.5,203.5C 388.5,203.5 379.5,203.5 370.5,203.5C 369.833,202.833 369.167,202.167 368.5,201.5 Z"/></g>
<g><path style="opacity:0.659" fill="#3e2e50" d="M 915.5,200.5 C 915.53,201.497 915.03,202.164 914,202.5C 909.44,204.391 904.94,204.725 900.5,203.5C 905.521,202.608 910.521,201.608 915.5,200.5 Z"/></g>
<g><path style="opacity:0.227" fill="#292133" d="M 1156.5,201.5 C 1166.48,202.257 1176.48,202.59 1186.5,202.5C 1186.5,202.833 1186.5,203.167 1186.5,203.5C 1177.83,203.5 1169.17,203.5 1160.5,203.5C 1159.17,202.833 1157.83,202.167 1156.5,201.5 Z"/></g>
<g><path style="opacity:0.204" fill="#3f2f51" d="M 1356.5,201.5 C 1356.12,202.931 1355.12,203.764 1353.5,204C 1351.61,204.78 1349.95,204.613 1348.5,203.5C 1351.07,202.525 1353.73,201.858 1356.5,201.5 Z"/></g>
<g><path style="opacity:0.545" fill="#3d2e4d" d="M 100.5,201.5 C 103.876,202.076 107.209,202.743 110.5,203.5C 108.372,204.629 106.039,204.796 103.5,204C 101.881,203.764 100.881,202.931 100.5,201.5 Z"/></g>
<g><path style="opacity:0.316" fill="#442c61" d="M 114.5,203.5 C 116.5,203.5 118.5,203.5 120.5,203.5C 120.03,204.693 119.03,205.36 117.5,205.5C 115.97,205.36 114.97,204.693 114.5,203.5 Z"/></g>
<g><path style="opacity:0.596" fill="#3e2f4f" d="M 135.5,201.5 C 135.423,202.75 134.756,203.583 133.5,204C 130.961,204.796 128.628,204.629 126.5,203.5C 129.345,202.656 132.345,201.99 135.5,201.5 Z"/></g>
<g><path style="opacity:0.231" fill="#423058" d="M 795.5,199.5 C 797.587,200.585 798.92,202.251 799.5,204.5C 797.413,203.415 796.08,201.749 795.5,199.5 Z"/></g>
<g><path style="opacity:0.569" fill="#3e2c51" d="M 863.5,197.5 C 870.859,200.59 878.526,202.59 886.5,203.5C 878.898,204.78 871.565,203.446 864.5,199.5C 863.702,199.043 863.369,198.376 863.5,197.5 Z"/></g>
<g><path style="opacity:0.596" fill="#402f53" d="M 1311.5,201.5 C 1313.89,202.015 1316.23,202.681 1318.5,203.5C 1317.05,204.613 1315.39,204.78 1313.5,204C 1312.24,203.583 1311.58,202.75 1311.5,201.5 Z"/></g>
<g><path style="opacity:0.261" fill="#2a2034" d="M 1584.5,201.5 C 1594.22,201.192 1603.89,201.526 1613.5,202.5C 1614.83,217.995 1614.83,233.328 1613.5,248.5C 1613.5,233.5 1613.5,218.5 1613.5,203.5C 1604.17,203.5 1594.83,203.5 1585.5,203.5C 1585.17,202.833 1584.83,202.167 1584.5,201.5 Z"/></g>
<g><path style="opacity:0.663" fill="#3f265c" d="M 397.5,201.5 C 398.837,202.315 399.837,203.482 400.5,205C 399.51,219.421 399.176,233.921 399.5,248.5C 398.167,248.5 396.833,248.5 395.5,248.5C 395.821,246.952 396.821,246.285 398.5,246.5C 398.829,231.99 398.496,217.657 397.5,203.5C 397.5,202.833 397.5,202.167 397.5,201.5 Z"/></g>
<g><path style="opacity:0.345" fill="#383042" d="M 1319.5,203.5 C 1321.1,203.232 1322.43,203.566 1323.5,204.5C 1323.08,205.124 1322.42,205.457 1321.5,205.5C 1320.29,205.253 1319.62,204.586 1319.5,203.5 Z"/></g>
<g><path style="opacity:0.307" fill="#442963" d="M 1347.5,203.5 C 1347.12,204.931 1346.12,205.764 1344.5,206C 1342.17,206.167 1339.83,206.333 1337.5,206.5C 1334.73,206.471 1332.4,205.805 1330.5,204.5C 1336.21,204.687 1341.88,204.354 1347.5,203.5 Z"/></g>
<g><path style="opacity:0.094" fill="#403250" d="M 23.5,203.5 C 25.914,204.911 27.5806,206.911 28.5,209.5C 25.4384,208.732 23.7717,206.732 23.5,203.5 Z"/></g>
<g><path style="opacity:0.192" fill="#44305a" d="M 1239.5,204.5 C 1242.32,204.989 1243.66,206.656 1243.5,209.5C 1241.41,208.415 1240.08,206.749 1239.5,204.5 Z"/></g>
<g><path style="opacity:0.22" fill="#3e314f" d="M 799.5,204.5 C 802.044,205.708 803.378,207.708 803.5,210.5C 801.178,209.198 799.845,207.198 799.5,204.5 Z"/></g>
<g><path style="opacity:0.17" fill="#45315c" d="M 1426.5,204.5 C 1422.74,210.053 1418.07,214.719 1412.5,218.5C 1416.17,212.833 1420.83,208.167 1426.5,204.5 Z"/></g>
<g><path style="opacity:0.102" fill="#3d2e4e" d="M 1490.5,201.5 C 1494.16,206.161 1497.83,210.828 1501.5,215.5C 1495.59,212.587 1491.92,207.92 1490.5,201.5 Z"/></g>
<g><path style="opacity:0.016" fill="#372c43" d="M 29.5,210.5 C 32.1667,212.5 34.5,214.833 36.5,217.5C 33.1667,216.167 30.8333,213.833 29.5,210.5 Z"/></g>
<g><path style="opacity:0.035" fill="#2f2539" d="M 804.5,210.5 C 807.167,212.5 809.5,214.833 811.5,217.5C 808.167,216.167 805.833,213.833 804.5,210.5 Z"/></g>
<g><path style="opacity:0.047" fill="#2d2534" d="M 1244.5,210.5 C 1246.14,210.81 1247.14,211.81 1247.5,213.5C 1245.86,213.19 1244.86,212.19 1244.5,210.5 Z"/></g>
<g><path style="opacity:0.153" fill="#3d314b" d="M 1069.5,208.5 C 1074.56,212.559 1078.9,217.226 1082.5,222.5C 1077.47,218.467 1073.13,213.8 1069.5,208.5 Z"/></g>
<g><path style="opacity:0.016" fill="#261e2f" d="M 37.5,218.5 C 38.9063,218.973 39.573,219.973 39.5,221.5C 38.0937,221.027 37.427,220.027 37.5,218.5 Z"/></g>
<g><path style="opacity:0.141" fill="#452e60" d="M 811.5,217.5 C 815.167,219.167 817.833,221.833 819.5,225.5C 815.833,223.833 813.167,221.167 811.5,217.5 Z"/></g>
<g><path style="opacity:0.004" fill="#3d2e4f" d="M 1501.5,215.5 C 1504.94,217.759 1508.27,220.259 1511.5,223C 1512.25,223.671 1512.59,224.504 1512.5,225.5C 1507.56,223.558 1503.89,220.225 1501.5,215.5 Z"/></g>
<g><path style="opacity:0.122" fill="#413153" d="M 1412.5,218.5 C 1410.74,221.737 1408.07,224.071 1404.5,225.5C 1406.26,222.263 1408.93,219.929 1412.5,218.5 Z"/></g>
<g><path style="opacity:0.431" fill="#403150" d="M 41.5,223.5 C 43.3318,222.282 44.3318,222.949 44.5,225.5C 43.5,224.833 42.5,224.167 41.5,223.5 Z"/></g>
<g><path style="opacity:0.129" fill="#3f2e52" d="M 281.5,208.5 C 288.136,215.972 295.803,222.138 304.5,227C 306.063,227.759 307.063,228.926 307.5,230.5C 296.685,225.683 288.018,218.35 281.5,208.5 Z"/></g>
<g><path style="opacity:0.161" fill="#412e57" d="M 1089.5,226.5 C 1086.8,226.155 1084.8,224.822 1083.5,222.5C 1083.43,222.062 1083.6,221.728 1084,221.5C 1086.26,222.851 1088.1,224.517 1089.5,226.5 Z"/></g>
<g><path style="opacity:0.494" fill="#3d2c51" d="M 1247.5,213.5 C 1254.77,218.764 1261.77,224.431 1268.5,230.5C 1260.02,226.692 1253.02,221.025 1247.5,213.5 Z"/></g>
<g><path style="opacity:0.286" fill="#3d2d4f" d="M 45.5,225.5 C 47.0269,225.427 48.0269,226.094 48.5,227.5C 46.9731,227.573 45.9731,226.906 45.5,225.5 Z"/></g>
<g><path style="opacity:0.282" fill="#3b2c4f" d="M 820.5,225.5 C 822.027,225.427 823.027,226.094 823.5,227.5C 821.973,227.573 820.973,226.906 820.5,225.5 Z"/></g>
<g><path style="opacity:0.09" fill="#3f2f53" d="M 1094.5,229.5 C 1092.85,229.34 1091.51,228.674 1090.5,227.5C 1090.43,227.062 1090.6,226.728 1091,226.5C 1092.52,227.163 1093.69,228.163 1094.5,229.5 Z"/></g>
<g><path style="opacity:0.38" fill="#3f2e53" d="M 823.5,227.5 C 825.404,227.738 826.738,228.738 827.5,230.5C 825.596,230.262 824.262,229.262 823.5,227.5 Z"/></g>
<g><path style="opacity:0.239" fill="#403053" d="M 1403.5,225.5 C 1402.2,227.822 1400.2,229.155 1397.5,229.5C 1399.15,227.674 1401.15,226.34 1403.5,225.5 Z"/></g>
<g><path style="opacity:0.967" fill="#452767" d="M 962.5,228.5 C 960.15,229.861 957.816,231.194 955.5,232.5C 954.833,232.5 954.167,232.5 953.5,232.5C 955.967,230.83 958.633,229.163 961.5,227.5C 962.107,227.624 962.44,227.957 962.5,228.5 Z"/></g>
<g><path style="opacity:0.478" fill="#402c56" d="M 1518.5,228.5 C 1520.89,228.913 1523.22,229.579 1525.5,230.5C 1529.84,233.485 1534.17,236.151 1538.5,238.5C 1530.96,236.729 1524.29,233.395 1518.5,228.5 Z"/></g>
<g><path style="opacity:0.337" fill="#3d314d" d="M 827.5,230.5 C 829.027,230.427 830.027,231.094 830.5,232.5C 828.973,232.573 827.973,231.906 827.5,230.5 Z"/></g>
<g><path style="opacity:0.369" fill="#3d304d" d="M 1268.5,230.5 C 1270.03,230.427 1271.03,231.094 1271.5,232.5C 1269.97,232.573 1268.97,231.906 1268.5,230.5 Z"/></g>
<g><path style="opacity:0.241" fill="#3f314f" d="M 1100.5,232.5 C 1101.83,232.5 1102.5,233.167 1102.5,234.5C 1101.17,234.5 1100.5,233.833 1100.5,232.5 Z"/></g>
<g><path style="opacity:0.016" fill="#342842" d="M 312.5,232.5 C 315.513,232.581 317.513,233.914 318.5,236.5C 316.001,235.699 314.001,234.366 312.5,232.5 Z"/></g>
<g><path style="opacity:0.016" fill="#433058" d="M 1271.5,232.5 C 1273.63,232.554 1274.97,233.554 1275.5,235.5C 1273.37,235.446 1272.03,234.446 1271.5,232.5 Z"/></g>
<g><path style="opacity:0.012" fill="#3b2e49" d="M 1394.5,231.5 C 1393.83,232.833 1392.83,233.833 1391.5,234.5C 1391.5,232.5 1392.5,231.5 1394.5,231.5 Z"/></g>
<g><path style="opacity:0.012" fill="#31293a" d="M 833.5,235.5 C 832.833,235.167 832.167,234.833 831.5,234.5C 832.301,232.207 832.968,232.54 833.5,235.5 Z"/></g>
<g><path style="opacity:0.098" fill="#3f2f53" d="M 1110.5,237.5 C 1107.98,236.736 1105.65,235.736 1103.5,234.5C 1103.56,233.957 1103.89,233.624 1104.5,233.5C 1105.79,234.098 1107.13,234.598 1108.5,235C 1109.76,235.417 1110.42,236.25 1110.5,237.5 Z"/></g>
<g><path style="opacity:0.537" fill="#432d5d" d="M 72.5,241.5 C 65.3998,239.452 59.0665,236.118 53.5,231.5C 53.4346,231.062 53.6012,230.728 54,230.5C 60.3126,234.067 66.4792,237.734 72.5,241.5 Z"/></g>
<g><path style="opacity:0.106" fill="#423255" d="M 325.5,238.5 C 323.597,238.204 321.93,237.537 320.5,236.5C 320.56,235.957 320.893,235.624 321.5,235.5C 323.483,235.815 324.816,236.815 325.5,238.5 Z"/></g>
<g><path style="opacity:0.416" fill="#432d5d" d="M 862.5,246.5 C 852.627,243.991 843.294,240.325 834.5,235.5C 834.56,234.957 834.893,234.624 835.5,234.5C 844.738,238.293 853.738,242.293 862.5,246.5 Z"/></g>
<g><path style="opacity:0.067" fill="#3a2c4a" d="M 953.5,232.5 C 954.167,232.5 954.833,232.5 955.5,232.5C 953.802,234.867 951.469,236.534 948.5,237.5C 948.414,236.504 948.748,235.671 949.5,235C 951.066,234.392 952.4,233.558 953.5,232.5 Z"/></g>
<g><path style="opacity:0.241" fill="#432c5e" d="M 1390.5,234.5 C 1386.36,237.568 1381.69,239.568 1376.5,240.5C 1380.58,237.956 1384.91,235.622 1389.5,233.5C 1390.11,233.624 1390.44,233.957 1390.5,234.5 Z"/></g>
<g><path style="opacity:0.137" fill="#3d2c52" d="M 180.5,232.5 C 180.631,233.376 180.298,234.043 179.5,234.5C 173.554,237.368 167.554,240.034 161.5,242.5C 161.369,241.624 161.702,240.957 162.5,240.5C 168.642,238.014 174.642,235.347 180.5,232.5 Z"/></g>
<g><path style="opacity:0.196" fill="#402b57" d="M 947.5,237.5 C 943.134,240.012 938.467,242.012 933.5,243.5C 937.325,240.418 941.658,238.085 946.5,236.5C 947.107,236.624 947.44,236.957 947.5,237.5 Z"/></g>
<g><path style="opacity:0.784" fill="#442d5e" d="M 344.5,243.5 C 338.179,242.61 332.179,240.943 326.5,238.5C 326.735,237.903 327.235,237.57 328,237.5C 332.398,239.058 336.898,240.224 341.5,241C 343.119,241.236 344.119,242.069 344.5,243.5 Z"/></g>
<g><path style="opacity:0.706" fill="#442c5f" d="M 73.5,241.5 C 76.4353,241.717 79.2687,242.383 82,243.5C 83.3756,243.684 84.2089,244.351 84.5,245.5C 80.4632,244.935 76.7966,243.601 73.5,241.5 Z"/></g>
<g><path style="opacity:0.62" fill="#432d5d" d="M 1139.5,244.5 C 1130.81,243.5 1122.48,241.5 1114.5,238.5C 1114.56,237.957 1114.89,237.624 1115.5,237.5C 1122.2,240.121 1129.2,241.788 1136.5,242.5C 1138.03,242.64 1139.03,243.307 1139.5,244.5 Z"/></g>
<g><path style="opacity:0.761" fill="#442b60" d="M 1306.5,246.5 C 1297.32,244.713 1288.65,241.713 1280.5,237.5C 1280.56,236.957 1280.89,236.624 1281.5,236.5C 1289.82,240.173 1298.16,243.506 1306.5,246.5 Z"/></g>
<g><path style="opacity:0.361" fill="#3d2955" d="M 1376.5,240.5 C 1374.49,242.065 1372.16,243.065 1369.5,243.5C 1369.58,242.25 1370.24,241.417 1371.5,241C 1373.13,240.506 1374.8,240.34 1376.5,240.5 Z"/></g>
<g><path style="opacity:0.414" fill="#432d5c" d="M 1540.5,238.5 C 1549.26,239.775 1557.59,241.775 1565.5,244.5C 1556.75,243.755 1548.42,241.755 1540.5,238.5 Z"/></g>
<g><path style="opacity:0.588" fill="#432b5f" d="M 157.5,243.5 C 154.45,245.101 151.116,246.101 147.5,246.5C 147.611,245.883 147.944,245.383 148.5,245C 151.478,244.304 154.478,243.804 157.5,243.5 Z"/></g>
<g><path style="opacity:0.92" fill="#492d69" d="M 347.5,243.5 C 355.793,243.235 363.793,244.235 371.5,246.5C 371.5,246.833 371.5,247.167 371.5,247.5C 363.33,246.649 355.33,245.316 347.5,243.5 Z"/></g>
<g><path style="opacity:0.459" fill="#422e57" d="M 1139.5,244.5 C 1143.82,244.083 1147.82,244.75 1151.5,246.5C 1147.32,246.149 1143.32,245.482 1139.5,244.5 Z"/></g>
<g><path style="opacity:0.004" fill="#412b5b" d="M 1368.5,243.5 C 1365.78,244.913 1362.78,245.58 1359.5,245.5C 1362.22,244.087 1365.22,243.42 1368.5,243.5 Z"/></g>
<g><path style="opacity:0.847" fill="#46325d" d="M 1566.5,244.5 C 1571.12,244.156 1575.46,244.823 1579.5,246.5C 1574.95,246.376 1570.62,245.709 1566.5,244.5 Z"/></g>
<g><path style="opacity:0.257" fill="#382c46" d="M 239.5,121.5 C 239.667,163.501 239.5,205.501 239,247.5C 222.577,248.492 206.077,248.825 189.5,248.5C 189.666,241.492 189.5,234.492 189,227.5C 188.329,228.252 187.496,228.586 186.5,228.5C 187.287,226.896 188.62,226.229 190.5,226.5C 190.5,233.167 190.5,239.833 190.5,246.5C 206.5,246.5 222.5,246.5 238.5,246.5C 238.168,204.663 238.501,162.997 239.5,121.5 Z"/></g>
<g><path style="opacity:0.194" fill="#3a3243" d="M 371.5,246.5 C 373.781,246.077 375.448,246.744 376.5,248.5C 374.585,248.784 372.919,248.451 371.5,247.5C 371.5,247.167 371.5,246.833 371.5,246.5 Z"/></g>
<g><path style="opacity:0.198" fill="#3f334d" d="M 921.5,247.5 C 919.039,248.531 916.373,249.198 913.5,249.5C 913.881,248.069 914.881,247.236 916.5,247C 918.387,246.22 920.054,246.387 921.5,247.5 Z"/></g>
<g><path style="opacity:0.249" fill="#473759" d="M 963.5,227.5 C 963.56,226.957 963.893,226.624 964.5,226.5C 965.497,233.134 965.83,239.8 965.5,246.5C 981.5,246.5 997.5,246.5 1013.5,246.5C 997.534,248.485 981.201,249.152 964.5,248.5C 964.825,241.313 964.491,234.313 963.5,227.5 Z"/></g>
<g><path style="opacity:0.276" fill="#48335f" d="M 1186.5,203.5 C 1186.5,203.167 1186.5,202.833 1186.5,202.5C 1187.5,202.414 1188.33,202.748 1189,203.5C 1189.67,217.833 1189.67,232.167 1189,246.5C 1183.46,248.425 1177.63,249.092 1171.5,248.5C 1171.5,247.833 1171.5,247.167 1171.5,246.5C 1176.83,246.5 1182.17,246.5 1187.5,246.5C 1187.83,231.99 1187.5,217.657 1186.5,203.5 Z"/></g>
<g><path style="opacity:0.206" fill="#3f324d" d="M 1355.5,246.5 C 1352.67,248.413 1349.33,249.413 1345.5,249.5C 1345.88,248.069 1346.88,247.236 1348.5,247C 1350.81,246.503 1353.14,246.337 1355.5,246.5 Z"/></g>
<g><path style="opacity:0.218" fill="#3d3347" d="M 1584.5,246.5 C 1586.78,246.077 1588.45,246.744 1589.5,248.5C 1587.3,248.88 1585.64,248.213 1584.5,246.5 Z"/></g>
<g><path style="opacity:0.024" fill="#413154" d="M 88.5,246.5 C 91.0661,246.344 93.5661,246.678 96,247.5C 97.0299,247.836 97.5299,248.503 97.5,249.5C 93.9713,249.443 90.9713,248.443 88.5,246.5 Z"/></g>
<g><path style="opacity:0.202" fill="#3d314b" d="M 147.5,246.5 C 147.389,247.117 147.056,247.617 146.5,248C 143.832,248.567 141.166,249.067 138.5,249.5C 138.881,248.069 139.881,247.236 141.5,247C 143.473,246.505 145.473,246.338 147.5,246.5 Z"/></g>
<g><path style="opacity:0.024" fill="#413252" d="M 863.5,246.5 C 867.159,246.149 870.159,247.149 872.5,249.5C 869.834,249.067 867.168,248.567 864.5,248C 863.944,247.617 863.611,247.117 863.5,246.5 Z"/></g>
<g><path style="opacity:0.008" fill="#362e3e" d="M 1159.5,246.5 C 1163.5,246.5 1167.5,246.5 1171.5,246.5C 1171.5,247.167 1171.5,247.833 1171.5,248.5C 1167.82,248.665 1164.15,248.499 1160.5,248C 1159.94,247.617 1159.61,247.117 1159.5,246.5 Z"/></g>
<g><path style="opacity:0.024" fill="#433058" d="M 1307.5,246.5 C 1312.02,246.502 1316.52,246.836 1321,247.5C 1322.99,247.569 1324.49,248.235 1325.5,249.5C 1319.8,249.404 1314.14,248.904 1308.5,248C 1307.94,247.617 1307.61,247.117 1307.5,246.5 Z"/></g>
<g><path style="opacity:0.047" fill="#3a3045" d="M 104.5,250.5 C 102.901,250.768 101.568,250.434 100.5,249.5C 100.917,248.876 101.584,248.543 102.5,248.5C 103.713,248.747 104.38,249.414 104.5,250.5 Z"/></g>
<g><path style="opacity:0.047" fill="#3b3145" d="M 134.5,249.5 C 133.791,250.404 132.791,250.737 131.5,250.5C 132.053,248.448 133.053,248.115 134.5,249.5 Z"/></g>
<g><path style="opacity:0.09" fill="#432d5c" d="M 875.5,249.5 C 876.449,248.848 877.615,248.514 879,248.5C 880.681,248.608 881.848,249.275 882.5,250.5C 880.05,250.702 877.717,250.369 875.5,249.5 Z"/></g>
<g><path style="opacity:0.031" fill="#393042" d="M 908.5,249.5 C 907.432,250.434 906.099,250.768 904.5,250.5C 904.62,249.414 905.287,248.747 906.5,248.5C 907.416,248.543 908.083,248.876 908.5,249.5 Z"/></g>
</svg>
