<?xml version="1.0" encoding="UTF-8"?>
<!DOCTYPE svg PUBLIC "-//W3C//DTD SVG 1.1//EN" "http://www.w3.org/Graphics/SVG/1.1/DTD/svg11.dtd">
<svg xmlns="http://www.w3.org/2000/svg" version="1.1" width="1008px" height="1008px" style="shape-rendering:geometricPrecision; text-rendering:geometricPrecision; image-rendering:optimizeQuality; fill-rule:evenodd; clip-rule:evenodd" xmlns:xlink="http://www.w3.org/1999/xlink">
<g><path style="opacity:1" fill="#fe302b" d="M 498.5,323.5 C 504.167,323.5 509.833,323.5 515.5,323.5C 517.397,324.805 519.731,325.471 522.5,325.5C 525.025,325.497 527.359,325.163 529.5,324.5C 599.131,334.335 648.631,371.002 678,434.5C 681.413,442.572 683.913,450.905 685.5,459.5C 685.843,468.241 686.843,476.908 688.5,485.5C 689.183,485.863 689.85,486.196 690.5,486.5C 691.81,498.829 691.81,511.162 690.5,523.5C 688.53,529.906 687.197,536.572 686.5,543.5C 672.503,601.336 638.503,642.836 584.5,668C 566.777,675.186 548.444,680.019 529.5,682.5C 528.378,681.844 527.045,681.511 525.5,681.5C 523.117,681.361 521.117,682.028 519.5,683.5C 515.167,683.5 510.833,683.5 506.5,683.5C 504.952,682.206 502.952,681.539 500.5,681.5C 498.304,681.505 496.304,681.838 494.5,682.5C 481.635,682.323 472.135,676.656 466,665.5C 428.919,601.669 391.586,538.002 354,474.5C 346.075,459.885 344.408,444.551 349,428.5C 378.233,369.138 425.733,334.471 491.5,324.5C 492.274,325.147 493.274,325.48 494.5,325.5C 496.355,325.66 497.688,324.993 498.5,323.5 Z"/></g>
<g><path style="opacity:0.667" fill="#981c1a" d="M 498.5,323.5 C 497.688,324.993 496.355,325.66 494.5,325.5C 493.274,325.48 492.274,325.147 491.5,324.5C 493.903,324.552 496.236,324.219 498.5,323.5 Z"/></g>
<g><path style="opacity:0.698" fill="#aa201d" d="M 515.5,323.5 C 520.193,323.54 524.859,323.873 529.5,324.5C 527.359,325.163 525.025,325.497 522.5,325.5C 519.731,325.471 517.397,324.805 515.5,323.5 Z"/></g>
<g><path style="opacity:0.998" fill="#fe302b" d="M 1004.5,354.5 C 1006.82,452.806 1007.15,551.14 1005.5,649.5C 999.216,665.93 987.216,675.097 969.5,677C 887.833,677.667 806.167,677.667 724.5,677C 716.096,676.414 710.429,672.247 707.5,664.5C 706.296,659.823 706.296,655.156 707.5,650.5C 723.11,627.612 735.277,602.945 744,576.5C 745.996,568.849 747.83,561.183 749.5,553.5C 750.693,553.03 751.36,552.03 751.5,550.5C 752.414,544.856 753.081,539.189 753.5,533.5C 754.797,513.835 754.797,494.168 753.5,474.5C 753.081,468.811 752.414,463.144 751.5,457.5C 751.36,455.97 750.693,454.97 749.5,454.5C 747.676,446.872 746.01,439.205 744.5,431.5C 744.799,429.396 744.466,427.396 743.5,425.5C 742.602,422.732 741.269,420.399 739.5,418.5C 731.172,396.841 720.506,376.508 707.5,357.5C 706.226,351.508 706.226,345.508 707.5,339.5C 710.5,334.687 714.834,331.521 720.5,330C 805.677,329.507 890.677,329.34 975.5,329.5C 985.814,332.565 994.314,338.232 1001,346.5C 1002.45,349.071 1003.62,351.738 1004.5,354.5 Z"/></g>
<g><path style="opacity:0.997" fill="#fe302b" d="M 375.5,637.5 C 375.336,644.559 374.67,651.559 373.5,658.5C 368.264,669.866 359.264,676.033 346.5,677C 240.833,677.667 135.167,677.667 29.5,677C 14.0652,674.721 4.06521,666.221 -0.5,651.5C -0.5,647.167 -0.5,642.833 -0.5,638.5C 1.83855,634.477 3.67189,630.144 5,625.5C 57.9188,535.998 110.586,446.331 163,356.5C 178.82,341.385 195.153,341.052 212,355.5C 265.333,446.167 318.667,536.833 372,627.5C 374.035,630.561 375.201,633.895 375.5,637.5 Z"/></g>
<g><path style="opacity:0.705" fill="#c72622" d="M 707.5,339.5 C 706.226,345.508 706.226,351.508 707.5,357.5C 703.508,351.518 703.508,345.518 707.5,339.5 Z"/></g>
<g><path style="opacity:0.843" fill="#d92924" d="M 1004.5,354.5 C 1005.8,356.371 1006.8,358.371 1007.5,360.5C 1007.5,455.5 1007.5,550.5 1007.5,645.5C 1006.83,646.833 1006.17,648.167 1005.5,649.5C 1007.15,551.14 1006.82,452.806 1004.5,354.5 Z"/></g>
<g><path style="opacity:0.982" fill="#cb2723" d="M 739.5,418.5 C 741.269,420.399 742.602,422.732 743.5,425.5C 744.466,427.396 744.799,429.396 744.5,431.5C 742.262,427.461 740.595,423.128 739.5,418.5 Z"/></g>
<g><path style="opacity:0.62" fill="#be2420" d="M 749.5,454.5 C 750.693,454.97 751.36,455.97 751.5,457.5C 752.414,463.144 753.081,468.811 753.5,474.5C 751.899,468.004 750.566,461.337 749.5,454.5 Z"/></g>
<g><path style="opacity:1" fill="#e32d28" d="M 685.5,459.5 C 688.334,468.158 690.001,477.158 690.5,486.5C 689.85,486.196 689.183,485.863 688.5,485.5C 686.843,476.908 685.843,468.241 685.5,459.5 Z"/></g>
<g><path style="opacity:0.761" fill="#c32521" d="M 690.5,523.5 C 689.989,530.461 688.656,537.127 686.5,543.5C 687.197,536.572 688.53,529.906 690.5,523.5 Z"/></g>
<g><path style="opacity:0.667" fill="#c42521" d="M 753.5,533.5 C 753.081,539.189 752.414,544.856 751.5,550.5C 751.36,552.03 750.693,553.03 749.5,553.5C 750.566,546.663 751.899,539.996 753.5,533.5 Z"/></g>
<g><path style="opacity:0.9" fill="#dd2a26" d="M 375.5,637.5 C 376.21,639.893 376.877,642.393 377.5,645C 377.093,649.859 375.76,654.359 373.5,658.5C 374.67,651.559 375.336,644.559 375.5,637.5 Z"/></g>
<g><path style="opacity:0.588" fill="#c92621" d="M 707.5,650.5 C 706.296,655.156 706.296,659.823 707.5,664.5C 704.833,659.833 704.833,655.167 707.5,650.5 Z"/></g>
<g><path style="opacity:0.667" fill="#b7221f" d="M 494.5,682.5 C 496.304,681.838 498.304,681.505 500.5,681.5C 502.952,681.539 504.952,682.206 506.5,683.5C 502.466,683.495 498.466,683.162 494.5,682.5 Z"/></g>
<g><path style="opacity:0.651" fill="#a51f1c" d="M 529.5,682.5 C 526.167,682.833 522.833,683.167 519.5,683.5C 521.117,682.028 523.117,681.361 525.5,681.5C 527.045,681.511 528.378,681.844 529.5,682.5 Z"/></g>
</svg>
