<svg xmlns="http://www.w3.org/2000/svg" width="79.968" height="79.968" viewBox="0 0 2352 2352">
  <defs>
    <style>
      .cls-1 {
        fill: #ff312c;
        fill-rule: evenodd;
      }
    </style>
  </defs>
  <path id="Фигура_6" data-name="Фигура 6" class="cls-1" d="M449.1,1304.42l371.7-2.28s52.329-.58,63.85-45.6c11.656-45.56-11.4-70.7-11.4-70.7L515.233,576.991s-25.569-32.092-59.289-31.925c-32.426.161-57.008,29.645-57.008,29.645L40.921,1185.84s-28.137,41.46-6.841,77.54c22.642,38.35,63.85,38.76,63.85,38.76ZM829.921,825.549L1099,1288.46s15.27,18.91,34.21,22.8,191.91,36.12,344.33-107.17c63.66-59.85,203.58-247.095,77.53-488-29.39-56.185-132.93-213.837-351.17-218.913-73.26-1.7-227.7,15.561-348.9,184.708C788.484,774.729,829.921,825.549,829.921,825.549ZM1682.77,1302.14h556.41s40.32,2.39,66.13-31.92c22.03-29.29,18.24-54.73,18.24-54.73l2.28-617.976s2.23-32.636-22.8-57.008c-30.93-30.106-52.45-27.365-52.45-27.365l-579.21-2.28s-26.57,5.562-31.92,25.084-4.61,39.475,20.52,70.691,93.93,158.758,88.93,312.407c-2.86,186.327-98.87,301.487-104.89,316.967C1619.31,1299.51,1682.77,1302.14,1682.77,1302.14Z"/>
  <path id="Фигура_9" data-name="Фигура 9" class="cls-1" d="M115.341,1831.48H26.125V1666.93H75.689l95.164-243.86H311.615l95.163,243.86H454.36v164.55H365.144v-75.34h-249.8v75.34Zm120.936-323.16h13.878l59.478,158.61H178.783Zm422.288-95.16a176.445,176.445,0,1,1-176.449,176.45A176.45,176.45,0,0,1,658.565,1413.16Zm0.991,93.18c44.345,0,80.294,37.72,80.294,84.26s-35.949,84.26-80.294,84.26-80.294-37.73-80.294-84.26S615.211,1506.34,659.556,1506.34Zm236.917-81.29v331.09h91.2V1573.75h13.879l77.32,113h43.62l79.3-113h11.89v182.39h91.2V1425.05H1197.82l-91.19,130.85h-9.92l-89.21-130.85H896.473Zm536.287,218.1c33.38,0,60.44,27.51,60.44,61.44s-27.06,61.45-60.44,61.45-60.45-27.51-60.45-61.45S1399.37,1643.15,1432.76,1643.15Zm127.87-218.1h87.24v33.71h3.96s18.78-42.03,97.15-41.64,153.88,49.22,152.66,170.5c-0.47,46.49-4.7,165.99-148.7,176.45-62.06,4.51-97.14-39.65-97.14-39.65h-3.97v132.83h-91.2v-432.2Zm168.52,75.34c44.9,0,81.29,39.94,81.29,89.22s-36.39,89.21-81.29,89.21-81.28-39.94-81.28-89.21S1684.26,1500.39,1729.15,1500.39Zm204.21-75.34h105.07l87.24,222.05h11.89l87.24-222.05h101.11L2177.21,1772s-24.81,41.88-47.58,57.5c-15.7,10.77-49.55,27.85-75.34,27.75-19.18-.07-85.25,0-85.25,0v-91.2h105.08s7.51-8,5.95-9.91c-2.47-3.02-22.93-38.43-29.74-55.51S1933.36,1425.05,1933.36,1425.05Z"/>
</svg>
