<?xml version="1.0" encoding="UTF-8"?>
<!DOCTYPE svg PUBLIC "-//W3C//DTD SVG 1.1//EN" "http://www.w3.org/Graphics/SVG/1.1/DTD/svg11.dtd">
<svg xmlns="http://www.w3.org/2000/svg" version="1.1" width="220px" height="220px" style="shape-rendering:geometricPrecision; text-rendering:geometricPrecision; image-rendering:optimizeQuality; fill-rule:evenodd; clip-rule:evenodd" xmlns:xlink="http://www.w3.org/1999/xlink">
<g><path style="opacity:1" fill="#fb4f00" d="M 162.5,-0.5 C 167.833,-0.5 173.167,-0.5 178.5,-0.5C 191.304,1.98441 202.137,7.98441 211,17.5C 213.656,21.1438 215.489,25.1438 216.5,29.5C 217.48,86.8145 217.813,144.148 217.5,201.5C 205.232,208.868 191.898,213.368 177.5,215C 135.07,166.95 81.737,139.783 17.5,133.5C 15.0122,131.612 12.0122,130.945 8.5,131.5C 8.31988,126.66 6.65322,122.66 3.5,119.5C 3.5,118.5 3.5,117.5 3.5,116.5C 2.21063,112.009 2.21063,107.509 3.5,103C 2.90127,100.308 1.90127,97.8079 0.5,95.5C 2.49043,93.5019 4.49043,91.5019 6.5,89.5C 47.966,64.5304 89.2993,39.3637 130.5,14C 137.167,10.3333 143.833,6.66667 150.5,3C 154.647,1.89052 158.647,0.723852 162.5,-0.5 Z M 180.5,38.5 C 180.5,81.5 180.5,124.5 180.5,167.5C 145.002,131.921 102.002,110.921 51.5,104.5C 88.5,82 125.5,59.5 162.5,37C 165.689,35.2398 169.023,33.7398 172.5,32.5C 176.649,32.6623 179.316,34.6623 180.5,38.5 Z"/></g>
<g><path style="opacity:0.745" fill="#a83502" d="M 180.5,38.5 C 181.833,59.9896 182.5,81.823 182.5,104C 182.167,125.833 181.833,147.667 181.5,169.5C 180.702,169.043 180.369,168.376 180.5,167.5C 180.5,124.5 180.5,81.5 180.5,38.5 Z"/></g>
<g><path style="opacity:0.855" fill="#bd3b00" d="M 216.5,29.5 C 217.712,32.7796 218.712,36.1129 219.5,39.5C 219.5,93.1667 219.5,146.833 219.5,200.5C 218.833,200.833 218.167,201.167 217.5,201.5C 217.813,144.148 217.48,86.8145 216.5,29.5 Z"/></g>
<g><path style="opacity:0.997" fill="#d84500" d="M 6.5,89.5 C 4.49043,91.5019 2.49043,93.5019 0.5,95.5C 1.90127,97.8079 2.90127,100.308 3.5,103C 2.21063,107.509 2.21063,112.009 3.5,116.5C 1.52706,111.331 0.193722,105.998 -0.5,100.5C -0.5,97.8333 -0.5,95.1667 -0.5,92.5C 1.9798,91.758 4.31314,90.758 6.5,89.5 Z"/></g>
<g><path style="opacity:0.883" fill="#c23d01" d="M 3.5,119.5 C 6.65322,122.66 8.31988,126.66 8.5,131.5C 12.0122,130.945 15.0122,131.612 17.5,133.5C 14.0901,133.543 10.7568,133.043 7.5,132C 5.6657,127.997 4.33236,123.83 3.5,119.5 Z"/></g>
<g><path style="opacity:0.999" fill="#f74e00" d="M 145.5,216.5 C 144.262,216.81 144.262,217.31 145.5,218C 142.518,218.498 139.518,218.665 136.5,218.5C 101.387,217.09 70.7205,205.09 44.5,182.5C 42.1002,179.097 39.1002,176.43 35.5,174.5C 30.8509,170.007 26.6842,165.007 23,159.5C 22.5683,158.4 23.0683,157.733 24.5,157.5C 65.8357,160.02 101.836,174.853 132.5,202C 137.491,206.478 141.824,211.311 145.5,216.5 Z"/></g>
<g><path style="opacity:0.624" fill="#aa3500" d="M 35.5,174.5 C 39.1002,176.43 42.1002,179.097 44.5,182.5C 40.8998,180.57 37.8998,177.903 35.5,174.5 Z"/></g>
<g><path style="opacity:0.489" fill="#882c01" d="M 145.5,216.5 C 146.906,216.973 147.573,217.973 147.5,219.5C 143.833,219.5 140.167,219.5 136.5,219.5C 136.5,219.167 136.5,218.833 136.5,218.5C 139.518,218.665 142.518,218.498 145.5,218C 144.262,217.31 144.262,216.81 145.5,216.5 Z"/></g>
</svg>
