<?xml version="1.0" encoding="UTF-8"?>
<!DOCTYPE svg PUBLIC "-//W3C//DTD SVG 1.1//EN" "http://www.w3.org/Graphics/SVG/1.1/DTD/svg11.dtd">
<svg xmlns="http://www.w3.org/2000/svg" version="1.1" width="339px" height="338px" style="shape-rendering:geometricPrecision; text-rendering:geometricPrecision; image-rendering:optimizeQuality; fill-rule:evenodd; clip-rule:evenodd" xmlns:xlink="http://www.w3.org/1999/xlink">
<g><path style="opacity:1" fill="#78d3a7" d="M 153.5,0.5 C 153.5,0.833333 153.5,1.16667 153.5,1.5C 153.167,1.5 152.833,1.5 152.5,1.5C 148.566,2.35968 144.566,2.69302 140.5,2.5C 144.591,1.10452 148.924,0.437858 153.5,0.5 Z"/></g>
<g><path style="opacity:1" fill="#1fb669" d="M 153.5,1.5 C 153.5,1.16667 153.5,0.833333 153.5,0.5C 155.5,0.5 157.5,0.5 159.5,0.5C 162.833,0.5 166.167,0.5 169.5,0.5C 169.5,56.5 169.5,112.5 169.5,168.5C 169.167,168.5 168.833,168.5 168.5,168.5C 159.827,168.334 151.16,168.5 142.5,169C 141.584,169.278 140.918,169.778 140.5,170.5C 138.833,172.167 137.167,173.833 135.5,175.5C 134.094,175.973 133.427,176.973 133.5,178.5C 132.501,229.664 132.168,280.997 132.5,332.5C 131.167,332.5 129.833,332.5 128.5,332.5C 126.485,331.076 124.152,330.41 121.5,330.5C 119.485,329.076 117.152,328.41 114.5,328.5C 111.603,327.871 108.936,326.871 106.5,325.5C 104.824,323.166 102.491,322.166 99.5,322.5C 97.3877,320.229 94.721,318.896 91.5,318.5C 89.1815,318.008 87.1815,317.008 85.5,315.5C 85.0269,314.094 84.0269,313.427 82.5,313.5C 82.0269,312.094 81.0269,311.427 79.5,311.5C 78.1995,310.118 77.3661,308.452 77,306.5C 76.4387,307.022 75.772,307.355 75,307.5C 73.3379,306.003 71.8379,304.337 70.5,302.5C 69.3112,301.571 67.9778,301.238 66.5,301.5C 64.7541,299.748 62.7541,298.415 60.5,297.5C 60.0269,296.094 59.0269,295.427 57.5,295.5C 43.5449,283.871 32.2116,270.204 23.5,254.5C 23.7148,252.821 23.0481,251.821 21.5,251.5C 21.5,251.167 21.5,250.833 21.5,250.5C 21.6567,249.127 21.49,247.793 21,246.5C 18.5315,243.528 16.6982,240.194 15.5,236.5C 15.8333,235.833 16.1667,235.167 16.5,234.5C 16.1543,233.304 15.6543,233.304 15,234.5C 14.4602,231.477 12.9602,229.144 10.5,227.5C 9.76589,226.292 9.43255,224.959 9.5,223.5C 9.06704,220.834 8.56704,218.168 8,215.5C 7.61742,214.944 7.11742,214.611 6.5,214.5C 5.2318,212.095 4.56513,209.428 4.5,206.5C 4.66212,204.473 4.49546,202.473 4,200.5C 3.61742,199.944 3.11742,199.611 2.5,199.5C 1.79287,196.214 1.45954,192.881 1.5,189.5C 1.05134,171.768 1.718,154.101 3.5,136.5C 3.54877,132.922 4.21543,129.589 5.5,126.5C 6.92381,124.485 7.59047,122.152 7.5,119.5C 7.5,119.167 7.5,118.833 7.5,118.5C 9.6545,116.383 10.6545,113.716 10.5,110.5C 13.7773,107.267 15.444,103.267 15.5,98.5C 16.3257,95.5152 17.659,92.8485 19.5,90.5C 20.3764,90.6309 21.0431,90.2975 21.5,89.5C 22.5785,86.7931 23.5785,84.1264 24.5,81.5C 25.9063,81.0269 26.573,80.0269 26.5,78.5C 27.4333,75.6298 29.1,73.2964 31.5,71.5C 33.3046,70.7629 34.9713,69.7629 36.5,68.5C 37.6869,69.8938 38.3535,69.7271 38.5,68C 38.0946,67.0546 37.428,66.3879 36.5,66C 37.2524,65.3292 37.5858,64.4959 37.5,63.5C 39.7847,59.2733 42.7847,55.6067 46.5,52.5C 49.8333,51.1667 52.1667,48.8333 53.5,45.5C 55.4044,45.2624 56.7377,44.2624 57.5,42.5C 60.2901,38.3717 63.9568,35.3717 68.5,33.5C 70.4044,33.2624 71.7377,32.2624 72.5,30.5C 72.9731,29.0937 73.9731,28.427 75.5,28.5C 77.0269,28.573 78.0269,27.9063 78.5,26.5C 79.6594,24.7497 81.326,23.7497 83.5,23.5C 85.8477,23.4077 87.5144,22.4077 88.5,20.5C 92.2582,19.9246 95.7582,18.5912 99,16.5C 99.772,16.6448 100.439,16.9781 101,17.5C 102.193,15.5029 103.693,13.8362 105.5,12.5C 108.54,10.6541 111.873,9.32079 115.5,8.5C 118.152,8.59047 120.485,7.92381 122.5,6.5C 125.495,6.70621 128.162,6.03954 130.5,4.5C 133.589,3.21543 136.922,2.54877 140.5,2.5C 144.566,2.69302 148.566,2.35968 152.5,1.5C 152.389,2.11742 152.056,2.61742 151.5,3C 156.823,3.49935 162.156,3.66602 167.5,3.5C 167.5,57.8333 167.5,112.167 167.5,166.5C 158.827,166.334 150.16,166.5 141.5,167C 150.494,167.5 159.494,167.666 168.5,167.5C 168.5,112.167 168.5,56.8333 168.5,1.5C 163.5,1.5 158.5,1.5 153.5,1.5 Z M 141.5,97.5 C 145.096,98.9689 148.43,100.969 151.5,103.5C 153.424,105.695 155.091,108.028 156.5,110.5C 157.961,116.272 157.628,121.939 155.5,127.5C 153.833,129.5 152.167,131.5 150.5,133.5C 144.212,138.313 137.212,139.647 129.5,137.5C 122.676,134.675 118.343,129.675 116.5,122.5C 116.307,118.434 116.64,114.434 117.5,110.5C 118.167,109.167 118.833,107.833 119.5,106.5C 125.206,99.6507 132.539,96.6507 141.5,97.5 Z"/></g>
<g><path style="opacity:1" fill="#81cfa6" d="M 130.5,4.5 C 128.162,6.03954 125.495,6.70621 122.5,6.5C 124.905,5.2318 127.572,4.56513 130.5,4.5 Z"/></g>
<g><path style="opacity:1" fill="#86d6b2" d="M 122.5,6.5 C 120.485,7.92381 118.152,8.59047 115.5,8.5C 117.515,7.07619 119.848,6.40953 122.5,6.5 Z"/></g>
<g><path style="opacity:1" fill="#71d1a0" d="M 216.5,6.5 C 220.775,7.3194 224.775,8.65273 228.5,10.5C 223.956,10.5409 219.956,9.20752 216.5,6.5 Z"/></g>
<g><path style="opacity:1" fill="#20b669" d="M 198.5,2.5 C 204.814,2.96015 210.814,4.29349 216.5,6.5C 219.956,9.20752 223.956,10.5409 228.5,10.5C 229.287,12.1042 230.62,12.7709 232.5,12.5C 232.833,12.5 233.167,12.5 233.5,12.5C 233.351,13.552 233.517,14.552 234,15.5C 236.027,15.0137 238.193,15.0137 240.5,15.5C 241.287,17.1042 242.62,17.7709 244.5,17.5C 246.711,18.1228 248.711,19.1228 250.5,20.5C 251.733,22.7964 253.733,24.1298 256.5,24.5C 256.561,26.5922 257.561,28.0922 259.5,29C 261.18,28.2288 262.847,28.3955 264.5,29.5C 275.311,35.6341 284.644,43.6341 292.5,53.5C 292.833,55.8333 294.167,57.1667 296.5,57.5C 296.427,59.0269 297.094,60.0269 298.5,60.5C 299.5,60.8333 300.167,61.5 300.5,62.5C 300.738,64.4044 301.738,65.7377 303.5,66.5C 304.167,66.5 304.5,66.8333 304.5,67.5C 304.427,69.0269 305.094,70.0269 306.5,70.5C 306.738,72.4044 307.738,73.7377 309.5,74.5C 309.241,76.9893 310.241,78.656 312.5,79.5C 314.588,81.3356 315.921,83.6689 316.5,86.5C 316.427,88.0269 317.094,89.0269 318.5,89.5C 320.341,91.8485 321.674,94.5152 322.5,97.5C 322.166,100.491 323.166,102.824 325.5,104.5C 326.738,106.214 327.405,108.214 327.5,110.5C 328.589,115.767 330.256,120.767 332.5,125.5C 334.26,129.547 335.26,133.88 335.5,138.5C 335.444,143.731 336.111,148.731 337.5,153.5C 337.328,154.492 337.662,155.158 338.5,155.5C 338.5,164.5 338.5,173.5 338.5,182.5C 338.167,182.5 337.833,182.5 337.5,182.5C 335.865,189.276 334.865,196.276 334.5,203.5C 334.5,204.5 334.5,205.5 334.5,206.5C 331.8,210.272 330.466,214.605 330.5,219.5C 329.069,220.78 328.402,222.447 328.5,224.5C 328.567,225.959 328.234,227.292 327.5,228.5C 325.896,229.287 325.229,230.62 325.5,232.5C 324.069,233.78 323.402,235.447 323.5,237.5C 321.275,243.618 318.275,249.285 314.5,254.5C 313.312,255.684 312.145,255.684 311,254.5C 311.019,256.107 311.185,257.774 311.5,259.5C 310.5,259.5 309.5,259.5 308.5,259.5C 308.5,260.5 308.5,261.5 308.5,262.5C 304.839,262.426 304.172,263.426 306.5,265.5C 305.624,266.251 304.624,266.751 303.5,267C 304.252,267.671 304.586,268.504 304.5,269.5C 302.501,268.143 301.335,268.81 301,271.5C 300.282,270.549 299.449,270.383 298.5,271C 300.35,274.466 299.35,276.299 295.5,276.5C 295.5,277.833 295.5,279.167 295.5,280.5C 295.167,281.5 294.5,282.167 293.5,282.5C 292.5,282.5 291.5,282.5 290.5,282.5C 290.5,283.833 290.5,285.167 290.5,286.5C 286.068,286.287 283.735,288.62 283.5,293.5C 278.099,298.241 272.433,302.574 266.5,306.5C 266.631,305.624 266.298,304.957 265.5,304.5C 262.845,307.411 259.511,309.077 255.5,309.5C 255.421,311.128 255.088,312.795 254.5,314.5C 249.755,317.535 244.755,320.202 239.5,322.5C 236.351,322.415 233.684,323.415 231.5,325.5C 230.041,325.433 228.708,325.766 227.5,326.5C 226.127,326.657 224.793,326.49 223.5,326C 224.167,325.667 224.833,325.333 225.5,325C 222.833,324.333 220.167,324.333 217.5,325C 219.167,325.333 220.833,325.667 222.5,326C 218.014,329.078 213.348,331.245 208.5,332.5C 205.572,332.565 202.905,333.232 200.5,334.5C 196.081,335.972 191.414,336.638 186.5,336.5C 175.833,336.5 165.167,336.5 154.5,336.5C 154.5,287.5 154.5,238.5 154.5,189.5C 162.684,189.826 170.684,189.492 178.5,188.5C 180.843,187.656 183.176,186.656 185.5,185.5C 188.518,184.145 189.851,181.812 189.5,178.5C 190.499,120.002 190.832,61.3357 190.5,2.5C 193.167,2.5 195.833,2.5 198.5,2.5 Z M 246.5,221.5 C 246.973,222.906 247.973,223.573 249.5,223.5C 257.139,231.862 258.472,241.196 253.5,251.5C 251.167,253.167 249.167,255.167 247.5,257.5C 245.597,257.796 243.93,258.463 242.5,259.5C 237.431,260.655 232.431,260.321 227.5,258.5C 226.71,257.599 225.71,256.932 224.5,256.5C 222.5,254.833 220.5,253.167 218.5,251.5C 212.175,236.731 216.175,226.064 230.5,219.5C 235.9,218.617 241.233,219.284 246.5,221.5 Z M 284.5,218.5 C 287.791,219.257 291.124,219.924 294.5,220.5C 294.973,221.906 295.973,222.573 297.5,222.5C 298.5,224.167 299.833,225.5 301.5,226.5C 302.512,227.872 303.512,229.205 304.5,230.5C 304.721,233.067 305.388,235.401 306.5,237.5C 306.133,242.003 305.133,246.336 303.5,250.5C 301.5,253.167 299.167,255.5 296.5,257.5C 294.847,257.66 293.514,258.326 292.5,259.5C 286.784,260.742 281.284,260.076 276,257.5C 275.601,257.728 275.435,258.062 275.5,258.5C 265.077,250.365 262.577,240.365 268,228.5C 270.729,225.601 273.562,222.934 276.5,220.5C 279.373,220.198 282.039,219.531 284.5,218.5 Z M 192.5,219.5 C 198.751,222.083 203.418,226.416 206.5,232.5C 207.624,237.187 207.624,241.853 206.5,246.5C 204.252,251.751 200.585,255.751 195.5,258.5C 190.185,260.186 184.852,260.519 179.5,259.5C 173.416,256.418 169.083,251.751 166.5,245.5C 166.675,243.379 166.341,241.379 165.5,239.5C 166.475,236.689 167.142,233.689 167.5,230.5C 173.237,221.244 181.571,217.577 192.5,219.5 Z"/></g>
<g><path style="opacity:0.608" fill="#9cdebd" d="M 159.5,0.5 C 159.5,0.166667 159.5,-0.166667 159.5,-0.5C 163.167,-0.5 166.833,-0.5 170.5,-0.5C 170.832,56.0025 170.499,112.336 169.5,168.5C 169.5,112.5 169.5,56.5 169.5,0.5C 166.167,0.5 162.833,0.5 159.5,0.5 Z"/></g>
<g><path style="opacity:0.969" fill="#7dd4a8" d="M 228.5,10.5 C 230.153,10.6596 231.486,11.3263 232.5,12.5C 230.62,12.7709 229.287,12.1042 228.5,10.5 Z"/></g>
<g><path style="opacity:1" fill="#67ca95" d="M 233.5,12.5 C 236.018,13.2638 238.351,14.2638 240.5,15.5C 238.193,15.0137 236.027,15.0137 234,15.5C 233.517,14.552 233.351,13.552 233.5,12.5 Z"/></g>
<g><path style="opacity:0.82" fill="#8cdab2" d="M 240.5,15.5 C 242.153,15.6596 243.486,16.3263 244.5,17.5C 242.62,17.7709 241.287,17.1042 240.5,15.5 Z"/></g>
<g><path style="opacity:0.994" fill="#86d6ae" d="M 198.5,2.5 C 195.833,2.5 193.167,2.5 190.5,2.5C 190.832,61.3357 190.499,120.002 189.5,178.5C 189.5,119.5 189.5,60.5 189.5,1.5C 192.713,1.19 195.713,1.52333 198.5,2.5 Z"/></g>
<g><path style="opacity:1" fill="#4bc083" d="M 105.5,12.5 C 103.693,13.8362 102.193,15.5029 101,17.5C 100.439,16.9781 99.772,16.6448 99,16.5C 95.7582,18.5912 92.2582,19.9246 88.5,20.5C 93.7041,17.067 99.3708,14.4003 105.5,12.5 Z"/></g>
<g><path style="opacity:1" fill="#70d1a0" d="M 250.5,20.5 C 252.882,21.3507 254.882,22.684 256.5,24.5C 253.733,24.1298 251.733,22.7964 250.5,20.5 Z"/></g>
<g><path style="opacity:1" fill="#62cc97" d="M 88.5,20.5 C 87.5144,22.4077 85.8477,23.4077 83.5,23.5C 84.6594,21.7497 86.326,20.7497 88.5,20.5 Z"/></g>
<g><path style="opacity:1" fill="#21b56d" d="M 195.5,8.5 C 197.339,9.75249 199.172,9.75249 201,8.5C 201.167,8.83333 201.333,9.16667 201.5,9.5C 199.955,10.4519 198.288,10.7852 196.5,10.5C 195.864,63.1567 195.198,115.823 194.5,168.5C 193.692,170.423 193.192,172.423 193,174.5C 192.333,119.5 192.333,64.5 193,9.5C 193.333,11.8333 193.667,14.1667 194,16.5C 194.272,13.7462 194.772,11.0795 195.5,8.5 Z"/></g>
<g><path style="opacity:1" fill="#0aaf5b" d="M 152.5,1.5 C 152.833,1.5 153.167,1.5 153.5,1.5C 158.5,1.5 163.5,1.5 168.5,1.5C 168.5,56.8333 168.5,112.167 168.5,167.5C 159.494,167.666 150.494,167.5 141.5,167C 150.16,166.5 158.827,166.334 167.5,166.5C 167.5,112.167 167.5,57.8333 167.5,3.5C 162.156,3.66602 156.823,3.49935 151.5,3C 152.056,2.61742 152.389,2.11742 152.5,1.5 Z"/></g>
<g><path style="opacity:1" fill="#4cbe83" d="M 256.5,24.5 C 259.704,25.3833 262.371,27.0499 264.5,29.5C 262.847,28.3955 261.18,28.2288 259.5,29C 257.561,28.0922 256.561,26.5922 256.5,24.5 Z"/></g>
<g><path style="opacity:1" fill="#69c99a" d="M 78.5,26.5 C 78.0269,27.9063 77.0269,28.573 75.5,28.5C 75.9731,27.0937 76.9731,26.427 78.5,26.5 Z"/></g>
<g><path style="opacity:1" fill="#6bcb9b" d="M 72.5,30.5 C 71.7377,32.2624 70.4044,33.2624 68.5,33.5C 69.2623,31.7376 70.5956,30.7376 72.5,30.5 Z"/></g>
<g><path style="opacity:1" fill="#76d3a0" d="M 57.5,42.5 C 56.7377,44.2624 55.4044,45.2624 53.5,45.5C 54.2623,43.7376 55.5956,42.7376 57.5,42.5 Z"/></g>
<g><path style="opacity:1" fill="#68cc98" d="M 53.5,45.5 C 52.1667,48.8333 49.8333,51.1667 46.5,52.5C 48.5,49.8333 50.8333,47.5 53.5,45.5 Z"/></g>
<g><path style="opacity:1" fill="#70c898" d="M 292.5,53.5 C 294.167,54.5 295.5,55.8333 296.5,57.5C 294.167,57.1667 292.833,55.8333 292.5,53.5 Z"/></g>
<g><path style="opacity:1" fill="#7dd1a4" d="M 296.5,57.5 C 297.906,57.9731 298.573,58.9731 298.5,60.5C 297.094,60.0269 296.427,59.0269 296.5,57.5 Z"/></g>
<g><path style="opacity:1" fill="#7cd0a5" d="M 300.5,62.5 C 302.262,63.2623 303.262,64.5956 303.5,66.5C 301.738,65.7377 300.738,64.4044 300.5,62.5 Z"/></g>
<g><path style="opacity:1" fill="#47be80" d="M 37.5,63.5 C 37.5858,64.4959 37.2524,65.3292 36.5,66C 37.428,66.3879 38.0946,67.0546 38.5,68C 38.3535,69.7271 37.6869,69.8938 36.5,68.5C 34.9713,69.7629 33.3046,70.7629 31.5,71.5C 32.3528,67.9796 34.3528,65.3129 37.5,63.5 Z"/></g>
<g><path style="opacity:1" fill="#87d8ad" d="M 304.5,67.5 C 305.906,67.9731 306.573,68.9731 306.5,70.5C 305.094,70.0269 304.427,69.0269 304.5,67.5 Z"/></g>
<g><path style="opacity:1" fill="#80d1a8" d="M 306.5,70.5 C 308.262,71.2623 309.262,72.5956 309.5,74.5C 307.738,73.7377 306.738,72.4044 306.5,70.5 Z"/></g>
<g><path style="opacity:1" fill="#5fbf8f" d="M 309.5,74.5 C 310.89,75.8993 311.89,77.5659 312.5,79.5C 310.241,78.656 309.241,76.9893 309.5,74.5 Z"/></g>
<g><path style="opacity:0.871" fill="#88d4af" d="M 26.5,78.5 C 26.573,80.0269 25.9063,81.0269 24.5,81.5C 24.427,79.9731 25.0937,78.9731 26.5,78.5 Z"/></g>
<g><path style="opacity:1" fill="#57c48b" d="M 24.5,81.5 C 23.5785,84.1264 22.5785,86.7931 21.5,89.5C 21.0431,90.2975 20.3764,90.6309 19.5,90.5C 20.4097,87.0078 22.0764,84.0078 24.5,81.5 Z"/></g>
<g><path style="opacity:0.949" fill="#7cd4a6" d="M 316.5,86.5 C 317.906,86.9731 318.573,87.9731 318.5,89.5C 317.094,89.0269 316.427,88.0269 316.5,86.5 Z"/></g>
<g><path style="opacity:1" fill="#5bc68c" d="M 141.5,97.5 C 132.539,96.6507 125.206,99.6507 119.5,106.5C 117.776,102 119.442,99.9999 124.5,100.5C 124.5,99.5 124.5,98.5 124.5,97.5C 130.333,96.6 136,96.6 141.5,97.5 Z"/></g>
<g><path style="opacity:1" fill="#53c386" d="M 141.5,97.5 C 144.482,97.9629 147.482,98.2962 150.5,98.5C 150.629,100.216 150.962,101.883 151.5,103.5C 148.43,100.969 145.096,98.9689 141.5,97.5 Z"/></g>
<g><path style="opacity:1" fill="#6fcd9d" d="M 322.5,97.5 C 324.065,99.5093 325.065,101.843 325.5,104.5C 323.166,102.824 322.166,100.491 322.5,97.5 Z"/></g>
<g><path style="opacity:1" fill="#55c489" d="M 15.5,98.5 C 15.444,103.267 13.7773,107.267 10.5,110.5C 11.6546,106.203 13.3213,102.203 15.5,98.5 Z"/></g>
<g><path style="opacity:1" fill="#78d0a3" d="M 10.5,110.5 C 10.6545,113.716 9.6545,116.383 7.5,118.5C 8.12904,115.603 9.12904,112.936 10.5,110.5 Z"/></g>
<g><path style="opacity:0.851" fill="#77d1a5" d="M 117.5,110.5 C 116.64,114.434 116.307,118.434 116.5,122.5C 115.838,120.696 115.505,118.696 115.5,116.5C 115.539,114.048 116.206,112.048 117.5,110.5 Z"/></g>
<g><path style="opacity:1" fill="#6ece9b" d="M 327.5,110.5 C 330.227,115.045 331.894,120.045 332.5,125.5C 330.256,120.767 328.589,115.767 327.5,110.5 Z"/></g>
<g><path style="opacity:0.741" fill="#74d2a2" d="M 156.5,110.5 C 158.971,115.61 159.137,120.943 157,126.5C 156.617,127.056 156.117,127.389 155.5,127.5C 157.628,121.939 157.961,116.272 156.5,110.5 Z"/></g>
<g><path style="opacity:1" fill="#82d6a8" d="M 7.5,119.5 C 7.59047,122.152 6.92381,124.485 5.5,126.5C 5.40953,123.848 6.07619,121.515 7.5,119.5 Z"/></g>
<g><path style="opacity:0.561" fill="#73d0a3" d="M 150.5,133.5 C 149.215,137.002 146.548,138.835 142.5,139C 138.833,139.667 135.167,139.667 131.5,139C 130.584,138.722 129.918,138.222 129.5,137.5C 137.212,139.647 144.212,138.313 150.5,133.5 Z"/></g>
<g><path style="opacity:1" fill="#7cd1a5" d="M 335.5,138.5 C 336.889,143.269 337.556,148.269 337.5,153.5C 336.111,148.731 335.444,143.731 335.5,138.5 Z"/></g>
<g><path style="opacity:0.424" fill="#ade6c5" d="M 168.5,168.5 C 159.31,169.245 149.977,169.912 140.5,170.5C 140.918,169.778 141.584,169.278 142.5,169C 151.16,168.5 159.827,168.334 168.5,168.5 Z"/></g>
<g><path style="opacity:1" fill="#71d0a0" d="M 3.5,136.5 C 1.718,154.101 1.05134,171.768 1.5,189.5C 0.833333,185.833 0.166667,182.167 -0.5,178.5C -0.5,171.5 -0.5,164.5 -0.5,157.5C 0.293079,150.41 1.62641,143.41 3.5,136.5 Z"/></g>
<g><path style="opacity:0.804" fill="#9cdebb" d="M 135.5,175.5 C 135.037,178.33 134.371,180.997 133.5,183.5C 133.5,181.833 133.5,180.167 133.5,178.5C 133.427,176.973 134.094,175.973 135.5,175.5 Z"/></g>
<g><path style="opacity:1" fill="#77cfa4" d="M 189.5,178.5 C 189.851,181.812 188.518,184.145 185.5,185.5C 186.874,183.142 188.207,180.808 189.5,178.5 Z"/></g>
<g><path style="opacity:1" fill="#79d3a0" d="M 133.5,178.5 C 133.5,180.167 133.5,181.833 133.5,183.5C 134.46,233.068 134.793,282.401 134.5,331.5C 133.829,332.946 132.662,333.612 131,333.5C 129.93,333.472 129.097,333.139 128.5,332.5C 129.833,332.5 131.167,332.5 132.5,332.5C 132.168,280.997 132.501,229.664 133.5,178.5 Z"/></g>
<g><path style="opacity:0.918" fill="#82d4a8" d="M 337.5,182.5 C 337.508,189.776 336.508,196.776 334.5,203.5C 334.865,196.276 335.865,189.276 337.5,182.5 Z"/></g>
<g><path style="opacity:1" fill="#85d4aa" d="M 2.5,199.5 C 3.11742,199.611 3.61742,199.944 4,200.5C 4.49546,202.473 4.66212,204.473 4.5,206.5C 3.59334,204.343 2.92668,202.01 2.5,199.5 Z"/></g>
<g><path style="opacity:1" fill="#85dab1" d="M 334.5,206.5 C 333.537,211.05 332.203,215.383 330.5,219.5C 330.466,214.605 331.8,210.272 334.5,206.5 Z"/></g>
<g><path style="opacity:0.655" fill="#86e0b1" d="M 284.5,218.5 C 282.039,219.531 279.373,220.198 276.5,220.5C 278.78,218.777 281.447,218.111 284.5,218.5 Z"/></g>
<g><path style="opacity:0.902" fill="#7ad4a4" d="M 6.5,214.5 C 7.11742,214.611 7.61742,214.944 8,215.5C 8.56704,218.168 9.06704,220.834 9.5,223.5C 7.74747,220.854 6.74747,217.854 6.5,214.5 Z"/></g>
<g><path style="opacity:0.639" fill="#85d7ab" d="M 294.5,220.5 C 296.027,220.427 297.027,221.094 297.5,222.5C 295.973,222.573 294.973,221.906 294.5,220.5 Z"/></g>
<g><path style="opacity:1" fill="#59c488" d="M 192.5,219.5 C 181.571,217.577 173.237,221.244 167.5,230.5C 166.986,228.488 166.82,226.488 167,224.5C 167.308,225.308 167.808,225.975 168.5,226.5C 169.452,224.955 169.785,223.288 169.5,221.5C 170.5,221.5 171.5,221.5 172.5,221.5C 172.664,215.833 172.997,215.5 173.5,220.5C 177.036,219.43 180.703,218.763 184.5,218.5C 187.355,218.503 190.022,218.836 192.5,219.5 Z"/></g>
<g><path style="opacity:0.722" fill="#87e0b3" d="M 246.5,221.5 C 248.027,221.427 249.027,222.094 249.5,223.5C 247.973,223.573 246.973,222.906 246.5,221.5 Z"/></g>
<g><path style="opacity:0.886" fill="#8bdbb4" d="M 330.5,219.5 C 330.598,221.553 329.931,223.22 328.5,224.5C 328.402,222.447 329.069,220.78 330.5,219.5 Z"/></g>
<g><path style="opacity:1" fill="#64c794" d="M 297.5,222.5 C 300.179,222.525 301.512,223.858 301.5,226.5C 299.833,225.5 298.5,224.167 297.5,222.5 Z"/></g>
<g><path style="opacity:0.933" fill="#82d9ab" d="M 327.5,228.5 C 327.34,230.153 326.674,231.486 325.5,232.5C 325.229,230.62 325.896,229.287 327.5,228.5 Z"/></g>
<g><path style="opacity:0.788" fill="#81d5aa" d="M 304.5,230.5 C 305.674,231.514 306.34,232.847 306.5,234.5C 306.5,235.5 306.5,236.5 306.5,237.5C 305.388,235.401 304.721,233.067 304.5,230.5 Z"/></g>
<g><path style="opacity:1" fill="#59c48a" d="M 10.5,227.5 C 12.9602,229.144 14.4602,231.477 15,234.5C 15.6543,233.304 16.1543,233.304 16.5,234.5C 16.1667,235.167 15.8333,235.833 15.5,236.5C 16.6982,240.194 18.5315,243.528 21,246.5C 21.49,247.793 21.6567,249.127 21.5,250.5C 16.8852,243.342 13.2186,235.675 10.5,227.5 Z"/></g>
<g><path style="opacity:1" fill="#7cdcad" d="M 325.5,232.5 C 325.598,234.553 324.931,236.22 323.5,237.5C 323.402,235.447 324.069,233.78 325.5,232.5 Z"/></g>
<g><path style="opacity:0.38" fill="#93e0b8" d="M 167.5,230.5 C 167.142,233.689 166.475,236.689 165.5,239.5C 165.5,238.167 165.5,236.833 165.5,235.5C 165.402,233.447 166.069,231.78 167.5,230.5 Z"/></g>
<g><path style="opacity:1" fill="#73d0a0" d="M 206.5,232.5 C 209.076,237.149 209.076,241.816 206.5,246.5C 207.624,241.853 207.624,237.187 206.5,232.5 Z"/></g>
<g><path style="opacity:1" fill="#5bcb91" d="M 165.5,235.5 C 165.5,236.833 165.5,238.167 165.5,239.5C 166.341,241.379 166.675,243.379 166.5,245.5C 165.028,243.883 164.361,241.883 164.5,239.5C 164.511,237.955 164.844,236.622 165.5,235.5 Z"/></g>
<g><path style="opacity:1" fill="#55c38c" d="M 306.5,234.5 C 307.843,239.458 307.509,244.458 305.5,249.5C 304.817,249.863 304.15,250.196 303.5,250.5C 305.133,246.336 306.133,242.003 306.5,237.5C 306.5,236.5 306.5,235.5 306.5,234.5 Z"/></g>
<g><path style="opacity:1" fill="#76d0a2" d="M 21.5,251.5 C 23.0481,251.821 23.7148,252.821 23.5,254.5C 22.5987,253.71 21.9321,252.71 21.5,251.5 Z"/></g>
<g><path style="opacity:1" fill="#37ba74" d="M 230.5,219.5 C 216.175,226.064 212.175,236.731 218.5,251.5C 217.279,250.972 216.113,250.305 215,249.5C 213.634,251.37 212.467,253.37 211.5,255.5C 209.955,256.452 208.288,256.785 206.5,256.5C 206.649,257.552 206.483,258.552 206,259.5C 205.223,257.785 203.89,256.785 202,256.5C 199.718,257.29 197.552,258.29 195.5,259.5C 195.5,259.167 195.5,258.833 195.5,258.5C 200.585,255.751 204.252,251.751 206.5,246.5C 206.231,248.429 206.731,250.095 208,251.5C 210.133,249.909 211.799,247.909 213,245.5C 213.434,239.032 214.601,232.698 216.5,226.5C 216.392,225.558 216.059,224.725 215.5,224C 217.813,223.338 220.146,222.838 222.5,222.5C 222.5,221.5 222.5,220.5 222.5,219.5C 225.167,219.5 227.833,219.5 230.5,219.5 Z"/></g>
<g><path style="opacity:1" fill="#62c893" d="M 253.5,251.5 C 252.5,254.5 250.5,256.5 247.5,257.5C 249.167,255.167 251.167,253.167 253.5,251.5 Z"/></g>
<g><path style="opacity:1" fill="#4cbc81" d="M 303.5,250.5 C 303.121,255.004 300.788,257.337 296.5,257.5C 299.167,255.5 301.5,253.167 303.5,250.5 Z"/></g>
<g><path style="opacity:1" fill="#5fc991" d="M 314.5,254.5 C 314.25,256.674 313.25,258.341 311.5,259.5C 311.185,257.774 311.019,256.107 311,254.5C 312.145,255.684 313.312,255.684 314.5,254.5 Z"/></g>
<g><path style="opacity:1" fill="#4ec084" d="M 166.5,245.5 C 169.083,251.751 173.416,256.418 179.5,259.5C 179.5,259.833 179.5,260.167 179.5,260.5C 175.592,258.94 171.925,256.94 168.5,254.5C 167.322,251.609 166.655,248.609 166.5,245.5 Z"/></g>
<g><path style="opacity:1" fill="#88d4ae" d="M 224.5,256.5 C 225.71,256.932 226.71,257.599 227.5,258.5C 225.821,258.715 224.821,258.048 224.5,256.5 Z"/></g>
<g><path style="opacity:1" fill="#6cd19d" d="M 195.5,258.5 C 195.5,258.833 195.5,259.167 195.5,259.5C 190.239,261.456 184.906,261.79 179.5,260.5C 179.5,260.167 179.5,259.833 179.5,259.5C 184.852,260.519 190.185,260.186 195.5,258.5 Z"/></g>
<g><path style="opacity:1" fill="#77d1a2" d="M 227.5,258.5 C 232.431,260.321 237.431,260.655 242.5,259.5C 238.075,261.848 233.408,262.015 228.5,260C 227.944,259.617 227.611,259.117 227.5,258.5 Z"/></g>
<g><path style="opacity:1" fill="#6ed19f" d="M 292.5,259.5 C 290.799,260.734 288.799,261.401 286.5,261.5C 282.494,261.235 278.827,260.235 275.5,258.5C 275.435,258.062 275.601,257.728 276,257.5C 281.284,260.076 286.784,260.742 292.5,259.5 Z"/></g>
<g><path style="opacity:1" fill="#62cf99" d="M 178.5,188.5 C 170.684,189.492 162.684,189.826 154.5,189.5C 154.5,238.5 154.5,287.5 154.5,336.5C 165.167,336.5 175.833,336.5 186.5,336.5C 186.5,336.833 186.5,337.167 186.5,337.5C 175.5,337.5 164.5,337.5 153.5,337.5C 153.168,287.711 153.168,238.045 153.5,188.5C 161.833,188.5 170.167,188.5 178.5,188.5 Z"/></g>
<g><path style="opacity:1" fill="#51c184" d="M 311.5,259.5 C 309.938,263.392 307.605,266.725 304.5,269.5C 304.586,268.504 304.252,267.671 303.5,267C 304.624,266.751 305.624,266.251 306.5,265.5C 304.172,263.426 304.839,262.426 308.5,262.5C 308.5,261.5 308.5,260.5 308.5,259.5C 309.5,259.5 310.5,259.5 311.5,259.5 Z"/></g>
<g><path style="opacity:1" fill="#48bc7c" d="M 304.5,269.5 C 302.215,273.727 299.215,277.393 295.5,280.5C 295.5,279.167 295.5,277.833 295.5,276.5C 299.35,276.299 300.35,274.466 298.5,271C 299.449,270.383 300.282,270.549 301,271.5C 301.335,268.81 302.501,268.143 304.5,269.5 Z"/></g>
<g><path style="opacity:1" fill="#61c891" d="M 293.5,282.5 C 293.262,284.404 292.262,285.738 290.5,286.5C 290.5,285.167 290.5,283.833 290.5,282.5C 291.5,282.5 292.5,282.5 293.5,282.5 Z"/></g>
<g><path style="opacity:1" fill="#5bc589" d="M 290.5,286.5 C 288.5,289.167 286.167,291.5 283.5,293.5C 283.735,288.62 286.068,286.287 290.5,286.5 Z"/></g>
<g><path style="opacity:1" fill="#75d0a6" d="M 57.5,295.5 C 59.0269,295.427 60.0269,296.094 60.5,297.5C 58.9731,297.573 57.9731,296.906 57.5,295.5 Z"/></g>
<g><path style="opacity:1" fill="#69c998" d="M 60.5,297.5 C 62.7541,298.415 64.7541,299.748 66.5,301.5C 66.5,301.833 66.5,302.167 66.5,302.5C 63.9108,301.581 61.9108,299.914 60.5,297.5 Z"/></g>
<g><path style="opacity:1" fill="#3fba79" d="M 66.5,301.5 C 67.9778,301.238 69.3112,301.571 70.5,302.5C 71.8379,304.337 73.3379,306.003 75,307.5C 75.772,307.355 76.4387,307.022 77,306.5C 77.3661,308.452 78.1995,310.118 79.5,311.5C 76.4887,310.331 73.822,308.664 71.5,306.5C 71.0269,305.094 70.0269,304.427 68.5,304.5C 67.5,304.167 66.8333,303.5 66.5,302.5C 66.5,302.167 66.5,301.833 66.5,301.5 Z"/></g>
<g><path style="opacity:0.769" fill="#96e1bd" d="M 68.5,304.5 C 70.0269,304.427 71.0269,305.094 71.5,306.5C 69.9731,306.573 68.9731,305.906 68.5,304.5 Z"/></g>
<g><path style="opacity:1" fill="#4bbf80" d="M 266.5,306.5 C 262.852,309.66 258.852,312.327 254.5,314.5C 255.088,312.795 255.421,311.128 255.5,309.5C 259.511,309.077 262.845,307.411 265.5,304.5C 266.298,304.957 266.631,305.624 266.5,306.5 Z"/></g>
<g><path style="opacity:0.918" fill="#7bd4a7" d="M 79.5,311.5 C 81.0269,311.427 82.0269,312.094 82.5,313.5C 80.9731,313.573 79.9731,312.906 79.5,311.5 Z"/></g>
<g><path style="opacity:0.82" fill="#8bdbb4" d="M 82.5,313.5 C 84.0269,313.427 85.0269,314.094 85.5,315.5C 83.9731,315.573 82.9731,314.906 82.5,313.5 Z"/></g>
<g><path style="opacity:1" fill="#72d09e" d="M 91.5,318.5 C 94.721,318.896 97.3877,320.229 99.5,322.5C 96.4553,321.721 93.7886,320.387 91.5,318.5 Z"/></g>
<g><path style="opacity:1" fill="#6dcb9a" d="M 99.5,322.5 C 102.491,322.166 104.824,323.166 106.5,325.5C 103.843,325.065 101.509,324.065 99.5,322.5 Z"/></g>
<g><path style="opacity:0.871" fill="#8ad7ae" d="M 239.5,322.5 C 237.11,324.02 234.443,325.02 231.5,325.5C 233.684,323.415 236.351,322.415 239.5,322.5 Z"/></g>
<g><path style="opacity:0.329" fill="#9fe0c1" d="M 231.5,325.5 C 230.486,326.674 229.153,327.34 227.5,327.5C 227.5,327.167 227.5,326.833 227.5,326.5C 228.708,325.766 230.041,325.433 231.5,325.5 Z"/></g>
<g><path style="opacity:1" fill="#49c082" d="M 227.5,326.5 C 227.5,326.833 227.5,327.167 227.5,327.5C 221.985,329.629 216.319,331.296 210.5,332.5C 209.833,332.5 209.167,332.5 208.5,332.5C 213.348,331.245 218.014,329.078 222.5,326C 220.833,325.667 219.167,325.333 217.5,325C 220.167,324.333 222.833,324.333 225.5,325C 224.833,325.333 224.167,325.667 223.5,326C 224.793,326.49 226.127,326.657 227.5,326.5 Z"/></g>
<g><path style="opacity:1" fill="#7cd5a9" d="M 114.5,328.5 C 117.152,328.41 119.485,329.076 121.5,330.5C 118.848,330.59 116.515,329.924 114.5,328.5 Z"/></g>
<g><path style="opacity:1" fill="#77cca2" d="M 121.5,330.5 C 124.152,330.41 126.485,331.076 128.5,332.5C 125.848,332.59 123.515,331.924 121.5,330.5 Z"/></g>
<g><path style="opacity:0.345" fill="#96dcb6" d="M 208.5,332.5 C 209.167,332.5 209.833,332.5 210.5,332.5C 207.411,333.785 204.078,334.451 200.5,334.5C 202.905,333.232 205.572,332.565 208.5,332.5 Z"/></g>
</svg>
