<svg xmlns="http://www.w3.org/2000/svg" width="79.98" height="79.98" viewBox="0 0 799 799">
  <defs>
    <style>
      .cls-1 {
        fill: #1fb669;
        fill-rule: evenodd;
      }
    </style>
  </defs>
  <path id="Эллипс_1" data-name="Эллипс 1" class="cls-1" d="M400.642,15.277v381.3s-81.931-11.172-82.2,27.4c-0.237,34.393,0,351.616,0,351.616S16.071,701.865,14.778,398.858C14.548,344.9,47.8,30.276,400.642,15.277ZM325.668,234.688a48.7,48.7,0,1,1-48.7,48.7A48.7,48.7,0,0,1,325.668,234.688Z"/>
  <path id="Эллипс_2_копия_2" data-name="Эллипс 2 копия 2" class="cls-1" d="M446.306,17.561s0.277,392.093,0,399.563c-1.383,23.792-13.906,32.777-82.2,29.681-0.229,18.484.292,315.563,0,335.633,209.546,16.636,422.144-134.78,420.112-385.863C786.557,268.05,701.511,54.017,446.306,17.561Zm-6.094,495.077a49.089,49.089,0,1,1-49.089,49.089A49.089,49.089,0,0,1,440.212,512.638Zm111.877,0A49.089,49.089,0,1,1,503,561.727,49.088,49.088,0,0,1,552.089,512.638Zm111.878,0a49.089,49.089,0,1,1-49.089,49.089A49.089,49.089,0,0,1,663.967,512.638Z"/>
</svg>
