<?xml version="1.0" encoding="UTF-8"?>
<!DOCTYPE svg PUBLIC "-//W3C//DTD SVG 1.1//EN" "http://www.w3.org/Graphics/SVG/1.1/DTD/svg11.dtd">
<svg xmlns="http://www.w3.org/2000/svg" version="1.1" width="1772px" height="1772px" style="shape-rendering:geometricPrecision; text-rendering:geometricPrecision; image-rendering:optimizeQuality; fill-rule:evenodd; clip-rule:evenodd" xmlns:xlink="http://www.w3.org/1999/xlink">
<g><path style="opacity:0.999" fill="#e40422" d="M -0.5,-0.5 C 590.167,-0.5 1180.83,-0.5 1771.5,-0.5C 1771.5,590.167 1771.5,1180.83 1771.5,1771.5C 1180.83,1771.5 590.167,1771.5 -0.5,1771.5C -0.5,1180.83 -0.5,590.167 -0.5,-0.5 Z"/></g>
<g><path style="opacity:1" fill="#f9cfc1" d="M 1635.5,136.5 C 1483.83,136.5 1332.17,136.5 1180.5,136.5C 1180.5,163.167 1180.5,189.833 1180.5,216.5C 1239.67,216.168 1298.67,216.501 1357.5,217.5C 1298.17,217.5 1238.83,217.5 1179.5,217.5C 1179.5,190.167 1179.5,162.833 1179.5,135.5C 1331.67,135.167 1483.67,135.5 1635.5,136.5 Z"/></g>
<g><path style="opacity:1" fill="#f9cfc1" d="M 278.5,136.5 C 231.167,136.5 183.833,136.5 136.5,136.5C 136.5,272.5 136.5,408.5 136.5,544.5C 135.5,408.334 135.167,272.001 135.5,135.5C 183.336,135.168 231.003,135.501 278.5,136.5 Z"/></g>
<g><path style="opacity:1" fill="#fffefd" d="M 136.5,544.5 C 136.5,408.5 136.5,272.5 136.5,136.5C 183.833,136.5 231.167,136.5 278.5,136.5C 321.642,225.925 364.975,315.258 408.5,404.5C 451.962,315.077 495.295,225.577 538.5,136C 586.166,135.5 633.832,135.333 681.5,135.5C 681.5,271.833 681.5,408.167 681.5,544.5C 647.833,544.5 614.167,544.5 580.5,544.5C 580.667,447.833 580.5,351.166 580,254.5C 537.911,335.677 496.078,417.01 454.5,498.5C 423.833,499.833 393.167,499.833 362.5,498.5C 320.333,416.833 278.167,335.167 236,253.5C 235.5,350.499 235.333,447.499 235.5,544.5C 202.5,544.5 169.5,544.5 136.5,544.5 Z"/></g>
<g><path style="opacity:1" fill="#fefefe" d="M 1635.5,136.5 C 1635.5,163.5 1635.5,190.5 1635.5,217.5C 1576.17,217.5 1516.83,217.5 1457.5,217.5C 1457.5,326.5 1457.5,435.5 1457.5,544.5C 1424.17,544.5 1390.83,544.5 1357.5,544.5C 1357.5,435.5 1357.5,326.5 1357.5,217.5C 1298.67,216.501 1239.67,216.168 1180.5,216.5C 1180.5,189.833 1180.5,163.167 1180.5,136.5C 1332.17,136.5 1483.83,136.5 1635.5,136.5 Z"/></g>
<g><path style="opacity:1" fill="#fffefe" d="M 1397.5,1216.5 C 1434.81,1216.26 1471.81,1219.43 1508.5,1226C 1543.59,1232.79 1573.75,1248.62 1599,1273.5C 1621.07,1298.98 1633.23,1328.65 1635.5,1362.5C 1602.17,1362.5 1568.83,1362.5 1535.5,1362.5C 1530.83,1332.99 1514.16,1313.82 1485.5,1305C 1460.91,1298.81 1435.91,1295.98 1410.5,1296.5C 1385.14,1296.09 1360.47,1299.92 1336.5,1308C 1303.91,1322.27 1285.41,1347.1 1281,1382.5C 1278.75,1416.2 1279.09,1449.86 1282,1483.5C 1289.22,1522.05 1311.72,1546.55 1349.5,1557C 1383.49,1565.06 1417.83,1566.73 1452.5,1562C 1471.75,1560.69 1489.75,1555.36 1506.5,1546C 1522.9,1534.38 1532.57,1518.54 1535.5,1498.5C 1568.83,1498.5 1602.17,1498.5 1635.5,1498.5C 1628.82,1563.68 1594.49,1606.84 1532.5,1628C 1492.3,1639.26 1451.3,1644.43 1409.5,1643.5C 1368.72,1644.37 1329.06,1638.2 1290.5,1625C 1238.86,1604.69 1205.36,1567.85 1190,1514.5C 1176,1458.17 1176,1401.83 1190,1345.5C 1211.01,1280.17 1255.17,1240.33 1322.5,1226C 1347.36,1220.58 1372.36,1217.42 1397.5,1216.5 Z"/></g>
</svg>
