<?xml version="1.0" encoding="UTF-8"?>
<!DOCTYPE svg PUBLIC "-//W3C//DTD SVG 1.1//EN" "http://www.w3.org/Graphics/SVG/1.1/DTD/svg11.dtd">
<svg xmlns="http://www.w3.org/2000/svg" version="1.1" width="600px" height="600px" style="shape-rendering:geometricPrecision; text-rendering:geometricPrecision; image-rendering:optimizeQuality; fill-rule:evenodd; clip-rule:evenodd" xmlns:xlink="http://www.w3.org/1999/xlink">
<g><path style="opacity:0.999" fill="#0f77b8" d="M 171.5,131.5 C 212.415,199.66 253.082,267.993 293.5,336.5C 293.56,337.043 293.893,337.376 294.5,337.5C 295.5,297.506 295.833,257.506 295.5,217.5C 311.833,217.5 328.167,217.5 344.5,217.5C 344.17,237.007 344.503,256.341 345.5,275.5C 359.83,256.488 373.83,237.155 387.5,217.5C 408.159,216.334 428.825,216.167 449.5,217C 431.833,240 414.167,263 396.5,286C 418.367,308.866 439.867,332.033 461,355.5C 462.01,296.504 462.51,237.504 462.5,178.5C 437.831,178.667 413.164,178.5 388.5,178C 387.509,162.578 387.176,147.078 387.5,131.5C 408.5,131.5 429.5,131.5 450.5,131.5C 496.833,131.5 543.167,131.5 589.5,131.5C 589.5,146.5 589.5,161.5 589.5,176.5C 563.833,176.5 538.167,176.5 512.5,176.5C 512.5,248.833 512.5,321.167 512.5,393.5C 485.456,393.816 458.456,393.483 431.5,392.5C 411.417,370.051 391.084,347.717 370.5,325.5C 362.082,338.666 353.916,352 346,365.5C 345.5,375.494 345.334,385.494 345.5,395.5C 320.491,395.833 295.491,395.5 270.5,394.5C 234.333,333.5 198.167,272.5 162,211.5C 161.771,272.5 161.937,333.5 162.5,394.5C 145.5,394.5 128.5,394.5 111.5,394.5C 111.5,349.167 111.5,303.833 111.5,258.5C 94.9915,258.17 78.6581,258.504 62.5,259.5C 62.2144,304.512 62.5477,349.512 63.5,394.5C 46.1667,394.5 28.8333,394.5 11.5,394.5C 11.5,385.167 11.5,375.833 11.5,366.5C 11.5,316.833 11.5,267.167 11.5,217.5C 44.8333,217.5 78.1667,217.5 111.5,217.5C 111.5,199.167 111.5,180.833 111.5,162.5C 111.5,152.167 111.5,141.833 111.5,131.5C 131.5,131.5 151.5,131.5 171.5,131.5 Z"/></g>
<g><path style="opacity:0.505" fill="#08476e" d="M 171.5,131.5 C 151.5,131.5 131.5,131.5 111.5,131.5C 111.5,141.833 111.5,152.167 111.5,162.5C 111.167,162.5 110.833,162.5 110.5,162.5C 110.5,151.833 110.5,141.167 110.5,130.5C 131.007,130.17 151.34,130.503 171.5,131.5 Z"/></g>
<g><path style="opacity:0.635" fill="#08466d" d="M 450.5,131.5 C 496.997,130.501 543.664,130.168 590.5,130.5C 590.5,146.167 590.5,161.833 590.5,177.5C 564.833,177.5 539.167,177.5 513.5,177.5C 513.833,250.002 513.499,322.335 512.5,394.5C 512.5,394.167 512.5,393.833 512.5,393.5C 512.5,321.167 512.5,248.833 512.5,176.5C 538.167,176.5 563.833,176.5 589.5,176.5C 589.5,161.5 589.5,146.5 589.5,131.5C 543.167,131.5 496.833,131.5 450.5,131.5 Z"/></g>
<g><path style="opacity:0.506" fill="#08446a" d="M 345.5,275.5 C 344.503,256.341 344.17,237.007 344.5,217.5C 328.167,217.5 311.833,217.5 295.5,217.5C 295.833,257.506 295.5,297.506 294.5,337.5C 293.893,337.376 293.56,337.043 293.5,336.5C 294.499,296.67 294.832,256.67 294.5,216.5C 311.5,216.5 328.5,216.5 345.5,216.5C 345.5,236.167 345.5,255.833 345.5,275.5 Z"/></g>
<g><path style="opacity:0.368" fill="#063350" d="M 110.5,162.5 C 110.833,162.5 111.167,162.5 111.5,162.5C 111.5,180.833 111.5,199.167 111.5,217.5C 78.1667,217.5 44.8333,217.5 11.5,217.5C 11.5,267.167 11.5,316.833 11.5,366.5C 10.5011,316.669 10.1678,266.669 10.5,216.5C 43.8333,216.5 77.1667,216.5 110.5,216.5C 110.5,198.5 110.5,180.5 110.5,162.5 Z"/></g>
<g><path style="opacity:0.506" fill="#084469" d="M 62.5,259.5 C 78.6581,258.504 94.9915,258.17 111.5,258.5C 111.5,303.833 111.5,349.167 111.5,394.5C 110.501,349.67 110.168,304.67 110.5,259.5C 94.5,259.5 78.5,259.5 62.5,259.5 Z"/></g>
<g><path style="opacity:1" fill="#da1d27" d="M 207.5,314.5 C 209.017,314.511 210.184,315.177 211,316.5C 218.167,328.833 225.333,341.167 232.5,353.5C 219.703,361.737 206.703,369.737 193.5,377.5C 185.263,364.703 177.263,351.703 169.5,338.5C 169.977,337.522 170.643,336.689 171.5,336C 183.729,329.059 195.729,321.892 207.5,314.5 Z"/></g>
<g><path style="opacity:0.531" fill="#0a5b8d" d="M 431.5,392.5 C 458.456,393.483 485.456,393.816 512.5,393.5C 512.5,393.833 512.5,394.167 512.5,394.5C 485.831,394.667 459.165,394.5 432.5,394C 431.944,393.617 431.611,393.117 431.5,392.5 Z"/></g>
<g><path style="opacity:0.985" fill="#0f6ba6" d="M 26.5,410.5 C 40.1313,410.131 46.7979,416.798 46.5,430.5C 46.8561,442.169 41.3561,448.836 30,450.5C 23.4616,450.24 18.7949,447.24 16,441.5C 12.2243,431.662 13.391,422.496 19.5,414C 21.9252,412.787 24.2585,411.621 26.5,410.5 Z M 26.5,418.5 C 31.439,417.352 34.939,419.019 37,423.5C 37.6667,428.167 37.6667,432.833 37,437.5C 34.9754,442.145 31.4754,443.645 26.5,442C 24.5125,440.681 23.3459,438.848 23,436.5C 21.5402,429.845 22.7069,423.845 26.5,418.5 Z"/></g>
<g><path style="opacity:0.99" fill="#0f73b3" d="M 156.5,411.5 C 162.262,411.149 167.928,411.649 173.5,413C 178.717,418.296 179.884,424.463 177,431.5C 172.432,435.986 166.932,437.653 160.5,436.5C 159.517,440.298 159.183,444.298 159.5,448.5C 157.5,448.5 155.5,448.5 153.5,448.5C 153.5,436.5 153.5,424.5 153.5,412.5C 154.791,412.737 155.791,412.404 156.5,411.5 Z M 166.5,418.5 C 168.017,418.511 169.184,419.177 170,420.5C 171.327,428.004 168.16,431.004 160.5,429.5C 160.5,425.833 160.5,422.167 160.5,418.5C 162.5,418.5 164.5,418.5 166.5,418.5 Z"/></g>
<g><path style="opacity:0.463" fill="#09446b" d="M 259.5,418.5 C 259.5,416.5 259.5,414.5 259.5,412.5C 250.167,412.5 240.833,412.5 231.5,412.5C 231.5,414.5 231.5,416.5 231.5,418.5C 230.532,416.393 230.198,414.059 230.5,411.5C 240.5,411.5 250.5,411.5 260.5,411.5C 260.802,414.059 260.468,416.393 259.5,418.5 Z"/></g>
<g><path style="opacity:0.985" fill="#0f6ba6" d="M 285.5,410.5 C 299.131,410.131 305.798,416.798 305.5,430.5C 305.856,442.169 300.356,448.836 289,450.5C 282.462,450.24 277.795,447.24 275,441.5C 271.224,431.662 272.391,422.496 278.5,414C 280.925,412.787 283.259,411.621 285.5,410.5 Z M 285.5,418.5 C 290.439,417.352 293.939,419.019 296,423.5C 296.667,428.167 296.667,432.833 296,437.5C 293.975,442.145 290.475,443.645 285.5,442C 283.513,440.681 282.346,438.848 282,436.5C 280.54,429.845 281.707,423.845 285.5,418.5 Z"/></g>
<g><path style="opacity:0.99" fill="#0f71af" d="M 326.5,411.5 C 332.29,411.096 337.956,411.596 343.5,413C 350.95,419.61 351.284,426.61 344.5,434C 340.116,436.208 335.449,437.041 330.5,436.5C 329.517,440.298 329.183,444.298 329.5,448.5C 327.5,448.5 325.5,448.5 323.5,448.5C 323.5,436.5 323.5,424.5 323.5,412.5C 324.791,412.737 325.791,412.404 326.5,411.5 Z M 330.5,418.5 C 338.979,416.808 341.979,419.974 339.5,428C 336.649,429.289 333.649,429.789 330.5,429.5C 330.5,425.833 330.5,422.167 330.5,418.5 Z"/></g>
<g><path style="opacity:0.984" fill="#0f6aa5" d="M 403.5,410.5 C 407.519,410.646 411.519,410.979 415.5,411.5C 415.682,413.591 415.348,415.591 414.5,417.5C 402.201,415.967 396.701,421.3 398,433.5C 398.585,439.92 402.085,442.92 408.5,442.5C 410.56,442.428 412.56,442.095 414.5,441.5C 416.003,443.796 416.337,446.129 415.5,448.5C 408.579,451.468 401.912,450.968 395.5,447C 392.769,444.374 390.936,441.207 390,437.5C 386.684,424.148 391.184,415.148 403.5,410.5 Z"/></g>
<g><path style="opacity:0.981" fill="#0f70ad" d="M 435.5,411.5 C 440.511,411.334 445.511,411.501 450.5,412C 456.161,413.82 458.328,417.653 457,423.5C 456.226,425.939 454.726,427.773 452.5,429C 458.388,432.847 459.888,438.013 457,444.5C 452.886,448.597 447.886,450.597 442,450.5C 439.183,449.969 436.35,449.636 433.5,449.5C 432.521,437.247 432.187,424.913 432.5,412.5C 433.791,412.737 434.791,412.404 435.5,411.5 Z M 439.5,417.5 C 442.271,417.421 444.937,417.921 447.5,419C 450.08,421.12 450.08,423.287 447.5,425.5C 445.057,427.055 442.39,427.722 439.5,427.5C 439.5,424.167 439.5,420.833 439.5,417.5 Z M 445.5,433.5 C 449.737,434.963 450.903,437.63 449,441.5C 446.049,443.076 442.883,443.743 439.5,443.5C 439.5,440.167 439.5,436.833 439.5,433.5C 441.5,433.5 443.5,433.5 445.5,433.5 Z"/></g>
<g><path style="opacity:0.988" fill="#0f70ae" d="M 497.5,411.5 C 498.209,412.404 499.209,412.737 500.5,412.5C 500.5,424.5 500.5,436.5 500.5,448.5C 498.5,448.5 496.5,448.5 494.5,448.5C 494.5,443.833 494.5,439.167 494.5,434.5C 493.209,434.263 492.209,434.596 491.5,435.5C 488.151,439.676 485.151,444.176 482.5,449C 479.5,449.667 476.5,449.667 473.5,449C 476.126,444.916 478.626,440.75 481,436.5C 481.75,435.874 482.584,435.374 483.5,435C 476.93,431.345 474.763,425.845 477,418.5C 478.122,416.376 479.622,414.543 481.5,413C 486.736,411.661 492.07,411.161 497.5,411.5 Z M 487.5,418.5 C 489.5,418.5 491.5,418.5 493.5,418.5C 493.5,422.167 493.5,425.833 493.5,429.5C 488.58,430.216 485.58,428.216 484.5,423.5C 484.757,421.308 485.757,419.641 487.5,418.5 Z"/></g>
<g><path style="opacity:0.98" fill="#0e69a3" d="M 527.5,410.5 C 533.107,410.105 537.941,411.772 542,415.5C 544.613,420.99 543.447,425.49 538.5,429C 544.025,431.919 545.858,436.419 544,442.5C 540.879,448.146 536.045,450.813 529.5,450.5C 525.534,450.377 521.867,449.377 518.5,447.5C 519.167,445.833 519.833,444.167 520.5,442.5C 524.713,442.437 529.046,442.271 533.5,442C 537.5,439.333 537.5,436.667 533.5,434C 530.518,433.502 527.518,433.335 524.5,433.5C 524.5,431.167 524.5,428.833 524.5,426.5C 527.93,426.893 531.096,426.227 534,424.5C 534.743,422.559 534.576,420.726 533.5,419C 529.219,418.79 525.052,418.623 521,418.5C 520.727,416.899 520.227,415.399 519.5,414C 522.025,412.281 524.692,411.114 527.5,410.5 Z"/></g>
<g><path style="opacity:0.463" fill="#0a4b74" d="M 91.5,412.5 C 82.5,412.5 73.5,412.5 64.5,412.5C 64.5,424.5 64.5,436.5 64.5,448.5C 66.5,448.5 68.5,448.5 70.5,448.5C 70.1726,438.319 70.506,428.319 71.5,418.5C 71.5,428.833 71.5,439.167 71.5,449.5C 68.8333,449.5 66.1667,449.5 63.5,449.5C 63.5,436.833 63.5,424.167 63.5,411.5C 73.015,411.173 82.3483,411.506 91.5,412.5 Z"/></g>
<g><path style="opacity:0.989" fill="#0f78ba" d="M 91.5,412.5 C 91.5,424.5 91.5,436.5 91.5,448.5C 89.1667,448.5 86.8333,448.5 84.5,448.5C 84.8274,438.319 84.494,428.319 83.5,418.5C 79.5,418.5 75.5,418.5 71.5,418.5C 70.506,428.319 70.1726,438.319 70.5,448.5C 68.5,448.5 66.5,448.5 64.5,448.5C 64.5,436.5 64.5,424.5 64.5,412.5C 73.5,412.5 82.5,412.5 91.5,412.5 Z"/></g>
<g><path style="opacity:0.981" fill="#0f74b3" d="M 119.5,418.5 C 118.523,421.287 118.19,424.287 118.5,427.5C 123.167,427.5 127.833,427.5 132.5,427.5C 132.5,429.5 132.5,431.5 132.5,433.5C 128.167,433.5 123.833,433.5 119.5,433.5C 119.5,436.5 119.5,439.5 119.5,442.5C 124.167,442.5 128.833,442.5 133.5,442.5C 133.5,444.5 133.5,446.5 133.5,448.5C 126.167,448.5 118.833,448.5 111.5,448.5C 111.5,436.167 111.5,423.833 111.5,411.5C 118.833,411.5 126.167,411.5 133.5,411.5C 133.5,413.833 133.5,416.167 133.5,418.5C 128.833,418.5 124.167,418.5 119.5,418.5 Z"/></g>
<g><path style="opacity:0.651" fill="#0b5685" d="M 156.5,411.5 C 155.791,412.404 154.791,412.737 153.5,412.5C 153.5,424.5 153.5,436.5 153.5,448.5C 155.5,448.5 157.5,448.5 159.5,448.5C 159.183,444.298 159.517,440.298 160.5,436.5C 160.5,440.833 160.5,445.167 160.5,449.5C 157.833,449.5 155.167,449.5 152.5,449.5C 152.5,436.833 152.5,424.167 152.5,411.5C 153.833,411.5 155.167,411.5 156.5,411.5 Z"/></g>
<g><path style="opacity:0.983" fill="#0e6ba6" d="M 201.5,411.5 C 203.924,411.192 206.257,411.526 208.5,412.5C 212.833,424.5 217.167,436.5 221.5,448.5C 218.894,449.652 216.227,449.818 213.5,449C 212.5,446.667 211.5,444.333 210.5,442C 206.833,441.333 203.167,441.333 199.5,442C 198.5,444.333 197.5,446.667 196.5,449C 193.833,449.667 191.167,449.667 188.5,449C 193.333,436.669 197.666,424.169 201.5,411.5 Z M 204.5,422.5 C 205.503,426.338 206.836,430.171 208.5,434C 206.167,434.667 203.833,434.667 201.5,434C 203.417,430.413 204.417,426.58 204.5,422.5 Z"/></g>
<g><path style="opacity:0.999" fill="#0f76b6" d="M 259.5,418.5 C 256.167,418.5 252.833,418.5 249.5,418.5C 249.5,428.5 249.5,438.5 249.5,448.5C 247.167,448.5 244.833,448.5 242.5,448.5C 242.827,438.319 242.494,428.319 241.5,418.5C 238.167,418.5 234.833,418.5 231.5,418.5C 231.5,416.5 231.5,414.5 231.5,412.5C 240.833,412.5 250.167,412.5 259.5,412.5C 259.5,414.5 259.5,416.5 259.5,418.5 Z"/></g>
<g><path style="opacity:0.463" fill="#0a4972" d="M 326.5,411.5 C 325.791,412.404 324.791,412.737 323.5,412.5C 323.5,424.5 323.5,436.5 323.5,448.5C 325.5,448.5 327.5,448.5 329.5,448.5C 329.183,444.298 329.517,440.298 330.5,436.5C 330.5,440.833 330.5,445.167 330.5,449.5C 327.833,449.5 325.167,449.5 322.5,449.5C 322.5,436.833 322.5,424.167 322.5,411.5C 323.833,411.5 325.167,411.5 326.5,411.5 Z"/></g>
<g><path style="opacity:0.463" fill="#09486f" d="M 435.5,411.5 C 434.791,412.404 433.791,412.737 432.5,412.5C 432.187,424.913 432.521,437.247 433.5,449.5C 431.52,437.211 430.853,424.544 431.5,411.5C 432.833,411.5 434.167,411.5 435.5,411.5 Z"/></g>
<g><path style="opacity:0.651" fill="#0b5483" d="M 497.5,411.5 C 498.833,411.5 500.167,411.5 501.5,411.5C 501.5,424.167 501.5,436.833 501.5,449.5C 498.833,449.5 496.167,449.5 493.5,449.5C 494.103,444.381 493.436,439.715 491.5,435.5C 492.209,434.596 493.209,434.263 494.5,434.5C 494.5,439.167 494.5,443.833 494.5,448.5C 496.5,448.5 498.5,448.5 500.5,448.5C 500.5,436.5 500.5,424.5 500.5,412.5C 499.209,412.737 498.209,412.404 497.5,411.5 Z"/></g>
<g><path style="opacity:0.986" fill="#0f6daa" d="M 562.5,412.5 C 564.833,412.5 567.167,412.5 569.5,412.5C 569.334,420.507 569.5,428.507 570,436.5C 570.513,435.473 571.013,434.473 571.5,433.5C 575.898,426.385 580.565,419.385 585.5,412.5C 587.695,411.231 589.861,411.231 592,412.5C 592.667,424.5 592.667,436.5 592,448.5C 589.619,449.435 587.119,449.768 584.5,449.5C 584.666,441.493 584.5,433.493 584,425.5C 579.206,433.59 574.039,441.424 568.5,449C 566.527,449.495 564.527,449.662 562.5,449.5C 562.5,437.167 562.5,424.833 562.5,412.5 Z"/></g>
<g><path style="opacity:0.37" fill="#073a5a" d="M 562.5,412.5 C 564.948,411.527 567.615,411.194 570.5,411.5C 570.175,419.019 570.508,426.352 571.5,433.5C 571.013,434.473 570.513,435.473 570,436.5C 569.5,428.507 569.334,420.507 569.5,412.5C 567.167,412.5 564.833,412.5 562.5,412.5 Z"/></g>
<g><path style="opacity:0.386" fill="#073756" d="M 166.5,418.5 C 164.5,418.5 162.5,418.5 160.5,418.5C 160.5,422.167 160.5,425.833 160.5,429.5C 159.517,425.702 159.183,421.702 159.5,417.5C 162.059,417.198 164.393,417.532 166.5,418.5 Z"/></g>
<g><path style="opacity:0.365" fill="#083e60" d="M 241.5,418.5 C 242.494,428.319 242.827,438.319 242.5,448.5C 244.833,448.5 247.167,448.5 249.5,448.5C 247.052,449.473 244.385,449.806 241.5,449.5C 241.5,439.167 241.5,428.833 241.5,418.5 Z"/></g>
<g><path style="opacity:0.176" fill="#052a41" d="M 83.5,418.5 C 84.494,428.319 84.8274,438.319 84.5,448.5C 86.8333,448.5 89.1667,448.5 91.5,448.5C 89.0521,449.473 86.3854,449.806 83.5,449.5C 83.5,439.167 83.5,428.833 83.5,418.5 Z"/></g>
<g><path style="opacity:0.329" fill="#06334f" d="M 119.5,418.5 C 119.5,421.167 119.5,423.833 119.5,426.5C 124.032,426.182 128.366,426.515 132.5,427.5C 127.833,427.5 123.167,427.5 118.5,427.5C 118.19,424.287 118.523,421.287 119.5,418.5 Z"/></g>
<g><path style="opacity:0.243" fill="#073959" d="M 445.5,433.5 C 443.5,433.5 441.5,433.5 439.5,433.5C 439.5,436.833 439.5,440.167 439.5,443.5C 438.518,440.038 438.185,436.371 438.5,432.5C 441.059,432.198 443.393,432.532 445.5,433.5 Z"/></g>
<g><path style="opacity:0.486" fill="#09446a" d="M 133.5,442.5 C 134.468,444.607 134.802,446.941 134.5,449.5C 126.648,449.825 118.982,449.492 111.5,448.5C 118.833,448.5 126.167,448.5 133.5,448.5C 133.5,446.5 133.5,444.5 133.5,442.5 Z"/></g>
</svg>
