<?xml version="1.0" encoding="UTF-8"?>
<!DOCTYPE svg PUBLIC "-//W3C//DTD SVG 1.1//EN" "http://www.w3.org/Graphics/SVG/1.1/DTD/svg11.dtd">
<svg xmlns="http://www.w3.org/2000/svg" version="1.1" width="810px" height="810px" style="shape-rendering:geometricPrecision; text-rendering:geometricPrecision; image-rendering:optimizeQuality; fill-rule:evenodd; clip-rule:evenodd" xmlns:xlink="http://www.w3.org/1999/xlink">
<g><path style="opacity:1" fill="#79c040" d="M 346.5,-0.5 C 350.167,-0.5 353.833,-0.5 357.5,-0.5C 378.122,7.94739 393.955,21.9474 405,41.5C 421.176,72.8637 430.509,106.197 433,141.5C 434.256,157.668 435.422,173.835 436.5,190C 434.591,195.363 434.091,200.863 435,206.5C 435.71,207.973 436.876,208.64 438.5,208.5C 437.207,163.258 445.707,119.924 464,78.5C 487.314,37.1627 519.147,29.3293 559.5,55C 569.558,65.8114 575.391,78.6448 577,93.5C 579.633,130.409 574.966,166.409 563,201.5C 558.048,216.524 552.214,231.191 545.5,245.5C 546.833,246.833 548.167,246.833 549.5,245.5C 569.635,212.132 593.968,181.965 622.5,155C 634.521,144.652 647.854,136.318 662.5,130C 694.653,119.828 719.153,129.328 736,158.5C 776.384,223.315 766.884,279.482 707.5,327C 687.325,342.264 665.659,355.264 642.5,366C 625.47,373.517 608.47,381.017 591.5,388.5C 643.029,401.934 690.029,424.434 732.5,456C 751.933,470.758 767.766,488.592 780,509.5C 798.968,546.077 795.634,580.41 770,612.5C 753.987,626.973 735.487,631.139 714.5,625C 699.72,619.943 685.72,613.277 672.5,605C 660.142,596.487 648.142,587.487 636.5,578C 607.937,551.438 580.771,523.605 555,494.5C 552.777,492.277 551.444,489.611 551,486.5C 550.626,487.416 550.126,488.25 549.5,489C 574.061,534.003 593.561,581.17 608,630.5C 620.03,667.491 623.03,705.158 617,743.5C 606.1,778.393 582.6,799.226 546.5,806C 538.374,807.327 530.374,808.494 522.5,809.5C 518.833,809.5 515.167,809.5 511.5,809.5C 495.711,808.633 480.711,804.466 466.5,797C 447.635,781.787 435.468,762.287 430,738.5C 425.893,722.084 423.56,705.417 423,688.5C 423.108,655.993 422.941,623.493 422.5,591C 422.167,587.833 421.833,584.667 421.5,581.5C 420.675,585.122 420.175,588.789 420,592.5C 419.617,593.056 419.117,593.389 418.5,593.5C 416.207,594.301 416.54,594.968 419.5,595.5C 402.995,653.257 369.661,699.09 319.5,733C 275.468,757.132 235.968,751.299 201,715.5C 187.069,696.288 184.736,675.622 194,653.5C 201.398,636.359 211.064,620.692 223,606.5C 243.921,582.411 266.087,559.411 289.5,537.5C 289.167,537.167 288.833,536.833 288.5,536.5C 229.435,569.213 166.435,581.046 99.5,572C 72.8811,567.358 50.2144,555.358 31.5,536C 37.181,530.69 36.5143,529.357 29.5,532C 15.2759,508.389 12.7759,483.556 22,457.5C 34.5462,436.289 51.7129,419.789 73.5,408C 93.2231,398.095 113.556,389.761 134.5,383C 110.144,371.166 87.4777,356.832 66.5,340C 60.4675,334.302 54.8009,328.302 49.5,322C 47.5,321.667 45.5,321.333 43.5,321C 45.2594,320.02 46.9261,319.353 48.5,319C 37.6816,298.416 37.8483,277.916 49,257.5C 89.4939,193.26 141.327,182.593 204.5,225.5C 204.833,225.167 205.167,224.833 205.5,224.5C 196.139,207.201 192.639,188.868 195,169.5C 198.244,157.526 205.411,148.693 216.5,143C 226.739,137.13 237.405,136.13 248.5,140C 261.341,145.829 272.174,154.329 281,165.5C 289.078,175.984 296.411,186.984 303,198.5C 310.605,213.377 317.939,228.377 325,243.5C 338.601,267.037 351.934,290.703 365,314.5C 365.14,312.479 365.307,310.645 365.5,309C 347.87,263.651 334.037,217.151 324,169.5C 316.751,130.476 316.751,91.4763 324,52.5C 328.782,33.6108 336.282,15.9441 346.5,-0.5 Z"/></g>
<g><path style="opacity:0.216" fill="#477226" d="M 418.5,593.5 C 418.833,594.167 419.167,594.833 419.5,595.5C 416.54,594.968 416.207,594.301 418.5,593.5 Z"/></g>
</svg>
