<svg xmlns="http://www.w3.org/2000/svg" width="79.8" height="79.8" viewBox="0 0 4200 4200">
  <defs>
    <style>
      .cls-1 {
        fill: #fff;
      }

      .cls-1, .cls-2 {
        fill-rule: evenodd;
      }

      .cls-2 {
        fill: #7ac141;
      }
    </style>
  </defs>
  <path id="Фигура_2" data-name="Фигура 2" class="cls-1" d="M3439.7,2854.78c-0.08,51.01,3.11,92.16,3.19,142.7-0.35.36-.71,0.71-1.06,1.07-6.98.07-9.42,1.99-12.78,3.19H3301.26q-35.67.54-71.35,1.07v123.52c0-21.41-5.68,72.18,17.04,111.82,46.23,75.16,102.89,87.67,125.66,93.71,45.62,7.58,82.25-5.94,111.82-18.1,17.83-8.52,71.69-31.58,73.47-84.13V2857.98c25.51,0.79,15.94.54,142.7-1.07,2.7,294.46,9.57,362.7,15.97,382.3,13.31,28.47,36.82,58.27,63.9,72.42,68.16,35.62,116.78,22.55,128.85,21.3s122.17-52.83,123.53-121.4,5.33-253.08,5.33-353.55c1.77-.36,3.55-0.71,5.32-1.07h137.37c0.29,792.99,1.74,837.87-10.65,880.68-14.77,51.05-33.85,128.21-168.25,195.94,13.67-8.78-21.12,24.76-96.91,28.75-173.55,0-181.41-30.17-208.72-45.79,3.6,2.06-46.91-40.75-48.98-45.79q0.525-24.48,1.06-48.98c0-40.59,3.28-87.93,2.13-119.27h4.26c4.41,10.27,69.83,62.15,78.8,72.41,20.55,11.59,43.86,22.72,63.9,31.95,9.88,4.55,24.23,7.06,35.14,9.58,65.54,15.14,129.27-12.33,160.8-42.59,23.52-22.58,43.07-78.92,43.66-115.01-0.35-78.09-1.77-143.42-2.13-221.5h-2.13c4.24-5.37-94.75,61.67-203.4,44.72-49.6-11.48-91.74-9.2-198.07-108.62v1.07c-15.75,8.52-26.35,26.9-40.46,37.27-25.16,18.48-55.78,37.17-85.2,50.05-38.49,16.85-86.2,18.01-144.82,17.04,4.55,0.07-39.27-1.03-63.9-13.85-91.61-47.83-113.53-73.17-129.92-86.25-72.61-56.46-74.72-124.57-80.93-171.45V3054.99c0-13.6.04-38.63,0-48.99-8.52,8.16-19.17,16.33-27.69,24.49-12.26,14.75-41.64,43.57-43.66,43.66-26.79-40.18-65.65-62.65-113.94-73.47-23.34-5.23-82.7,9.57-88.39,11.71-38.34,17.02-77.58,52.72-92.65,92.65-12.56,33.3-10.65,83.08-10.64,136.3v233.22c-2.13,1.77-4.26,3.55-6.39,5.32q-70.29-.525-140.57-1.06V2857.98c20.67,0.24,2.28,0,46.85,0,34.52,0,67.73-.71,99.04-1.07,0.55,12.68,1.31,29.7,1.07,45.79h1.06c27.64-34.91,158.81-62.24,227.89-43.66,0.05,0.02,54.61,6.38,146.96,78.81q0.525-172.5,1.06-345.03c0.71-.36,1.42-0.71,2.13-1.07q69.75,0.54,139.5,1.07c4.49,4.13,2.13,54.81,2.13,66.02v194.88Q3334.805,2854.245,3439.7,2854.78Zm-958.41,109.69c73.83,128.21,61.76,234.56,61.76,266.23-350.06.73-507.63-6.09-537.78,3.19v3.19c17.87,22.3,29.35,63.26,105.43,101.17,79.67,39.7,146.8,6.45,146.96,6.39,42.38-15.65,101.89-62.02,94.77-61.76-4.85-5.51,54.79,34.13,90.52,57.5,9.63,6.3,20.74,14.18,29.82,21.3-22.65,21.71-38.86,43.16-61.77,58.57-45.55,30.64-88,50.83-144.82,68.15-3.55-.35-7.1-0.71-10.65-1.06-56.63,17.29-134.43,6.25-181.04-11.72-1.77.36-3.55,0.71-5.32,1.07-1.99-.7-6.55-5.55-8.52-6.39-8.62-3.67-14.54-2.78-21.3-5.33-10.63-4-23.3-14.81-33.01-20.23-118.69-66.17-160.01-189.71-137.37-141.63-10.46-22.21-26.1-71.21-23.43-63.9-22.39-61.38-7.48-139.35-3.2-160.8,26.51-108.25,103.36-196.38,202.33-238.53C1951.72,2879.46,2318.67,2682.08,2481.29,2964.47ZM500.564,2883.54v-28.76H646.455V3960.16c-7.726-.14-3.042,0-46.855,0H499.5q0.532-263.55,1.065-527.13h-2.13c-5.07,9.08-43.2,27.22-68.154,31.94-89.56,12.68-171.453,15.9-231.084-14.9-69.463-35.88-100.239-71.99-144.827-134.18,1.767,2.46-10.136-22.21-14.909-33.01,20.746,46.96-50.209-76.07-5.324-210.86,7.43-22.31,18.949-45.01,29.817-64.95,24.1-44.24,92.831-107.76,141.632-126.73C308.047,2840.52,454.572,2865.67,500.564,2883.54ZM702.9,2854.78H850.917c0,184.69-3.261,300.5,3.195,349.29,6.966,52.65,35.667,79.81,82,107.56,27.7,16.59,182.081,72.15,239.6-78.8,13.56-35.59,11.72-85.28,11.72-136.31V2986.83c0-6.79-1.05-121.57-1.07-130.98-10.39,1.09,87.66-1.07,141.63-1.07,0,0.71,2.13,1.42,2.13,2.13,1.21,20.49,1.07,54.9,1.07,79.87v175.71c0,53.66-20.59,168.2,129.92,220.44q6.915-.54,13.84-1.07c46.46,11.84,83.8-6.01,111.82-22.36,80-46.69,80.93-145.51,80.93-209.79V2855.85q73.47-.54,146.96-1.07v210.86c0.01,140.56,1.05,167.54-20.24,217.24-99.74,232.85-292.85,195.94-355.68,195.94-21.39-7.8-42.78-11.24-63.89-20.23-44.76-19.07-83.84-51.81-116.07-84.13-19.9,7.4-37.87,39.96-56.44,52.18-86.04,56.6-194.93,64.4-254.517,50.05-25.538-6.15-44.135-14.09-66.024-26.62-17.157-9.83-33.617-15.29-48.985-26.63-56.767-41.87-89.52-101.79-117.14-170.38-7.1-17.63-11.715-27.46-11.714-188.49V2894.19C704.46,2880.61,702.889,2868.66,702.9,2854.78Zm1458.915,97.98c-40.36,2.92-123.9,10.79-160.8,134.17H2374.8v-1.06c-4.24-3.78-2.2-8.63-5.33-13.85-7.92-13.2-15.99-26.51-24.49-39.4-39.54-59.95-79.72-72.59-106.49-77.73C2229.16,2953.47,2193.47,2950.71,2161.81,2952.76ZM184.287,3090.13c-17.039,30.64-17.039,36.8-17.039,104.36,5.649,5.28,6.617,28.48,11.714,38.34,22.782,44.06,77.791,125.29,195.943,96.9,75.792-18.21,121.673-51.17,132.048-144.83-0.24-65.14-2.57-130.03-122.464-178.9C346.554,2997.05,249.824,2972.28,184.287,3090.13Z"/>
  <path id="Фигура_1" data-name="Фигура 1" class="cls-2" d="M1937.12,372.492h3.19c2.83,11.277,9.92,18.4,13.85,27.688,1.91,4.526,4.22,9.218,5.32,12.778,0.35,1.128-2.21,2.034-1.06,4.26,0.28,0.548,3.9,2.628,4.26,3.195,2.27,3.595-.11,7.074,1.06,9.584,0,0,4.12,3.313,4.26,4.26,0.38,2.572-1.42,1.859-2.13,4.259h3.2c0.18,1.387,3.19,15.974,3.19,15.974h2.13c0.67,1.21,2,3.938,2.13,4.259,0.82,2.064-1.25,6.079-1.06,6.39s3.94,2.8,4.26,4.259c0.75,3.464-3.4.942-2.13,4.26,0.51,1.356,4.63,5.39,5.32,7.454,1.56,4.648.02,11.547,1.07,13.844h2.13a47.833,47.833,0,0,1,2.12,5.325c1.01,3.217-1.85,5.464-1.06,7.454,0.41,1.044,3.73,4.573,4.26,6.389v7.455c1.21,4.23,4.32,13.513,5.32,18.1,0.75,3.426-2.53,3.492-2.13,5.325,0.41,1.8,4.81,6.124,5.33,8.519-0.36,3.549-.71,7.1-1.07,10.649,0.59,1.589,3.67,5.333,4.26,7.454v11.714c0.51,2.018,2.69,6.5,3.2,8.519l2.13,20.234c-0.29,1.264-2.62.925-2.13,4.259,0.66,4.511,4.12,13.3,5.32,18.1q-0.525,7.454-1.06,14.908c7.53,25.681,8.21,59.679,8.52,90.517,2.41-.426,1.15-0.978,3.19,0,0.8,1.143.64,1.007,1.07,3.195-3.97,3.027-3.19,7.885-3.2,14.909-0.02,19.154-.34,51.851,0,78.8h3.2v6.39h5.32c-0.35-3.1-5.17-31.676-3.19-35.142,1.06-.355,2.13-0.71,3.19-1.065,0.5-1.028,1.05-6.323,1.07-6.389,3.33-13.2-.63-30.367,3.19-42.6,3.5-11.185-1.5-28.5,3.2-38.337h2.13c1.01-2.359-.99-20.87,1.06-28.752,3.97-15.209,5.58-35.127,10.65-48.986h-2.13c1.2-6.773,4.51-16.076,6.39-22.363v-8.519c11.28-28.432,15.75-60.256,26.62-88.387,17.26-44.667,40.27-100.418,75.61-126.724,10.19-7.586,20.31-15.664,30.88-22.363,3.5-2.217,7-1.927,10.65-4.26,13.44-8.579,36.28-15.522,54.31-11.714,4.99,1.054,4.45-1.767,5.33-2.129,3.41-1.421,9.47,1.555,11.71,2.129,6.69,1.718,14.94-1.314,19.17,0,42.05,13.077,79.66,22.895,103.29,54.311,2.64,3.506,8.37,5.953,10.65,9.584,5.51,8.735,7.64,15.933,11.72,24.493v4.259c1.06,0.355,2.13.71,3.19,1.065,2.13,2.65,7.48,20.032,8.52,23.428,0.47,1.51,2.13,10.649,2.13,10.649-0.6.981-3.76,1.691-2.13,5.325,0.73,1.62,4.53,5.065,5.33,7.454,4.72,14.263-2.68,25.908,1.06,41.531,2.79,11.655,2.92,36.283,0,47.921-1.89,7.554-.29,21.762,1.06,27.687q-1.05,10.116-2.12,20.233v14.909c-1.14,3.551-4.39,9.277-5.33,12.779-1.14,4.261,2,5.874,2.13,7.454,0.09,1.1-4.63,30.575-5.32,31.947h-2.13c-1.11,2.805.74,12.66-1.07,18.1-0.92,2.763-4.72,6.943-5.32,9.584-0.95,4.183,2.66,1.955,2.13,5.325-0.16.966-4.67,20.109-5.33,21.3h-2.13c0.35,6.309-1.92,4.536-3.19,8.519-1.09,3.42,2.82.744,2.13,4.259-0.28,1.4-3.86,5.46-4.26,6.39,0.35,1.775.71,3.55,1.06,5.324-2.7,11.2-6.92,27.53-13.84,35.142,2.63,3.086-.95,14.206-3.2,20.233-1.98,5.314-4.35,6.353-5.32,13.844h-3.2c0.1,15.847-8.06,24.639-13.84,38.337-0.7,1.664,2.76.168,2.13,3.194-1.79,8.642-10.18,18.048-13.84,25.558-0.83,1.688,3.03.116,2.13,3.2-0.82,2.775-5.06,6.388-6.39,8.519-1.93,3.086.88,3.657,0,6.39-1.14,3.514-4.93,7.173-7.46,9.584,0,0,4.23.466,2.13,1.065h-1.06c-0.99,3.583-1.44,3.715-4.26,5.324,1.64,2.374.62,2.16,2.13,4.26,1.8,1.216,5.21,1.135,8.52,1.065,0.82-.727,2.37-1.4,3.19-2.13,7.2-7.972,10.23-20.586,15.98-29.818,12.44-20,25.57-39.6,39.4-58.569,9.15-12.561,20.2-24.619,29.81-37.272l8.52-6.389c4.51-5.78,7.38-12.339,11.72-18.1,5.68-7.542,16.35-13.418,21.3-21.3,16.74-26.7,40.31-49.257,63.89-69.219,6.63-5.612,12.43-16.161,19.17-21.3,14.7-11.208,28.47-24.9,43.66-35.142,24.88-16.782,52.62-28.8,79.87-43.661h6.39c6.23-2.5,15.55-6.348,22.36-8.519h9.58c6.8-1.661,21.83-4.589,25.56-1.065,2.58-.951,4.19-1.713,7.46-1.065l22.36,2.13c26.59,9.907,47.91,17.756,69.22,34.077,3.6,2.757,5.05,8.835,8.52,11.714,7.46,6.188,6.25,4.01,11.71,12.779q3.735,3.2,7.46,6.389c-0.36,1.065-.71,2.13-1.07,3.2,3.03,5.192,10.35,9.638,13.84,14.909,10.6,15.981,19.62,33.7,30.89,52.18a171.107,171.107,0,0,1,11.71,24.493c-0.35,1.065-.71,2.13-1.06,3.195,5.2,7.16,22.43,44.768,19.16,52.18,0.49,3.628,4.26,6.5,5.33,9.584,1.63,4.7,9.43,41.194,8.52,44.726l-2.13,1.065c-0.31,1.1.02,13.784,1.06,15.973h2.13c3.03,6.59,1.7,36.58,0,43.662v12.778c-4.18,8.707.13,13.07-3.19,25.558-3.62,13.589-7.62,17.3-8.52,29.817h-3.2c-0.4,14.08-8.53,26.19-14.91,39.4-2.43,5.05-2.57,11.23-8.51,12.78-0.74,5.17-1.21,4.83-2.13,9.58h-3.2c-1.81,10.85-13.22,19.14-18.1,27.69-1.46,2.56-.41,5.31-2.13,7.46-1.78.71-3.55,1.42-5.33,2.13-3.04,3.51-3.28,9.26-6.39,12.78-2.09,2.36-6.31,3.04-8.52,5.32-5.69,5.87-8.94,14.68-14.9,20.23h-3.2c-1.67,1.35-1.45,4.99-3.19,6.39-5.27,4.23-10.78,7.29-15.98,11.72v2.13c-4.07,3.68-10.53,6.34-13.84,10.65-0.36,1.42-.71,2.84-1.07,4.25-1.9,1.73-5.16.77-7.45,2.13-3.38,2.01-6.45,7.17-9.58,9.59-5.96,4.6-13.43,6.78-19.17,11.71v2.13c-1.68,1.73-4.38,1.73-6.39,3.2-1.66,1.21-1.75,3.94-3.2,5.32-2.11,2.02-4.54.59-7.45,2.13-1.8.95-5.81,6.14-7.46,7.46-2.24,1.79-9.42,3.61-11.71,5.32-1.89,1.42-5.99,7.26-7.45,8.52h-3.2c-0.35,1.06-.71,2.13-1.06,3.19-2.76,1.87-3.7-2.38-6.39,0v3.2c-3.47,3.54-11.1,2.05-15.98,6.39-0.35,1.42-.71,2.84-1.06,4.26-1.78.35-3.55,0.71-5.33,1.06v2.13c-3.39,2.31-7.28.31-11.71,3.2-0.35,1.06-.71,2.13-1.06,3.19-1.34,1.29-7.23,4.73-8.52,5.33-1.07-.36-2.13-0.71-3.2-1.07-3.12,1.45-6.68,4.69-9.58,6.39-1.78.36-3.55,0.71-5.33,1.07-1.65.93-2.83,4.1-4.26,5.32-1.71,1.46-4.72,2.66-6.39,1.07-3.4,3.19-9.34,7.87-13.84,9.58-2.92,1.11-5.39-1-9.58,1.06-0.71,1.07-1.42,2.13-2.13,3.2-9.21,5.1-19.01,6.19-27.69,11.71-1.5.96-2.5,4.46-4.26,5.33-7.87,3.86-9.48.04-15.97,3.19-5.93,2.88-11.93,9.37-18.11,11.72-0.69-.6-2.66-1.81-3.19-1.07-5.48,2.38-9.83,7.22-14.91,9.59a35.033,35.033,0,0,1-8.52,2.13c-0.78-.04,1.3-2.39-1.07-2.13-4.11.45-8.41,7.39-11.71,8.52-2.81.96-2.69-.33-3.19-2.13-0.66-.19-3.19,1.84-5.33,2.13v3.19c-2.39.62-2.83,0.8-4.26,2.13-1.64-1.21-.9-1.16-3.19-2.13v3.19c-3.23.44-3.77,2.54-6.39,2.13v-2.13h-2.13c-3.69.96-5.89,4.81-11.72,5.33v3.19c-3.6.38-3.36,2.31-6.39,2.13v-2.13h-1.06c-2.52.37-2.74,4.28-4.26,5.33-5.96,4.1-13.14-.03-14.91,8.52,1.07,0.35,2.13.71,3.2,1.06,2.09,1.18,3.04.97,5.32,0,1.91,0.99,4.74,3.89,6.39,5.33,0,0,2.84-2.97,5.32-2.13,3.91,1.32,11.75,5.04,15.98,6.39h6.39c28.01,10.97,56.77,16.21,82,28.75,12.06,6,33.76,7.34,39.4,17.04,6.65-3.78,25.24,10.74,35.14,12.78,10.4,2.13,36.07,16.7,46.85,24.49,1.07-.36,2.13-0.71,3.2-1.07,2.95,1.36,7.19,3.38,10.65,5.33,7.02,3.95,16.57,10.28,24.49,15.97,0.72,0.52,13.66,4.24,17.04,6.39,1.37,0.87,1.91,4.35,3.19,5.33,1.2,0.91.74-.99,1.07-1.07,1.92-.45,8.76,4.15,10.65,5.33,18.41,11.39,37.44,22.66,55.37,35.14,1.63,1.13,1.79,4.09,3.2,5.32,1.6,1.41,3.12.63,4.26,0,2.34,1.78,4.13,5.86,6.39,7.46,0.42,0.29,4.31-.54,6.39,1.06,5.64,4.36,10.64,12.51,17.03,15.98,1.41,0.75,5.04-.31,7.46,2.12,21.46,21.55,51.45,43.73,73.48,68.16,3.07,3.41,3.5,8.08,6.39,11.71,2.97,3.75,8.82,5.76,11.71,9.59,2.19,2.9,2.18,5.27,4.26,8.52,1.53,2.38,5.75,3.97,7.45,6.39,1.33,1.88.65,4.49,2.13,6.38,0.98,1.25,4.27,1.93,5.33,3.2,1.77,2.13,1.6,5.21,3.19,7.45,1.42,1.07,2.84,2.13,4.26,3.2,3.34,4.95,4.33,9.8,7.46,14.91,1.33,2.18,5.39,5.31,6.39,7.45,1.05,2.25-1.96,3.36,0,6.39,0.32,0.5,4.8,3.44,5.32,4.26,2.14,3.33.04,4.86,1.07,7.46,3.89,9.83,12.51,20.27,15.97,28.75,6.82,16.69,6.38,33.8,12.78,45.79,4.03,7.54.02,17.94,2.13,27.69,1.99,9.18,2.4,39.2,0,48.98-1.31,5.31-4.92,10.58-4.26,17.04,0.46,4.49-3.37,6.43-4.26,10.65-0.62,2.95.78,1.16,2.13,2.13,0.13,0.81-1.21,8.7-2.13,10.65-0.64,1.36-6.54,10.89-7.45,13.84,0.35,1.42.71,2.84,1.06,4.26-0.15.58-7.97,19.5-8.52,20.23-0.7.94-3.64,0.91-4.26,2.13,0.36,1.07.71,2.13,1.07,3.2-0.16.33-5.14,10.41-5.33,10.65-1.04,1.33-4.24,1.71-5.32,3.19-3.68,5.05-5.04,10.74-8.52,15.98-2.38,3.57-7.12,6.19-9.59,9.58-6.23,8.57-11.44,19.75-20.23,25.56-4.45,2.94-13.52,5.07-17.04,8.52v3.19c-2.94,3.04-11.77,6.21-15.97,7.46-0.67-1.87-.21-1.04-1.07-2.13v3.19c-4.42.88-1.9,1.32-4.26,3.2-5.06-.86-4.88.63-8.52,2.13h-8.51c-5.89,1.66-9.99,2.68-15.98,4.26h-11.71c-2.62.62-14.54,2.68-17.04,2.13-18.09-4.01-45.26-3.92-58.57-13.85-1.3.29-3.8,2.07-6.39,1.07-8.16-3.18-19.91-7.67-26.62-12.78-3.08.3-16.52-4.63-20.24-7.46-0.94-.72-0.87-3.68-2.13-4.26-1.41.36-2.83,0.71-4.25,1.07-3.04-1.15-7.07-5.57-9.59-7.46q-4.785-1.59-9.58-3.19a121.353,121.353,0,0,1-10.65-6.39c-1.29-.91-1.04-3.2-2.13-4.26-6.5,1.3-16.55-9.3-22.36-12.78h-3.2c-2.74-1.65-4.15-5.26-6.39-7.45-1.06.35-2.13,0.71-3.19,1.06-1.78-2.13-3.55-4.26-5.33-6.39-2.49-1.47-5.38-.38-7.45-2.13-1.79-1.5-2.41-4.9-4.26-6.39-1.07.36-2.13,0.71-3.2,1.07-1.55-1.11-2.72-5.23-4.26-6.39-2.14-1.61-5.32-.68-7.45-2.13-1.98-1.35-2.51-4.97-4.26-6.39-1.81-1.48-4.55-.83-6.39-2.13-2.51-1.78-3.99-5.66-6.39-7.45-3.96-2.97-9.31-4.04-12.78-7.46-1.76-1.73-2.1-5.05-4.26-6.39-2.35-1.46-4.31-.61-6.39-2.13l-6.39-8.52c-12.19-7.81-18.2-17.61-28.75-25.55-4.83-3.65-10.07-5.71-14.91-9.59-9.42-7.54-17.45-18.71-25.56-27.69-9.17-10.16-20.58-18.59-30.88-27.68-1.23-1.1-.95-4.13-2.13-5.33-4.92-4.99-14.97-9.67-18.1-15.97,0.35-.71.71-1.42,1.06-2.13-4.23-.42-13.53-9.15-17.03-13.85-3.36-4.48-4.75-9.84-8.52-13.84-2.74-2.9-6.77-4.63-9.59-7.45-4.75-4.78-7.9-11.34-12.78-15.98a11.606,11.606,0,0,1-7.45-4.26c-9.97-12.28-22.63-22.73-31.95-35.14-6.08-8.09-11.3-16.11-18.1-23.43-7.91-8.5-21.03-15.09-26.62-25.55h1.06v1.06c0.83,2.05,1.07-2.13,1.07-2.13-6.24-1.43-7.86-6.89-11.72-10.65,2.38-3.55,3.93-3.4,4.26-9.58h-1.06v-1.07h-2.13c-9.12,14.81-1.91,16.44,6.39,27.69-3.37-.01-1.44-1.8-3.2,1.06,6,1.55,6.76,8.03,9.59,12.78,6.05,10.19,12.73,22.73,17.03,31.95,2.05,4.37,4.24,14.88,4.26,14.91,4.36,6,11.41,17.71,12.78,25.56-0.35,1.06-.71,2.13-1.06,3.19,1.05,2.69,5.42,6.08,6.39,8.52-0.36,1.42-.71,2.84-1.07,4.26l5.33,4.26c1.66,2.66.55,7.8,1.06,8.52a136.744,136.744,0,0,1,14.91,27.69c-0.35,1.06-.71,2.13-1.06,3.19,7.95,11.43,16.97,32.45,22.36,45.79,2.11,5.23,2.84,14.34,4.26,17.04h2.13c0.51,0.89,2.13,4.26,2.13,4.26-0.36,1.78-.71,3.55-1.07,5.33,1.01,2.8,5.11,6.5,6.39,9.58,1.2,2.88.63,6.26,2.13,8.52,1.65,1.59,1.96.83,3.2,3.19-2.05,1.77-2.44,1.95-3.2,5.33,3.03-.34,2.21-1.13,4.26,0a37.361,37.361,0,0,1,5.33,9.58c-0.36,1.42-.71,2.84-1.07,4.26h2.13c2.12,3.52.04,7.59,1.07,9.59h2.13c1.83,2.61,4.72,13.1,3.19,14.9h2.13a40.462,40.462,0,0,1,2.13,5.33,100.692,100.692,0,0,1,3.19,9.58c-0.35,1.78-.71,3.55-1.06,5.33,1.24,2.57,3.81,2.48,3.19,5.32-0.92,4.3,9.78,14.03,5.33,19.17,2.85,3.5,5.13,5.17,2.13,9.58,11.78,16.38,11.82,39.76,20.23,54.31,2.77,4.8-.56,9.11,1.07,12.78h2.13c0.54,0.9,2.1,5.23,2.13,5.33,0.76,3.18-3.91,1.49-2.13,5.32,1.06,0.36,2.13.71,3.19,1.07a44.213,44.213,0,0,1,2.13,5.32c1.54,4.35.24,14.21,1.07,15.98,0.84,1.82,4.71,3.88,4.26,7.45h-2.13c-0.65,2.46,4.82,8.34,5.32,10.65,0.63,2.89-4.02,2.21-2.13,6.39,0.01,0.01,2.98,1.65,3.2,2.13,3.02,6.54,3.86,19.04,2.13,23.43,1.02,2.07,4.41,6.15,5.32,8.52-0.36,3.54-.71,7.1-1.07,10.64,0.59,1.41,3.96,6.47,4.26,8.52,0,0-3.24,6.09-2.13,8.52,4.53,9.84,5.3,25.18,8.52,36.21,1.17,3.98-4.78,10.01-2.13,15.97,2.81,6.32,6.56,30.44,4.26,40.47-0.56,2.46-1.98,8.67-1.06,12.78,3.45,15.48-1.84,34.52-4.26,47.92-0.83,4.59,1.04,18.56,0,25.56-0.17,1.17-1.11,7.46-2.13,9.58-1.07.36-2.13,0.71-3.2,1.07-2.3,3.83,2.46,5.14,2.13,7.45-0.21,1.54-3.6,5.3-4.26,6.39-2.17,3.65.61,3.52,1.07,5.32-1.02,2.57-4.29,5.25-5.32,7.46-2.3,4.89-.1,7.6-1.07,9.58-1.01,3.62-.41,3.32-4.26,4.26-0.35,13.26-11.19,26.95-17.04,36.21-1.99,3.15.13,4-1.06,6.39-2.34,4.66-10.12,9.07-12.78,13.84-0.42.74,0.61,4.21-1.07,6.39-1.13,1.48-3.96.87-5.32,2.13-4.12,3.81-7.2,9.33-10.65,13.85-2.96,3.87-8.14,6.23-11.71,9.58-9.36,8.76-15.58,19.16-28.76,22.36,0.36,1.07.71,2.13,1.07,3.2-6.12.92-5.77,2.4-11.72,3.19v3.2c-2.54.89-1.75,0.42-3.19,2.13-1.61-.92-0.79-3.04-2.13-1.07-3.86,1.98-7.81,8.08-12.78,5.33-2.76,1.87-6.52,7.14-9.58,8.52-0.66.29-3.14-1.93-5.33-1.07-2.11.83-6.92,4.68-9.58,5.32-3.53.86-.82-3.28-4.26-2.13-3.12,1.05-2.13,8.21-7.46,3.2-5.69-1.13-13.57,11.12-22.36,5.32v3.2c-7.35.27-8.62,2.11-13.84,0-2.22.98-5.78,4.55-8.52,5.32-4.8,1.35-3.96-4.13-8.52-2.13v2.13c-1.8,1.17-8.22,2.74-9.58,3.2-6.76,2.25-18.21.62-24.5,2.13q-6.915-.54-13.84-1.07c-16.29-.03-49.01-1.56-58.57,2.13-7.67-3.62-16.89-.36-24.49-3.19-0.69-.26-4.08-2.83-5.33-3.2h-9.58c-0.36-.71-0.71-1.42-1.07-2.13h-4.26v-2.13c-4.49-2.31-4.27,4.14-11.71-3.19,0,0-3.94,3.44-6.39,2.13-3.35-1.8-10.68-9.04-15.97-5.33-5.18-3.79-3.94-5.02-12.78-6.39v-3.19c-14.74-.61-25.94-12.81-35.14-22.36-2.39-2.48-6.08-3.95-8.52-6.39q-7.995-8.52-15.98-17.04c-1.48-1.14-3.16-.72-4.26-2.13-5.43-6.95-8.8-13.69-13.84-21.3-5.2-7.86-13.46-16.16-17.04-25.56,0.36-1.06.71-2.13,1.07-3.19-0.6-1.28-3.5-1.17-4.26-2.13-2.03-2.57-5.78-13.14-4.26-14.91-8.37-9.91-13.88-32.11-19.17-44.73-2.78-6.62-1.15-11.06-3.2-18.1-4.04-13.94-7.63-31.39-11.71-45.79v-10.65a230.455,230.455,0,0,1-6.39-45.79c-0.24-6.79-3.69-13.59,0-18.1-5.37-5.26-.15-19.99-2.13-28.76-3.09-13.68-5.01-58.14-2.13-69.21,2.38-9.16-1-21.9,1.07-29.82v-31.95c3.14-13.94,1.06-34.18,1.06-50.05,0-27.98,4.23-64.16-2.13-88.39V1956c-0.7-1.95-5.1-2.81-3.19-7.45h2.13c3.48-6.21-2.24-18-4.26-19.17-1.58,3.35-.2,4-1.07,7.46-0.18.7-3.06,2.77-3.19,3.19-0.98,2.99,4.69,19.55-3.2,24.49,0.01-3.37,1.52-1.99-2.13-3.19,0.36,1.06.71,2.13,1.07,3.19-4.28.13-5.89,0.3-7.46,3.2h1.07c2.66,2.25,7.69,2.21,9.58,5.32h-3.19v3.2c2.21,0.39,2.05.26,3.19,1.06-2.45,3.38-1.37,5.89-3.19,10.65-0.9,2.33-4.42,3.63-5.33,5.33-2.55,4.78-.25,9.25-1.06,12.78-0.86,3.69-4.92,8.01-6.39,10.64-1.08,1.94,1.48,3.63,0,6.39-0.86,1.61-3.44,1.04-4.26,2.13v2.13s2.22,2.51,0,6.39c-1.7,2.98-6.33,16.43-8.52,19.17-1.07.36-2.13,0.71-3.2,1.07-3.34,5.82.51,7.62-3.19,14.9-1.95,3.85-6.43,8.33-8.52,11.72-2.34,3.81-.18,5.29-1.06,8.52-0.85,3.09-5.24,5.09-6.39,7.45,0.35,1.07.71,2.13,1.06,3.2-1.83,5.15-6.39,8.41-7.45,14.91h-3.2c-0.89,2.54-.43,1.75-2.13,3.19,0.92,1.61,3.04.79,1.07,2.13-2.96,6.54-9.93,12.06-12.78,18.1-1.06,2.24,2,5.19-1.07,7.46h-3.19c-1.75,13.26-20.27,33.24-28.75,44.72-2.49,3.37-2.36,8.89-5.33,11.72h-3.19c-2.16,2.23-.57,6.05-3.2,9.58-1.32,1.79-3.67.67-5.32,2.13-3.28,2.91-3.15,9.85-6.39,12.78h-3.2c-1.42,2.49-2.84,4.97-4.26,7.46-1.06.35-2.13,0.7-3.19,1.06-7.08,7.54-10.87,18.16-18.1,25.56h-2.13c-0.36,1.06-.71,2.13-1.07,3.19-1.06-.35-2.13-0.71-3.19-1.06-11.87,12.24-21.48,28.04-35.15,38.33-8.42,6.35-16.53,12.34-24.49,19.17-1.69,1.46-1.61,4.83-3.19,6.39-4.36,4.3-12.12,5.95-17.04,9.59-10.79,7.97-36.63,31.71-50.05,34.07v3.2c-7.17,1.22-19.65,7-24.5,13.84-1.64-1.21-.89-1.15-3.19-2.13-1.95,2.73-7.03,7.93-11.71,7.46-7.43-.76-28.8,16.51-38.34,9.58v3.19c-26.35,2.34-61.61,12.93-91.58,5.33-11.26-2.86-19.81.43-29.82-3.2-12.29-4.44-34.63-10.79-45.79-17.03-1.79-1-6.24-6.79-7.45-7.46-1.42.36-2.84,0.71-4.26,1.07-1.81-.76-2.79-4.35-4.26-5.33-4.2-2.78-11.79-.7-13.85-8.52-9.27-.97-7.25-4.49-11.71-7.45-1.07.35-2.13,0.71-3.2,1.06-1.68-.91-1.83-4.21-3.19-5.32-2.38-1.95-6.14-1.46-8.52-3.2-3.97-2.9-4.1-7.61-9.58-10.64-4.9-2.72-15.82-9.51-17.04-14.91h-3.2c-3.2-9.16-18.04-22.11-23.43-30.89s-10.87-21.19-14.9-33.01c-1.58-4.62-.23-11.56-1.07-13.84h-2.13q-0.525-21.825-1.06-43.66c0.25-42.17,16.98-75.81,31.94-104.36,21.06-40.16,46.58-76.39,76.68-107.56,2.66-2.76,2.96-7.58,5.32-10.65,6.56-8.52,14.57-15.67,21.3-24.49,5.55-7.27,15.63-11.87,21.3-19.17,16.06-20.69,33.83-39.15,52.18-57.5,20.76-20.76,42-41.07,62.83-61.77,6.68-6.64,21.4-14.08,23.42-24.49h-1.06v-1.07c-9.4,2.44-25.81,13.36-30.88,10.65-1.72,5.55-12.84,6.37-19.17,9.59-5.78,2.93-10.06,8.04-14.91,11.71-12.07-1.31-26.35,12.52-40.47,13.85v3.19c-5.68,1.47-12.23,2.97-15.97,5.32-0.35,1.07-.71,2.13-1.06,3.2-1.42-.36-2.84-0.71-4.26-1.07-0.37.12-9.42,3.55-10.65,4.26v2.13c-2.98,1.22-3.04-2.11-3.2-2.13-3.83-.39-10.64,5.33-12.78,7.46-6.28-1.22-19.81,6.11-28.75,8.52-2.91.78-1.37-1.59-3.19-2.13-2.2,1-4.86,4.41-7.46,5.32a7.97,7.97,0,0,1-6.39-1.06c-6.2,5.32-18.7,6.09-25.55,10.65l-6.39-2.13c-7.51,5.88-31.95,8.96-46.86,12.78-2.48-.36-4.97-0.71-7.45-1.07-11.9,4.67-30.64,5.38-46.86,10.65l-7.45-2.13c-4.95,1.63-15.82,2.87-21.3,4.26q-13.32-.54-26.63-1.07c-8.26,3.71-15.99,3.24-26.62,3.2-21.77-.09-49.86,4.91-64.96-3.2h-17.04c-6.52-.17-28.72-1-34.07-3.19q-7.455-.54-14.91-1.07c-3.22-.8-7.4-3.06-9.59-4.25-3.24-1.77-7.46,1.51-9.58,1.06-1.53-.32-5.31-3.7-6.39-4.26-1.65-.85-4.45,1.96-7.45,1.07-4.29-1.27-13.11-3.97-17.04-5.33h-7.456c-3.534-1.19-10.463-5.2-13.844-6.39-1.774.36-3.55,0.71-5.324,1.07l-4.26-5.33c-0.98-.67-6.26.5-9.584-1.06-1.726-.82-2.8-4.47-4.26-5.33-5.592-3.29-8.431-.34-13.843-3.19-2.254-1.19-4.449-5.28-6.39-6.39-0.835-.48-2.233,2.28-4.259,1.06-0.355-1.06-.71-2.13-1.065-3.19-5.353-3.05-10.084-1.81-11.714-8.52-10.84-1.41-13.453-8.14-21.3-13.84-2.13-.36-4.26-0.71-6.39-1.07-2.546-1.64-5.192-7.75-7.454-9.58-2.6-2.11-8.015-2.76-10.649-5.33-3.92-3.82-6.453-9.22-10.649-12.78-6.855-5.81-13.717-5.13-13.844-18.1,3.829-1.54,9.81-9.29,10.649-13.84-6.258.51-11.315,4.41-13.844,4.26-0.455-.17-8-1.8-8.519-2.13-5.031-3.22-16.979-26.38-19.168-33.02,0.355-1.77.71-3.55,1.065-5.32-0.411-1.1-3.723-2.37-4.26-3.2-1.608-2.48-5.509-21.09-4.26-22.36-7.721-10.57-5.049-25.84-8.519-41.53-3.537-16-2.04-61.48,4.26-79.87,34.02-99.28,123.166-155.2,216.179-199.13h5.32c6.49-2.93,16.04-8.25,22.36-11.72,3.72-2.03,10.11-1.03,13.85-3.19,0.35-1.07.71-2.13,1.06-3.2,1.25-.84.84,0.76,1.07,1.07,4.98-.03,7.96-1.47,12.78-3.2,8.95-3.21,20.18-8.11,28.75-11.71,9.47-3.98,36.14-5.54,38.34-14.91-6.07-2.44-34.8-16.09-36.21-21.3-5.79-.63-29.35-11.03-30.88-17.04a39.158,39.158,0,0,1-18.11-6.39c-1.06-1.77-2.13-3.55-3.19-5.32-2.95-2.03-3.48,1.78-6.39,0-0.36-1.07-.71-2.13-1.07-3.2-4.33-2.66-8.49-2.58-12.77-5.32-0.36-1.07-.71-2.13-1.07-3.2-1.77-.35-3.55-0.71-5.32-1.06-1.61-1.02-2.8-4.44-4.26-5.32h-4.26c-1.78-2.13-3.55-4.26-5.33-6.39-7.61.51-6.81-4.39-11.71-7.46h-4.26c-3.534-1.94-6.321-7.61-9.586-9.58h-4.259c-1.655-.95-1.837-4.23-3.2-5.33-2.434-1.96-6.19-1.21-8.519-3.19-1.311-1.12-1.777-4.36-3.195-5.33h-3.2c-1.419-1.77-2.84-3.55-4.259-5.32H963.8c-2.116-1.73-3.1-5.78-5.325-7.46-18.28-13.76-39.819-32.78-52.18-52.18-2.57-4.03-11.113-6.16-12.779-10.64l1.065-6.39c-3.4-8.65-10.37-19.31-13.844-28.76-2.5-6.8-1.073-10.73-3.194-18.1-6.6-22.93-8.16-64.97,0-88.39,18.89-54.205,67.588-116.743,111.815-152.278,26.225-21.071,59.325-35.06,92.645-48.986h7.46c0.96-.3,3.74-3.016,4.26-3.194,2.59-.9,5.32,2.129,5.32,2.129,3.21-2.484,10.46-5.584,17.04-4.259,0.26,0.053,2.35,1.936,4.26,1.065v-2.13c6.27-2.742,35.81.547,39.4,2.13,4.1,1.809,21.15-2.372,27.69,1.065v2.129c3.09-.471,13.55-0.742,18.1,1.065,0.36,0.71.71,1.42,1.07,2.13h4.25v2.13l5.33-1.065c0.35,0.71.71,1.42,1.06,2.13,2.85,1.17,6.5-.449,7.46,0l2.13,3.2h7.45l2.13,3.194h6.39c16.26,7.468,39.8,15.748,54.31,27.688,1.07-.355,2.13-0.71,3.2-1.065,1.84,0.894,4.57,4.352,6.39,5.324,4.62,2.471,9.63,2.242,13.84,5.325,7.46,5.469,22.39,18.256,33.01,19.168-0.57-8.9-6.76-15.326-9.58-22.363-6.1-15.211-12.73-34.875-18.11-52.18-2.52-8.122-6.04-28.225-4.26-35.142,2.08-8.039-.87-19.267-2.13-25.558-0.77-3.874,1.44-2.925,2.13-4.259,1.55-2.957-.69-10.262-1.06-11.714-0.76-3.018,1.95-20.088,3.19-23.428,15.86-42.614,58.01-70.338,104.37-83.063,4.51-1.238,11.93,4.8,19.16,2.13,14.84-5.483,46.43,14.338,57.51,21.3,60.94,38.3,104.1,105.953,136.31,168.255,7.43,14.372,16.1,29.856,22.36,42.6,1.75,3.571,8.22,14.8,6.39,17.039,5.55,6.133,12.78,18.5,10.65,25.557,7.93,2.334,10.18,15.525,13.84,22.363,5.65,10.535,12.08,21.759,18.1,31.948,2.76,4.658.46,5.883,3.2,10.649,3.98,6.917,10.92,10.578,11.71,21.3h3.2c2.4,10.28,9.14,14.79,12.78,22.36-0.36,1.06-.71,2.13-1.07,3.19,1.67,3.05,6.89,6.4,8.52,9.59v5.32c0.75,1.08,6.06,5.2,7.46,7.46,12.33,20,20.6,43.35,33.01,58.57,7.53,9.23,9.5,26.09,19.17,33.01-1.54,2.19-1.66,1.38-2.13,5.32,2.66,1.55,2.29.63,3.19,4.26h3.2v4.26c1.42,0.36,2.84.71,4.26,1.07v-6.39c-2.28-2.99-3.58-8.53-5.33-11.72,2.71-1.55,1.2.23,2.13-3.19-7.76-7.61-10.67-34.73-14.91-46.86-13.2-37.76-24.39-76.43-38.33-115.007-21.12-58.408-32.51-117.531-52.19-179.969-7.65-24.3-8.2-50.093-14.9-74.543-1.49-5.407-.28-19.007-1.07-21.3-6.36-18.476-5.59-35.617-9.58-54.31-0.82-3.829,3.33-10.909,1.06-15.974-3.72-8.314-5.91-26.867-3.19-37.271V566.3c-0.01-16.588,2.7-38.7-1.07-53.246-3.02-11.639,1.75-28.81,4.26-37.271q-0.525-6.389-1.06-12.779c2.07-11.108,2.53-17.84,5.32-27.688,4.69-16.546,2.09-37.805,10.65-50.05-1.87-.672-1.03-0.205-2.13-1.065,6.3-8.7,7.45-28.414,11.71-39.4,9.09-23.425,18.65-49.572,30.89-70.284,6.07-10.274,10.1-29.387,22.36-33.012v-3.195c59.43-6.6,106.43,41.862,136.31,78.8,1.39,1.717,3.63.673,5.32,2.13,4.18,3.6,5.11,10.44,8.52,14.909C1922.09,345.155,1935.56,358.239,1937.12,372.492Zm75.61,294.979c-0.13,3.492-.25,7.65,1.06,9.584C2013.92,673.562,2014.04,669.4,2012.73,667.471ZM1497.31,2408.59c1.84,0.94,1.37.95,3.2,0h-3.2Zm74.55,0c1.85,1.15,2.42,1.1,4.26,0h-4.26Z"/>
</svg>
