<?xml version="1.0" encoding="UTF-8"?>
<!DOCTYPE svg PUBLIC "-//W3C//DTD SVG 1.1//EN" "http://www.w3.org/Graphics/SVG/1.1/DTD/svg11.dtd">
<svg xmlns="http://www.w3.org/2000/svg" version="1.1" width="4256px" height="4256px" style="shape-rendering:geometricPrecision; text-rendering:geometricPrecision; image-rendering:optimizeQuality; fill-rule:evenodd; clip-rule:evenodd" xmlns:xlink="http://www.w3.org/1999/xlink">
<g><path style="opacity:1" fill="#7600fe" d="M 1904.5,-0.5 C 1905.17,-0.5 1905.83,-0.5 1906.5,-0.5C 2405.27,500.438 2904.6,1000.94 3404.5,1501C 2858.3,2047.03 2312.3,2593.2 1766.5,3139.5C 1510.2,3395.3 1254.03,3651.3 998,3907.5C 943.329,3975.88 932.329,4050.88 965,4132.5C 994.15,4198.63 1043.98,4238.96 1114.5,4253.5C 1016.38,4239.23 941.883,4189.9 891,4105.5C 869.147,4065.94 856.147,4023.6 852,3978.5C 850.337,3118.18 850.003,2257.85 851,1397.5C 851.443,1316.51 860.443,1236.51 878,1157.5C 902.842,1058.47 948.175,970.472 1014,893.5C 1022.7,884.464 1031.04,875.131 1039,865.5C 1327.7,576.965 1616.2,288.299 1904.5,-0.5 Z"/></g>
<g><path style="opacity:1" fill="#fe4e12" d="M 1766.5,3139.5 C 2138.17,3511.5 2509.83,3883.5 2881.5,4255.5C 2297.17,4255.5 1712.83,4255.5 1128.5,4255.5C 1128.17,4254.17 1127.83,4254.17 1127.5,4255.5C 1127.17,4255.5 1126.83,4255.5 1126.5,4255.5C 1122.71,4254.38 1118.71,4253.72 1114.5,4253.5C 1043.98,4238.96 994.15,4198.63 965,4132.5C 932.329,4050.88 943.329,3975.88 998,3907.5C 1254.03,3651.3 1510.2,3395.3 1766.5,3139.5 Z"/></g>
</svg>
