<svg xmlns="http://www.w3.org/2000/svg" width="80" height="80" viewBox="0 0 8000 8000">
  <defs>
    <style>
      .cls-1 {
        fill: #ff4f12;
      }

      .cls-1, .cls-2, .cls-3 {
        fill-rule: evenodd;
      }

      .cls-2 {
        fill: #70f;
      }

      .cls-3 {
        fill: #fff;
      }
    </style>
  </defs>
  <path id="Фигура_2" data-name="Фигура 2" class="cls-1" d="M3833.81,4178.43c10.66,3.83,19.44,18.26,27.08,25.9l63.56,63.56,225.99,225.99,715.64,715.64q100.635,100.635,201.28,201.27,28.83,28.845,57.67,57.68c7.06,7.06,19.97,14.83,23.54,24.72H3104.05c1.8,1.05-39.12-1.77-60.03-7.06-37.75-12.24-91.82-36.73-113-64.74-21.14-27.97-35.27-56.06-51.79-90.63-34.21-71.63-16.98-136.88,2.36-183.62,21.58-52.18,56.34-84.6,92.98-121.24,40.81-40.8,86.32-81.61,127.12-122.41C3345.32,4659.47,3577.99,4402.48,3833.81,4178.43Z"/>
  <path id="Фигура_1" data-name="Фигура 1" class="cls-2" d="M3997.42,481.339c6.91,4.581,11.88,11.876,17.66,17.656q19.425,19.421,38.84,38.842,60.615,60.618,121.24,121.236,93.57,93.575,187.15,187.15l61.2,61.206c11.27,11.268,23.24,21.264,32.96,34.134Q4593,1077.5,4729.54,1213.46c185.58,185.58,369.99,372.34,555.57,557.92q171.255,171.255,342.52,342.52l96.52,96.52c8.41,8.41,35.28,30.16,38.84,40.01Q4629.02,3383.815,3494.83,4517.42q-260.7,261.27-521.43,522.61c-35.25,35.24-67.69,67.2-88.28,117.7-4.29,10.52-4.81,20.22-8.24,31.78-6.12,20.61-11.82,56.97-5.89,83.57q3.54,18.24,7.07,36.49c20.66,64.72,54.83,116.6,107.11,149.48,15.44,9.72,33.65,17.01,51.79,23.54,6.61,2.39,21.5,5.33,25.89,7.07-8.43-.12-14.53.88-44.73-8.24a520.606,520.606,0,0,1-57.67-21.19c-73.14-32.03-139.83-100.85-171.85-174.2-36.1-82.71-31.78-127.59-31.78-216.58V2542.34c0-82-1.17-164.42-1.18-244.82v-76.51c0-12.88-1.18-29.13,1.18-40.02v-63.56c2.02-9.19-1.17-23.49,1.18-34.14,2.91-13.22-.84-29.09,2.35-43.55q4.125-43.545,8.24-87.1c44.52-190.47,3.74-245.03,382.54-623.83Q3574.235,905.12,3997.42,481.339Z"/>
  <path id="м" class="cls-3" d="M61.285,7497.37h186.89V7146.49H511.52c223.7,0,370.949-116.48,370.949-327.87S735.222,6490.74,511.52,6490.74H61.285V7497.37Zm186.89-520.57V6660.43H505.857c130.257,0,189.722,63.28,189.722,158.19S636.114,6976.8,505.857,6976.8H248.175ZM1698.76,7140.74c0-250.22-191.14-376.77-383.69-376.77s-383.695,126.55-383.695,376.77,191.135,376.77,383.695,376.77S1698.76,7390.96,1698.76,7140.74Zm-383.69,207.08c-104.78,0-202.47-76.22-202.47-207.08s97.69-207.08,202.47-207.08,202.46,76.22,202.46,207.08S1419.84,7347.82,1315.07,7347.82Zm1167.76-21.57-147.25-81.97c-42.47,60.4-87.78,103.54-175.56,103.54-107.6,0-186.89-79.1-186.89-207.08,0-126.55,82.12-207.08,186.89-207.08,63.71,0,118.93,30.2,162.82,97.79l152.91-89.16c-50.97-110.73-161.4-178.32-314.31-178.32-199.64,0-369.54,149.56-369.54,376.77s161.41,376.77,369.54,376.77C2311.52,7517.51,2412.04,7448.48,2482.83,7326.25Zm272.02,171.12h178.39V6948.04h209.55V6784.1H2545.3v163.94h209.55v549.33Zm615.6-312.31H3911.3v-63.28c0-208.51-141.58-356.63-342.63-356.63-203.88,0-369.53,150.99-369.53,376.77s165.65,376.76,361.03,376.76c154.33,0,252.02-58.96,322.81-181.19l-141.58-71.9c-43.89,56.08-83.53,97.78-178.39,97.78C3458.23,7363.37,3381.78,7294.35,3370.45,7185.06Zm192.56-281.86c99.1,0,165.65,54.65,182.64,143.81H3373.28C3398.77,6966.48,3469.56,6903.2,3563.01,6903.2Zm460.63,596c158.57,0,215.2-106.41,225.11-312.05l12.75-247.35h218.04v549.33h178.39V6775.87H4105.75l-22.65,404.09c-7.08,127.98-28.32,158.18-72.21,158.18-31.15,0-49.55-8.63-49.55-8.63v159.62S3991.07,7499.2,4023.64,7499.2Zm902.86-314.14h540.85v-63.28c0-208.51-141.58-356.63-342.63-356.63-203.88,0-369.53,150.99-369.53,376.77s165.65,376.76,361.03,376.76c154.33,0,252.02-58.96,322.81-181.19l-141.58-71.9c-43.89,56.08-83.53,97.78-178.39,97.78C5014.28,7363.37,4937.83,7294.35,4926.5,7185.06Zm192.56-281.86c99.1,0,165.65,54.65,182.64,143.81H4929.33C4954.82,6966.48,5025.61,6903.2,5119.06,6903.2Zm1103.13-121.45H6002.81L5771.95,7040.6V6781.75H5591.29v713.27h180.66V7197.34l236.59,297.68h213.65l-306.85-376.77Zm763.42,357.81c0-250.22-193.57-376.76-388.58-376.76s-388.58,126.54-388.58,376.76,193.57,376.77,388.58,376.77S6985.61,7389.78,6985.61,7139.56Zm-388.58,207.08c-106.11,0-205.04-76.22-205.04-207.08s98.93-207.08,205.04-207.08,205.05,76.22,205.05,207.08S6703.14,7346.64,6597.03,7346.64Zm475.65,144.85h172.06V7039.94l190.71,451.55h140.52l190.7-451.55v451.55h172.07V6778.22H7702.15l-196.44,500.44-196.44-500.44H7072.68v713.27Z"/>
</svg>
