<svg id="Группа_1" data-name="Группа 1" xmlns="http://www.w3.org/2000/svg" width="80" height="80" viewBox="0 0 8000 8000">
  <defs>
    <style>
      .cls-1 {
        fill: #9a2c20;
        stroke: #fff;
        stroke-linejoin: round;
        stroke-width: 47px;
      }

      .cls-1, .cls-2 {
        fill-rule: evenodd;
      }

      .cls-2 {
        fill: #fff;
      }
    </style>
  </defs>
  <path id="Фигура_4" data-name="Фигура 4" class="cls-1" d="M3067.15,6840.98c-45.37-1.12-59.84-16.3-84.95-34.98-59.58-44.34-30.23-117.62-49.97-204.88q-14.985-64.95-29.98-129.92h-9.99c-40.25,50.62-131.44,56.42-214.87,49.97v59.97c72.88,32.64,118.06,136.39,54.97,219.86-36.39,48.15-295.23,55.51-384.76,34.98-27.32-6.27-44.76,1.33-64.96-9.99-35.22-19.76-74.74-88.73-54.96-159.91,8.52-30.66,31.16-59.04,54.96-74.95,7.07-4.72,21.06-2.87,24.99-9.99V6206.36c7.33-12.11.01-32.27,4.99-49.97,9.64-34.18,34.9-72.94,54.97-99.93,95.4-128.33,344.51-177.2,509.68-74.96,40.24,24.91,81.14,68.73,104.93,109.93,15.36,26.6,5.45,57.01,34.98,69.96,22.37,13.69,65.35-3.21,94.94,5,47.18,13.08,60.05,65.37,104.93,74.95,29.39-45.56,122.48-108.26,214.87-84.95,30.63,7.74,50.58,28.69,79.95,34.98,15.27-16.81,43.41-41.06,64.96-49.97,80.11-33.1,182.6,22.25,234.85,54.97,22.63,14.17,34.2,38.08,64.96,44.97,44.82-87.9,152.85-133.66,264.83-84.95,24.07,10.48,64.91,59.32,99.94,49.97,16.26-4.34,33.45-28.25,49.96-34.97,31.81-12.96,94.24-6.09,134.92-5,42.69,1.14,60.7,46.49,104.93,29.98,12.52-4.67,31.17-24.32,44.97-29.98,35.61-14.61,104.33-14.81,139.92,0,20.81,8.66,52.92,31.99,64.95,49.97,11.63,17.37,6.84,38.89,24.99,49.97v-5c25.4-25.73,36.09-67.87,69.95-84.95,50.29-25.36,196.57-15.65,234.86,10,26.62,17.83,36.67,72.22,64.95,79.95,68.53-118.95,188.06-99.94,369.77-99.94,79.68,0,160.38-4.48,194.88,39.97,16.05,20.69,38.55,69.01,29.98,109.94-28.55,136.36,36.67,443.75-54.97,504.69-37.11,24.69-150.62,31.28-199.87,9.99-24.42-10.55-27.2-27.07-64.96-29.98-60.34,74.79-243.18,14.24-369.77,34.98-10.13,1.66-51.97,2.31-69.95-5-9.84-3.99-21.08-21.63-34.98-19.98-19.77,2.33-55.41,28.78-79.95,34.97-58,14.65-102.91-15.99-134.91-24.98-26.94-7.57-43.1,15.27-59.97,19.99h-144.9c-29.86-8.43-39.23-28.12-79.95-29.98-26.3,38.02-158,42.7-204.87,14.99-20.01-11.83-38.98-44.32-54.97-44.98-28.58,27.65-61.08,63.83-99.94,79.96-117.81,48.9-224.85-60.12-259.83-129.93-8.77,3.16-4.86.97-10,5-33.64,33.24-58.99,79.45-99.93,104.94-211.37,131.57-319.22-150.85-369.77-289.83h-5v24.99c-15.88,26.64-8.69,82.3-9.99,119.93-0.93,27.09-11.83,61.98-5,94.94,13.22,63.77,40.63,187.94,5,244.85-36.52,58.34-195.64,106.77-264.83,39.98C3043.29,7023.86,3063.6,6928.68,3067.15,6840.98Zm-724.54,79.95c178.74-4.54,262.63,40.12,214.86,204.87-12.77,44.05-2.74,83.95-24.98,114.93-64.8,90.26-120.68,14.67-194.88,44.98v9.99c37.11,9.72,89.18,47.12,109.93,74.96,11.32,15.19,12.42,30.77,29.98,39.97,14.58-118.49,178.35-339.26,344.78-269.83,37.35,15.58,96.31,53.84,119.93,84.94,18.49,24.37,37.72,65.59,69.95,74.96v-5h5c-1.66-168.58,190.15-144.04,304.81-104.93,28.25-35.72,179.87-47.1,234.85-19.99,28.38,13.99,29.19,41.08,69.95,44.97,59.64-77.52,234.39-54.96,369.77-54.97,60.08,0,124.71-4.96,159.9,19.99,18.28,12.97,42.76,47.12,49.97,69.96,11.21,35.5-11.22,67.4,4.99,94.94,15.95-16.45,36.51-25.78,44.98-49.97-19.72-30.53,10.87-70.18,24.98-84.95,27.49-28.77,59.8-59.61,124.92-49.97,9.82,1.46,28.03,8.32,44.97,5,19.59-3.83,52.12-8.39,74.96,0,33.38,12.27,43.08,52.04,74.95,64.96,31.18-48.68,128.83-95.96,229.85-69.96,31.38,8.08,45.88,30.36,79.95,34.98,22.03-28.58,135.54-53.02,199.88-34.98,12.73,3.58,30.51,22.32,39.97,24.99,19.27,5.43,33.47-16.05,44.97-19.99,27.97-9.57,100-13.79,134.92-5,34.06,8.58,52.71,33.1,84.94,39.98,24.6-35.31,117.27-58.26,189.88-39.98,27.56,6.94,63.22,43.49,94.94,34.98,16.65-4.46,36.71-24.77,54.97-29.98q64.95-2.505,129.92-5c117.26,0,281.73-20.85,329.79,49.97,20.36,30.02,32.43,118.41,19.98,174.9-32.67,148.35,51.42,376.52-69.95,439.73-26.2,13.64-118.79,21.41-159.9,9.99-32.22-8.94-45.05-31.63-84.95-34.98-30.65,31.63-130.96,52.47-204.87,34.98-19.53-4.62-42.33-21.08-69.95-14.99-34.1,7.52-101.2,28.53-154.9,14.99-35.55-8.95-52.7-35.11-89.95-39.97-23.65,33.48-114.44,59.14-184.88,39.97-18.25-4.96-42.22-28.71-64.96-24.98-15.8,2.59-38.81,20.63-54.97,24.98-35.12,9.46-106.38,3.81-134.91-4.99-17.28-5.33-35.94-24.83-49.97-29.99-36.11-13.27-77.43,28.15-104.93,34.98-50.68,12.6-127.18-19.92-149.91-14.99-35.07,7.62-128.17,32.51-184.88,14.99-14.05-4.34-36.9-27.42-54.97-24.98-10.69,1.44-29.57,21.07-39.97,24.98-26.03,9.8-82.47,19.38-119.92,10-29.38-7.36-60.32-35.7-84.95-39.98-21.53-3.74-53.77,24.72-74.95,29.98-42.74,10.62-131.49,4.04-159.9-9.99-15.88-7.84-21.78-20.48-44.97-24.99-34.14,45.06-141.33,40.2-204.87,24.99-20.75-4.97-30.53,7.33-39.98,9.99-75.17,21.2-180.27-10.74-209.87-39.97-26.54,9.74-44.14,32.29-74.95,39.97-81.31,20.28-152.44-16.88-199.87-29.98-25.39,32.96-146.72,46.45-204.87,24.99-18.51-6.84-43.12-35.11-54.97-29.99-43.24,15.51-69.7,56.62-119.92,69.96-96.56,25.64-136.34-57.22-194.88-69.96-34.53,51.18-150.85,34.98-234.85,34.98H1842.92c-40.73-12.9-53.95-47.66-79.95-74.95-3.57-51.16-8.97-104.47,14.99-139.92,9.98-14.75,57.12-35.87,59.96-39.97V7190.77c-84.87-37.47-89.9-105.63-64.95-204.88,22.62-15.09,37.13-39.95,64.95-49.97,58.42-21.03,197.4-5,269.83-5,40.8,0,81.27-2.6,109.93,10,9.3,4.08,14.86,16.41,24.99,19.98,9.35,3.31,3.72,7.03,9.99,0C2277.87,6949.77,2319.42,6938.17,2342.61,6920.93Z"/>
  <path id="Фигура_3" data-name="Фигура 3" class="cls-2" d="M2642.42,6691.07v39.97h-314.8c-3.26-9.36-4.76-19.55-5-34.97q4.995-2.505,9.99-5c6.4-4.21,54.91,4.56,69.96-5,16.41-26.33,4.99-102.67,4.99-139.91V6181.38c32.93-38.01,46.12-82.71,89.95-109.93,110.11-68.38,307.25-43.11,369.76,49.97,73.45,109.34,2.11,267.49-99.93,294.82-66.19,17.72-98.85-24.5-144.91-29.99-13.25,26.88-38.51,59.98-59.96,79.96v219.86C2581.74,6692.68,2615.51,6691.43,2642.42,6691.07Zm-10-619.62c-4.3,3.24-15.71,6.68-19.98,9.99-74.79,26.29-51.39,218.84-49.97,319.81h4.99c14.04-24.11,33.7-62.6,69.96-64.97,13.35,12.55,26.05,9.13,44.97,5,53.9-79.7,41.24-147.83,14.99-244.85C2677.58,6084.94,2661.9,6075.15,2632.42,6071.45Zm984.38,169.89c81.53-1.43,138.21,44.46,179.89,84.95-3.16,8.77-.97,4.86-5,9.99-7.71,24.98-48.24,79.33-74.95,84.95-26.34-40.78-70.91-82.3-129.92-89.94v9.99c-16.27,20.46-16.83,66.37-9.99,94.94,18.94,79.22,39.2,144.7,94.94,184.89,11.85,8.55,24.74,10.49,34.97,19.99,8.77-3.15,4.86-.96,10-5,20.65-14.33,38.4-41.69,49.97-64.96h9.99c11.48,14.53,20.26,11.55,24.98,34.98-50.95,54.82-69.43,156.1-169.89,159.9-21.81-20.2-52.13-30.92-69.96-54.96-61.27-82.65-118.3-222.69-54.96-344.79C3534.12,6313.74,3577.29,6281.19,3616.8,6241.34Zm409.74,0c52.79-1.47,157.99,46.3,169.89,79.95,4.01,5.9,3.87,8.41,5,19.99-26.83,21.99-39.19,73.86-79.95,79.95-14.1-29.56-84.49-104.58-124.92-84.95-17.72,22.16-18.27,77.34-9.99,109.94,31.09,122.57,52.95,124.35,129.91,194.88,8.77-3.15,4.86-.96,10-5,20.04-15.32,36.95-42.83,49.97-64.96h9.99c6.7,8.86,15.34,14.25,24.98,19.99-3.15,8.77-.96,4.85-4.99,9.99-13.96,57.36-97.29,162.47-164.9,164.9-23.53-21.79-55.73-34.03-74.95-59.96-54.21-73.16-111.24-201.33-59.96-319.81C3934.07,6322.83,3980.3,6285.56,4026.54,6241.34Zm-614.61,169.9c-38.18-2.64-38.02-19.28-84.95-19.99-13.97,18.38-35.15,31.91-44.97,54.97-35.25,82.76-34.98,195.32-34.98,309.81v84.95c9.65,43.81,23.6,98.45,14.99,144.91-5.41,4.54-.42-0.39-4.99,5-31.17,3.87-61.47,10.27-89.95,4.99-7.85-23.04-5.37-63.95-4.99-94.94q12.48-82.44,24.98-164.9c-26.88-9.13-74.81-5.39-109.93-5-7.08,4.81-16.36,4.88-29.98,5v-5h-5c-9.15-96.02-11.68-188.98-34.97-274.83-15.24-56.17-43.92-113.75-49.97-174.89q7.485-2.505,14.99-5c17.52-10.97,77.52-.81,109.93,0,41.49,77.25,43.18,201.99,64.96,294.82,8.56,36.48-3.57,91.13,14.99,119.93,7.74,5.24,20.41,5.15,34.98,5,15.74-178.96,34.44-447.18,229.85-429.74,3.25,6.28,5.44,10.34,9.99,14.99C3427.06,6325.13,3412.34,6350.71,3411.93,6411.24Zm1254.21-9.99q-12.495,2.49-24.99,4.99c-10.33-16.92-18.89-27.63-44.97-29.98-34.63-18.39-123.85,84.71-129.92,119.93,101.17,12.17,226.64,119.17,229.86,229.86-16.3,8.74-36.26,10.53-64.96,9.99-12.06-7.17-41.07-.88-64.96,0q-2.505-7.485-5-14.99c-16.66-22.86-13.23-62.17-24.98-89.94-21.77-51.48-59.28-86.5-109.93-109.94v129.92c11.29,16.71,7.83,59.92,5,74.96h-10c-17.46,11.39-68.2,5.65-94.94,4.99-28.48-48.87-35.78-242.01-19.99-314.8,10.52-48.46-9.53-103,14.99-134.92,18.7-16.67,75.32-10.86,109.94-10q2.49,7.5,4.99,15c18.86,36.64-35.16,149.21-9.99,189.88v5q4.995-2.505,9.99-5c38.88-85.49,111.03-211.07,229.86-214.87,10.93,8.72,17.94,6.03,24.98,19.99C4693.84,6305.07,4667,6349.82,4666.14,6401.25Zm269.83-129.93c40.02-.5,87.59-1.46,119.92,5v10c25.16,40.72,19.58,101.96,34.98,149.9,15.96,49.69,25.55,107.35,44.97,159.91,15,40.59,41.28,78.55,44.97,129.92-30.77,10.41-85.64,5.39-124.92,4.99v-4.99h-5c-4.33-43.32-20.01-91.89-34.97-129.92h-5v4.99q-19.98,39.975-39.98,79.96c-16.18,22.41-45.6,35.38-64.96,54.96-31.16,2.43-64.32,3.73-94.93,0-13.07-17.28-34.06-39.62-49.97-54.96q-4.995-37.485-10-74.96c14.04-66.5,50.15-113.1,84.95-159.9,33.84-45.5,93.02-62.13,94.94-139.92-4.8-7.08-4.88-16.35-5-29.98C4934.74,6273.17,4930.83,6275.36,4935.97,6271.32Zm454.71,0c51.3-1.11,260.2-9.6,274.82,15,11.94,19.24,3,82.43,0,114.93-5.21,56.54-18.41,151.25-4.99,214.86,6.88,32.61,11.03,78.76,4.99,109.94h-9.99c-17.46,11.39-68.2,5.65-94.94,4.99-11.15-17.7-15.47-26.85-14.99-59.96-10.26-16.21-9.66-130.14-9.99-154.9h-10c-15.84,12.26-37.26,13.88-54.96,24.98-48.37,30.34-66.03,88.99-64.96,169.9q-7.5,4.995-14.99,9.99c-15.08,12.39-98.63,19.43-119.93,5-20.13-6.65-20.44-13.2-19.98-39.98,32-42.05,35.86-97.11,79.95-129.92,24.13-17.96,55.99-39.46,84.94-49.97,16.58-6.01,32.57-1.78,44.97-9.99-97.4-32.46-205.51-51.79-174.89-194.88l34.98-24.99C5343.26,6268.93,5374.01,6281.82,5390.68,6271.32Zm154.9,39.98c-36.42-1.13-94.17-6.37-114.93,9.99-4.02,5.11-1.77,1.37-4.99,10-48.16,71.35,58.36,140.07,109.93,144.91,10.41-30.77,5.39-85.64,4.99-124.92C5546.29,6342.83,5545.91,6326.81,5545.58,6311.3Zm-599.62,69.96c-42.59,63.51-102.01,112.56-74.95,219.86,19.14,9.15,28.95,14.74,59.96,14.99,22.45-17.95,39.97-30.86,59.96-49.96,3.94-63.49-20.97-124.42-34.98-184.89h-9.99ZM2442.54,7685.46h54.97c3.56,10.24,4.96,23.36,4.99,39.98-59.49,19.83-192.14,5.39-264.83,5-3.89-11.2-5.1-27.14-4.99-44.98h34.97c7.86-23.04,5.38-63.95,5-94.94-12.88-21.55-5.42-61.9-14.99-84.95-26.92-64.79-83.51-114.82-164.9-124.92v304.81h54.97c3.56,10.24,4.96,23.36,5,39.98-64.9,21.6-210.95,5.39-289.82,5-3.89-11.2-5.1-27.14-5-44.98h79.95V7085.83h-9.99c-5.64-3.71-50.82,4-64.96-5h-5v-39.97h299.81v39.97c-12.23,4.25-30.9,5.19-49.97,5-7.83-6.21-2.54-3.21-9.99,0-18.55,29.39-5.55,205.48-5,254.84,8.62,3,15.75,4.45,29.98,5,46.66-86.28,102.27-249.62,179.89-299.82,34.6-22.37,115.65-27.56,149.91,0,3.75,5.36,3,4.73,4.99,14.99-24.01,27.6-9.05,82.19-29.98,114.93-5.89,4.02-8.4,3.87-19.99,5-31.23-26.17-77.89-25.24-119.92-14.99-37.23,54.78-102.3,113.04-114.93,189.88h5v5C2346,7371.35,2437.42,7507.59,2442.54,7685.46Zm284.82-449.72c47.77,1.1,67.26,20.78,94.94,39.97,143.19,99.27,109.82,279.25,19.99,404.76-30.05,41.98-46.07,80.78-119.92,79.95-56.33-44.19-97.38-65.24-134.92-129.92-70.23-121.03,14.29-271.26,69.96-344.79C2674.74,7262.81,2706.45,7255.12,2727.36,7235.74Zm404.75,34.98c27.62-.8,81.81-6.9,99.93,4.99,19.07,6.28,19.56,10.14,19.99,34.98,10.5,17.31,4.07,41.71,9.99,64.96q24.99,104.925,49.97,209.88c5.42-4.55.43,0.38,5-5q12.5-44.97,24.98-89.95c26.7-71.39,51.43-106.1,39.98-209.87,27.25-14.34,82.54-10.61,124.92-9.99,7.94,14.74,10.37,28.58,9.99,54.96q12.495,79.95,24.99,159.91c10.05,35.59,19.79,78.76,34.98,114.93,16.86,40.17,43.02,68.23,44.97,124.92h-10c-18.92,12.76-74.81,4.45-94.94,0-32.1-54-59.05-110.42-79.95-179.89-9.65-32.1-4.39-89.23-29.98-104.94v10c-50.66,65.55-45.78,178.37-64.96,274.83-21.77,7.44-60.32,5.37-89.94,5-3.85-3.41-11.15-6.55-14.99-10-36.49-38.84-52.79-165.25-69.96-224.86-8.19-28.45-2.66-80.72-24.98-94.94-28.59,48.11-100.9,149.92-79.95,239.85,6.86,29.46,21.89,52.09,24.98,84.95-24.31,8.28-67.57,5.38-99.93,5-10.5-19.73-10.61-51.71-10-84.95,20.66-30.54,23.26-77.76,39.98-109.93q47.46-79.95,94.94-159.91C3124.55,7345.54,3118.16,7297.37,3132.11,7270.72Zm839.47,34.98H3826.67v9.99c-40.19,62.33-1.53,317.21,0,399.76-12.08,6.5-14.16,9-34.98,9.99-24.03,17.62-76.48,3.07-84.95-14.99-15.81-20.64-3.15-52.45-9.99-84.95-21.03-99.95-8.13-257.29,9.99-344.79q7.5-2.505,14.99-5c20.1-12.59,75.29-4.99,104.94-4.99H4091.5c5.6,10.45,7.17,9.15,9.99,24.98-18.68,29.75-27.02,248.87-14.99,304.82,7.12,33.08,20.43,98.26,5,119.92-7.08,4.8-16.36,4.88-29.98,5-22.43,15.37-66.71.14-84.95-5C3967.8,7596.76,3971.13,7436.94,3971.58,7305.7Zm399.74-34.98h119.93q2.49,7.485,4.99,14.99c24.49,40.4,24.13,120.85,39.98,169.89,17.26,53.44,29.31,115,49.97,169.9,12.17,32.34,31.91,58.11,34.98,99.94h-10c-20.05,13-80.01,5.66-109.93,5-20.86-37.98-34.43-92.55-44.97-139.92-5.42,4.54-.42-0.39-5,5-50.47,67.46-35.39,113.49-134.91,139.91-18.72,4.97-44.42,6.36-59.96-4.99-46.6-14.69-81.22-90.46-59.97-154.91,26.05-78.97,88.94-133.97,134.92-194.88q19.98-17.49,39.97-34.98V7305.7C4363.85,7294.83,4367.31,7281.85,4371.32,7270.72Zm449.72,0c4.66,39.54-4.13,65.15-5,109.93,46.27,26.12,97.87,70.44,154.9,79.95-0.96-68.68,3.22-135.84,14.99-184.89,28.18-9.56,78.43-5.39,114.93-4.99,3.26,9.37,4.76,19.55,5,34.98-49.89,74.66,10.86,327.8-5,414.74-8.62,3-15.75,4.45-29.98,5-18.83,12.67-64.41,3-84.95,0v-9.99c-29.46-32.96-15.77-146.08-14.99-204.88-47.22-26.78-102.96-73.72-159.89-84.95-0.66,105.91,14.16,189.92,14.99,289.83-12.09,6.5-14.16,9-34.98,9.99-17,11.58-61.97,4.04-79.95,0-28.38-61.4-33.78-290.72-14.99-374.77,7.5-33.55-7.8-62.11,19.99-74.96C4735.29,7263.25,4792.18,7270.06,4821.04,7270.72Zm409.74,0h99.94c6.5,12.08,9,14.15,9.99,34.98-20.22,31.63-15.41,108.84-14.99,154.9h5c53.38-51.26,162.06-51.29,159.9-154.9,5.24-7.19,7.78-19.6,9.99-29.99h9.99c19.19-12.46,76.08-5.65,104.94-4.99,4.61,13.32,5.25,34.63,4.99,54.96-40.31,62.51-1.23,307.52,0,389.77-7.29,4.26-14.32,9.05-19.98,14.99-31.18.47-66.01-.16-89.95-5-45.44-72.58-25.61-207.6-24.98-314.81h-10c-67.47,61.44-153.26,35.71-149.9,169.9,11.53,17.93,13.19,122.79,9.99,139.91-24.97,10.13-86.52,18.71-109.93,0-22.06-24.13-6.57-59.04-14.99-99.94-13.02-63.28-8.43-147.05-4.99-209.87,2.11-38.62-6.57-89.56,9.99-114.93C5220.17,7282.11,5224.32,7281.02,5230.78,7270.72Zm774.51,244.85c-60.07,7.7-107.67,50.23-124.92,99.94-10.71,30.85,2,76.72-14.99,99.94-26.64,24.39-94.4,13.68-134.92,9.99-7.2-13.34-9.96-21.09-9.99-44.97,15-19.66,16.62-48.57,29.98-69.96,36.17-57.92,100.78-99.29,179.89-114.93v-5c-67.28-5.95-151.52-40.22-169.9-94.94-19.19-24.26-18.69-91.39,5-109.93,23.5-18.39,68.51-14.99,109.93-14.99,82.87,0,185.99-10.57,259.84,4.99v10c6.55,11.18,5.38,70.26,0,94.94-22.72,104.22,16.02,249.56,0,339.79h-5v5c-22.17,3.11-74.49,13.47-94.94,0-19.07-6.28-19.56-10.13-19.99-34.98C6004,7672.61,6005.23,7543.68,6005.29,7515.57Zm9.99-209.87c-45.69-.76-85.82,2.65-119.92,9.99v9.99c-12.93,15.26-12.69,53.06,0,69.96,11.3,44.93,53.52,74.88,109.93,74.95v-4.99h5C5998.38,7428.61,6013.49,7351.38,6015.28,7305.7ZM2827.3,7635.49c19.93-129.88-19.84-280.54-164.9-284.82C2586.48,7477.31,2688.22,7637.73,2827.3,7635.49Zm1559.01-259.84c-23.45,35.03-123.53,142.84-79.95,204.88,6.13,20.22,14.77,28.07,39.98,29.98,36.47,20.35,68.19-31.52,84.95-49.97C4432.91,7516.49,4408.11,7388.01,4386.31,7375.65Z"/>
  <path id="Фигура_2" data-name="Фигура 2" class="cls-1" d="M3856.65,125.063c114.76-2.027,211.12,5.706,289.82,39.976,46.05,20.053,82.27,65.658,134.91,74.954,24.09-19.278,55.08-20.565,89.94-29.981,150.79-40.73,224.6,88.6,249.85,194.881,18.68,78.666,4.82,188.788-15,254.845-9.66,32.218-45.83,74.525-34.97,119.927,10.56,44.164,28.12,98.005,39.97,144.912,14.67,58.034,12.6,119.1,24.99,174.893q7.485,139.9,14.99,279.83c24,106.33,36.83,198.3,74.95,284.83,62.09,140.95,166.46,260.44,229.85,404.75,85.38,194.36,130.52,402.92,234.85,574.65,158.74,261.28,310.49,500.91,409.75,824.5,28.74,93.71,41.17,205.14,64.95,309.81q7.5,87.435,15,174.89c19.58,88.65,44.76,230.08,19.98,334.8-37.92,160.29-114.06,277.69-154.9,424.74-7.99,28.76-5.07,66.71,0,89.95v69.96c15.83,72.9,25.87,184.49,5,259.84-66.49,239.97-254,274.57-499.69,334.79-56.92,13.96-188.66,36.79-264.83,19.99-115.89-25.56-211.24-49.04-264.83-134.92-18.05-28.91-30.37-70.58-39.98-104.93l-9.99-59.97c-7.4-10.33-17.62-8.59-34.98-9.99-18.72,28.47-49.95,48.46-69.95,74.95-62.83,83.22-130.7,158.03-234.86,199.88-46.05,18.51-89.72,12.77-144.9,24.99-45.06,9.97-128.83,11.14-174.89,0-48.26-11.67-101.02-16.46-144.91-34.98-33.81-14.27-70.98-38.4-99.94-59.96q-24.975-27.48-49.97-54.97-54.96-7.5-109.93-14.99c-24.86-6.79-69.11-32.58-99.93-24.99-50.89,12.54-121.41,55.29-174.89,74.96-254.25,93.51-716.47,186.05-824.48-99.94-42.41-112.29-1.18-270.43,39.97-349.79,18.71-36.08,69.19-78.07,54.97-139.91-24.82-107.89-38.6-230.64-64.96-339.8-16.32-67.58-10.41-139.77-24.99-204.87V4092.65c-22.82-117.85,24.47-325.33,54.97-419.74,33.64-104.15,46.6-199.94,79.95-299.82,72.51-217.17,154.41-431.5,239.85-639.61,24.75-60.3,32.24-118.5,54.96-179.89,93.16-251.7,154.11-523.42,219.86-804.51,13.71-58.61,6.79-141.31-4.99-194.89V1299.35c23.35-107.87,8.4-230.88,14.99-349.788,2.21-39.931,16.51-108.221,4.99-154.906-35.32-143.194-123.77-313.823-19.98-459.72,50.69-71.256,163.25-164.751,299.81-129.921,28.86,7.362,106.22,49.449,129.92,44.972,32.86-6.207,72.99-36.937,104.93-49.969l184.88-49.97Z"/>
  <path id="Фигура_1" data-name="Фигура 1" class="cls-2" d="M3551.84,5176.99c-86.29-2.14-148.21-34.94-224.86-39.98v-14.99c57.41-37.12,123.05-147.68,79.95-249.84-27.87-66.07-70.15-120.88-89.94-199.88-26.04-103.95,14.97-248.01-9.99-359.78-35.75-160.04-54.24-384.6-10-549.67,41.67-155.48,76.21-300.77,119.93-454.72,19.37-68.22,47.01-146.48,49.96-224.87-8.61-2.99-15.75-4.45-29.98-4.99-42.96,83.44-53.48,190.36-84.94,284.82-38.26,114.85-70.13,242.51-104.94,364.78q-5,42.465-9.99,84.95c-16.72,69.65-34.85,189.33-14.99,274.83q2.5,44.97,5,89.95c20.28,87.49,29.98,180.71,29.98,284.82-0.01,72.85-12.9,165.66,4.99,229.87,24.64,88.4,135.58,210.42,89.95,319.8-80.56,193.09-354.98,213.92-574.64,269.84-95.72,24.37-244.21,25.94-294.81-34.98-117.51-141.49,91.22-309.63,94.94-414.75-27.48-43.43-24.93-191.78-39.98-254.85-15.17-63.6-13.64-135.6-29.98-204.87-39.54-167.62-65.31-393.21-14.99-569.65,151.28-530.38,343.03-1012.26,514.68-1529.07,56.83-171.14,77.37-345.86,119.92-534.68,21.11-93.7-6.99-229.54-24.98-304.81V1224.39c11.3-51.38,2.57-111.15,14.99-164.9,9.79-42.38,31.5-147.778,19.98-199.874q-7.485-44.967-14.99-89.945c-30.16-93.516-96.95-210.661-39.97-319.805,21.29-40.8,58.22-55.164,89.94-84.949,65.38-1.036,115.14,5.21,154.9,29.982,25.41,15.829,36.62,47.367,69.96,54.967,17.14-48.493,77.74-65.151,124.92-84.949,161.46-67.744,449.68-119.985,609.61-14.991,28.07,18.424,67.21,31.8,74.96,69.958-46.62,59.034-9.39,191.391,4.99,249.848,8.77,3.151,4.86.964,10,5,8.76-3.152,4.85-.964,9.99-5,3.76-5.361,3.01-4.725,5-14.991-31.38-41.767-10.35-198.433,14.99-229.86,22.98-18.079,126.86-63.663,164.89-64.961,6.79,6.3,8.84,6.823,19.99,9.994,43.95,85.786,52.09,200.823,10,299.818-14.53,34.169-57.66,47.765-64.96,74.954,47.91,54,49.59,175.608,69.95,259.844,24.89,102.95,15.17,229.12,39.98,339.79q2.49,57.465,4.99,114.93c20.54,87.09,37.39,168.71,69.96,244.85,72.48,169.41,192.48,304.05,264.83,469.72,62.32,142.67,78.62,309.35,154.9,434.73,154.95,254.69,311.85,497.26,429.73,789.52,45.4,112.56,59.92,241.32,89.95,364.78,14.03,57.7,7.77,120.71,19.98,174.89v74.96c13.33,61.83,6.73,139.65,19.99,199.88,11.57,52.52-17.3,110.81-29.98,144.91-18.79,50.52-28.9,91.54-49.97,139.91-21.54,49.48-61.04,99.46-79.95,149.91-32.41,86.51,10.01,269.99,10,379.77-0.01,31.39,3.25,65.02-5,89.95-19.51,58.89-91.11,105.48-144.91,129.92-84.31,38.3-320.03,108.75-444.72,79.95-55.04-12.72-116.98-2.4-134.91-49.97-25.24-35.05-14.18-100.95-29.98-144.91-39.82-110.73-127.09-143.26-249.85-109.94v-9.99c19.41-15.67,25.39-39.14,39.98-59.96,33.62-47.99,69.33-96.98,104.93-144.91,43.13-58.07,111.86-97.72,154.9-154.91,117.31-155.86,205.09-351.02,194.88-604.63-9.16-6.42-8.55-9.84-19.99-14.99-5.89-4.02-8.4-3.87-19.98-5-10.23,16.2-14.93,20.15-14.99,49.97,15.48,23.53,7.23,108.35,0,134.92-28.69,105.37-53.13,214.61-104.94,299.81-27.95,45.98-57.82,92.52-89.94,134.92-10.08,13.3-27.48,18.87-39.98,29.98-45.17,40.17-94.58,95.93-129.91,144.92-109.95,152.42-203.37,355-364.77,454.72-99.63,61.55-307.15,48.03-399.75-9.99-114.4-71.69-111.91-241.25-54.97-374.78,23.79-55.76,62.51-111.86,89.95-164.9,38.95-75.29,62.83-166.63,89.94-249.84,37.72-115.77,41.06-246.85,69.96-369.78q2.49-49.965,4.99-99.94c9.56-43.7-1.1-98.51,10-149.91,9.7-44.95,16.92-142.22,4.99-194.88q-12.48-82.44-24.98-164.9c-26.17-92.32-55.11-183.78-79.95-279.83q-17.49-154.89-34.98-309.81c-12.7-6.86-17.51-9.58-39.97-9.99-4.27,7.29-9.06,14.32-14.99,19.98-2.25,152.68,15.45,299.2,54.96,419.75,47.86,145.99,116.5,365.99,69.96,569.65q-4.995,89.94-10,179.89c-42.21,180.16-50.6,363.61-114.92,519.69-46.62,113.1-112.43,210.16-154.91,324.8-15.17,40.97-15.45,90.05-24.98,134.92Q3544.35,5122.02,3551.84,5176.99ZM3721.73,684.723c-20.24,19.136-35.32,23.442-39.97,59.963,34.22,23.342,132.16,63.754,154.9,0,7-11.19,2.73-16.368,0-29.981C3797.74,702.341,3780.83,684.974,3721.73,684.723Zm-434.72,5c-19.69,14.775-45.07,14.806-54.97,39.975-4.38,6.471-4.47,12.327-4.99,24.985,17.34,16.852,20.96,27.735,54.96,29.982,29.04-20.679,62.83-10.274,64.96-59.963-11.93-12.779-10.8-22.962-29.98-29.982C3309.91,689.916,3300.63,689.838,3287.01,689.72Zm159.9,304.814c-41.06,26.146-111.83,6.116-159.9,15-6.12,11.39-8.19,11.24-10,29.98,37.06,48.13,51.67,113.61,129.92,119.92,32.71-36.11,64.94-76,99.94-109.93,0.02-32.63-8.23-36.91-19.99-54.966h-39.97Zm74.95,324.806c-16.98,12.11-74.33,34.21-99.94,29.98-23.49-3.89-58.4-13.84-74.95-10q2.505,7.5,5,15c94.75,65.87,104.9,60.14,179.88-19.99C3527.65,1322.39,3529.85,1326.11,3521.86,1319.34Z"/>
</svg>
