<?xml version="1.0" encoding="UTF-8"?>
<!DOCTYPE svg PUBLIC "-//W3C//DTD SVG 1.1//EN" "http://www.w3.org/Graphics/SVG/1.1/DTD/svg11.dtd">
<svg xmlns="http://www.w3.org/2000/svg" version="1.1" width="225px" height="225px" style="shape-rendering:geometricPrecision; text-rendering:geometricPrecision; image-rendering:optimizeQuality; fill-rule:evenodd; clip-rule:evenodd" xmlns:xlink="http://www.w3.org/1999/xlink">
<g><path style="opacity:0.993" fill="#62df4d" d="M 105.5,7.5 C 117.558,6.67712 129.225,8.01045 140.5,11.5C 137.476,12.8774 134.476,14.2107 131.5,15.5C 119.563,13.2909 107.563,12.9576 95.5,14.5C 98.145,12.6896 101.145,11.6896 104.5,11.5C 104.433,10.0413 104.766,8.70792 105.5,7.5 Z"/></g>
<g><path style="opacity:0.986" fill="#6ed14b" d="M 105.5,7.5 C 104.766,8.70792 104.433,10.0413 104.5,11.5C 101.145,11.6896 98.145,12.6896 95.5,14.5C 85.4014,16.6437 75.7348,19.9771 66.5,24.5C 66.5759,22.6965 66.2425,20.6965 65.5,18.5C 77.8648,11.7394 91.1981,8.07275 105.5,7.5 Z"/></g>
<g><path style="opacity:1" fill="#fdfefd" d="M 131.5,15.5 C 171.792,25.3988 197.292,50.3988 208,90.5C 208.936,94.1135 209.436,97.7802 209.5,101.5C 210.711,109.142 210.711,116.808 209.5,124.5C 207.066,139.138 202.066,152.804 194.5,165.5C 175.856,192.835 149.856,207.835 116.5,210.5C 76.9882,210.422 46.9882,193.755 26.5,160.5C 16.9726,142.721 12.6393,123.721 13.5,103.5C 18.1297,68.2399 35.7964,41.9066 66.5,24.5C 75.7348,19.9771 85.4014,16.6437 95.5,14.5C 107.563,12.9576 119.563,13.2909 131.5,15.5 Z"/></g>
<g><path style="opacity:1" fill="#59f75c" d="M 140.5,11.5 C 180.947,24.0471 205.614,51.0471 214.5,92.5C 214.671,95.7973 214.005,96.1306 212.5,93.5C 211.914,93.7093 211.414,94.0426 211,94.5C 210.814,97.0356 210.314,99.369 209.5,101.5C 209.436,97.7802 208.936,94.1135 208,90.5C 197.292,50.3988 171.792,25.3988 131.5,15.5C 134.476,14.2107 137.476,12.8774 140.5,11.5 Z"/></g>
<g><path style="opacity:0.981" fill="#84cd4f" d="M 65.5,18.5 C 66.2425,20.6965 66.5759,22.6965 66.5,24.5C 35.7964,41.9066 18.1297,68.2399 13.5,103.5C 12.8292,106.758 11.9958,110.091 11,113.5C 9.98398,112.366 9.31732,112.699 9,114.5C 8.81382,111.964 8.31382,109.631 7.5,107.5C 10.0612,66.6674 29.3946,37.0007 65.5,18.5 Z"/></g>
<g><path style="opacity:1" fill="#272a2f" d="M 117.5,77.5 C 122.606,77.2185 127.939,77.0519 133.5,77C 134.767,81.0369 136.101,85.0369 137.5,89C 135.167,89.6667 132.833,89.6667 130.5,89C 131.622,85.5915 131.789,82.0915 131,78.5C 125.69,76.9094 122.857,78.9094 122.5,84.5C 122.649,86.3197 123.316,87.8197 124.5,89C 122.167,89.6667 119.833,89.6667 117.5,89C 118.733,87.3023 119.4,85.3023 119.5,83C 119.453,80.7047 118.787,78.8714 117.5,77.5 Z"/></g>
<g><path style="opacity:1" fill="#63b133" d="M 63.5,80.5 C 68.5111,80.3341 73.5111,80.5007 78.5,81C 80.519,81.4497 82.3523,82.283 84,83.5C 85.4443,81.8446 87.2776,81.178 89.5,81.5C 89.5,86.8333 89.5,92.1667 89.5,97.5C 88.325,97.719 87.325,97.3857 86.5,96.5C 83.6333,86.7652 77.2999,82.5985 67.5,84C 62.7324,87.7057 62.399,91.7057 66.5,96C 73.1667,98.6667 79.8333,101.333 86.5,104C 94.4776,111.612 94.4776,119.279 86.5,127C 82.8333,127.667 79.1667,127.667 75.5,127C 80.4154,124.558 81.7487,120.724 79.5,115.5C 73.0071,112.37 66.3404,109.536 59.5,107C 49.1494,96.2832 50.4827,87.4498 63.5,80.5 Z"/></g>
<g><path style="opacity:1" fill="#7a7d7f" d="M 145.5,79.5 C 147.635,81.369 150.302,82.0356 153.5,81.5C 154.209,82.404 155.209,82.7373 156.5,82.5C 152.702,83.4834 148.702,83.8168 144.5,83.5C 144.232,81.901 144.566,80.5676 145.5,79.5 Z"/></g>
<g><path style="opacity:1" fill="#272a2e" d="M 162.5,73.5 C 163.833,73.5 165.167,73.5 166.5,73.5C 166.5,74.5 166.5,75.5 166.5,76.5C 173.167,76.8333 173.167,77.1667 166.5,77.5C 166.335,80.8499 166.502,84.1832 167,87.5C 168.787,88.3431 170.62,88.5098 172.5,88C 169.206,90.1003 166.04,89.9337 163,87.5C 162.502,84.1832 162.335,80.8499 162.5,77.5C 158.5,77.1667 158.5,76.8333 162.5,76.5C 162.5,75.5 162.5,74.5 162.5,73.5 Z"/></g>
<g><path style="opacity:1" fill="#26292e" d="M 156.5,82.5 C 155.209,82.7373 154.209,82.404 153.5,81.5C 153.509,78.8641 152.175,77.5307 149.5,77.5C 147.645,77.3402 146.312,78.0069 145.5,79.5C 144.566,80.5676 144.232,81.901 144.5,83.5C 144.511,85.0174 145.177,86.1841 146.5,87C 149.833,87.3333 153.167,87.6667 156.5,88C 151.312,90.3491 146.478,89.8491 142,86.5C 140.102,80.0784 142.435,76.7451 149,76.5C 153.885,75.8296 156.385,77.8296 156.5,82.5 Z"/></g>
<g><path style="opacity:1" fill="#f6f6f6" d="M 153.5,81.5 C 150.302,82.0356 147.635,81.369 145.5,79.5C 146.312,78.0069 147.645,77.3402 149.5,77.5C 152.175,77.5307 153.509,78.8641 153.5,81.5 Z"/></g>
<g><path style="opacity:1" fill="#292c32" d="M 135.5,125.5 C 131.366,126.485 127.032,126.818 122.5,126.5C 119.524,122.518 116.524,118.518 113.5,114.5C 112.186,115.313 111.019,116.313 110,117.5C 109.502,120.817 109.335,124.15 109.5,127.5C 105.833,127.5 102.167,127.5 98.5,127.5C 98.6666,112.496 98.4999,97.4963 98,82.5C 96.8904,80.9632 95.3904,80.2965 93.5,80.5C 93.5,79.5 93.5,78.5 93.5,77.5C 98.7968,76.7255 104.13,76.3921 109.5,76.5C 109.333,88.5046 109.5,100.505 110,112.5C 114.349,108.318 118.515,103.985 122.5,99.5C 120.977,97.7175 118.977,97.0508 116.5,97.5C 116.5,96.5 116.5,95.5 116.5,94.5C 129.5,94.5 142.5,94.5 155.5,94.5C 155.5,95.5 155.5,96.5 155.5,97.5C 151.862,96.7366 150.362,98.0699 151,101.5C 153.921,106.341 156.588,111.341 159,116.5C 159.308,115.692 159.808,115.025 160.5,114.5C 161.262,115.628 161.929,116.795 162.5,118C 159.539,123.422 156.706,128.922 154,134.5C 151.499,138.031 148.666,141.198 145.5,144C 139.694,146.024 136.027,144.19 134.5,138.5C 134.971,135.698 136.638,134.364 139.5,134.5C 142.142,135.698 144.809,136.532 147.5,137C 149.801,134.891 151.468,132.391 152.5,129.5C 147.995,118.319 142.328,107.819 135.5,98C 130.303,97.8505 126.136,100.017 123,104.5C 122.333,105.833 122.333,107.167 123,108.5C 127.384,114.044 131.551,119.711 135.5,125.5 Z"/></g>
<g><path style="opacity:1" fill="#303439" d="M 162.5,94.5 C 166.833,94.5 171.167,94.5 175.5,94.5C 172.623,98.5626 169.957,102.896 167.5,107.5C 166.738,106.372 166.071,105.205 165.5,104C 167.016,102.103 167.683,99.9363 167.5,97.5C 165.833,97.5 164.167,97.5 162.5,97.5C 162.5,96.5 162.5,95.5 162.5,94.5 Z"/></g>
<g><path style="opacity:1" fill="#63b132" d="M 157.5,97.5 C 158.675,97.281 159.675,97.6143 160.5,98.5C 164.401,105.896 168.067,113.396 171.5,121C 168.417,128.668 164.917,136.168 161,143.5C 159.644,144.38 158.144,144.714 156.5,144.5C 156.34,142.801 156.506,141.134 157,139.5C 160.251,133.5 163.084,127.334 165.5,121C 163.084,114.666 160.251,108.5 157,102.5C 156.36,100.735 156.527,99.0683 157.5,97.5 Z"/></g>
<g><path style="opacity:0.995" fill="#87da52" d="M 13.5,103.5 C 12.6393,123.721 16.9726,142.721 26.5,160.5C 25.8697,162.707 24.5363,164.374 22.5,165.5C 11.2687,147.912 6.26866,128.579 7.5,107.5C 8.31382,109.631 8.81382,111.964 9,114.5C 9.31732,112.699 9.98398,112.366 11,113.5C 11.9958,110.091 12.8292,106.758 13.5,103.5 Z"/></g>
<g><path style="opacity:1" fill="#68b33a" d="M 51.5,112.5 C 52.9778,112.238 54.3112,112.571 55.5,113.5C 57.6332,120.133 61.9666,124.633 68.5,127C 62.8431,127.499 57.1764,127.666 51.5,127.5C 51.5,122.5 51.5,117.5 51.5,112.5 Z"/></g>
<g><path style="opacity:0.98" fill="#5bf37a" d="M 214.5,92.5 C 215.972,98.6014 216.639,104.935 216.5,111.5C 216.639,118.065 215.972,124.399 214.5,130.5C 214.992,126.71 214.159,126.044 212,128.5C 211.066,127.142 210.232,125.808 209.5,124.5C 210.711,116.808 210.711,109.142 209.5,101.5C 210.314,99.369 210.814,97.0356 211,94.5C 211.414,94.0426 211.914,93.7093 212.5,93.5C 214.005,96.1306 214.671,95.7973 214.5,92.5 Z"/></g>
<g><path style="opacity:1" fill="#6a6c6f" d="M 135.5,125.5 C 136.043,125.56 136.376,125.893 136.5,126.5C 131.682,127.812 127.015,127.812 122.5,126.5C 127.032,126.818 131.366,126.485 135.5,125.5 Z"/></g>
<g><path style="opacity:1" fill="#8fc573" d="M 51.5,131.5 C 79.0694,130.172 106.069,130.172 132.5,131.5C 113.992,131.17 95.6591,131.503 77.5,132.5C 76.8333,132.5 76.1667,132.5 75.5,132.5C 67.6841,131.508 59.6841,131.174 51.5,131.5 Z"/></g>
<g><path style="opacity:1" fill="#60af2d" d="M 51.5,131.5 C 59.6841,131.174 67.6841,131.508 75.5,132.5C 76.1667,145.833 76.8333,145.833 77.5,132.5C 95.6591,131.503 113.992,131.17 132.5,131.5C 129.635,135.154 128.969,139.154 130.5,143.5C 104.339,144.498 78.0053,144.831 51.5,144.5C 51.5,140.167 51.5,135.833 51.5,131.5 Z"/></g>
<g><path style="opacity:1" fill="#e7f2e1" d="M 101.5,134.5 C 108.004,134.138 109.671,136.638 106.5,142C 102.558,143.418 100.225,142.084 99.5,138C 99.9783,136.697 100.645,135.531 101.5,134.5 Z"/></g>
<g><path style="opacity:1" fill="#e8f3e2" d="M 91.5,134.5 C 93.4672,134.261 95.3005,134.594 97,135.5C 97.6877,136.332 97.521,136.998 96.5,137.5C 94.4143,135.977 92.7476,136.31 91.5,138.5C 93.0839,141.127 94.7505,141.127 96.5,138.5C 97.6069,140.769 96.7735,142.102 94,142.5C 89.4021,140.878 88.5687,138.212 91.5,134.5 Z"/></g>
<g><path style="opacity:1" fill="#6ab43d" d="M 102.5,136.5 C 105.166,136.066 106.333,137.066 106,139.5C 102.403,141.066 101.237,140.066 102.5,136.5 Z"/></g>
<g><path style="opacity:1" fill="#eaf4e5" d="M 110.5,134.5 C 114.6,135.217 118.6,135.384 122.5,135C 123.777,137.466 123.777,139.966 122.5,142.5C 121.534,140.604 121.201,138.604 121.5,136.5C 120.167,136.5 118.833,136.5 117.5,136.5C 116.833,144.5 116.167,144.5 115.5,136.5C 114.5,136.5 113.5,136.5 112.5,136.5C 112.799,138.604 112.466,140.604 111.5,142.5C 110.52,139.914 110.187,137.247 110.5,134.5 Z"/></g>
<g><path style="opacity:1" fill="#e5f1dd" d="M 81.5,134.5 C 85.2407,133.599 87.2407,134.932 87.5,138.5C 85.4727,138.338 83.4727,138.505 81.5,139C 83.4347,140.238 85.4347,140.738 87.5,140.5C 83.8079,143.577 81.1412,142.911 79.5,138.5C 79.7517,136.927 80.4183,135.594 81.5,134.5 Z"/></g>
<g><path style="opacity:1" fill="#e5f1dd" d="M 67.5,134.5 C 71.2407,133.599 73.2407,134.932 73.5,138.5C 71.4727,138.338 69.4727,138.505 67.5,139C 69.4347,140.238 71.4347,140.738 73.5,140.5C 69.8079,143.577 67.1412,142.911 65.5,138.5C 65.7517,136.927 66.4183,135.594 67.5,134.5 Z"/></g>
<g><path style="opacity:1" fill="#d2e7c6" d="M 75.5,132.5 C 76.1667,132.5 76.8333,132.5 77.5,132.5C 76.8333,145.833 76.1667,145.833 75.5,132.5 Z"/></g>
<g><path style="opacity:1" fill="#eaf4e5" d="M 60.5,132.5 C 62.1207,132.787 63.1207,133.787 63.5,135.5C 62.1667,137.5 62.1667,139.5 63.5,141.5C 62.675,142.386 61.675,142.719 60.5,142.5C 60.0181,139.054 60.0181,135.721 60.5,132.5 Z"/></g>
<g><path style="opacity:1" fill="#bdddae" d="M 130.5,143.5 C 131.043,143.56 131.376,143.893 131.5,144.5C 104.67,145.829 78.003,145.829 51.5,144.5C 78.0053,144.831 104.339,144.498 130.5,143.5 Z"/></g>
<g><path style="opacity:0.988" fill="#6ae856" d="M 209.5,124.5 C 210.232,125.808 211.066,127.142 212,128.5C 214.159,126.044 214.992,126.71 214.5,130.5C 212.582,143.927 207.915,156.261 200.5,167.5C 200.631,166.761 200.464,166.094 200,165.5C 198.172,166.752 196.339,166.752 194.5,165.5C 202.066,152.804 207.066,139.138 209.5,124.5 Z"/></g>
<g><path style="opacity:0.972" fill="#60f95a" d="M 26.5,160.5 C 46.9882,193.755 76.9882,210.422 116.5,210.5C 116.119,211.931 115.119,212.764 113.5,213C 113.833,213.333 114.167,213.667 114.5,214C 113.5,214.333 112.5,214.667 111.5,215C 113.708,215.191 115.708,215.691 117.5,216.5C 75.8157,217.5 44.1491,200.5 22.5,165.5C 24.5363,164.374 25.8697,162.707 26.5,160.5 Z"/></g>
<g><path style="opacity:0.983" fill="#74fa56" d="M 194.5,165.5 C 196.339,166.752 198.172,166.752 200,165.5C 200.464,166.094 200.631,166.761 200.5,167.5C 181.045,197.406 153.378,213.739 117.5,216.5C 115.708,215.691 113.708,215.191 111.5,215C 112.5,214.667 113.5,214.333 114.5,214C 114.167,213.667 113.833,213.333 113.5,213C 115.119,212.764 116.119,211.931 116.5,210.5C 149.856,207.835 175.856,192.835 194.5,165.5 Z"/></g>
</svg>
