<?xml version="1.0" encoding="UTF-8"?>
<!DOCTYPE svg PUBLIC "-//W3C//DTD SVG 1.1//EN" "http://www.w3.org/Graphics/SVG/1.1/DTD/svg11.dtd">
<svg xmlns="http://www.w3.org/2000/svg" version="1.1" width="701px" height="701px" style="shape-rendering:geometricPrecision; text-rendering:geometricPrecision; image-rendering:optimizeQuality; fill-rule:evenodd; clip-rule:evenodd" xmlns:xlink="http://www.w3.org/1999/xlink">
<g><path style="opacity:0.999" fill="#db0000" d="M -0.5,252.5 C 67.5,252.5 135.5,252.5 203.5,252.5C 203.5,277.833 203.5,303.167 203.5,328.5C 202.015,327.065 200.682,327.232 199.5,329C 202.167,329.667 202.167,330.333 199.5,331C 183.328,331.169 167.328,331.669 151.5,332.5C 148.833,332.5 146.167,332.5 143.5,332.5C 143.5,370.5 143.5,408.5 143.5,446.5C 115.5,446.5 87.5,446.5 59.5,446.5C 59.5,408.5 59.5,370.5 59.5,332.5C 39.5,332.5 19.5,332.5 -0.5,332.5C -0.5,305.833 -0.5,279.167 -0.5,252.5 Z"/></g>
<g><path style="opacity:0.999" fill="#db0000" d="M 428.5,253.5 C 427.761,253.369 427.094,253.536 426.5,254C 427.162,278.264 427.829,302.431 428.5,326.5C 428.5,328.5 428.5,330.5 428.5,332.5C 427.167,332.5 425.833,332.5 424.5,332.5C 424.631,331.761 424.464,331.094 424,330.5C 407.897,331.824 391.731,331.824 375.5,330.5C 374.092,328.564 372.759,328.398 371.5,330C 372.056,331.011 372.722,331.844 373.5,332.5C 371.833,332.5 370.167,332.5 368.5,332.5C 368.5,370.5 368.5,408.5 368.5,446.5C 340.833,446.5 313.167,446.5 285.5,446.5C 285.5,408.5 285.5,370.5 285.5,332.5C 265.167,332.5 244.833,332.5 224.5,332.5C 224.5,305.833 224.5,279.167 224.5,252.5C 292.669,252.167 360.669,252.501 428.5,253.5 Z"/></g>
<g><path style="opacity:0.999" fill="#db0000" d="M 450.5,253.5 C 477.662,252.502 504.995,252.169 532.5,252.5C 532.333,277.836 532.5,303.169 533,328.5C 552.722,307.042 572.888,286.042 593.5,265.5C 593.435,265.938 593.601,266.272 594,266.5C 594.333,265.833 594.667,265.167 595,264.5C 596.84,265.833 597.34,265.666 596.5,264C 597.167,263.667 597.833,263.333 598.5,263C 597.829,262.014 597.829,260.847 598.5,259.5C 600.294,257.203 602.294,255.037 604.5,253C 636.498,252.5 668.498,252.333 700.5,252.5C 700.5,252.833 700.5,253.167 700.5,253.5C 670.621,283.544 641.621,314.377 613.5,346C 642.153,379.322 670.82,412.655 699.5,446C 667.5,446.667 635.5,446.667 603.5,446C 580,417.833 556.5,389.667 533,361.5C 532.5,389.831 532.333,418.165 532.5,446.5C 505.5,446.5 478.5,446.5 451.5,446.5C 451.169,382.262 451.502,318.095 452.5,254C 451.906,253.536 451.239,253.369 450.5,253.5 Z"/></g>
<g><path style="opacity:1" fill="#d90000" d="M 228.5,253.5 C 228.844,278.056 229.844,302.556 231.5,327C 230.584,327.374 229.75,327.874 229,328.5C 228.5,303.502 228.333,278.502 228.5,253.5 Z"/></g>
<g><path style="opacity:1" fill="#d90000" d="M 428.5,253.5 C 428.5,277.833 428.5,302.167 428.5,326.5C 427.829,302.431 427.162,278.264 426.5,254C 427.094,253.536 427.761,253.369 428.5,253.5 Z"/></g>
<g><path style="opacity:1" fill="#d90000" d="M 450.5,253.5 C 451.239,253.369 451.906,253.536 452.5,254C 451.502,318.095 451.169,382.262 451.5,446.5C 450.501,382.335 450.168,318.002 450.5,253.5 Z"/></g>
<g><path style="opacity:1" fill="#d90000" d="M 424.5,254.5 C 425.829,278.67 425.829,303.003 424.5,327.5C 424.483,303.443 424.483,279.109 424.5,254.5 Z"/></g>
<g><path style="opacity:1" fill="#da0303" d="M 598.5,259.5 C 597.829,260.847 597.829,262.014 598.5,263C 597.833,263.333 597.167,263.667 596.5,264C 597.34,265.666 596.84,265.833 595,264.5C 594.667,265.167 594.333,265.833 594,266.5C 593.601,266.272 593.435,265.938 593.5,265.5C 594.419,262.911 596.086,260.911 598.5,259.5 Z"/></g>
<g><path style="opacity:1" fill="#d90000" d="M 424.5,332.5 C 407.5,332.5 390.5,332.5 373.5,332.5C 372.722,331.844 372.056,331.011 371.5,330C 372.759,328.398 374.092,328.564 375.5,330.5C 391.731,331.824 407.897,331.824 424,330.5C 424.464,331.094 424.631,331.761 424.5,332.5 Z"/></g>
<g><path style="opacity:1" fill="#da0000" d="M 203.5,328.5 C 203.5,329.833 203.5,331.167 203.5,332.5C 186.167,332.5 168.833,332.5 151.5,332.5C 167.328,331.669 183.328,331.169 199.5,331C 202.167,330.333 202.167,329.667 199.5,329C 200.682,327.232 202.015,327.065 203.5,328.5 Z"/></g>
</svg>
