<?xml version="1.0" encoding="UTF-8"?>
<!DOCTYPE svg PUBLIC "-//W3C//DTD SVG 1.1//EN" "http://www.w3.org/Graphics/SVG/1.1/DTD/svg11.dtd">
<svg xmlns="http://www.w3.org/2000/svg" version="1.1" width="409px" height="409px" style="shape-rendering:geometricPrecision; text-rendering:geometricPrecision; image-rendering:optimizeQuality; fill-rule:evenodd; clip-rule:evenodd" xmlns:xlink="http://www.w3.org/1999/xlink">
<g><path style="opacity:1" fill="#915704" d="M 229.5,55.5 C 210.499,54.1833 191.499,54.1833 172.5,55.5C 191.502,51.5332 210.502,51.5332 229.5,55.5 Z"/></g>
<g><path style="opacity:1" fill="#e68a00" d="M 229.5,55.5 C 296.913,65.7657 348.079,100.099 383,158.5C 393.758,177.272 401.258,197.272 405.5,218.5C 400.543,218.266 395.877,219.266 391.5,221.5C 381.059,169.476 353.725,128.643 309.5,99C 250.461,61.9339 188.461,56.2672 123.5,82C 70.4548,106.002 34.7882,145.502 16.5,200.5C 11.6304,200.31 6.96373,199.644 2.5,198.5C 26.112,129.39 72.7787,83.5562 142.5,61C 152.343,58.2048 162.343,56.3715 172.5,55.5C 191.499,54.1833 210.499,54.1833 229.5,55.5 Z"/></g>
<g><path style="opacity:1" fill="#fad800" d="M 391.5,221.5 C 387.495,222.834 383.495,224.168 379.5,225.5C 365.838,163.319 329.838,119.153 271.5,93C 202.071,67.4812 138.738,77.8146 81.5,124C 57.2007,146.104 39.5341,172.604 28.5,203.5C 24.313,202.787 20.313,201.787 16.5,200.5C 34.7882,145.502 70.4548,106.002 123.5,82C 188.461,56.2672 250.461,61.9339 309.5,99C 353.725,128.643 381.059,169.476 391.5,221.5 Z"/></g>
<g><path style="opacity:1" fill="#149e39" d="M 379.5,225.5 C 376.27,226.808 372.936,227.808 369.5,228.5C 368.351,228.209 367.684,227.376 367.5,226C 349.471,157.304 306.138,113.971 237.5,96C 166.188,83.7643 108.355,105.931 64,162.5C 54.6481,176.204 47.1481,190.87 41.5,206.5C 37.0367,205.96 32.7034,204.96 28.5,203.5C 39.5341,172.604 57.2007,146.104 81.5,124C 138.738,77.8146 202.071,67.4812 271.5,93C 329.838,119.153 365.838,163.319 379.5,225.5 Z"/></g>
<g><path style="opacity:1" fill="#3aaddc" d="M 369.5,228.5 C 365.079,230.102 360.412,231.102 355.5,231.5C 342.844,173.009 308.511,133.176 252.5,112C 245.794,110.158 239.127,108.324 232.5,106.5C 225.805,104.305 218.805,103.305 211.5,103.5C 147.849,102.565 99.3492,128.899 66,182.5C 61.8765,191.037 58.0431,199.704 54.5,208.5C 50.1055,208.156 45.7722,207.49 41.5,206.5C 47.1481,190.87 54.6481,176.204 64,162.5C 108.355,105.931 166.188,83.7643 237.5,96C 306.138,113.971 349.471,157.304 367.5,226C 367.684,227.376 368.351,228.209 369.5,228.5 Z"/></g>
<g><path style="opacity:0.988" fill="#21627d" d="M 211.5,103.5 C 218.805,103.305 225.805,104.305 232.5,106.5C 225.326,105.761 218.326,104.761 211.5,103.5 Z"/></g>
<g><path style="opacity:0.996" fill="#7f1f7d" d="M 201.5,163.5 C 216.284,163.344 222.451,170.678 220,185.5C 216.574,192.984 210.74,196.15 202.5,195C 193.45,191.247 189.617,184.414 191,174.5C 192.684,168.984 196.184,165.318 201.5,163.5 Z"/></g>
<g><path style="opacity:0.997" fill="#7d1e7b" d="M 355.5,231.5 C 360.412,231.102 365.079,230.102 369.5,228.5C 372.936,227.808 376.27,226.808 379.5,225.5C 383.495,224.168 387.495,222.834 391.5,221.5C 395.877,219.266 400.543,218.266 405.5,218.5C 406.5,219.167 407.5,219.833 408.5,220.5C 408.5,222.167 408.5,223.833 408.5,225.5C 406.99,226.836 405.323,228.003 403.5,229C 388.747,233.21 374.08,237.71 359.5,242.5C 361.316,271.552 366.65,300.052 375.5,328C 375.833,328.5 376.167,329 376.5,329.5C 381.117,327.104 385.95,325.437 391,324.5C 394.818,323.658 396.985,325.158 397.5,329C 396.899,330.605 395.899,331.938 394.5,333C 385.525,335.823 376.858,339.323 368.5,343.5C 365.275,343.312 363.441,341.645 363,338.5C 360.167,320.833 356,303.499 350.5,286.5C 338.3,282.741 330.133,286.741 326,298.5C 322.199,307.836 320.866,317.503 322,327.5C 324.737,328.56 327.57,329.394 330.5,330C 331.468,332.737 330.468,334.737 327.5,336C 325.167,336.667 322.833,336.667 320.5,336C 315.176,334.412 310.009,332.578 305,330.5C 304.333,328.833 304.333,327.167 305,325.5C 311.764,309.278 316.264,292.445 318.5,275C 317.784,267.184 317.284,259.351 317,251.5C 316.759,248.711 316.092,246.044 315,243.5C 304.553,232.715 296.053,220.549 289.5,207C 274.38,210.624 259.047,213.624 243.5,216C 241.369,216.543 239.369,217.376 237.5,218.5C 244.131,258.622 252.798,298.289 263.5,337.5C 269.832,336.163 275.832,333.997 281.5,331C 285.572,330.044 289.405,330.544 293,332.5C 294.089,337.764 291.922,340.93 286.5,342C 276.116,344.342 266.449,348.342 257.5,354C 254.697,354.755 252.03,354.422 249.5,353C 244.643,329.72 239.143,306.553 233,283.5C 231.932,280.129 230.765,276.796 229.5,273.5C 228.333,273.167 227.167,272.833 226,272.5C 218.842,273.406 211.676,274.24 204.5,275C 190.679,292.445 185.012,312.278 187.5,334.5C 191.479,335.773 195.479,336.94 199.5,338C 200.517,339.049 200.684,340.216 200,341.5C 197.487,343.923 194.487,345.256 191,345.5C 183.394,342.639 175.561,340.473 167.5,339C 165.522,336.503 165.022,333.669 166,330.5C 174.36,311.585 180.194,291.919 183.5,271.5C 185.962,256.684 186.129,241.684 184,226.5C 183.79,224.942 183.29,223.609 182.5,222.5C 182.013,221.527 181.513,220.527 181,219.5C 166.361,208.361 153.195,195.695 141.5,181.5C 131.615,196.053 120.615,209.72 108.5,222.5C 106.746,231.805 106.412,241.138 107.5,250.5C 113.246,276.899 121.08,302.565 131,327.5C 136.735,324.629 142.735,322.629 149,321.5C 153.76,320.926 155.76,322.926 155,327.5C 153.992,329.259 152.492,330.426 150.5,331C 141.239,333.308 132.573,336.974 124.5,342C 120.525,343.379 117.691,342.213 116,338.5C 111.62,315.861 105.12,293.861 96.5,272.5C 95.8333,272.167 95.1667,271.833 94.5,271.5C 90.1339,271.894 85.9673,272.894 82,274.5C 73.1641,290.014 69.1641,306.681 70,324.5C 73.5481,326.512 77.3814,327.512 81.5,327.5C 81.4812,332.35 78.9812,334.683 74,334.5C 67.2966,332.267 60.4633,330.434 53.5,329C 52.0564,327.874 51.3898,326.374 51.5,324.5C 57.2648,307.597 61.4315,290.263 64,272.5C 66.6739,263.157 69.3405,253.824 72,244.5C 73.0807,237.946 72.414,231.612 70,225.5C 69.0975,224.299 67.9308,223.465 66.5,223C 45.6797,217.839 24.6797,213.505 3.5,210C 2.01608,209.338 0.682751,208.504 -0.5,207.5C -0.5,205.5 -0.5,203.5 -0.5,201.5C 0.728127,200.694 1.72813,199.694 2.5,198.5C 6.96373,199.644 11.6304,200.31 16.5,200.5C 20.313,201.787 24.313,202.787 28.5,203.5C 32.7034,204.96 37.0367,205.96 41.5,206.5C 45.7722,207.49 50.1055,208.156 54.5,208.5C 79.6285,215.93 100.795,209.93 118,190.5C 123.043,182.913 128.21,175.413 133.5,168C 139.911,164.618 145.578,165.785 150.5,171.5C 157.683,179.516 165.349,187.016 173.5,194C 178.774,197.47 184.44,200.136 190.5,202C 223.663,202.875 256.496,200.042 289,193.5C 291.903,193.911 294.569,194.911 297,196.5C 302.453,212.255 312.286,224.422 326.5,233C 336.256,233.811 345.923,233.311 355.5,231.5 Z"/></g>
<g><path style="opacity:0.992" fill="#7f1f7c" d="M 75.5,178.5 C 89.8845,177.724 95.3845,184.391 92,198.5C 88.7231,204.109 83.8897,205.942 77.5,204C 69.9579,200.061 67.4579,193.895 70,185.5C 70.9668,182.379 72.8001,180.046 75.5,178.5 Z"/></g>
<g><path style="opacity:0.997" fill="#7f1f7d" d="M 330.5,204.5 C 341.759,203.928 346.592,209.261 345,220.5C 342.575,226.795 338.075,228.962 331.5,227C 324.922,223.439 322.755,217.939 325,210.5C 326.36,207.977 328.193,205.977 330.5,204.5 Z"/></g>
<g><path style="opacity:0.453" fill="#471146" d="M 108.5,222.5 C 108.167,231.833 107.833,241.167 107.5,250.5C 106.412,241.138 106.746,231.805 108.5,222.5 Z"/></g>
<g><path style="opacity:0.6" fill="#5b1659" d="M 182.5,222.5 C 183.29,223.609 183.79,224.942 184,226.5C 186.129,241.684 185.962,256.684 183.5,271.5C 184.642,255.144 184.308,238.811 182.5,222.5 Z"/></g>
</svg>
