<svg xmlns="http://www.w3.org/2000/svg" width="53" height="51" viewBox="0 0 53 51" fill="none">
  <path d="M48.2131 12.6867H30.9926L39.6041 4.04228C39.9804 3.66441 40.1918 3.15189 40.1918 2.61749C40.1918 2.0831 39.9804 1.57058 39.6041 1.19271C39.2278 0.814828 38.7174 0.602539 38.1851 0.602539C37.6529 0.602539 37.1425 0.814828 36.7662 1.19271L26.1517 11.8534L15.5371 1.19271C15.3508 1.0056 15.1296 0.857179 14.8861 0.755918C14.6426 0.654657 14.3817 0.602539 14.1182 0.602539C13.8546 0.602539 13.5937 0.654657 13.3502 0.755918C13.1068 0.857179 12.8856 1.0056 12.6992 1.19271C12.3229 1.57058 12.1115 2.0831 12.1115 2.61749C12.1115 3.15189 12.3229 3.66441 12.6992 4.04228L21.3107 12.6867H4.09026C3.02644 12.6867 2.00618 13.111 1.25394 13.8663C0.501705 14.6217 0.0791016 15.6461 0.0791016 16.7143V46.9219C0.0791016 47.9901 0.501705 49.0145 1.25394 49.7699C2.00618 50.5252 3.02644 50.9495 4.09026 50.9495H48.2131C49.2769 50.9495 50.2971 50.5252 51.0494 49.7699C51.8016 49.0145 52.2242 47.9901 52.2242 46.9219V16.7143C52.2242 15.6461 51.8016 14.6217 51.0494 13.8663C50.2971 13.111 49.2769 12.6867 48.2131 12.6867ZM4.09026 16.7143H30.1628V46.9219H4.09026V16.7143ZM48.2131 46.9219H34.174V16.7143H48.2131V46.9219ZM44.2019 25.7766C44.2019 26.3741 44.0255 26.9581 43.6949 27.4548C43.3643 27.9516 42.8945 28.3388 42.3448 28.5674C41.7951 28.796 41.1902 28.8559 40.6066 28.7393C40.023 28.6228 39.487 28.3351 39.0663 27.9126C38.6456 27.4901 38.359 26.9519 38.243 26.3659C38.1269 25.78 38.1865 25.1726 38.4141 24.6206C38.6418 24.0686 39.0274 23.5969 39.5222 23.2649C40.0169 22.933 40.5985 22.7558 41.1935 22.7558C41.9914 22.7558 42.7566 23.0741 43.3208 23.6406C43.8849 24.2071 44.2019 24.9754 44.2019 25.7766ZM44.2019 37.8596C44.2019 38.4571 44.0255 39.0411 43.6949 39.5379C43.3643 40.0346 42.8945 40.4218 42.3448 40.6504C41.7951 40.8791 41.1902 40.9389 40.6066 40.8223C40.023 40.7058 39.487 40.4181 39.0663 39.9956C38.6456 39.5732 38.359 39.0349 38.243 38.4489C38.1269 37.863 38.1865 37.2556 38.4141 36.7036C38.6418 36.1517 39.0274 35.6799 39.5222 35.348C40.0169 35.016 40.5985 34.8389 41.1935 34.8389C41.9914 34.8389 42.7566 35.1571 43.3208 35.7236C43.8849 36.2901 44.2019 37.0585 44.2019 37.8596Z" fill="white"/>
</svg>