<svg xmlns="http://www.w3.org/2000/svg" width="40" height="40" viewBox="0 0 40 40" fill="none">
  <rect x="0.374023" y="0.806641" width="38.7475" height="38.7475" rx="2" fill="white" fill-opacity="0.15"/>
  <path d="M27.0336 15.4444H21.3465L24.1905 12.6724C24.3147 12.5512 24.3846 12.3868 24.3846 12.2155C24.3846 12.0441 24.3147 11.8798 24.1905 11.7586C24.0662 11.6374 23.8976 11.5693 23.7219 11.5693C23.5461 11.5693 23.3775 11.6374 23.2532 11.7586L19.7478 15.1772L16.2423 11.7586C16.1807 11.6986 16.1077 11.651 16.0273 11.6185C15.9469 11.586 15.8607 11.5693 15.7737 11.5693C15.6866 11.5693 15.6004 11.586 15.52 11.6185C15.4396 11.651 15.3666 11.6986 15.305 11.7586C15.1808 11.8798 15.1109 12.0441 15.1109 12.2155C15.1109 12.3868 15.1808 12.5512 15.305 12.6724L18.149 15.4444H12.4619C12.1106 15.4444 11.7736 15.5804 11.5252 15.8226C11.2768 16.0649 11.1372 16.3934 11.1372 16.7359V26.4226C11.1372 26.7651 11.2768 27.0936 11.5252 27.3358C11.7736 27.578 12.1106 27.7141 12.4619 27.7141H27.0336C27.3849 27.7141 27.7219 27.578 27.9703 27.3358C28.2187 27.0936 28.3583 26.7651 28.3583 26.4226V16.7359C28.3583 16.3934 28.2187 16.0649 27.9703 15.8226C27.7219 15.5804 27.3849 15.4444 27.0336 15.4444ZM12.4619 16.7359H21.0725V26.4226H12.4619V16.7359ZM27.0336 26.4226H22.3972V16.7359H27.0336V26.4226ZM25.7089 19.6419C25.7089 19.8335 25.6506 20.0208 25.5415 20.1801C25.4323 20.3394 25.2771 20.4635 25.0956 20.5368C24.914 20.6101 24.7143 20.6293 24.5216 20.592C24.3288 20.5546 24.1518 20.4623 24.0129 20.3269C23.8739 20.1914 23.7793 20.0188 23.7409 19.8309C23.7026 19.643 23.7223 19.4482 23.7975 19.2712C23.8727 19.0942 24 18.9429 24.1634 18.8365C24.3268 18.73 24.5189 18.6732 24.7154 18.6732C24.9789 18.6732 25.2316 18.7753 25.4179 18.957C25.6042 19.1386 25.7089 19.385 25.7089 19.6419ZM25.7089 23.5166C25.7089 23.7081 25.6506 23.8954 25.5415 24.0547C25.4323 24.214 25.2771 24.3382 25.0956 24.4115C24.914 24.4848 24.7143 24.504 24.5216 24.4666C24.3288 24.4292 24.1518 24.337 24.0129 24.2015C23.8739 24.066 23.7793 23.8934 23.7409 23.7055C23.7026 23.5176 23.7223 23.3229 23.7975 23.1459C23.8727 22.9689 24 22.8176 24.1634 22.7111C24.3268 22.6047 24.5189 22.5479 24.7154 22.5479C24.9789 22.5479 25.2316 22.65 25.4179 22.8316C25.6042 23.0133 25.7089 23.2597 25.7089 23.5166Z" fill="white"/>
</svg>