<svg xmlns="http://www.w3.org/2000/svg" width="48" height="55" viewBox="0 0 48 55" fill="none">
  <path d="M28.047 39.3417C31.8996 39.3417 35.6657 38.2123 38.8691 36.0962C42.0724 33.9802 44.5692 30.9725 46.0435 27.4536C47.5178 23.9347 47.9036 20.0627 47.152 16.327C46.4004 12.5914 44.5451 9.16 41.8209 6.46676C39.0967 3.77352 35.6258 1.9394 31.8472 1.19634C28.0686 0.453274 24.152 0.834641 20.5926 2.29221C17.0332 3.74978 13.991 6.21809 11.8505 9.38501C9.71013 12.5519 8.56769 16.2752 8.56769 20.084C8.57349 25.1897 10.6276 30.0847 14.2794 33.695C17.9313 37.3052 22.8825 39.336 28.047 39.3417ZM28.047 4.67785C31.1291 4.67785 34.142 5.58141 36.7047 7.27426C39.2674 8.96711 41.2647 11.3732 42.4442 14.1883C43.6237 17.0034 43.9323 20.1011 43.331 23.0896C42.7297 26.0781 41.2455 28.8232 39.0661 30.9778C36.8867 33.1324 34.1101 34.5997 31.0872 35.1942C28.0643 35.7886 24.931 35.4835 22.0835 34.3175C19.236 33.1514 16.8022 31.1768 15.0898 28.6432C13.3775 26.1097 12.4635 23.1311 12.4635 20.084C12.4681 15.9994 14.1113 12.0834 17.0328 9.19514C19.9543 6.30689 23.9154 4.68231 28.047 4.67785ZM46.9833 36.8142C47.1608 36.9966 47.3001 37.2119 47.3934 37.4477C47.4866 37.6834 47.532 37.935 47.5268 38.1881C47.5216 38.4412 47.4659 38.6908 47.3631 38.9226C47.2602 39.1544 47.1121 39.3639 46.9273 39.5391C42.3431 43.9093 36.348 46.543 29.9949 46.9774V50.8964H35.8387C36.3553 50.8964 36.8508 51.0993 37.2161 51.4604C37.5814 51.8216 37.7866 52.3114 37.7866 52.8221C37.7866 53.3329 37.5814 53.8227 37.2161 54.1839C36.8508 54.545 36.3553 54.7479 35.8387 54.7479H20.2553C19.7386 54.7479 19.2432 54.545 18.8779 54.1839C18.5126 53.8227 18.3073 53.3329 18.3073 52.8221C18.3073 52.3114 18.5126 51.8216 18.8779 51.4604C19.2432 51.0993 19.7386 50.8964 20.2553 50.8964H26.0991V46.975C20.9327 46.6092 15.9785 44.7963 11.8162 41.7486C7.6539 38.7008 4.45561 34.5442 2.59553 29.7651C0.735451 24.986 0.290517 19.782 1.31278 14.762C2.33505 9.74205 4.78224 5.11369 8.36803 1.41848C8.54404 1.23151 8.75592 1.08102 8.99132 0.975772C9.22673 0.870527 9.48096 0.812629 9.73921 0.805449C9.99746 0.798269 10.2546 0.84195 10.4956 0.93395C10.7366 1.02595 10.9567 1.16443 11.1431 1.34133C11.3294 1.51823 11.4783 1.73001 11.5811 1.96434C11.6839 2.19868 11.7385 2.45089 11.7417 2.70629C11.745 2.96169 11.6968 3.21517 11.6 3.45198C11.5032 3.6888 11.3597 3.90421 11.1779 4.08567C6.93164 8.44628 4.58541 14.2799 4.64357 20.3325C4.70173 26.3852 7.15964 32.1737 11.4889 36.4537C15.8183 40.7338 21.6733 43.1637 27.7956 43.2212C33.9179 43.2787 39.8186 40.9592 44.2294 36.7612C44.6017 36.4073 45.101 36.214 45.6174 36.2239C46.1339 36.2339 46.6252 36.4462 46.9833 36.8142Z" fill="white"/>
</svg>