<svg xmlns="http://www.w3.org/2000/svg" width="9" height="5" viewBox="0 0 9 5" fill="none">
  <path d="M8.88012 4.28839L4.78942 0.122189C4.75143 0.0834527 4.70631 0.0527229 4.65665 0.0317569C4.60699 0.0107908 4.55376 0 4.5 0C4.44624 0 4.39301 0.0107908 4.34335 0.0317569C4.29369 0.0527229 4.24857 0.0834527 4.21058 0.122189L0.11988 4.28839C0.0431223 4.36656 0 4.47259 0 4.58315C0 4.6937 0.0431223 4.79973 0.11988 4.87791C0.196639 4.95608 0.300745 5 0.409298 5C0.51785 5 0.621957 4.95608 0.698715 4.87791L4.5 1.00594L8.30128 4.87791C8.33929 4.91662 8.38441 4.94732 8.43407 4.96827C8.48373 4.98922 8.53695 5 8.5907 5C8.64445 5 8.69767 4.98922 8.74733 4.96827C8.79699 4.94732 8.84211 4.91662 8.88012 4.87791C8.91813 4.8392 8.94827 4.79325 8.96884 4.74267C8.98941 4.6921 9 4.63789 9 4.58315C9 4.52841 8.98941 4.4742 8.96884 4.42363C8.94827 4.37305 8.91813 4.3271 8.88012 4.28839Z" fill="white"/>
</svg>