<svg xmlns="http://www.w3.org/2000/svg" width="70" height="59" viewBox="0 0 70 59" fill="none">
<path d="M67.0077 53.8704H62.3926V26.8549C62.3927 26.2079 62.2602 25.5678 62.0035 24.9753C61.7468 24.3827 61.3715 23.8506 60.9013 23.4126L37.8256 1.35606C37.8143 1.34609 37.8037 1.33535 37.7938 1.32392C36.9443 0.541167 35.8371 0.107422 34.6887 0.107422C33.5403 0.107422 32.4332 0.541167 31.5836 1.32392L31.5519 1.35606L8.50212 23.4126C8.03194 23.8506 7.65663 24.3827 7.39994 24.9753C7.14324 25.5678 7.01075 26.2079 7.01085 26.8549V53.8704H2.39571C1.7837 53.8704 1.19676 54.1167 0.764007 54.5551C0.331253 54.9936 0.0881348 55.5882 0.0881348 56.2082C0.0881348 56.8282 0.331253 57.4228 0.764007 57.8612C1.19676 58.2996 1.7837 58.5459 2.39571 58.5459H67.0077C67.6197 58.5459 68.2066 58.2996 68.6394 57.8612C69.0722 57.4228 69.3153 56.8282 69.3153 56.2082C69.3153 55.5882 69.0722 54.9936 68.6394 54.5551C68.2066 54.1167 67.6197 53.8704 67.0077 53.8704ZM11.626 26.8549L11.6577 26.8257L34.7017 4.77793L57.7486 26.8199L57.7803 26.8491V53.8704H43.932V39.844C43.932 38.604 43.4458 37.4148 42.5802 36.5379C41.7147 35.6611 40.5409 35.1685 39.3168 35.1685H30.0866C28.8625 35.1685 27.6887 35.6611 26.8232 36.5379C25.9577 37.4148 25.4714 38.604 25.4714 39.844V53.8704H11.626V26.8549ZM39.3168 53.8704H30.0866V39.844H39.3168V53.8704Z" fill="white"/>
</svg>