<svg xmlns="http://www.w3.org/2000/svg" width="70" height="59" viewBox="0 0 70 59" fill="none">
  <path d="M69.3155 5.31845V53.1318C69.3155 54.5407 68.7545 55.892 67.7558 56.8883C66.7571 57.8846 65.4027 58.4444 63.9903 58.4444H40.0271C39.3209 58.4444 38.6437 58.1645 38.1444 57.6663C37.6451 57.1682 37.3645 56.4925 37.3645 55.7881C37.3645 55.0836 37.6451 54.4079 38.1444 53.9098C38.6437 53.4116 39.3209 53.1318 40.0271 53.1318H63.9903V5.31845H5.41354V18.5999C5.41354 19.3044 5.13302 19.9801 4.63369 20.4782C4.13436 20.9764 3.45712 21.2562 2.75096 21.2562C2.0448 21.2562 1.36756 20.9764 0.868231 20.4782C0.3689 19.9801 0.0883789 19.3044 0.0883789 18.5999V5.31845C0.0883789 3.90946 0.649421 2.55818 1.64808 1.56188C2.64675 0.565577 4.00122 0.00585938 5.41354 0.00585938H63.9903C65.4027 0.00585938 66.7571 0.565577 67.7558 1.56188C68.7545 2.55818 69.3155 3.90946 69.3155 5.31845ZM2.75096 47.8192C2.0448 47.8192 1.36756 48.099 0.868231 48.5972C0.3689 49.0953 0.0883789 49.771 0.0883789 50.4755C0.0883789 51.18 0.3689 51.8556 0.868231 52.3538C1.36756 52.8519 2.0448 53.1318 2.75096 53.1318C3.45712 53.1318 4.13436 53.4116 4.63369 53.9098C5.13302 54.4079 5.41354 55.0836 5.41354 55.7881C5.41354 56.4925 5.69407 57.1682 6.1934 57.6663C6.69273 58.1645 7.36996 58.4444 8.07613 58.4444C8.78229 58.4444 9.45952 58.1645 9.95885 57.6663C10.4582 57.1682 10.7387 56.4925 10.7387 55.7881C10.7387 53.6746 9.89714 51.6477 8.39915 50.1532C6.90116 48.6587 4.86944 47.8192 2.75096 47.8192ZM2.75096 37.194C2.0448 37.194 1.36756 37.4738 0.868231 37.972C0.3689 38.4701 0.0883789 39.1458 0.0883789 39.8503C0.0883789 40.5548 0.3689 41.2304 0.868231 41.7286C1.36756 42.2267 2.0448 42.5066 2.75096 42.5066C6.28176 42.5066 9.66796 43.9059 12.1646 46.3966C14.6613 48.8874 16.0639 52.2656 16.0639 55.7881C16.0639 56.4925 16.3444 57.1682 16.8437 57.6663C17.3431 58.1645 18.0203 58.4444 18.7265 58.4444C19.4326 58.4444 20.1099 58.1645 20.6092 57.6663C21.1085 57.1682 21.389 56.4925 21.389 55.7881C21.3838 50.8582 19.4184 46.1318 15.9242 42.6459C12.4301 39.16 7.69246 37.1993 2.75096 37.194ZM2.75096 26.5688C2.0448 26.5688 1.36756 26.8487 0.868231 27.3468C0.3689 27.845 0.0883789 28.5206 0.0883789 29.2251C0.0883789 29.9296 0.3689 30.6052 0.868231 31.1034C1.36756 31.6015 2.0448 31.8814 2.75096 31.8814C9.10424 31.8884 15.1953 34.4094 19.6877 38.8913C24.1802 43.3731 26.7072 49.4498 26.7142 55.7881C26.7142 56.4925 26.9947 57.1682 27.4941 57.6663C27.9934 58.1645 28.6706 58.4444 29.3768 58.4444C30.0829 58.4444 30.7602 58.1645 31.2595 57.6663C31.7588 57.1682 32.0394 56.4925 32.0394 55.7881C32.0306 48.0413 28.942 40.6144 23.4513 35.1366C17.9605 29.6589 10.516 26.5776 2.75096 26.5688Z" fill="white"/>
</svg>