<svg xmlns="http://www.w3.org/2000/svg" width="44" height="45" viewBox="0 0 44 45" fill="none">
  <rect width="44" height="44" rx="5" transform="matrix(-1 0 0 1 44 0.0830078)" fill="white" fill-opacity="0.1"/>
  <path d="M27.7068 31.3761C27.7997 31.469 27.8734 31.5793 27.9237 31.7007C27.974 31.8221 27.9999 31.9522 27.9999 32.0836C27.9999 32.215 27.974 32.3451 27.9237 32.4665C27.8734 32.5879 27.7997 32.6982 27.7068 32.7911C27.6139 32.884 27.5036 32.9577 27.3822 33.008C27.2608 33.0582 27.1307 33.0841 26.9993 33.0841C26.8679 33.0841 26.7378 33.0582 26.6164 33.008C26.495 32.9577 26.3847 32.884 26.2918 32.7911L16.2918 22.7911C16.1988 22.6982 16.1251 22.5879 16.0748 22.4665C16.0244 22.3451 15.9985 22.215 15.9985 22.0836C15.9985 21.9521 16.0244 21.822 16.0748 21.7006C16.1251 21.5792 16.1988 21.4689 16.2918 21.3761L26.2918 11.3761C26.4795 11.1884 26.734 11.083 26.9993 11.083C27.2647 11.083 27.5192 11.1884 27.7068 11.3761C27.8945 11.5637 27.9999 11.8182 27.9999 12.0836C27.9999 12.3489 27.8945 12.6034 27.7068 12.7911L18.4131 22.0836L27.7068 31.3761Z" fill="white"/>
</svg>