<svg xmlns="http://www.w3.org/2000/svg" width="210" height="45" viewBox="0 5.714 2000 428.571">
  <defs>
    <style>
      .cls-1, .cls-2 {
        fill: #0500ff;
      }

      .cls-2, .cls-3 {
        fill-rule: evenodd;
      }

      .cls-3 {
        fill: #fff;
      }
    </style>
  </defs>
  <circle id="Эллипс_1" data-name="Эллипс 1" class="cls-1" cx="251.844" cy="207.031" r="192.375"/>
  <path id="Эллипс_2" data-name="Эллипс 2" class="cls-2" d="M202.444,124.509c116.081-72.856,230.9-98.9,256.464-58.178s-47.819,132.8-163.9,205.658-230.9,98.9-256.464,58.179S86.364,197.366,202.444,124.509Z"/>
  <path id="Эллипс_1_копия" data-name="Эллипс 1 копия" class="cls-3" d="M250.809,56.115c83.827-.215,151.956,67.175,152.171,150.52s-67.568,151.084-151.4,151.3S99.627,290.76,99.413,207.415,166.981,56.33,250.809,56.115Z"/>
  <path id="Эллипс_2_копия_2" data-name="Эллипс 2 копия 2" class="cls-3" d="M219.42,146.183C318.748,87.573,413.776,63.1,431.671,91.524S383.553,190.5,284.225,249.113,89.87,332.194,71.975,303.771,120.093,204.793,219.42,146.183Z"/>
  <path id="Фигура_1" data-name="Фигура 1" class="cls-2" d="M101.08,236.8s66.976-67.2,115.466-90.021c-67.475.63-111.828,33.588-120.3,45.171S97.68,229.736,101.08,236.8Z"/>
  <path id="Фигура_1_копия" data-name="Фигура 1 копия" class="cls-2" d="M403.108,157.71s-66.976,67.2-115.466,90.022c67.476-.63,111.828-33.589,120.3-45.172S406.508,164.771,403.108,157.71Z"/>
  <path id="Фигура_2" data-name="Фигура 2" class="cls-2" d="M117.51,259.341s12.768,22.731,14.231,25.15c-0.614,3.837-33.221,13.748-37.761,6.966C86.6,283.458,114.181,260.561,117.51,259.341Z"/>
  <path id="Фигура_2_копия" data-name="Фигура 2 копия" class="cls-2" d="M378.436,137.551S365.668,114.821,364.2,112.4c0.615-3.838,33.221-13.748,37.761-6.966C409.347,113.435,381.764,136.331,378.436,137.551Z"/>
  <path id="onwifi" class="cls-2" d="M679.479,146.624c-76.7,0-132.954,50.114-132.954,125.8s56.25,125.8,132.954,125.8c76.194,0,132.444-50.114,132.444-125.8S755.673,146.624,679.479,146.624Zm0,70.569c31.194,0,55.228,21.477,55.228,55.227s-24.034,55.227-55.228,55.227-55.227-21.477-55.227-55.227S648.286,217.193,679.479,217.193Zm331.881-70.569c-47.556,0-72.1,27.1-86.42,61.875l-2.046-1.022c3.069-14.319,4.6-24.034,4.6-53.182H851.3v236.25h77.216V276.511c0-45,19.944-62.387,49.091-62.387,25.06,0,39.89,16.364,39.89,50.114V390.545h76.7V242.761C1094.2,178.84,1064.03,146.624,1011.36,146.624Zm240.86,249.035,42.44-82.841c12.79-25.568,16.88-33.75,20.46-48.58h2.04c3.07,14.83,7.67,23.012,20.46,48.58l41.93,82.841h20.96l113.02-241.364h-84.38L1400,225.886c-9.2,23.523-12.78,32.216-15.34,47.045h-2.04c-2.56-14.829-5.63-21.477-18.92-47.557l-38.36-76.193h-18.92l-38.35,76.193c-13.29,26.08-16.36,32.728-18.92,47.557h-2.05c-2.04-14.829-5.62-23.522-15.34-47.045l-28.63-71.591h-84.38l112.5,241.364h20.97ZM1536.54,32.59V118.5h83.36V32.59h-83.36Zm3.07,121.7v236.25h77.22V154.295h-77.22ZM1807.06,27.476c-75.68,0-116.08,32.216-116.08,108.41v3.579c0,6.137.51,11.762,3.58,17.387l-1.02,1.022c-6.14-3.579-13.3-3.579-23.02-3.579h-21.47v64.943h21.47c11.77,0,17.39,0,23.02-3.58l1.02,1.023c-3.58,6.137-3.58,14.318-3.58,29.148V390.545h77.22V245.829c0-14.83,0-23.011-3.58-29.148l1.02-1.023c5.62,3.58,11.25,3.58,23.01,3.58h34.26V154.295h-34.26c-9.72,0-16.88,0-23.01,3.579l-1.02-1.022c3.06-5.625,3.58-11.25,3.58-17.387v-3.579c0-29.148,13.29-38.353,48.57-38.353h6.14V27.476h-15.85Zm44.49,5.114V118.5h83.35V32.59h-83.35Zm3.07,121.7v236.25h77.22V154.295h-77.22Z"/>
</svg>
