<svg xmlns="http://www.w3.org/2000/svg" height="35" width="35"><rect id="backgroundrect" width="100%" height="100%" x="0" y="0" fill="none" stroke="none" style="" class=""/><g class="currentLayer" style=""><title>Layer 1</title><path fill="none" d="M42.04255545139313,-19.999999403953552 h225.4 v67.9 H42.04255545139313 z" id="svg_1" class=""/><path fill="none" d="M42.04255545139313,-19.999999403953552 h225.4 v67.9 H42.04255545139313 z" class="" id="svg_5" transform="translate(28,-2.6666667461395264) "/><path d="M19.10000059604645,0.29148993492126607 v17.5 c0,0.8 -0.6000000000000006,1.4 -1.4,1.4 h-2.1 c-0.1,0 -0.2,0.1 -0.2,0.2 v14.7 c0.5,0 1,0.1 1.6,0.1 c9.4,0 17,-7.6 17,-17 c0,-8.7 -6.5,-15.9 -14.9,-16.9 zm-0.4,26.2 c-1.2,0 -2.1,-1 -2.1,-2.1 c0,-1.2 1,-2.1 2.1,-2.1 c1.2,0 2.1,1 2.1,2.1 c0.1,1.1 -0.9,2.1 -2.1,2.1 zm5,0 c-1.2,0 -2.1,-1 -2.1,-2.1 c0,-1.2 1,-2.1 2.1,-2.1 c1.2,0 2.1,1 2.1,2.1 s-0.9,2.1 -2.1,2.1 zm5,0 c-1.2,0 -2.1,-1 -2.1,-2.1 c0,-1.2 1,-2.1 2.1,-2.1 c1.2,0 2.1,1 2.1,2.1 s-0.9,2.1 -2.1,2.1 z" id="svg_3" class=""/><path d="M19.10000059604645,0.29148993492126607 v17.5 c0,0.8 -0.6000000000000006,1.4 -1.4,1.4 h-2.1 c-0.1,0 -0.2,0.1 -0.2,0.2 v14.7 c0.5,0 1,0.1 1.6,0.1 c9.4,0 17,-7.6 17,-17 c0,-8.7 -6.5,-15.9 -14.9,-16.9 zm-0.4,26.2 c-1.2,0 -2.1,-1 -2.1,-2.1 c0,-1.2 1,-2.1 2.1,-2.1 c1.2,0 2.1,1 2.1,2.1 c0.1,1.1 -0.9,2.1 -2.1,2.1 zm5,0 c-1.2,0 -2.1,-1 -2.1,-2.1 c0,-1.2 1,-2.1 2.1,-2.1 c1.2,0 2.1,1 2.1,2.1 s-0.9,2.1 -2.1,2.1 zm5,0 c-1.2,0 -2.1,-1 -2.1,-2.1 c0,-1.2 1,-2.1 2.1,-2.1 c1.2,0 2.1,1 2.1,2.1 s-0.9,2.1 -2.1,2.1 z" class="" id="svg_2" fill="#919191" fill-opacity="1"/><path d="M19.10000059604645,0.29148993492126607 v17.5 c0,0.8 -0.6000000000000006,1.4 -1.4,1.4 h-2.1 c-0.1,0 -0.2,0.1 -0.2,0.2 v14.7 c0.5,0 1,0.1 1.6,0.1 c9.4,0 17,-7.6 17,-17 c0,-8.7 -6.5,-15.9 -14.9,-16.9 zm-0.4,26.2 c-1.2,0 -2.1,-1 -2.1,-2.1 c0,-1.2 1,-2.1 2.1,-2.1 c1.2,0 2.1,1 2.1,2.1 c0.1,1.1 -0.9,2.1 -2.1,2.1 zm5,0 c-1.2,0 -2.1,-1 -2.1,-2.1 c0,-1.2 1,-2.1 2.1,-2.1 c1.2,0 2.1,1 2.1,2.1 s-0.9,2.1 -2.1,2.1 zm5,0 c-1.2,0 -2.1,-1 -2.1,-2.1 c0,-1.2 1,-2.1 2.1,-2.1 c1.2,0 2.1,1 2.1,2.1 s-0.9,2.1 -2.1,2.1 z" class="" fill="#b3b3b3" fill-opacity="1" id="svg_6"/><path d="M17.000000596046448,0.19148993492126465 c-9.4,0 -17,7.6 -17,17 c0,8.2 5.7,15 13.4,16.6 V18.491489934921262 c0,-0.7000000000000006 0.6000000000000006,-1.3 1.3,-1.4 h2.1 c0.1,0 0.2,-0.1 0.2,-0.2 zm-3.3,14 c-1.2,0 -2.1,-1 -2.1,-2.1 c0,-1.2 1,-2.1 2.1,-2.1 c1.2,0 2.1,1 2.1,2.1 s-0.9,2.1 -2.1,2.1 zm164.9,1.7000000000000002 v-6.4 h-4.3 v17 h4.3 v-6.9 h8.6 v6.9 h4.2 v-17 h-4.2 v6.4 zm-62.2,-4.5 c-0.7000000000000006,-1.5 -2.1,-2.3 -3.5,-2.3 s-2.8,0.8 -3.5,2.3 l-6.9,15.1 h4.5 l1.5,-3.6 h8.8 l1.5,3.6 h4.5 zm-6.5,8.1 l2.6,-6.2 c0.1,-0.2 0.2,-0.2 0.3000000000000003,-0.2 c0.1,0 0.3000000000000003,0 0.3000000000000003,0.2 l2.6,6.2 zM65.80000059604644,6.391489934921264 c-2,0 -3.3,1.1 -4.2,3.2 l-5.5,12.8 l-5.5,-12.8 c-0.9,-2.1 -2.2,-3.2 -4.2,-3.2 c-1.9,0 -3.8,1.3 -3.8,4.2 v15.8 h4.2 V11.091489934921263 l5.6,12.7 c0.7000000000000006,1.8 2,2.9 3.7,2.9 c1.8,0 3,-1.1 3.7,-2.9 l5.6,-12.7 v15.4 h4.2 V10.691489934921265 c0,-2.9 -1.9,-4.3 -3.8,-4.3 zm11.3,16.5 c-0.2,0 -0.4,-0.2 -0.4,-0.4 v-3 h10.6 v-3.5 H76.70000059604645 v-2.6 c0,-0.2 0.2,-0.4 0.4,-0.4 h10.5 v-3.6 H75.00000059604645 c-1.5,0 -2.5,1.2 -2.5,2.5 v11.9 c0,1.3 1.1,2.5 2.5,2.5 h12.6 v-3.6 H77.10000059604644 zm17.6,3.6 v-13 c0,-0.2 0.2,-0.4 0.4,-0.4 h10.5 v-3.6 H93.00000059604645 c-1.5,0 -2.5,1.2 -2.5,2.5 v14.4 h4.2 zm76.8,-8.5 c0,-5.9 -2.6,-8.7 -9,-8.7 H161.00000059604645 c-6.4,0 -9,2.8 -9,8.7 c0,5.8 2.6,8.7 9,8.7 h1.4 c6.5,-0.1 9.1,-2.9 9.1,-8.7 zm-9.1,5.1 H161.00000059604645 c-3.5,0 -4.9,-1.6 -4.9,-5.1 c0,-3.4 1.2,-5.1 4.9,-5.1 h1.4 c3.6,0 4.9,1.7000000000000002 4.9,5.1 c0,3.5 -1.3,5.1 -4.9,5.1 zm-22.2,-16.3 h-8.4 c-6.3,0 -8.8,3.2 -8.8,8.7 c0,0.9 0.1,1.7000000000000002 0.2,2.4 c0.7000000000000006,3.9 3,6.3 8.9,6.3 h1.9 v2.2 h4.2 V24.191489934921265 h1.8 c5.9,0 8.2,-2.4 8.9,-6.3 c0.1,-0.7000000000000006 0.2,-1.5 0.2,-2.4 c-0.1,-5.5 -2.7,-8.7 -8.9,-8.7 zm-6.4,13.9 h-1.9 c-2.9,0 -3.9,-1.1 -4.5,-2.8 c-0.2,-0.6000000000000006 -0.2,-1.5 -0.2,-2.4 c0,-3.6 1.7000000000000002,-5.1 4.1,-5.1 h2.6 v10.3 zm10.8,-2.7 c-0.6000000000000006,1.7000000000000002 -1.7000000000000002,2.8 -4.5,2.8 h-1.9 V10.391489934921267 h2.6 c2.4,0 4.1,1.5 4.1,5.1 c-0.1,1 -0.1,1.8 -0.3000000000000003,2.5 z" id="svg_4" class="" fill="#b3b3b3" fill-opacity="1"/></g></svg>