<svg xmlns="http://www.w3.org/2000/svg" width="40" height="40" viewBox="0 0 40 40" fill="none">
  <rect x="0.374023" y="0.699219" width="38.7475" height="38.7475" rx="2" fill="white" fill-opacity="0.15"/>
  <path d="M24.053 10.3857H15.4424C14.8715 10.3857 14.324 10.6044 13.9203 10.9937C13.5166 11.383 13.2898 11.911 13.2898 12.4615V27.6837C13.2898 28.2342 13.5166 28.7622 13.9203 29.1515C14.324 29.5408 14.8715 29.7595 15.4424 29.7595H24.053C24.6239 29.7595 25.1714 29.5408 25.5751 29.1515C25.9788 28.7622 26.2056 28.2342 26.2056 27.6837V12.4615C26.2056 11.911 25.9788 11.383 25.5751 10.9937C25.1714 10.6044 24.6239 10.3857 24.053 10.3857ZM14.7249 14.5373H24.7705V25.608H14.7249V14.5373ZM15.4424 11.7696H24.053C24.2433 11.7696 24.4258 11.8425 24.5604 11.9722C24.6949 12.102 24.7705 12.278 24.7705 12.4615V13.1534H14.7249V12.4615C14.7249 12.278 14.8005 12.102 14.9351 11.9722C15.0696 11.8425 15.2521 11.7696 15.4424 11.7696ZM24.053 28.3756H15.4424C15.2521 28.3756 15.0696 28.3027 14.9351 28.173C14.8005 28.0432 14.7249 27.8672 14.7249 27.6837V26.9918H24.7705V27.6837C24.7705 27.8672 24.6949 28.0432 24.5604 28.173C24.4258 28.3027 24.2433 28.3756 24.053 28.3756Z" fill="white"/>
</svg>