<svg xmlns="http://www.w3.org/2000/svg" width="46" height="45" viewBox="0 0 46 45" fill="none">
  <rect x="0.956604" y="0.298828" width="44.6465" height="44.6465" rx="5" fill="white" fill-opacity="0.1"/>
  <path d="M17.4891 32.0512C17.3948 32.1455 17.32 32.2574 17.269 32.3806C17.218 32.5038 17.1917 32.6358 17.1917 32.7691C17.1917 32.9024 17.218 33.0344 17.269 33.1576C17.32 33.2808 17.3948 33.3927 17.4891 33.487C17.5833 33.5813 17.6953 33.6561 17.8184 33.7071C17.9416 33.7581 18.0736 33.7844 18.207 33.7844C18.3403 33.7844 18.4723 33.7581 18.5955 33.7071C18.7187 33.6561 18.8306 33.5813 18.9249 33.487L29.0718 23.3401C29.1661 23.2458 29.241 23.1339 29.292 23.0107C29.3431 22.8875 29.3694 22.7555 29.3694 22.6222C29.3694 22.4888 29.3431 22.3568 29.292 22.2336C29.241 22.1104 29.1661 21.9985 29.0718 21.9043L18.9249 11.7573C18.7345 11.5669 18.4762 11.46 18.207 11.46C17.9377 11.46 17.6795 11.5669 17.4891 11.7573C17.2987 11.9477 17.1917 12.206 17.1917 12.4752C17.1917 12.7445 17.2987 13.0027 17.4891 13.1931L26.9194 22.6222L17.4891 32.0512Z" fill="white"/>
</svg>