<svg xmlns="http://www.w3.org/2000/svg" width="80" height="80" viewBox="0 0 80 80" fill="none">
  <rect width="80" height="80" rx="5" fill="white" fill-opacity="0.05"/>
  <path d="M54.6527 26.1016C50.8666 22.3155 45.7315 20.1885 40.3772 20.1885C35.0228 20.1885 29.8877 22.3155 26.1016 26.1016C22.3155 29.8877 20.1885 35.0228 20.1885 40.3772C20.1885 45.7315 22.3155 50.8666 26.1016 54.6527C29.8877 58.4388 35.0228 60.5659 40.3772 60.5659C45.7315 60.5659 50.8666 58.4388 54.6527 54.6527C58.4388 50.8666 60.5659 45.7315 60.5659 40.3772C60.5659 35.0228 58.4388 29.8877 54.6527 26.1016ZM52.4572 28.299C53.2535 29.0988 53.9688 29.9753 54.5925 30.9158L48.0546 38.6301L42.6348 23.446C46.3558 23.9321 49.8104 25.6389 52.4572 28.299ZM45.7329 41.3478L42.2077 45.4961L36.852 44.5255L35.0214 39.4066L38.5466 35.2582L43.9024 36.2288L45.7329 41.3478ZM28.2971 28.299C31.23 25.3502 35.1445 23.5823 39.2959 23.3315L42.695 32.8434L26.847 29.9568C27.2942 29.3736 27.7786 28.8199 28.2971 28.299ZM24.5855 46.8879C23.664 44.6375 23.2312 42.217 23.3159 39.7867C23.4005 37.3564 24.0007 34.9718 25.0767 32.791L35.0175 34.606L24.5855 46.8879ZM28.2971 52.4553C27.5008 51.6556 26.7856 50.7791 26.1618 49.8386L32.6997 42.1242L38.1196 57.3005C34.3995 56.8166 30.9451 55.1126 28.2971 52.4553ZM52.4572 52.4553C49.5243 55.4041 45.6099 57.1721 41.4584 57.4228L38.0594 47.9109L53.9073 50.8053C53.4598 51.3858 52.9755 51.937 52.4572 52.4553ZM45.7368 46.1483L56.1688 33.8664C57.0903 36.1168 57.5231 38.5374 57.4384 40.9677C57.3538 43.398 56.7536 45.7825 55.6777 47.9634L45.7368 46.1483Z" fill="white"/>
</svg>