<svg xmlns="http://www.w3.org/2000/svg" width="191" height="190" viewBox="0 0 191 190" fill="none">
  <g filter="url(#filter0_f_10_124)">
    <circle cx="95.43" cy="95.1731" r="14.8264" fill="#5200FF"/>
  </g>
  <circle cx="95.4297" cy="86.4297" r="22.1798" fill="white" fill-opacity="0.1" stroke="white" stroke-width="0.5"/>
  <path d="M101.758 82.1884L103.757 85.6738C105.57 88.8355 104.553 92.9061 101.415 94.752C100.654 95.2019 99.8111 95.4946 98.9353 95.6126C98.0595 95.7307 97.169 95.6718 96.3164 95.4394C93.9185 94.7165 90.0217 91.8285 90.0217 91.8285C89.8739 91.7427 89.7451 91.6277 89.6431 91.4906C89.5411 91.3535 89.4679 91.1971 89.4281 91.0309C89.3884 90.8647 89.3828 90.6921 89.4116 90.5236C89.4405 90.3552 89.5033 90.1944 89.5962 90.0509C89.9635 89.4766 90.7335 89.3224 91.3205 89.6642L94.1877 91.3339C94.2688 91.3828 94.3626 91.4066 94.4572 91.4023C94.5519 91.398 94.6431 91.3659 94.7195 91.3099L94.7278 91.3052C94.8463 91.2071 94.9259 91.07 94.9524 90.9185C94.9789 90.7669 94.9504 90.6109 94.8721 90.4785L90.1732 82.2841C90.088 82.1359 90.0338 81.9718 90.0139 81.802C89.9939 81.6322 90.0087 81.4601 90.0573 81.2961C90.1059 81.1322 90.1874 80.9798 90.2966 80.8483C90.4059 80.7168 90.5408 80.6089 90.693 80.531C91.2979 80.2205 92.0422 80.4685 92.38 81.0578L95.1886 85.9557C95.2315 86.0308 95.2893 86.0964 95.3586 86.1482C95.4279 86.2 95.5071 86.2371 95.5912 86.257C95.6754 86.277 95.7628 86.2794 95.848 86.2642C95.9331 86.2489 96.0143 86.2163 96.0863 86.1684C96.2202 86.0756 96.3139 85.9355 96.3487 85.7764C96.3834 85.6173 96.3567 85.4509 96.2738 85.3107L95.6557 84.2328C95.5705 84.0846 95.5162 83.9206 95.4963 83.7508C95.4764 83.5809 95.4912 83.4088 95.5398 83.2449C95.5884 83.0809 95.6698 82.9286 95.7791 82.7971C95.8884 82.6656 96.0232 82.5576 96.1755 82.4798C96.7804 82.1693 97.5246 82.4173 97.8625 83.0065L98.7874 84.6195C98.8303 84.6947 98.8882 84.7602 98.9574 84.8121C99.0267 84.8639 99.1059 84.9009 99.1901 84.9209C99.2743 84.9408 99.3617 84.9433 99.4468 84.928C99.532 84.9128 99.6131 84.8802 99.6851 84.8323C99.819 84.7395 99.9127 84.5994 99.9475 84.4403C99.9823 84.2811 99.9555 84.1147 99.8726 83.9745L99.5869 83.4763C99.249 82.8871 99.4121 82.1216 99.9844 81.7543C100.128 81.6623 100.289 81.6005 100.458 81.5726C100.626 81.5446 100.798 81.5512 100.964 81.5917C101.13 81.6323 101.286 81.7061 101.423 81.8087C101.559 81.9112 101.673 82.0404 101.758 82.1884Z" fill="white"/>
  <path d="M96.5426 82.6056C97.0173 81.3333 97.0791 79.9439 96.7194 78.6345C96.3597 77.3251 95.5966 76.1623 94.5386 75.3111C93.4806 74.4599 92.1814 73.9636 90.8254 73.8926C89.4693 73.8216 88.1254 74.1796 86.9843 74.9156C85.8432 75.6517 84.9629 76.7285 84.4684 77.9931C83.9739 79.2578 83.8903 80.6461 84.2295 81.9609C84.5687 83.2758 85.3134 84.4504 86.358 85.3181C87.4026 86.1857 88.6939 86.7023 90.0486 86.7945L90.122 85.7167C88.9937 85.6399 87.9182 85.2096 87.0483 84.487C86.1783 83.7644 85.5581 82.7862 85.2756 81.6911C84.9931 80.596 85.0627 79.4398 85.4745 78.3865C85.8864 77.3333 86.6195 76.4365 87.5698 75.8235C88.5202 75.2104 89.6395 74.9123 90.7689 74.9715C91.8982 75.0306 92.9803 75.4439 93.8614 76.1528C94.7426 76.8618 95.3781 77.8302 95.6777 78.9207C95.9773 80.0112 95.9258 81.1684 95.5305 82.228L96.5426 82.6056Z" fill="white"/>
  <path d="M94.4055 81.8076C94.7126 80.9844 94.7527 80.0853 94.5199 79.2381C94.2871 78.3908 93.7934 77.6384 93.1088 77.0876C92.4242 76.5369 91.5836 76.2157 90.7061 76.1698C89.8287 76.1238 88.9591 76.3555 88.2207 76.8317C87.4823 77.308 86.9128 78.0047 86.5928 78.8231C86.2728 79.6414 86.2188 80.5397 86.4382 81.3905C86.6577 82.2412 87.1396 83.0013 87.8155 83.5627C88.4914 84.1241 89.3269 84.4584 90.2035 84.518L90.251 83.8206C89.5209 83.7709 88.825 83.4926 88.2621 83.025C87.6992 82.5574 87.2979 81.9244 87.1151 81.2158C86.9323 80.5073 86.9773 79.7591 87.2438 79.0776C87.5103 78.3961 87.9847 77.8158 88.5996 77.4191C89.2145 77.0225 89.9388 76.8296 90.6696 76.8678C91.4003 76.9061 92.1005 77.1736 92.6706 77.6323C93.2408 78.091 93.652 78.7176 93.8458 79.4232C94.0397 80.1289 94.0064 80.8776 93.7506 81.5632L94.4055 81.8076Z" fill="white"/>
  <defs>
    <filter id="filter0_f_10_124" x="0.603516" y="0.34668" width="189.653" height="189.653" filterUnits="userSpaceOnUse" color-interpolation-filters="sRGB">
      <feFlood flood-opacity="0" result="BackgroundImageFix"/>
      <feBlend mode="normal" in="SourceGraphic" in2="BackgroundImageFix" result="shape"/>
      <feGaussianBlur stdDeviation="40" result="effect1_foregroundBlur_10_124"/>
    </filter>
  </defs>
</svg>