<svg xmlns="http://www.w3.org/2000/svg" width="45" height="45" viewBox="0 0 45 45" fill="none">
  <rect width="44.6465" height="44.6465" rx="5" transform="matrix(-1 0 0 1 44.7754 0.298828)" fill="white" fill-opacity="0.1"/>
  <path d="M28.2429 32.0512C28.3372 32.1455 28.4119 32.2574 28.463 32.3806C28.514 32.5038 28.5402 32.6358 28.5402 32.7691C28.5402 32.9024 28.514 33.0344 28.463 33.1576C28.4119 33.2808 28.3372 33.3927 28.2429 33.487C28.1486 33.5813 28.0367 33.6561 27.9135 33.7071C27.7903 33.7581 27.6583 33.7844 27.525 33.7844C27.3917 33.7844 27.2596 33.7581 27.1365 33.7071C27.0133 33.6561 26.9014 33.5813 26.8071 33.487L16.6601 23.3401C16.5658 23.2458 16.491 23.1339 16.4399 23.0107C16.3888 22.8875 16.3625 22.7555 16.3625 22.6222C16.3625 22.4888 16.3888 22.3568 16.4399 22.2336C16.491 22.1104 16.5658 21.9985 16.6601 21.9043L26.8071 11.7573C26.9975 11.5669 27.2557 11.46 27.525 11.46C27.7942 11.46 28.0525 11.5669 28.2429 11.7573C28.4333 11.9477 28.5402 12.206 28.5402 12.4752C28.5402 12.7445 28.4333 13.0027 28.2429 13.1931L18.8126 22.6222L28.2429 32.0512Z" fill="white"/>
</svg>