<svg xmlns="http://www.w3.org/2000/svg" width="31" height="21" viewBox="0 0 31 21" fill="none">
  <path d="M9.23213 6.24683C9.23213 6.53228 9.11873 6.80605 8.91688 7.0079C8.71503 7.20975 8.44127 7.32314 8.15581 7.32314H1.6979C1.41244 7.32314 1.13868 7.20975 0.936828 7.0079C0.73498 6.80605 0.621582 6.53228 0.621582 6.24683C0.621582 5.96137 0.73498 5.6876 0.936828 5.48575C1.13868 5.28391 1.41244 5.17051 1.6979 5.17051H8.15581C8.44127 5.17051 8.71503 5.28391 8.91688 5.48575C9.11873 5.6876 9.23213 5.96137 9.23213 6.24683ZM8.15581 9.47578H1.6979C1.41244 9.47578 1.13868 9.58918 0.936828 9.79103C0.73498 9.99288 0.621582 10.2666 0.621582 10.5521C0.621582 10.8376 0.73498 11.1113 0.936828 11.3132C1.13868 11.515 1.41244 11.6284 1.6979 11.6284H8.15581C8.44127 11.6284 8.71503 11.515 8.91688 11.3132C9.11873 11.1113 9.23213 10.8376 9.23213 10.5521C9.23213 10.2666 9.11873 9.99288 8.91688 9.79103C8.71503 9.58918 8.44127 9.47578 8.15581 9.47578ZM8.15581 13.7811H1.6979C1.41244 13.7811 1.13868 13.8945 0.936828 14.0963C0.73498 14.2981 0.621582 14.5719 0.621582 14.8574C0.621582 15.1428 0.73498 15.4166 0.936828 15.6184C1.13868 15.8203 1.41244 15.9337 1.6979 15.9337H8.15581C8.44127 15.9337 8.71503 15.8203 8.91688 15.6184C9.11873 15.4166 9.23213 15.1428 9.23213 14.8574C9.23213 14.5719 9.11873 14.2981 8.91688 14.0963C8.71503 13.8945 8.44127 13.7811 8.15581 13.7811ZM8.15581 18.0863H1.6979C1.41244 18.0863 1.13868 18.1997 0.936828 18.4016C0.73498 18.6034 0.621582 18.8772 0.621582 19.1626C0.621582 19.4481 0.73498 19.7219 0.936828 19.9237C1.13868 20.1256 1.41244 20.239 1.6979 20.239H8.15581C8.44127 20.239 8.71503 20.1256 8.91688 19.9237C9.11873 19.7219 9.23213 19.4481 9.23213 19.1626C9.23213 18.8772 9.11873 18.6034 8.91688 18.4016C8.71503 18.1997 8.44127 18.0863 8.15581 18.0863ZM18.919 9.47578H12.4611C12.1756 9.47578 11.9019 9.58918 11.7 9.79103C11.4982 9.99288 11.3848 10.2666 11.3848 10.5521C11.3848 10.8376 11.4982 11.1113 11.7 11.3132C11.9019 11.515 12.1756 11.6284 12.4611 11.6284H18.919C19.2045 11.6284 19.4782 11.515 19.6801 11.3132C19.8819 11.1113 19.9953 10.8376 19.9953 10.5521C19.9953 10.2666 19.8819 9.99288 19.6801 9.79103C19.4782 9.58918 19.2045 9.47578 18.919 9.47578ZM18.919 13.7811H12.4611C12.1756 13.7811 11.9019 13.8945 11.7 14.0963C11.4982 14.2981 11.3848 14.5719 11.3848 14.8574C11.3848 15.1428 11.4982 15.4166 11.7 15.6184C11.9019 15.8203 12.1756 15.9337 12.4611 15.9337H18.919C19.2045 15.9337 19.4782 15.8203 19.6801 15.6184C19.8819 15.4166 19.9953 15.1428 19.9953 14.8574C19.9953 14.5719 19.8819 14.2981 19.6801 14.0963C19.4782 13.8945 19.2045 13.7811 18.919 13.7811ZM18.919 18.0863H12.4611C12.1756 18.0863 11.9019 18.1997 11.7 18.4016C11.4982 18.6034 11.3848 18.8772 11.3848 19.1626C11.3848 19.4481 11.4982 19.7219 11.7 19.9237C11.9019 20.1256 12.1756 20.239 12.4611 20.239H18.919C19.2045 20.239 19.4782 20.1256 19.6801 19.9237C19.8819 19.7219 19.9953 19.4481 19.9953 19.1626C19.9953 18.8772 19.8819 18.6034 19.6801 18.4016C19.4782 18.1997 19.2045 18.0863 18.919 18.0863ZM29.6822 5.17051H23.2243C22.9388 5.17051 22.665 5.28391 22.4632 5.48575C22.2613 5.6876 22.148 5.96137 22.148 6.24683C22.148 6.53228 22.2613 6.80605 22.4632 7.0079C22.665 7.20975 22.9388 7.32314 23.2243 7.32314H29.6822C29.9676 7.32314 30.2414 7.20975 30.4433 7.0079C30.6451 6.80605 30.7585 6.53228 30.7585 6.24683C30.7585 5.96137 30.6451 5.6876 30.4433 5.48575C30.2414 5.28391 29.9676 5.17051 29.6822 5.17051ZM23.2243 3.01787H29.6822C29.9676 3.01787 30.2414 2.90447 30.4433 2.70262C30.6451 2.50078 30.7585 2.22701 30.7585 1.94155C30.7585 1.6561 30.6451 1.38233 30.4433 1.18048C30.2414 0.978632 29.9676 0.865234 29.6822 0.865234H23.2243C22.9388 0.865234 22.665 0.978632 22.4632 1.18048C22.2613 1.38233 22.148 1.6561 22.148 1.94155C22.148 2.22701 22.2613 2.50078 22.4632 2.70262C22.665 2.90447 22.9388 3.01787 23.2243 3.01787ZM29.6822 9.47578H23.2243C22.9388 9.47578 22.665 9.58918 22.4632 9.79103C22.2613 9.99288 22.148 10.2666 22.148 10.5521C22.148 10.8376 22.2613 11.1113 22.4632 11.3132C22.665 11.515 22.9388 11.6284 23.2243 11.6284H29.6822C29.9676 11.6284 30.2414 11.515 30.4433 11.3132C30.6451 11.1113 30.7585 10.8376 30.7585 10.5521C30.7585 10.2666 30.6451 9.99288 30.4433 9.79103C30.2414 9.58918 29.9676 9.47578 29.6822 9.47578ZM29.6822 13.7811H23.2243C22.9388 13.7811 22.665 13.8945 22.4632 14.0963C22.2613 14.2981 22.148 14.5719 22.148 14.8574C22.148 15.1428 22.2613 15.4166 22.4632 15.6184C22.665 15.8203 22.9388 15.9337 23.2243 15.9337H29.6822C29.9676 15.9337 30.2414 15.8203 30.4433 15.6184C30.6451 15.4166 30.7585 15.1428 30.7585 14.8574C30.7585 14.5719 30.6451 14.2981 30.4433 14.0963C30.2414 13.8945 29.9676 13.7811 29.6822 13.7811ZM29.6822 18.0863H23.2243C22.9388 18.0863 22.665 18.1997 22.4632 18.4016C22.2613 18.6034 22.148 18.8772 22.148 19.1626C22.148 19.4481 22.2613 19.7219 22.4632 19.9237C22.665 20.1256 22.9388 20.239 23.2243 20.239H29.6822C29.9676 20.239 30.2414 20.1256 30.4433 19.9237C30.6451 19.7219 30.7585 19.4481 30.7585 19.1626C30.7585 18.8772 30.6451 18.6034 30.4433 18.4016C30.2414 18.1997 29.9676 18.0863 29.6822 18.0863Z" fill="white"/>
</svg>