<svg xmlns="http://www.w3.org/2000/svg" width="44" height="45" viewBox="0 0 44 45" fill="none">
  <rect y="0.0830078" width="44" height="44" rx="5" fill="white" fill-opacity="0.1"/>
  <path d="M16.2932 31.3761C16.2003 31.469 16.1266 31.5793 16.0763 31.7007C16.026 31.8221 16.0001 31.9522 16.0001 32.0836C16.0001 32.215 16.026 32.3451 16.0763 32.4665C16.1266 32.5879 16.2003 32.6982 16.2932 32.7911C16.3861 32.884 16.4964 32.9577 16.6178 33.008C16.7392 33.0582 16.8693 33.0841 17.0007 33.0841C17.1321 33.0841 17.2622 33.0582 17.3836 33.008C17.505 32.9577 17.6153 32.884 17.7082 32.7911L27.7082 22.7911C27.8012 22.6982 27.8749 22.5879 27.9252 22.4665C27.9756 22.3451 28.0015 22.215 28.0015 22.0836C28.0015 21.9521 27.9756 21.822 27.9252 21.7006C27.8749 21.5792 27.8012 21.4689 27.7082 21.3761L17.7082 11.3761C17.5205 11.1884 17.266 11.083 17.0007 11.083C16.7353 11.083 16.4808 11.1884 16.2932 11.3761C16.1055 11.5637 16.0001 11.8182 16.0001 12.0836C16.0001 12.3489 16.1055 12.6034 16.2932 12.7911L25.5869 22.0836L16.2932 31.3761Z" fill="white"/>
</svg>