<svg xmlns="http://www.w3.org/2000/svg" width="40" height="40" viewBox="0 0 40 40" fill="none">
  <rect x="0.374268" y="0.589844" width="38.7475" height="38.7475" rx="2" fill="#FFCD00"/>
  <path d="M19.2124 16.4813C18.5385 16.4813 17.8797 16.6856 17.3193 17.0682C16.759 17.4509 16.3223 17.9948 16.0644 18.6312C15.8065 19.2675 15.739 19.9678 15.8705 20.6433C16.0019 21.3189 16.3265 21.9394 16.803 22.4265C17.2795 22.9136 17.8867 23.2452 18.5477 23.3796C19.2086 23.514 19.8937 23.445 20.5164 23.1814C21.139 22.9178 21.6712 22.4715 22.0456 21.8988C22.42 21.326 22.6198 20.6527 22.6198 19.9639C22.6198 19.0403 22.2608 18.1545 21.6218 17.5013C20.9828 16.8482 20.1161 16.4813 19.2124 16.4813ZM19.2124 22.0535C18.8081 22.0535 18.4128 21.9309 18.0766 21.7013C17.7404 21.4717 17.4783 21.1454 17.3236 20.7636C17.1688 20.3817 17.1284 19.9616 17.2072 19.5563C17.2861 19.1509 17.4808 18.7786 17.7668 18.4864C18.0527 18.1941 18.417 17.9951 18.8136 17.9145C19.2101 17.8339 19.6212 17.8753 19.9948 18.0334C20.3684 18.1916 20.6877 18.4594 20.9123 18.803C21.137 19.1466 21.2569 19.5506 21.2569 19.9639C21.2569 20.5181 21.0415 21.0496 20.6581 21.4415C20.2746 21.8333 19.7546 22.0535 19.2124 22.0535ZM25.4914 22.6751C25.1986 23.3826 24.7934 24.0357 24.292 24.608C24.1706 24.7422 24.0024 24.8223 23.8238 24.831C23.6451 24.8396 23.4703 24.7761 23.337 24.6542C23.2037 24.5323 23.1227 24.3617 23.1114 24.1792C23.1001 23.9968 23.1594 23.8171 23.2766 23.679C24.1714 22.6578 24.6662 21.3352 24.6662 19.9644C24.6662 18.5935 24.1714 17.2709 23.2766 16.2497C23.2152 16.1818 23.1677 16.1022 23.1368 16.0154C23.1058 15.9286 23.0921 15.8363 23.0964 15.744C23.1006 15.6517 23.1228 15.5612 23.1617 15.4778C23.2005 15.3943 23.2552 15.3196 23.3226 15.258C23.3899 15.1964 23.4686 15.149 23.554 15.1188C23.6395 15.0886 23.7299 15.076 23.8201 15.0818C23.9104 15.0877 23.9986 15.1118 24.0796 15.1528C24.1606 15.1938 24.2328 15.2509 24.292 15.3207C25.1525 16.3049 25.722 17.5184 25.9343 18.8203C26.1467 20.1222 25.9931 21.4589 25.4914 22.6751ZM14.1865 17.7951C13.7844 18.768 13.6611 19.8376 13.8309 20.8793C14.0007 21.921 14.4567 22.892 15.1457 23.679C15.2628 23.8171 15.3221 23.9968 15.3108 24.1792C15.2995 24.3617 15.2185 24.5323 15.0852 24.6542C14.952 24.7761 14.7771 24.8396 14.5985 24.831C14.4198 24.8223 14.2516 24.7422 14.1302 24.608C13.0114 23.3316 12.3927 21.6781 12.3927 19.9644C12.3927 18.2506 13.0114 16.5971 14.1302 15.3207C14.2508 15.1827 14.42 15.0994 14.6007 15.0889C14.7814 15.0785 14.9587 15.1418 15.0937 15.265C15.2287 15.3882 15.3103 15.5611 15.3205 15.7458C15.3307 15.9305 15.2687 16.1117 15.1482 16.2497C14.7461 16.7069 14.4211 17.2291 14.1865 17.7951ZM29.4347 19.9639C29.4388 22.6993 28.3895 25.3264 26.5137 27.2774C26.4516 27.3452 26.3769 27.3997 26.2939 27.4376C26.211 27.4754 26.1215 27.496 26.0306 27.498C25.9398 27.5 25.8495 27.4834 25.765 27.4492C25.6806 27.415 25.6036 27.3639 25.5388 27.2989C25.4739 27.2339 25.4224 27.1563 25.3873 27.0706C25.3522 26.985 25.3343 26.893 25.3345 26.8001C25.3347 26.7073 25.353 26.6154 25.3884 26.5299C25.4239 26.4444 25.4757 26.367 25.5408 26.3023C27.1651 24.6109 28.0751 22.3356 28.0751 19.9657C28.0751 17.5957 27.1651 15.3204 25.5408 13.629C25.4139 13.4972 25.3433 13.3192 25.3448 13.1342C25.3462 12.9492 25.4195 12.7724 25.5485 12.6426C25.6775 12.5128 25.8517 12.4407 26.0327 12.4422C26.2137 12.4437 26.3867 12.5186 26.5137 12.6504C28.3895 14.6014 29.4388 17.2286 29.4347 19.9639ZM12.884 26.3005C12.9467 26.3658 12.9963 26.4431 13.0298 26.528C13.0634 26.6128 13.0802 26.7036 13.0794 26.7951C13.0786 26.8867 13.0602 26.9771 13.0252 27.0614C12.9902 27.1456 12.9393 27.222 12.8755 27.2861C12.8116 27.3503 12.736 27.4009 12.6529 27.4352C12.5699 27.4695 12.4811 27.4867 12.3915 27.4859C12.302 27.4851 12.2135 27.4662 12.1311 27.4305C12.0486 27.3947 11.9739 27.3427 11.9112 27.2774C10.0355 25.3258 8.98462 22.6995 8.98462 19.9639C8.98462 17.2283 10.0355 14.602 11.9112 12.6504C11.9732 12.5826 12.0479 12.5282 12.1309 12.4903C12.2138 12.4524 12.3033 12.4319 12.3942 12.4298C12.485 12.4278 12.5753 12.4444 12.6598 12.4786C12.7443 12.5128 12.8212 12.5639 12.886 12.6289C12.9509 12.6939 13.0024 12.7716 13.0375 12.8572C13.0726 12.9429 13.0905 13.0348 13.0904 13.1277C13.0902 13.2205 13.0718 13.3124 13.0364 13.3979C13.0009 13.4834 12.9491 13.5608 12.884 13.6256C11.2597 15.3169 10.3497 17.5922 10.3497 19.9622C10.3497 22.3321 11.2597 24.6074 12.884 26.2988V26.3005Z" fill="white"/>
</svg>