<svg xmlns="http://www.w3.org/2000/svg" width="40" height="40" viewBox="0 0 40 40" fill="none">
<rect x="0.374512" y="0.914062" width="38.7475" height="38.7475" rx="2" fill="white" fill-opacity="0.15"/>
<path d="M19.7482 11.6768C18.0452 11.6768 16.3805 12.1818 14.9645 13.1279C13.5485 14.074 12.4448 15.4188 11.7931 16.9922C11.1414 18.5656 10.9709 20.2969 11.3031 21.9671C11.6354 23.6374 12.4555 25.1717 13.6597 26.3759C14.8639 27.5801 16.3981 28.4002 18.0684 28.7324C19.7387 29.0646 21.47 28.8941 23.0434 28.2424C24.6167 27.5907 25.9615 26.4871 26.9077 25.0711C27.8538 23.6551 28.3588 21.9903 28.3588 20.2873C28.3564 18.0044 27.4484 15.8157 25.8342 14.2014C24.2199 12.5871 22.0312 11.6792 19.7482 11.6768ZM17.565 23.5991H21.9315C21.4869 25.1175 20.7418 26.4861 19.7482 27.564C18.7547 26.4861 18.0096 25.1175 17.565 23.5991ZM17.2644 22.2744C17.0448 20.9588 17.0448 19.6158 17.2644 18.3003H22.2321C22.4517 19.6158 22.4517 20.9588 22.2321 22.2744H17.2644ZM12.4624 20.2873C12.4618 19.6154 12.5546 18.9466 12.7381 18.3003H15.9223C15.7247 19.6176 15.7247 20.957 15.9223 22.2744H12.7381C12.5546 21.628 12.4618 20.9592 12.4624 20.2873ZM21.9315 16.9756H17.565C18.0096 15.4571 18.7547 14.0885 19.7482 13.0106C20.7418 14.0885 21.4869 15.4571 21.9315 16.9756ZM23.5741 18.3003H26.7584C27.126 19.5995 27.126 20.9752 26.7584 22.2744H23.5741C23.7717 20.957 23.7717 19.6176 23.5741 18.3003ZM26.2368 16.9756H23.3034C22.9654 15.6455 22.3977 14.3846 21.626 13.2498C22.612 13.5148 23.5315 13.9832 24.3256 14.6248C25.1197 15.2665 25.7707 16.0672 26.2368 16.9756ZM17.8705 13.2498C17.0988 14.3846 16.5311 15.6455 16.1931 16.9756H13.2597C13.7258 16.0672 14.3768 15.2665 15.1709 14.6248C15.965 13.9832 16.8845 13.5148 17.8705 13.2498ZM13.2597 23.5991H16.1931C16.5311 24.9291 17.0988 26.19 17.8705 27.3248C16.8845 27.0598 15.965 26.5914 15.1709 25.9498C14.3768 25.3081 13.7258 24.5074 13.2597 23.5991ZM21.626 27.3248C22.3977 26.19 22.9654 24.9291 23.3034 23.5991H26.2368C25.7707 24.5074 25.1197 25.3081 24.3256 25.9498C23.5315 26.5914 22.612 27.0598 21.626 27.3248Z" fill="white"/>
</svg>