<?xml version="1.0" standalone="no"?>
<!DOCTYPE svg PUBLIC "-//W3C//DTD SVG 20010904//EN"
 "http://www.w3.org/TR/2001/REC-SVG-20010904/DTD/svg10.dtd">
<svg version="1.0" xmlns="http://www.w3.org/2000/svg"
 width="64.000000pt" height="64.000000pt" viewBox="0 0 64.000000 64.000000"
 preserveAspectRatio="xMidYMid meet">

<g transform="translate(0.000000,64.000000) scale(0.100000,-0.100000)"
fill="#000000" stroke="none">
<path d="M22 617 c-21 -23 -22 -31 -22 -253 0 -291 -10 -274 169 -274 121 0
123 0 144 -26 59 -76 199 -84 270 -17 80 76 76 149 -11 260 -23 29 -37 55 -32
58 14 9 12 31 -5 48 -13 13 -13 16 0 27 23 19 19 58 -7 65 -53 15 -68 28 -68
60 0 20 -8 39 -23 53 -22 21 -32 22 -208 22 -181 0 -186 -1 -207 -23z m402
-13 c20 -20 21 -68 1 -84 -9 -7 -16 -11 -18 -9 -1 2 -7 13 -13 24 -10 18 -23
20 -167 23 l-156 3 -7 -26 c-3 -14 -3 -36 0 -50 l6 -25 148 0 c135 0 148 -2
159 -19 12 -19 9 -20 -35 -23 -43 -3 -47 -5 -50 -30 -3 -27 -2 -28 44 -28 39
0 45 -2 34 -14 -6 -8 -26 -16 -43 -18 -31 -3 -32 -5 -32 -50 0 -51 -9 -68 -27
-50 -17 17 -63 15 -79 -4 -20 -25 1 -49 45 -49 20 0 36 -4 36 -10 0 -5 3 -20
6 -32 6 -23 6 -23 -109 -23 -92 0 -119 3 -131 16 -24 23 -24 455 0 478 23 24
365 24 388 0z m-44 -82 c0 -37 -20 -42 -162 -42 l-138 0 0 30 0 30 150 0 c138
0 150 -1 150 -18z m99 -26 c7 -8 21 -12 31 -9 27 7 26 -15 -2 -44 -29 -31 -77
-31 -107 1 -24 25 -20 52 5 42 8 -3 20 1 26 9 17 18 33 19 47 1z m-119 -106
c0 -5 -11 -10 -25 -10 -14 0 -25 5 -25 10 0 6 11 10 25 10 14 0 25 -4 25 -10z
m168 -2 c-3 -8 -29 -14 -71 -16 -55 -2 -67 0 -67 13 0 12 14 15 71 15 52 0 70
-3 67 -12z m17 -80 c47 -54 75 -109 75 -145 0 -97 -126 -170 -227 -132 -40 15
-81 57 -93 95 -16 47 1 98 56 167 45 57 46 57 99 57 50 0 55 -2 90 -42z m-205
-2 c0 -2 -7 -9 -15 -16 -12 -10 -15 -10 -15 4 0 9 7 16 15 16 8 0 15 -2 15 -4z
m-87 -101 c-3 -13 -53 -20 -53 -7 0 15 13 23 35 20 11 -2 19 -7 18 -13z"/>
<path d="M81 407 c-22 -27 -2 -48 43 -45 36 3 41 6 41 28 0 21 -5 25 -36 28
-22 2 -40 -2 -48 -11z m69 -17 c0 -5 -14 -10 -31 -10 -17 0 -28 4 -24 10 3 6
17 10 31 10 13 0 24 -4 24 -10z"/>
<path d="M184 405 c-12 -29 4 -45 45 -45 44 0 55 10 46 40 -5 16 -15 20 -46
20 -26 0 -42 -5 -45 -15z m76 -15 c0 -5 -13 -10 -30 -10 -16 0 -30 5 -30 10 0
6 14 10 30 10 17 0 30 -4 30 -10z"/>
<path d="M82 313 c-15 -27 4 -53 36 -53 38 0 54 13 50 41 -2 20 -10 25 -40 27
-27 2 -39 -1 -46 -15z m68 -18 c0 -16 -45 -21 -54 -6 -8 12 4 21 31 21 14 0
23 -6 23 -15z"/>
<path d="M189 314 c-20 -24 1 -49 41 -49 40 0 61 25 41 49 -17 21 -65 21 -82
0z m61 -19 c0 -15 -43 -12 -48 3 -3 10 4 13 22 10 15 -2 26 -7 26 -13z"/>
<path d="M86 224 c-12 -12 -13 -20 -5 -35 8 -16 19 -19 47 -17 30 2 38 7 40
27 6 40 -51 57 -82 25z m62 -21 c2 -8 -6 -13 -22 -13 -26 0 -40 12 -29 24 11
11 46 2 51 -11z"/>
<path d="M431 256 c-30 -32 -24 -57 19 -77 19 -9 35 -23 35 -30 0 -21 -45 -23
-59 -3 -8 10 -15 13 -19 7 -4 -6 6 -22 22 -36 l28 -25 28 22 c36 29 30 56 -17
79 -21 10 -38 25 -38 33 0 17 41 19 58 2 6 -6 14 -9 17 -6 6 5 -37 58 -47 58
-2 0 -15 -11 -27 -24z"/>
</g>
</svg>
