<?xml version="1.0" encoding="UTF-8"?>
<!DOCTYPE svg PUBLIC "-//W3C//DTD SVG 1.1//EN" "http://www.w3.org/Graphics/SVG/1.1/DTD/svg11.dtd">
<svg xmlns="http://www.w3.org/2000/svg" version="1.1" width="64px" height="64px" style="shape-rendering:geometricPrecision; text-rendering:geometricPrecision; image-rendering:optimizeQuality; fill-rule:evenodd; clip-rule:evenodd" xmlns:xlink="http://www.w3.org/1999/xlink">
<g><path style="opacity:0.601" fill="#000000" d="M 63.5,50.5 C 63.5,51.8333 63.5,53.1667 63.5,54.5C 60.4575,56.4066 57.1242,57.7399 53.5,58.5C 52.6184,59.7598 51.6184,60.9264 50.5,62C 41.8142,62.8319 33.1475,62.6652 24.5,61.5C 23.5524,56.5649 23.219,51.5649 23.5,46.5C 15.3278,46.34 7.32779,46.0066 -0.5,45.5C -0.5,39.5 -0.5,33.5 -0.5,27.5C 9.18257,29.6662 14.0159,25.6662 14,15.5C 16.2672,14.0652 18.2672,14.3985 20,16.5C 20.9948,19.7699 21.8281,23.1033 22.5,26.5C 23.8783,22.2852 26.545,19.1185 30.5,17C 27.2276,10.1942 28.8943,4.86083 35.5,1C 40.6695,-0.294761 45.1695,0.871905 49,4.5C 50.6006,7.09417 50.7673,9.76083 49.5,12.5C 47.1786,4.30306 42.1786,1.80306 34.5,5C 32.0544,7.48627 31.3877,10.3196 32.5,13.5C 34.5917,10.8478 37.2583,10.0145 40.5,11C 45,13.5 49.5,16 54,18.5C 57.1884,29.2733 60.3551,39.9399 63.5,50.5 Z M 40.5,16.5 C 38.0846,16.6265 35.7513,16.7932 33.5,17C 35.8378,12.7784 38.1711,12.6117 40.5,16.5 Z M 16.5,17.5 C 17.2216,17.9175 17.7216,18.5842 18,19.5C 18.6667,23.5 18.6667,27.5 18,31.5C 16.9328,32.9431 15.7662,34.2764 14.5,35.5C 15.1054,37.4812 16.1054,37.8146 17.5,36.5C 18.2922,38.4648 18.9588,40.4648 19.5,42.5C 18.8291,43.9458 17.6624,44.6125 16,44.5C 13.5379,43.8405 11.0379,43.5072 8.5,43.5C 8.33432,39.1539 8.50098,34.8206 9,30.5C 14.5577,28.0432 17.0577,23.7098 16.5,17.5 Z M 42.5,18.5 C 44.7966,20.2941 46.9633,22.2941 49,24.5C 49.4999,36.1619 49.6665,47.8286 49.5,59.5C 41.8333,59.5 34.1667,59.5 26.5,59.5C 26.797,55.2325 26.4637,51.0659 25.5,47C 26.4162,46.6258 27.2496,46.1258 28,45.5C 27.2927,56.1273 32.1261,60.2939 42.5,58C 48.6982,52.6308 49.0316,46.9642 43.5,41C 38.0769,38.4214 33.4102,39.2547 29.5,43.5C 30.1949,40.9187 30.5282,38.5854 30.5,36.5C 35.1001,37.4435 39.7668,37.7768 44.5,37.5C 44.5,36.5 44.5,35.5 44.5,34.5C 25.8333,33.8333 25.8333,33.1667 44.5,32.5C 44.5,31.5 44.5,30.5 44.5,29.5C 39.9014,29.2 35.4014,29.5333 31,30.5C 29.8539,28.3562 28.3539,26.5228 26.5,25C 27.628,22.704 29.2946,20.8707 31.5,19.5C 32.9197,21.2202 34.253,23.0535 35.5,25C 40.8353,26.1667 43.1686,24.0001 42.5,18.5 Z M 50.5,20.5 C 52.2252,20.8425 52.7252,21.8425 52,23.5C 51.4867,22.4734 50.9867,21.4734 50.5,20.5 Z M 52.5,24.5 C 55.6307,33.4066 58.2973,42.5733 60.5,52C 58.6095,53.9035 56.2762,55.0702 53.5,55.5C 52.5014,45.1881 52.1681,34.8548 52.5,24.5 Z M 2.5,29.5 C 3.5,29.5 4.5,29.5 5.5,29.5C 5.5,34.5 5.5,39.5 5.5,44.5C 4.5,44.5 3.5,44.5 2.5,44.5C 2.5,39.5 2.5,34.5 2.5,29.5 Z M 20.5,34.5 C 22.6934,33.2031 25.0268,33.2031 27.5,34.5C 25.1413,35.7143 22.808,35.7143 20.5,34.5 Z M 21.5,37.5 C 23.7505,37.1814 25.7505,37.6814 27.5,39C 26.5,39.1667 25.5,39.3333 24.5,39.5C 22.9704,39.3601 21.9704,38.6935 21.5,37.5 Z M 36.5,50.5 C 32.807,51.2471 32.807,52.5804 36.5,54.5C 33.334,54.5287 31.334,52.6954 30.5,49C 31.334,45.3046 33.334,43.4713 36.5,43.5C 32.648,46.0911 32.648,48.4244 36.5,50.5 Z M 39.5,42.5 C 43.9256,44.3592 45.4256,47.6925 44,52.5C 39.7819,56.6071 38.9486,56.1071 41.5,51C 41.2451,49.6739 40.5784,48.6739 39.5,48C 40.428,47.6121 41.0946,46.9454 41.5,46C 40.5705,44.9231 39.9038,43.7564 39.5,42.5 Z"/></g>
</svg>
