<?xml version="1.0" standalone="no"?>
<!DOCTYPE svg PUBLIC "-//W3C//DTD SVG 20010904//EN"
 "http://www.w3.org/TR/2001/REC-SVG-20010904/DTD/svg10.dtd">
<svg version="1.0" xmlns="http://www.w3.org/2000/svg"
 width="64.000000pt" height="64.000000pt" viewBox="0 0 64.000000 64.000000"
 preserveAspectRatio="xMidYMid meet">

<g transform="translate(0.000000,64.000000) scale(0.100000,-0.100000)"
fill="#000000" stroke="none">
<path d="M204 604 c-18 -19 -40 -34 -47 -34 -22 0 -47 -34 -47 -63 0 -15 -9
-43 -19 -63 -16 -28 -17 -42 -9 -65 5 -16 14 -32 19 -35 5 -3 9 -21 9 -40 0
-33 22 -66 51 -76 10 -3 2 -24 -29 -75 -48 -82 -52 -97 -19 -88 12 4 30 9 39
11 13 4 20 -5 28 -35 6 -23 14 -41 18 -41 4 0 31 41 60 90 29 50 57 90 62 90
5 0 33 -40 62 -90 29 -49 56 -90 60 -90 4 0 12 18 18 41 9 33 15 39 31 35 10
-4 28 -9 39 -12 29 -8 25 9 -22 89 -31 51 -39 72 -29 75 29 10 51 43 51 76 0
19 4 37 9 40 5 3 14 19 19 35 8 23 7 37 -9 65 -10 20 -19 49 -19 64 0 29 -26
62 -49 62 -7 0 -26 14 -43 32 -29 31 -33 32 -115 34 -84 1 -85 1 -119 -32z
m218 -14 c14 -14 39 -33 56 -42 25 -13 32 -24 32 -47 0 -16 9 -45 20 -63 20
-34 20 -34 0 -71 -11 -20 -20 -51 -20 -67 0 -25 -6 -33 -32 -45 -18 -7 -43
-24 -56 -38 -21 -22 -31 -24 -102 -24 -71 0 -81 2 -102 24 -13 14 -38 31 -55
38 -27 12 -33 20 -33 45 0 16 -9 46 -19 66 -20 36 -20 37 0 75 10 21 19 50 19
64 0 19 9 31 32 43 18 9 43 29 56 43 22 24 30 26 102 25 70 -1 81 -4 102 -26z
m-169 -420 c24 0 21 -12 -17 -75 l-34 -57 -7 32 c-7 30 -9 32 -42 27 l-34 -6
22 37 c13 20 29 47 37 60 l15 23 22 -21 c12 -11 29 -20 38 -20z m245 -41 l22
-38 -34 6 c-32 5 -34 3 -41 -27 l-7 -32 -34 57 c-39 64 -41 75 -16 75 11 0 27
9 38 21 l19 21 15 -23 c8 -12 25 -39 38 -60z"/>
<path d="M247 528 c-49 -29 -82 -94 -72 -145 14 -76 70 -123 147 -123 58 0
104 30 128 83 25 53 25 71 0 122 -38 78 -128 106 -203 63z m126 -12 c56 -23
87 -92 67 -152 -38 -113 -202 -113 -240 0 -19 59 10 128 65 152 39 17 68 17
108 0z"/>
<path d="M330 415 c-26 -27 -37 -32 -47 -23 -7 6 -16 8 -20 5 -8 -8 16 -37 31
-37 13 0 86 71 86 83 0 15 -18 5 -50 -28z"/>
</g>
</svg>
