<?xml version="1.0" standalone="no"?>
<!DOCTYPE svg PUBLIC "-//W3C//DTD SVG 20010904//EN"
 "http://www.w3.org/TR/2001/REC-SVG-20010904/DTD/svg10.dtd">
<svg version="1.0" xmlns="http://www.w3.org/2000/svg"
 width="64.000000pt" height="64.000000pt" viewBox="0 0 64.000000 64.000000"
 preserveAspectRatio="xMidYMid meet">

<g transform="translate(0.000000,64.000000) scale(0.100000,-0.100000)"
fill="#000000" stroke="none">
<path d="M307 634 c-4 -4 -7 -58 -7 -119 l0 -111 -139 -38 c-158 -43 -171 -50
-154 -67 10 -10 21 -10 48 -2 19 6 35 8 35 5 0 -4 -20 -41 -45 -82 -50 -84
-53 -101 -25 -148 52 -85 167 -94 228 -18 41 53 39 77 -22 178 -30 51 -54 94
-52 96 5 4 280 81 282 79 2 -1 -20 -39 -48 -85 -55 -92 -57 -118 -12 -172 63
-74 183 -58 229 30 25 49 25 51 -76 217 l-20 31 56 16 c54 16 69 31 41 42 -8
3 -72 -11 -142 -30 -70 -20 -131 -36 -136 -36 -4 0 -9 48 -10 107 -3 98 -11
127 -31 107z m273 -366 c0 -5 -36 -8 -80 -8 -44 0 -80 2 -80 5 0 5 22 41 67
114 15 23 15 23 54 -40 21 -35 38 -67 39 -71z m-396 -39 c20 -33 36 -62 36
-65 0 -2 -36 -4 -80 -4 -44 0 -80 3 -80 6 0 12 75 132 81 128 4 -2 23 -31 43
-65z m409 -29 c-8 -30 -56 -60 -95 -60 -36 0 -69 22 -87 58 l-12 22 100 0 c95
0 99 -1 94 -20z m-364 -102 c-18 -37 -51 -58 -90 -58 -40 0 -84 28 -92 60 -5
19 -1 20 94 20 l100 0 -12 -22z"/>
</g>
</svg>
