<?xml version="1.0" standalone="no"?>
<!DOCTYPE svg PUBLIC "-//W3C//DTD SVG 20010904//EN"
 "http://www.w3.org/TR/2001/REC-SVG-20010904/DTD/svg10.dtd">
<svg version="1.0" xmlns="http://www.w3.org/2000/svg"
 width="64.000000pt" height="64.000000pt" viewBox="0 0 64.000000 64.000000"
 preserveAspectRatio="xMidYMid meet">

<g transform="translate(0.000000,64.000000) scale(0.100000,-0.100000)"
fill="#000000" stroke="none">
<path d="M64 627 c-2 -7 -3 -120 -2 -252 l3 -240 108 -3 c69 -2 107 1 107 8 0
6 -38 10 -100 10 l-100 0 0 235 0 235 190 0 190 0 2 -170 c2 -105 7 -170 13
-170 14 0 18 300 5 334 l-10 26 -200 0 c-153 0 -202 -3 -206 -13z"/>
<path d="M130 520 c-14 -26 3 -60 30 -60 19 0 50 25 50 41 0 15 -17 10 -24 -6
-3 -8 -12 -15 -20 -15 -23 0 -31 22 -13 35 21 15 22 25 2 25 -8 0 -19 -9 -25
-20z"/>
<path d="M235 520 c3 -5 35 -10 70 -10 35 0 67 5 70 10 4 6 -22 10 -70 10 -48
0 -74 -4 -70 -10z"/>
<path d="M230 480 c0 -6 38 -10 95 -10 57 0 95 4 95 10 0 6 -38 10 -95 10 -57
0 -95 -4 -95 -10z"/>
<path d="M139 411 c-19 -16 -22 -23 -13 -37 21 -35 42 -40 66 -17 26 26 17 44
-10 20 -14 -13 -21 -14 -30 -5 -9 9 -8 16 5 30 23 26 10 32 -18 9z"/>
<path d="M235 410 c-4 -6 12 -10 39 -10 25 0 46 5 46 10 0 6 -18 10 -39 10
-22 0 -43 -4 -46 -10z"/>
<path d="M367 409 c-14 -8 -17 -24 -17 -81 0 -60 -4 -74 -25 -100 -29 -34 -30
-52 -10 -128 20 -78 49 -100 130 -100 116 0 137 24 133 145 l-3 79 -77 14 -78
14 0 74 c0 60 -3 75 -18 83 -11 6 -24 6 -35 0z m33 -114 c0 -52 4 -97 10 -100
6 -3 10 3 10 14 0 12 7 21 15 21 8 0 15 -9 15 -19 0 -27 17 -35 23 -11 8 30
35 25 40 -7 4 -27 4 -27 12 -5 4 12 14 22 21 22 11 0 14 -18 14 -75 0 -101
-13 -115 -110 -115 -86 0 -103 15 -120 107 -11 57 -11 67 4 81 15 15 16 15 16
-6 0 -12 5 -22 10 -22 6 0 10 41 10 103 0 57 3 107 6 110 17 17 24 -12 24 -98z"/>
<path d="M230 360 c0 -5 20 -10 45 -10 25 0 45 5 45 10 0 6 -20 10 -45 10 -25
0 -45 -4 -45 -10z"/>
<path d="M135 294 c-20 -21 -16 -43 11 -61 19 -12 24 -11 44 5 14 11 20 24 16
31 -6 9 -11 8 -21 -5 -15 -21 -47 -12 -39 11 3 8 10 15 15 15 5 0 9 5 9 10 0
15 -17 12 -35 -6z"/>
<path d="M230 290 c0 -5 20 -10 45 -10 25 0 45 5 45 10 0 6 -20 10 -45 10 -25
0 -45 -4 -45 -10z"/>
<path d="M235 250 c-4 -6 8 -10 30 -10 22 0 34 4 30 10 -3 6 -17 10 -30 10
-13 0 -27 -4 -30 -10z"/>
</g>
</svg>
