<?xml version="1.0" encoding="UTF-8"?>
<!DOCTYPE svg PUBLIC "-//W3C//DTD SVG 1.1//EN" "http://www.w3.org/Graphics/SVG/1.1/DTD/svg11.dtd">
<svg xmlns="http://www.w3.org/2000/svg" version="1.1" width="800px" height="800px" style="shape-rendering:geometricPrecision; text-rendering:geometricPrecision; image-rendering:optimizeQuality; fill-rule:evenodd; clip-rule:evenodd" xmlns:xlink="http://www.w3.org/1999/xlink">
<g><path style="opacity:0.997" fill="#959595" d="M 373.5,-0.5 C 391.167,-0.5 408.833,-0.5 426.5,-0.5C 550.806,10.4486 650.306,65.4486 725,164.5C 767.087,223.587 791.92,289.254 799.5,361.5C 799.5,387.167 799.5,412.833 799.5,438.5C 784.046,565.966 723.379,665.466 617.5,737C 562.073,772.087 501.739,792.92 436.5,799.5C 412.167,799.5 387.833,799.5 363.5,799.5C 235.2,784.628 135.033,723.961 63,617.5C 25.4981,558.161 4.33141,493.495 -0.5,423.5C -0.5,407.833 -0.5,392.167 -0.5,376.5C 10.1095,249.746 66.1095,148.58 167.5,73C 229.363,29.5746 298.03,5.07459 373.5,-0.5 Z"/></g>
<g><path style="opacity:1" fill="#fefefe" d="M 345.5,323.5 C 384.603,320.291 412.436,336.291 429,371.5C 440.142,407.06 431.642,436.893 403.5,461C 381.287,475.924 357.287,479.59 331.5,472C 295.997,456.51 279.164,429.343 281,390.5C 287.79,353.878 309.29,331.545 345.5,323.5 Z"/></g>
<g><path style="opacity:1" fill="#fefefe" d="M 192.5,342.5 C 222.464,339.393 244.297,351.06 258,377.5C 266.719,403.246 261.219,425.413 241.5,444C 227.04,455.229 210.707,459.229 192.5,456C 168.592,449.758 153.758,434.591 148,410.5C 144.167,383.673 153.667,363.173 176.5,349C 181.819,346.497 187.152,344.331 192.5,342.5 Z"/></g>
<g><path style="opacity:1" fill="#fefefe" d="M 80.5,361.5 C 104.992,358.86 120.826,369.194 128,392.5C 129.793,415.088 119.96,429.921 98.5,437C 74.3478,440.008 58.8478,429.841 52,406.5C 50.3392,384.345 59.8392,369.345 80.5,361.5 Z"/></g>
<g><path style="opacity:1" fill="#fcfcfc" d="M 711.5,371.5 C 729.352,368.926 741.519,375.926 748,392.5C 750.614,410.106 743.448,421.606 726.5,427C 701.818,429.314 689.651,418.147 690,393.5C 693.35,382.318 700.517,374.984 711.5,371.5 Z"/></g>
<g><path style="opacity:1" fill="#dfdfdf" d="M 562.5,373.5 C 566.298,372.517 570.298,372.183 574.5,372.5C 574.795,374.735 574.461,376.735 573.5,378.5C 573.5,376.833 573.5,375.167 573.5,373.5C 569.833,373.5 566.167,373.5 562.5,373.5 Z"/></g>
<g><path style="opacity:1" fill="#fdfdfd" d="M 507.5,373.5 C 514.22,375.387 518.387,379.72 520,386.5C 520.667,395.5 520.667,404.5 520,413.5C 518.362,419.809 514.529,424.309 508.5,427C 500.5,427.667 492.5,427.667 484.5,427C 474.012,422.58 470.179,414.746 473,403.5C 475.562,397.939 479.728,394.106 485.5,392C 493.159,391.5 500.826,391.334 508.5,391.5C 508.899,386.944 506.899,384.278 502.5,383.5C 494.35,382.507 486.017,382.174 477.5,382.5C 477.5,379.5 477.5,376.5 477.5,373.5C 487.5,373.5 497.5,373.5 507.5,373.5 Z"/></g>
<g><path style="opacity:1" fill="#fcfcfc" d="M 529.5,373.5 C 533.167,373.5 536.833,373.5 540.5,373.5C 540.5,380.167 540.5,386.833 540.5,393.5C 543.059,393.802 545.393,393.468 547.5,392.5C 557.279,390.044 562.279,383.71 562.5,373.5C 566.167,373.5 569.833,373.5 573.5,373.5C 573.5,375.167 573.5,376.833 573.5,378.5C 572.967,386.901 569.3,393.567 562.5,398.5C 571.678,405.527 576.012,414.86 575.5,426.5C 571.5,426.5 567.5,426.5 563.5,426.5C 564.822,415.316 560.155,407.816 549.5,404C 546.854,403.503 544.187,403.336 541.5,403.5C 541.5,411.167 541.5,418.833 541.5,426.5C 537.5,426.5 533.5,426.5 529.5,426.5C 529.5,408.833 529.5,391.167 529.5,373.5 Z"/></g>
<g><path style="opacity:1" fill="#d0d0d0" d="M 529.5,373.5 C 533.298,372.517 537.298,372.183 541.5,372.5C 541.5,379.167 541.5,385.833 541.5,392.5C 543.5,392.5 545.5,392.5 547.5,392.5C 545.393,393.468 543.059,393.802 540.5,393.5C 540.5,386.833 540.5,380.167 540.5,373.5C 536.833,373.5 533.167,373.5 529.5,373.5 Z"/></g>
<g><path style="opacity:1" fill="#fbfbfb" d="M 585.5,372.5 C 623.698,365.864 637.531,381.198 627,418.5C 624.404,422.39 620.904,425.223 616.5,427C 608.5,427.667 600.5,427.667 592.5,427C 580.157,420.306 577.323,410.806 584,398.5C 586.559,395.469 589.726,393.302 593.5,392C 601.493,391.5 609.493,391.334 617.5,391.5C 617.358,388.383 616.024,385.883 613.5,384C 604.173,383.5 594.839,383.334 585.5,383.5C 585.5,379.833 585.5,376.167 585.5,372.5 Z"/></g>
<g><path style="opacity:1" fill="#fcfcfc" d="M 637.5,372.5 C 646.506,372.334 655.506,372.5 664.5,373C 684.426,381.698 689.593,395.865 680,415.5C 675.873,421.148 670.373,424.648 663.5,426C 654.84,426.5 646.173,426.666 637.5,426.5C 637.5,408.5 637.5,390.5 637.5,372.5 Z"/></g>
<g><path style="opacity:1" fill="#d1d1d1" d="M 507.5,373.5 C 497.5,373.5 487.5,373.5 477.5,373.5C 477.5,376.5 477.5,379.5 477.5,382.5C 486.017,382.174 494.35,382.507 502.5,383.5C 493.833,383.5 485.167,383.5 476.5,383.5C 476.5,379.833 476.5,376.167 476.5,372.5C 487.014,372.172 497.347,372.506 507.5,373.5 Z"/></g>
<g><path style="opacity:1" fill="#969696" d="M 715.5,381.5 C 733.936,382.764 740.102,392.097 734,409.5C 725.284,419.341 715.951,420.008 706,411.5C 697.973,397.899 701.14,387.899 715.5,381.5 Z"/></g>
<g><path style="opacity:1" fill="#969696" d="M 649.5,383.5 C 663.024,380.91 671.024,386.243 673.5,399.5C 671.024,412.757 663.024,418.09 649.5,415.5C 649.5,404.833 649.5,394.167 649.5,383.5 Z"/></g>
<g><path style="opacity:1" fill="#979797" d="M 487.5,402.5 C 494.5,402.5 501.5,402.5 508.5,402.5C 510.972,413.187 506.805,418.187 496,417.5C 490.759,418.575 486.759,416.908 484,412.5C 483.182,408.469 484.349,405.136 487.5,402.5 Z"/></g>
<g><path style="opacity:1" fill="#979797" d="M 596.5,402.5 C 603.5,402.5 610.5,402.5 617.5,402.5C 619.102,412.888 614.768,417.888 604.5,417.5C 595.338,418.506 591.505,414.506 593,405.5C 594.145,404.364 595.312,403.364 596.5,402.5 Z"/></g>
<g><path style="opacity:1" fill="#dfdfdf" d="M 529.5,438.5 C 537.984,437.507 546.651,437.174 555.5,437.5C 555.795,439.735 555.461,441.735 554.5,443.5C 554.5,441.833 554.5,440.167 554.5,438.5C 546.167,438.5 537.833,438.5 529.5,438.5 Z"/></g>
<g><path style="opacity:1" fill="#f8f8f8" d="M 565.5,436.5 C 569.514,436.334 573.514,436.501 577.5,437C 583.795,439.425 585.962,443.925 584,450.5C 583.215,452.286 582.049,453.786 580.5,455C 575.245,456.069 569.911,456.903 564.5,457.5C 565.313,458.814 566.313,459.981 567.5,461C 571.486,461.499 575.486,461.666 579.5,461.5C 579.5,463.5 579.5,465.5 579.5,467.5C 561.171,470.337 554.005,462.67 558,444.5C 559.69,440.979 562.19,438.312 565.5,436.5 Z"/></g>
<g><path style="opacity:1" fill="#f9f9f9" d="M 626.5,436.5 C 633.956,434.943 640.123,436.943 645,442.5C 646.325,448.343 644.492,452.843 639.5,456C 634.845,456.499 630.179,456.666 625.5,456.5C 625.297,458.39 625.963,459.89 627.5,461C 631.821,461.499 636.154,461.666 640.5,461.5C 640.5,463.5 640.5,465.5 640.5,467.5C 621.691,470.184 614.524,462.184 619,443.5C 620.742,440.254 623.242,437.921 626.5,436.5 Z"/></g>
<g><path style="opacity:1" fill="#e3e3e3" d="M 650.5,437.5 C 650.5,447.167 650.5,456.833 650.5,466.5C 652.167,466.5 653.833,466.5 655.5,466.5C 655.185,462.629 655.518,458.962 656.5,455.5C 656.5,459.5 656.5,463.5 656.5,467.5C 654.167,467.5 651.833,467.5 649.5,467.5C 649.173,457.319 649.506,447.319 650.5,437.5 Z"/></g>
<g><path style="opacity:1" fill="#fafafa" d="M 650.5,437.5 C 652.5,437.5 654.5,437.5 656.5,437.5C 656.5,441.167 656.5,444.833 656.5,448.5C 663.816,448.517 667.483,444.851 667.5,437.5C 669.833,437.5 672.167,437.5 674.5,437.5C 674.635,443.098 672.635,447.765 668.5,451.5C 673.3,455.77 675.3,461.103 674.5,467.5C 672.5,467.5 670.5,467.5 668.5,467.5C 668.452,459.452 664.452,455.452 656.5,455.5C 655.518,458.962 655.185,462.629 655.5,466.5C 653.833,466.5 652.167,466.5 650.5,466.5C 650.5,456.833 650.5,447.167 650.5,437.5 Z"/></g>
<g><path style="opacity:1" fill="#fafafa" d="M 689.5,436.5 C 703.384,436.215 709.884,442.882 709,456.5C 704.651,466.301 697.151,469.801 686.5,467C 678.421,462.446 675.587,455.613 678,446.5C 680.566,441.645 684.399,438.311 689.5,436.5 Z"/></g>
<g><path style="opacity:1" fill="#fefffe" d="M 529.5,438.5 C 537.833,438.5 546.167,438.5 554.5,438.5C 554.5,440.167 554.5,441.833 554.5,443.5C 551.5,443.5 548.5,443.5 545.5,443.5C 545.5,451.167 545.5,458.833 545.5,466.5C 543.5,466.5 541.5,466.5 539.5,466.5C 539.825,458.648 539.492,450.982 538.5,443.5C 535.5,443.5 532.5,443.5 529.5,443.5C 529.5,441.833 529.5,440.167 529.5,438.5 Z"/></g>
<g><path style="opacity:1" fill="#fbfbfb" d="M 598.5,438.5 C 603.167,438.5 607.833,438.5 612.5,438.5C 612.5,448.167 612.5,457.833 612.5,467.5C 610.5,467.5 608.5,467.5 606.5,467.5C 606.5,459.5 606.5,451.5 606.5,443.5C 602.197,442.796 598.697,444.13 596,447.5C 594.58,454.05 594.08,460.716 594.5,467.5C 592.167,467.5 589.833,467.5 587.5,467.5C 587.334,461.491 587.501,455.491 588,449.5C 589.678,443.991 593.178,440.324 598.5,438.5 Z"/></g>
<g><path style="opacity:1" fill="#cfcfcf" d="M 598.5,438.5 C 603.305,437.513 608.305,437.179 613.5,437.5C 613.827,447.681 613.494,457.681 612.5,467.5C 612.5,457.833 612.5,448.167 612.5,438.5C 607.833,438.5 603.167,438.5 598.5,438.5 Z"/></g>
<g><path style="opacity:1" fill="#e3e3e3" d="M 719.5,438.5 C 717.5,438.5 715.5,438.5 713.5,438.5C 713.5,447.833 713.5,457.167 713.5,466.5C 715.5,466.5 717.5,466.5 719.5,466.5C 717.393,467.468 715.059,467.802 712.5,467.5C 712.5,457.5 712.5,447.5 712.5,437.5C 715.059,437.198 717.393,437.532 719.5,438.5 Z"/></g>
<g><path style="opacity:1" fill="#fdfdfd" d="M 719.5,438.5 C 722.143,442.435 724.81,446.435 727.5,450.5C 730.177,446.471 732.844,442.471 735.5,438.5C 737.5,438.5 739.5,438.5 741.5,438.5C 741.5,447.833 741.5,457.167 741.5,466.5C 739.833,466.5 738.167,466.5 736.5,466.5C 736.828,461.125 736.495,455.792 735.5,450.5C 734.893,450.624 734.56,450.957 734.5,451.5C 733.347,453.807 732.18,456.14 731,458.5C 729.267,460.602 727.267,460.935 725,459.5C 723.333,456.5 721.667,453.5 720,450.5C 719.501,455.823 719.334,461.156 719.5,466.5C 717.5,466.5 715.5,466.5 713.5,466.5C 713.5,457.167 713.5,447.833 713.5,438.5C 715.5,438.5 717.5,438.5 719.5,438.5 Z"/></g>
<g><path style="opacity:1" fill="#e2e2e2" d="M 735.5,438.5 C 737.607,437.532 739.941,437.198 742.5,437.5C 742.5,447.5 742.5,457.5 742.5,467.5C 740.167,467.5 737.833,467.5 735.5,467.5C 735.821,461.974 735.488,456.64 734.5,451.5C 734.56,450.957 734.893,450.624 735.5,450.5C 736.495,455.792 736.828,461.125 736.5,466.5C 738.167,466.5 739.833,466.5 741.5,466.5C 741.5,457.167 741.5,447.833 741.5,438.5C 739.5,438.5 737.5,438.5 735.5,438.5 Z"/></g>
<g><path style="opacity:1" fill="#e3e3e3" d="M 538.5,443.5 C 539.492,450.982 539.825,458.648 539.5,466.5C 541.5,466.5 543.5,466.5 545.5,466.5C 543.393,467.468 541.059,467.802 538.5,467.5C 538.5,459.5 538.5,451.5 538.5,443.5 Z"/></g>
<g><path style="opacity:1" fill="#9a9a9a" d="M 566.5,443.5 C 570.226,443.177 573.893,443.511 577.5,444.5C 578.953,446.644 578.62,448.477 576.5,450C 572.514,450.499 568.514,450.666 564.5,450.5C 564.166,447.812 564.832,445.479 566.5,443.5 Z"/></g>
<g><path style="opacity:1" fill="#9a9a9a" d="M 626.5,443.5 C 630.182,443.335 633.848,443.501 637.5,444C 638.935,446.267 638.602,448.267 636.5,450C 632.514,450.499 628.514,450.666 624.5,450.5C 624.394,447.921 625.061,445.588 626.5,443.5 Z"/></g>
<g><path style="opacity:1" fill="#979797" d="M 688.5,443.5 C 697.995,442.17 702.495,446.17 702,455.5C 697.737,462.157 692.403,463.157 686,458.5C 682.253,452.734 683.087,447.734 688.5,443.5 Z"/></g>
</svg>
