<?xml version="1.0" encoding="UTF-8"?>
<!DOCTYPE svg PUBLIC "-//W3C//DTD SVG 1.1//EN" "http://www.w3.org/Graphics/SVG/1.1/DTD/svg11.dtd">
<svg xmlns="http://www.w3.org/2000/svg" version="1.1" width="271px" height="271px" style="shape-rendering:geometricPrecision; text-rendering:geometricPrecision; image-rendering:optimizeQuality; fill-rule:evenodd; clip-rule:evenodd" xmlns:xlink="http://www.w3.org/1999/xlink">
<g><path style="opacity:1" fill="#707070" d="M 248.5,118.5 C 249.643,140.357 239.309,151.023 217.5,150.5C 213.043,149.939 209.043,148.272 205.5,145.5C 203.15,146.861 200.816,148.194 198.5,149.5C 197.199,148.118 196.366,146.452 196,144.5C 194.371,147.175 192.037,149.842 189,152.5C 187.482,152.943 186.315,152.276 185.5,150.5C 185.167,151.167 184.833,151.833 184.5,152.5C 183.614,151.675 183.281,150.675 183.5,149.5C 186.999,149.741 187.332,148.908 184.5,147C 185.056,146.617 185.389,146.117 185.5,145.5C 189.979,142.757 194.312,139.757 198.5,136.5C 192.258,119.058 197.592,106.558 214.5,99C 231.348,95.9229 242.681,102.423 248.5,118.5 Z"/></g>
<g><path style="opacity:1" fill="#727272" d="M 185.5,145.5 C 185.389,146.117 185.056,146.617 184.5,147C 187.332,148.908 186.999,149.741 183.5,149.5C 183.281,150.675 183.614,151.675 184.5,152.5C 184.833,151.833 185.167,151.167 185.5,150.5C 186.315,152.276 187.482,152.943 189,152.5C 192.037,149.842 194.371,147.175 196,144.5C 196.366,146.452 197.199,148.118 198.5,149.5C 153.041,178.575 108.374,177.242 64.5,145.5C 60.1856,147.828 55.8523,149.828 51.5,151.5C 35.1704,152.004 25.0038,144.337 21,128.5C 20.2446,124.745 20.4113,121.078 21.5,117.5C 29.5738,98.863 42.9072,93.6964 61.5,102C 67.1485,105.787 70.9818,110.954 73,117.5C 73.7034,124.296 73.3701,130.963 72,137.5C 108.257,162.437 146.091,165.104 185.5,145.5 Z"/></g>
<g><path style="opacity:1" fill="#e1e1e1" d="M 21.5,117.5 C 20.4113,121.078 20.2446,124.745 21,128.5C 25.0038,144.337 35.1704,152.004 51.5,151.5C 46.2809,166.622 35.6142,172.788 19.5,170C 9.64981,166.649 2.98314,160.149 -0.5,150.5C -0.5,146.167 -0.5,141.833 -0.5,137.5C 3.31003,127.026 10.6434,120.359 21.5,117.5 Z"/></g>
<g><path style="opacity:1" fill="#e1e1e1" d="M 270.5,140.5 C 270.5,142.833 270.5,145.167 270.5,147.5C 265.121,165.744 253.287,173.411 235,170.5C 226.09,166.43 220.257,159.763 217.5,150.5C 239.309,151.023 249.643,140.357 248.5,118.5C 260.659,120.658 267.992,127.991 270.5,140.5 Z"/></g>
</svg>
