<?xml version="1.0" encoding="UTF-8"?>
<!DOCTYPE svg PUBLIC "-//W3C//DTD SVG 1.1//EN" "http://www.w3.org/Graphics/SVG/1.1/DTD/svg11.dtd">
<svg xmlns="http://www.w3.org/2000/svg" version="1.1" width="150px" height="150px" style="shape-rendering:geometricPrecision; text-rendering:geometricPrecision; image-rendering:optimizeQuality; fill-rule:evenodd; clip-rule:evenodd" xmlns:xlink="http://www.w3.org/1999/xlink">
<g><path style="opacity:1" fill="#4b4b4b" d="M 64.5,0.5 C 68.5138,0.334485 72.5138,0.501152 76.5,1C 79.0254,1.42381 81.0254,2.59047 82.5,4.5C 53.0124,2.99432 30.1791,14.661 14,39.5C 12.2589,42.3093 11.0922,45.3093 10.5,48.5C 9.66175,48.1583 9.32842,47.4916 9.5,46.5C 9.34243,43.0977 9.67577,39.7644 10.5,36.5C 16.5484,29.9486 22.8817,23.4486 29.5,17C 33.3268,14.6625 36.9934,12.1625 40.5,9.5C 47.0514,7.77297 53.0514,5.10631 58.5,1.5C 60.2646,0.538616 62.2646,0.205283 64.5,0.5 Z"/></g>
<g><path style="opacity:1" fill="#3d3d3d" d="M 82.5,4.5 C 84.1042,5.28696 84.7709,6.6203 84.5,8.5C 50.3903,5.54384 26.3903,19.5438 12.5,50.5C 11.5,50.1667 10.8333,49.5 10.5,48.5C 11.0922,45.3093 12.2589,42.3093 14,39.5C 30.1791,14.661 53.0124,2.99432 82.5,4.5 Z"/></g>
<g><path style="opacity:1" fill="#2f2f2f" d="M 84.5,8.5 C 84.7947,10.7354 84.4614,12.7354 83.5,14.5C 52.8788,11.6481 30.8788,24.1481 17.5,52C 19.1341,52.4935 20.8008,52.6602 22.5,52.5C 24.5,52.5 26.5,52.5 28.5,52.5C 26.0521,53.4731 23.3854,53.8064 20.5,53.5C 17.3511,53.5848 14.6845,52.5848 12.5,50.5C 26.3903,19.5438 50.3903,5.54384 84.5,8.5 Z"/></g>
<g><path style="opacity:1" fill="#cbcbcb" d="M 64.5,0.5 C 64.5,0.166667 64.5,-0.166667 64.5,-0.5C 70.5,-0.5 76.5,-0.5 82.5,-0.5C 93.4427,1.37032 103.776,5.03699 113.5,10.5C 112.913,12.6848 113.913,14.3515 116.5,15.5C 116.328,16.4916 116.662,17.1583 117.5,17.5C 117.5,20.8333 117.5,24.1667 117.5,27.5C 117.5,28.1667 117.5,28.8333 117.5,29.5C 116.89,30.391 116.557,31.391 116.5,32.5C 115.85,32.8039 115.183,33.1373 114.5,33.5C 104.925,25.5515 94.5912,20.2182 83.5,17.5C 83.5,16.5 83.5,15.5 83.5,14.5C 84.4614,12.7354 84.7947,10.7354 84.5,8.5C 84.7709,6.6203 84.1042,5.28696 82.5,4.5C 81.0254,2.59047 79.0254,1.42381 76.5,1C 72.5138,0.501152 68.5138,0.334485 64.5,0.5 Z"/></g>
<g><path style="opacity:1" fill="#828282" d="M 113.5,10.5 C 116.135,11.8109 118.469,13.4776 120.5,15.5C 118.965,14.6457 117.632,14.6457 116.5,15.5C 113.913,14.3515 112.913,12.6848 113.5,10.5 Z"/></g>
<g><path style="opacity:1" fill="#1e1e1e" d="M 83.5,14.5 C 83.5,15.5 83.5,16.5 83.5,17.5C 82.8333,18.1667 82.1667,18.8333 81.5,19.5C 54.2283,16.6411 34.5616,27.6411 22.5,52.5C 20.8008,52.6602 19.1341,52.4935 17.5,52C 30.8788,24.1481 52.8788,11.6481 83.5,14.5 Z"/></g>
<g><path style="opacity:1" fill="#6a6a6a" d="M 58.5,1.5 C 53.0514,5.10631 47.0514,7.77297 40.5,9.5C 36.9934,12.1625 33.3268,14.6625 29.5,17C 22.8817,23.4486 16.5484,29.9486 10.5,36.5C 21.0381,17.5443 37.0381,5.87764 58.5,1.5 Z"/></g>
<g><path style="opacity:1" fill="#5e5e5e" d="M 120.5,15.5 C 127.167,20.0013 132.667,25.668 137,32.5C 138.122,34.4068 138.955,36.4068 139.5,38.5C 140.619,43.6529 140.619,48.6529 139.5,53.5C 140.47,47.1341 138.97,41.4675 135,36.5C 130.037,29.3699 124.203,23.0366 117.5,17.5C 116.662,17.1583 116.328,16.4916 116.5,15.5C 117.632,14.6457 118.965,14.6457 120.5,15.5 Z"/></g>
<g><path style="opacity:1" fill="#c1c1c1" d="M 83.5,17.5 C 94.5912,20.2182 104.925,25.5515 114.5,33.5C 115.183,33.1373 115.85,32.8039 116.5,32.5C 115.833,34.1667 115.167,35.8333 114.5,37.5C 112.733,39.9384 111.399,42.605 110.5,45.5C 89.5652,71.1402 62.5652,86.1402 29.5,90.5C 24.9677,90.8182 20.6344,90.4849 16.5,89.5C 18.1992,89.6602 19.8659,89.4935 21.5,89C 20.3333,88.5 19.5,87.6667 19,86.5C 16.9405,77.0899 17.2738,67.7565 20,58.5C 20.3176,56.9391 21.1509,55.7724 22.5,55C 21.5842,54.7216 20.9175,54.2216 20.5,53.5C 23.3854,53.8064 26.0521,53.4731 28.5,52.5C 50.881,48.8222 68.5477,37.8222 81.5,19.5C 82.1667,18.8333 82.8333,18.1667 83.5,17.5 Z"/></g>
<g><path style="opacity:1" fill="#414141" d="M 117.5,17.5 C 124.203,23.0366 130.037,29.3699 135,36.5C 138.97,41.4675 140.47,47.1341 139.5,53.5C 139.768,55.099 139.434,56.4324 138.5,57.5C 136.72,49.6024 133.553,42.269 129,35.5C 125.667,31.5 122.333,27.5 119,23.5C 118.79,25.0581 118.29,26.3915 117.5,27.5C 117.5,24.1667 117.5,20.8333 117.5,17.5 Z"/></g>
<g><path style="opacity:1" fill="#313131" d="M 138.5,57.5 C 138.88,59.698 138.213,61.3646 136.5,62.5C 133.969,49.0789 127.635,38.0789 117.5,29.5C 117.5,28.8333 117.5,28.1667 117.5,27.5C 118.29,26.3915 118.79,25.0581 119,23.5C 122.333,27.5 125.667,31.5 129,35.5C 133.553,42.269 136.72,49.6024 138.5,57.5 Z"/></g>
<g><path style="opacity:1" fill="#0b0b0b" d="M 81.5,19.5 C 68.5477,37.8222 50.881,48.8222 28.5,52.5C 26.5,52.5 24.5,52.5 22.5,52.5C 34.5616,27.6411 54.2283,16.6411 81.5,19.5 Z"/></g>
<g><path style="opacity:1" fill="#202020" d="M 117.5,29.5 C 127.635,38.0789 133.969,49.0789 136.5,62.5C 135.624,66.5821 133.957,70.2488 131.5,73.5C 130.711,59.2899 125.544,46.9566 116,36.5C 115.617,37.056 115.117,37.3893 114.5,37.5C 115.167,35.8333 115.833,34.1667 116.5,32.5C 116.557,31.391 116.89,30.391 117.5,29.5 Z"/></g>
<g><path style="opacity:1" fill="#101010" d="M 131.5,73.5 C 130.89,74.391 130.557,75.391 130.5,76.5C 127.5,79.8333 124.5,83.1667 121.5,86.5C 123.045,73.9117 120.878,61.9117 115,50.5C 113.951,48.3825 112.451,46.7158 110.5,45.5C 111.399,42.605 112.733,39.9384 114.5,37.5C 115.117,37.3893 115.617,37.056 116,36.5C 125.544,46.9566 130.711,59.2899 131.5,73.5 Z"/></g>
<g><path style="opacity:1" fill="#969696" d="M 10.5,36.5 C 9.67577,39.7644 9.34243,43.0977 9.5,46.5C 8.53178,44.3926 8.19845,42.0593 8.5,39.5C 8.42702,37.9731 9.09368,36.9731 10.5,36.5 Z"/></g>
<g><path style="opacity:1" fill="#030303" d="M 110.5,45.5 C 112.451,46.7158 113.951,48.3825 115,50.5C 120.878,61.9117 123.045,73.9117 121.5,86.5C 103.115,106.362 80.4487,118.362 53.5,122.5C 50.1501,122.665 46.8168,122.498 43.5,122C 32.6954,114.384 25.0287,104.384 20.5,92C 23.6946,91.8195 26.6946,91.3195 29.5,90.5C 62.5652,86.1402 89.5652,71.1402 110.5,45.5 Z"/></g>
<g><path style="opacity:1" fill="#cccccc" d="M 8.5,39.5 C 8.19845,42.0593 8.53178,44.3926 9.5,46.5C 9.32842,47.4916 9.66175,48.1583 10.5,48.5C 10.8333,49.5 11.5,50.1667 12.5,50.5C 14.6845,52.5848 17.3511,53.5848 20.5,53.5C 20.9175,54.2216 21.5842,54.7216 22.5,55C 21.1509,55.7724 20.3176,56.9391 20,58.5C 17.2738,67.7565 16.9405,77.0899 19,86.5C 19.5,87.6667 20.3333,88.5 21.5,89C 19.8659,89.4935 18.1992,89.6602 16.5,89.5C 15.5,89.5 14.5,89.5 13.5,89.5C 12.4863,88.3263 11.153,87.6596 9.5,87.5C 7.52483,85.863 5.52483,84.1964 3.5,82.5C 2.15,79.4279 0.816668,76.4279 -0.5,73.5C -0.5,70.8333 -0.5,68.1667 -0.5,65.5C 0.963075,56.321 3.96308,47.6544 8.5,39.5 Z"/></g>
<g><path style="opacity:1" fill="#cbcbcb" d="M 139.5,38.5 C 144.836,47.5102 148.17,57.1769 149.5,67.5C 149.5,72.8333 149.5,78.1667 149.5,83.5C 149.167,83.5 148.833,83.5 148.5,83.5C 148.657,82.1266 148.49,80.7932 148,79.5C 146.125,85.627 143.958,91.627 141.5,97.5C 123.975,122.609 99.9745,137.609 69.5,142.5C 61.8261,142.666 54.1594,142.5 46.5,142C 44.2779,141.305 42.1113,140.472 40,139.5C 39.2352,139.57 38.7352,139.903 38.5,140.5C 26.5,133.167 16.8333,123.5 9.5,111.5C 13.1189,114.65 17.1189,117.316 21.5,119.5C 26.4651,121.963 31.7985,123.296 37.5,123.5C 41.9819,124.326 46.6486,124.826 51.5,125C 51.1667,125.333 50.8333,125.667 50.5,126C 79.1579,137.045 102.991,130.545 122,106.5C 128.234,97.3182 131.067,87.3182 130.5,76.5C 130.557,75.391 130.89,74.391 131.5,73.5C 133.957,70.2488 135.624,66.5821 136.5,62.5C 138.213,61.3646 138.88,59.698 138.5,57.5C 139.434,56.4324 139.768,55.099 139.5,53.5C 140.619,48.6529 140.619,43.6529 139.5,38.5 Z"/></g>
<g><path style="opacity:1" fill="#c1c1c1" d="M 130.5,76.5 C 131.067,87.3182 128.234,97.3182 122,106.5C 102.991,130.545 79.1579,137.045 50.5,126C 50.8333,125.667 51.1667,125.333 51.5,125C 46.6486,124.826 41.9819,124.326 37.5,123.5C 37.8333,123.5 38.1667,123.5 38.5,123.5C 43.6946,123.821 48.6946,123.487 53.5,122.5C 80.4487,118.362 103.115,106.362 121.5,86.5C 124.5,83.1667 127.5,79.8333 130.5,76.5 Z"/></g>
<g><path style="opacity:1" fill="#737373" d="M -0.5,73.5 C 0.816668,76.4279 2.15,79.4279 3.5,82.5C 2.85287,83.2739 2.51954,84.2739 2.5,85.5C 3.24643,88.9855 3.9131,92.4855 4.5,96C 6.85627,100.568 8.52293,105.401 9.5,110.5C 7.52594,108.572 6.02594,106.239 5,103.5C 2.6729,97.1718 0.839566,90.8384 -0.5,84.5C -0.5,80.8333 -0.5,77.1667 -0.5,73.5 Z"/></g>
<g><path style="opacity:1" fill="#484848" d="M 3.5,82.5 C 5.52483,84.1964 7.52483,85.863 9.5,87.5C 8.62356,87.3691 7.95689,87.7025 7.5,88.5C 9.60681,99.0454 14.1068,108.379 21,116.5C 21.4828,117.448 21.6495,118.448 21.5,119.5C 17.1189,117.316 13.1189,114.65 9.5,111.5C 9.5,111.167 9.5,110.833 9.5,110.5C 8.52293,105.401 6.85627,100.568 4.5,96C 3.9131,92.4855 3.24643,88.9855 2.5,85.5C 2.51954,84.2739 2.85287,83.2739 3.5,82.5 Z"/></g>
<g><path style="opacity:1" fill="#373737" d="M 9.5,87.5 C 11.153,87.6596 12.4863,88.3263 13.5,89.5C 16.3439,101.965 22.6772,112.799 32.5,122C 34.7078,122.191 36.7078,122.691 38.5,123.5C 38.1667,123.5 37.8333,123.5 37.5,123.5C 31.7985,123.296 26.4651,121.963 21.5,119.5C 21.6495,118.448 21.4828,117.448 21,116.5C 14.1068,108.379 9.60681,99.0454 7.5,88.5C 7.95689,87.7025 8.62356,87.3691 9.5,87.5 Z"/></g>
<g><path style="opacity:1" fill="#202020" d="M 13.5,89.5 C 14.5,89.5 15.5,89.5 16.5,89.5C 20.6344,90.4849 24.9677,90.8182 29.5,90.5C 26.6946,91.3195 23.6946,91.8195 20.5,92C 25.0287,104.384 32.6954,114.384 43.5,122C 46.8168,122.498 50.1501,122.665 53.5,122.5C 48.6946,123.487 43.6946,123.821 38.5,123.5C 36.7078,122.691 34.7078,122.191 32.5,122C 22.6772,112.799 16.3439,101.965 13.5,89.5 Z"/></g>
<g><path style="opacity:1" fill="#656565" d="M 148.5,83.5 C 144.795,110.03 131.128,129.53 107.5,142C 99.3704,145.61 91.0371,148.11 82.5,149.5C 77.1667,149.5 71.8333,149.5 66.5,149.5C 62.769,148.775 59.1023,147.775 55.5,146.5C 53.7226,145.4 51.7226,144.566 49.5,144C 51.8098,143.503 54.1432,143.337 56.5,143.5C 96.9705,150.764 125.637,135.597 142.5,98C 142.272,97.6012 141.938,97.4346 141.5,97.5C 143.958,91.627 146.125,85.627 148,79.5C 148.49,80.7932 148.657,82.1266 148.5,83.5 Z"/></g>
<g><path style="opacity:1" fill="#434343" d="M 141.5,97.5 C 141.938,97.4346 142.272,97.6012 142.5,98C 125.637,135.597 96.9705,150.764 56.5,143.5C 61.0323,143.818 65.3656,143.485 69.5,142.5C 99.9745,137.609 123.975,122.609 141.5,97.5 Z"/></g>
<g><path style="opacity:1" fill="#929292" d="M 38.5,140.5 C 38.7352,139.903 39.2352,139.57 40,139.5C 42.1113,140.472 44.2779,141.305 46.5,142C 54.1594,142.5 61.8261,142.666 69.5,142.5C 65.3656,143.485 61.0323,143.818 56.5,143.5C 54.1432,143.337 51.8098,143.503 49.5,144C 51.7226,144.566 53.7226,145.4 55.5,146.5C 49.5343,145.351 43.8677,143.351 38.5,140.5 Z"/></g>
</svg>
