<?xml version="1.0" encoding="UTF-8"?>
<!DOCTYPE svg PUBLIC "-//W3C//DTD SVG 1.1//EN" "http://www.w3.org/Graphics/SVG/1.1/DTD/svg11.dtd">
<svg xmlns="http://www.w3.org/2000/svg" version="1.1" width="240px" height="240px" style="shape-rendering:geometricPrecision; text-rendering:geometricPrecision; image-rendering:optimizeQuality; fill-rule:evenodd; clip-rule:evenodd" xmlns:xlink="http://www.w3.org/1999/xlink">
<g><path style="opacity:1" fill="#ababab" d="M -0.5,-0.5 C 79.5,-0.5 159.5,-0.5 239.5,-0.5C 239.5,79.5 239.5,159.5 239.5,239.5C 159.5,239.5 79.5,239.5 -0.5,239.5C -0.5,159.5 -0.5,79.5 -0.5,-0.5 Z"/></g>
<g><path style="opacity:1" fill="#fcfcfc" d="M 111.5,72.5 C 130.687,69.7357 142.02,77.7357 145.5,96.5C 143.277,114.227 133.277,122.727 115.5,122C 109.208,111.917 103.041,101.75 97,91.5C 96.2424,87.6714 97.2424,84.3381 100,81.5C 103.449,77.8766 107.283,74.8766 111.5,72.5 Z"/></g>
<g><path style="opacity:1" fill="#fcfcfc" d="M 148.5,72.5 C 160.838,72.3335 173.171,72.5001 185.5,73C 186.931,73.4652 188.097,74.2986 189,75.5C 189.667,89.5 189.667,103.5 189,117.5C 188.626,118.416 188.126,119.25 187.5,120C 180.768,121.13 173.935,121.63 167,121.5C 160.589,121.49 154.256,121.157 148,120.5C 147.333,119.167 147.333,117.833 148,116.5C 155.488,102.678 155.322,89.0115 147.5,75.5C 147.685,74.4163 148.018,73.4163 148.5,72.5 Z"/></g>
<g><path style="opacity:1" fill="#fcfcfc" d="M 71.5,75.5 C 73.5273,75.3379 75.5273,75.5045 77.5,76C 85.711,88.9188 93.5444,102.085 101,115.5C 101.63,117.903 100.797,119.737 98.5,121C 82.5,121.667 66.5,121.667 50.5,121C 47.9787,117.518 48.1453,114.018 51,110.5C 57.8449,98.8058 64.6783,87.1391 71.5,75.5 Z"/></g>
<g><path style="opacity:1" fill="#f9f9f9" d="M 69.5,165.5 C 69.5,163.833 69.5,162.167 69.5,160.5C 63.9738,160.179 58.6405,160.512 53.5,161.5C 53.5,162.833 53.5,164.167 53.5,165.5C 51.5,165.5 49.5,165.5 47.5,165.5C 47.5,162.167 47.5,158.833 47.5,155.5C 48.8333,155.5 50.1667,155.5 51.5,155.5C 52.7617,150.717 54.4283,146.05 56.5,141.5C 59.7683,140.513 63.1016,140.18 66.5,140.5C 67.7617,145.283 69.4283,149.95 71.5,154.5C 72.325,155.386 73.325,155.719 74.5,155.5C 74.5,158.833 74.5,162.167 74.5,165.5C 72.8333,165.5 71.1667,165.5 69.5,165.5 Z"/></g>
<g><path style="opacity:1" fill="#f9f9f9" d="M 83.5,139.5 C 93.9125,139.404 98.4125,144.404 97,154.5C 92.7175,161.691 86.8841,163.191 79.5,159C 74.432,151.014 75.7653,144.514 83.5,139.5 Z"/></g>
<g><path style="opacity:1" fill="#f9f9f9" d="M 148.5,159.5 C 147.532,161.607 147.198,163.941 147.5,166.5C 145.833,166.5 144.167,166.5 142.5,166.5C 142.5,157.833 142.5,149.167 142.5,140.5C 144.591,140.318 146.591,140.652 148.5,141.5C 154.968,138.142 159.801,139.808 163,146.5C 164.645,158.706 159.812,163.039 148.5,159.5 Z"/></g>
<g><path style="opacity:1" fill="#fbfbfb" d="M 126.5,160.5 C 124.833,160.5 123.167,160.5 121.5,160.5C 121.823,156.774 121.489,153.107 120.5,149.5C 119.893,149.624 119.56,149.957 119.5,150.5C 115.777,158.476 112.111,158.476 108.5,150.5C 108.44,149.957 108.107,149.624 107.5,149.5C 106.511,153.107 106.177,156.774 106.5,160.5C 104.833,160.5 103.167,160.5 101.5,160.5C 101.5,153.833 101.5,147.167 101.5,140.5C 103.857,140.337 106.19,140.503 108.5,141C 110.333,143.5 112.167,146 114,148.5C 115.955,146.089 117.789,143.589 119.5,141C 121.81,140.503 124.143,140.337 126.5,140.5C 126.5,147.167 126.5,153.833 126.5,160.5 Z"/></g>
<g><path style="opacity:1" fill="#f9f9f9" d="M 173.5,166.5 C 171.5,166.5 169.5,166.5 167.5,166.5C 167.5,164.833 167.5,163.167 167.5,161.5C 169.5,161.5 171.5,161.5 173.5,161.5C 171.406,154.64 168.74,147.973 165.5,141.5C 167.833,140.167 170.167,140.167 172.5,141.5C 173.779,145.672 175.445,149.672 177.5,153.5C 179.555,149.672 181.221,145.672 182.5,141.5C 184.396,140.534 186.396,140.201 188.5,140.5C 185.905,148.363 182.738,156.03 179,163.5C 177.512,165.16 175.679,166.16 173.5,166.5 Z"/></g>
<g><path style="opacity:1" fill="#adadad" d="M 150.5,145.5 C 157.628,145.706 159.294,148.873 155.5,155C 151.193,156.308 148.86,154.808 148.5,150.5C 148.437,148.486 149.103,146.819 150.5,145.5 Z"/></g>
<g><path style="opacity:1" fill="#aeaeae" d="M 84.5,145.5 C 91.6275,145.706 93.2942,148.873 89.5,155C 83.4983,155.993 81.3317,153.493 83,147.5C 83.7172,146.956 84.2172,146.289 84.5,145.5 Z"/></g>
<g><path style="opacity:1" fill="#b4b4b4" d="M 60.5,145.5 C 62.8812,147.912 64.5478,150.912 65.5,154.5C 62.8333,155.833 60.1667,155.833 57.5,154.5C 58.801,151.573 59.801,148.573 60.5,145.5 Z"/></g>
<g><path style="opacity:1" fill="#e1e1e1" d="M 108.5,150.5 C 107.833,153.833 107.167,157.167 106.5,160.5C 106.177,156.774 106.511,153.107 107.5,149.5C 108.107,149.624 108.44,149.957 108.5,150.5 Z"/></g>
<g><path style="opacity:1" fill="#d2d2d2" d="M 119.5,150.5 C 119.56,149.957 119.893,149.624 120.5,149.5C 121.489,153.107 121.823,156.774 121.5,160.5C 123.167,160.5 124.833,160.5 126.5,160.5C 124.735,161.461 122.735,161.795 120.5,161.5C 120.815,157.629 120.482,153.962 119.5,150.5 Z"/></g>
<g><path style="opacity:1" fill="#f1f1f1" d="M 132.5,153.5 C 138.488,153.664 139.821,156.164 136.5,161C 130.403,161.147 129.07,158.647 132.5,153.5 Z"/></g>
<g><path style="opacity:1" fill="#cacaca" d="M 53.5,161.5 C 58.6405,160.512 63.9738,160.179 69.5,160.5C 69.5,162.167 69.5,163.833 69.5,165.5C 68.5655,164.432 68.2322,163.099 68.5,161.5C 63.5,161.5 58.5,161.5 53.5,161.5 Z"/></g>
<g><path style="opacity:1" fill="#d6d6d6" d="M 148.5,159.5 C 148.5,162.167 148.5,164.833 148.5,167.5C 146.265,167.795 144.265,167.461 142.5,166.5C 144.167,166.5 145.833,166.5 147.5,166.5C 147.198,163.941 147.532,161.607 148.5,159.5 Z"/></g>
<g><path style="opacity:1" fill="#cdcdcd" d="M 167.5,161.5 C 167.5,163.167 167.5,164.833 167.5,166.5C 169.5,166.5 171.5,166.5 173.5,166.5C 171.393,167.468 169.059,167.802 166.5,167.5C 166.205,165.265 166.539,163.265 167.5,161.5 Z"/></g>
</svg>
