<?xml version="1.0" encoding="UTF-8"?>
<!DOCTYPE svg PUBLIC "-//W3C//DTD SVG 1.1//EN" "http://www.w3.org/Graphics/SVG/1.1/DTD/svg11.dtd">
<svg xmlns="http://www.w3.org/2000/svg" version="1.1" width="348px" height="348px" style="shape-rendering:geometricPrecision; text-rendering:geometricPrecision; image-rendering:optimizeQuality; fill-rule:evenodd; clip-rule:evenodd" xmlns:xlink="http://www.w3.org/1999/xlink">
<g><path style="opacity:1" fill="#707070" d="M 162.5,-0.5 C 166.167,-0.5 169.833,-0.5 173.5,-0.5C 173.667,57.1676 173.5,114.834 173,172.5C 163.911,173.319 154.744,173.819 145.5,174C 140.572,175.927 137.406,179.427 136,184.5C 135.667,237.5 135.333,290.5 135,343.5C 79.3057,329.996 38.6391,297.662 13,246.5C 7.36537,233.428 2.86537,220.095 -0.5,206.5C -0.5,184.5 -0.5,162.5 -0.5,140.5C 14.2419,79.9152 50.2419,37.0818 107.5,12C 125.439,5.44929 143.772,1.28262 162.5,-0.5 Z M 134.5,99.5 C 152.824,98.6585 161.658,107.325 161,125.5C 155.891,140.305 145.725,145.472 130.5,141C 117.66,133.481 114.493,122.981 121,109.5C 124.531,104.795 129.031,101.462 134.5,99.5 Z"/></g>
<g><path style="opacity:1" fill="#707070" d="M 347.5,140.5 C 347.5,162.5 347.5,184.5 347.5,206.5C 332.758,267.085 296.758,309.918 239.5,335C 221.563,341.55 203.23,345.717 184.5,347.5C 177.167,347.5 169.833,347.5 162.5,347.5C 161.081,346.549 159.415,346.216 157.5,346.5C 157.333,296.166 157.5,245.832 158,195.5C 167.089,194.681 176.256,194.181 185.5,194C 190.428,192.073 193.594,188.573 195,183.5C 195.5,122.834 195.667,62.1676 195.5,1.5C 254.541,9.58789 299.041,39.2546 329,90.5C 337.276,106.505 343.442,123.172 347.5,140.5 Z M 185.5,225.5 C 201.743,223.42 211.076,230.42 213.5,246.5C 212.619,259.882 205.452,267.216 192,268.5C 178.73,267.063 171.23,259.73 169.5,246.5C 170.366,235.981 175.7,228.981 185.5,225.5 Z M 237.5,225.5 C 253.788,223.475 263.122,230.475 265.5,246.5C 264.345,260.185 256.845,267.518 243,268.5C 223.105,263.71 217.438,252.043 226,233.5C 229.15,229.689 232.983,227.023 237.5,225.5 Z M 289.5,225.5 C 306.016,223.532 315.349,230.699 317.5,247C 314.487,263.998 304.487,270.665 287.5,267C 275.574,260.976 271.407,251.476 275,238.5C 278.162,232.164 282.996,227.831 289.5,225.5 Z"/></g>
</svg>
