<?xml version="1.0" encoding="UTF-8"?>
<!DOCTYPE svg PUBLIC "-//W3C//DTD SVG 1.1//EN" "http://www.w3.org/Graphics/SVG/1.1/DTD/svg11.dtd">
<svg xmlns="http://www.w3.org/2000/svg" version="1.1" width="300px" height="300px" style="shape-rendering:geometricPrecision; text-rendering:geometricPrecision; image-rendering:optimizeQuality; fill-rule:evenodd; clip-rule:evenodd" xmlns:xlink="http://www.w3.org/1999/xlink">
<g><path style="opacity:1" fill="#797979" d="M -0.5,-0.5 C 99.5,-0.5 199.5,-0.5 299.5,-0.5C 299.5,99.5 299.5,199.5 299.5,299.5C 199.5,299.5 99.5,299.5 -0.5,299.5C -0.5,199.5 -0.5,99.5 -0.5,-0.5 Z"/></g>
<g><path style="opacity:1" fill="#fefefe" d="M 148.5,55.5 C 155.436,54.5371 161.77,56.0371 167.5,60C 184.85,74.8538 195.35,93.6871 199,116.5C 202.933,137.975 197.099,156.142 181.5,171C 160.233,183.516 140.067,182.016 121,166.5C 110.495,153.01 106.162,137.676 108,120.5C 110.938,96.7872 121.105,76.9539 138.5,61C 141.767,58.8703 145.1,57.037 148.5,55.5 Z"/></g>
<g><path style="opacity:1" fill="#fbfbfb" d="M 210.5,203.5 C 219.083,201.793 226.25,204.127 232,210.5C 233.707,212.909 234.54,215.575 234.5,218.5C 230.818,218.665 227.152,218.499 223.5,218C 218.827,210.594 214.327,210.761 210,218.5C 209.113,223.072 209.78,227.405 212,231.5C 217.556,235.039 221.056,233.705 222.5,227.5C 226.5,227.5 230.5,227.5 234.5,227.5C 233.345,237.818 227.512,243.151 217,243.5C 202.386,241.544 196.052,233.211 198,218.5C 199.849,211.414 204.015,206.414 210.5,203.5 Z"/></g>
<g><path style="opacity:1" fill="#fbfbfb" d="M 73.5,204.5 C 79.1764,204.334 84.8431,204.501 90.5,205C 92.7177,212.037 94.551,219.203 96,226.5C 97.518,219.407 99.3513,212.407 101.5,205.5C 107.128,204.505 112.794,204.171 118.5,204.5C 118.5,217.167 118.5,229.833 118.5,242.5C 114.833,242.5 111.167,242.5 107.5,242.5C 107.666,233.827 107.5,225.16 107,216.5C 105,224.5 103,232.5 101,240.5C 99.6472,241.704 97.9806,242.371 96,242.5C 94.0194,242.371 92.3528,241.704 91,240.5C 88.9985,233.155 86.9985,225.822 85,218.5C 84.5003,226.493 84.3336,234.493 84.5,242.5C 80.8333,242.5 77.1667,242.5 73.5,242.5C 73.5,229.833 73.5,217.167 73.5,204.5 Z"/></g>
<g><path style="opacity:1" fill="#fbfbfb" d="M 124.5,204.5 C 134.167,204.5 143.833,204.5 153.5,204.5C 153.5,207.5 153.5,210.5 153.5,213.5C 147.833,213.5 142.167,213.5 136.5,213.5C 136.5,223.167 136.5,232.833 136.5,242.5C 132.5,242.5 128.5,242.5 124.5,242.5C 124.5,229.833 124.5,217.167 124.5,204.5 Z"/></g>
<g><path style="opacity:1" fill="#fefefe" d="M 170.5,242.5 C 170.5,232.833 170.5,223.167 170.5,213.5C 166.833,213.5 163.167,213.5 159.5,213.5C 159.5,210.5 159.5,207.5 159.5,204.5C 170.5,204.5 181.5,204.5 192.5,204.5C 192.5,207.5 192.5,210.5 192.5,213.5C 188.894,213.211 185.394,213.544 182,214.5C 181.5,223.827 181.334,233.161 181.5,242.5C 177.833,242.5 174.167,242.5 170.5,242.5 Z"/></g>
<g><path style="opacity:1" fill="#969696" d="M 159.5,213.5 C 163.167,213.5 166.833,213.5 170.5,213.5C 170.5,223.167 170.5,232.833 170.5,242.5C 169.506,233.348 169.173,224.015 169.5,214.5C 165.958,214.813 162.625,214.479 159.5,213.5 Z"/></g>
</svg>
