<?xml version="1.0" encoding="UTF-8"?>
<!DOCTYPE svg PUBLIC "-//W3C//DTD SVG 1.1//EN" "http://www.w3.org/Graphics/SVG/1.1/DTD/svg11.dtd">
<svg xmlns="http://www.w3.org/2000/svg" version="1.1" width="1772px" height="1772px" style="shape-rendering:geometricPrecision; text-rendering:geometricPrecision; image-rendering:optimizeQuality; fill-rule:evenodd; clip-rule:evenodd" xmlns:xlink="http://www.w3.org/1999/xlink">
<g><path style="opacity:0.999" fill="#909090" d="M -0.5,-0.5 C 590.167,-0.5 1180.83,-0.5 1771.5,-0.5C 1771.5,590.167 1771.5,1180.83 1771.5,1771.5C 1180.83,1771.5 590.167,1771.5 -0.5,1771.5C -0.5,1180.83 -0.5,590.167 -0.5,-0.5 Z"/></g>
<g><path style="opacity:1" fill="#e3e3e3" d="M 1635.5,136.5 C 1483.83,136.5 1332.17,136.5 1180.5,136.5C 1180.5,163.167 1180.5,189.833 1180.5,216.5C 1239.67,216.168 1298.67,216.501 1357.5,217.5C 1298.17,217.5 1238.83,217.5 1179.5,217.5C 1179.5,190.167 1179.5,162.833 1179.5,135.5C 1331.67,135.167 1483.67,135.5 1635.5,136.5 Z"/></g>
<g><path style="opacity:1" fill="#e3e3e3" d="M 278.5,136.5 C 231.167,136.5 183.833,136.5 136.5,136.5C 136.5,272.5 136.5,408.5 136.5,544.5C 135.5,408.334 135.167,272.001 135.5,135.5C 183.336,135.168 231.003,135.501 278.5,136.5 Z"/></g>
<g><path style="opacity:1" fill="#fefefe" d="M 680.5,135.5 C 680.5,271.833 680.5,408.167 680.5,544.5C 647.5,544.5 614.5,544.5 581.5,544.5C 581.667,447.499 581.5,350.499 581,253.5C 580.283,254.044 579.783,254.711 579.5,255.5C 537.289,336.59 495.622,417.923 454.5,499.5C 423.826,499.833 393.159,499.5 362.5,498.5C 320.333,416.833 278.167,335.167 236,253.5C 235.5,350.499 235.333,447.499 235.5,544.5C 202.5,544.5 169.5,544.5 136.5,544.5C 136.5,408.5 136.5,272.5 136.5,136.5C 183.833,136.5 231.167,136.5 278.5,136.5C 321.642,225.925 364.975,315.258 408.5,404.5C 451.93,315.138 495.263,225.638 538.5,136C 585.832,135.5 633.165,135.333 680.5,135.5 Z"/></g>
<g><path style="opacity:1" fill="#fefefe" d="M 1635.5,136.5 C 1635.5,163.5 1635.5,190.5 1635.5,217.5C 1576.17,217.5 1516.83,217.5 1457.5,217.5C 1457.5,326.5 1457.5,435.5 1457.5,544.5C 1424.17,544.5 1390.83,544.5 1357.5,544.5C 1357.5,435.5 1357.5,326.5 1357.5,217.5C 1298.67,216.501 1239.67,216.168 1180.5,216.5C 1180.5,189.833 1180.5,163.167 1180.5,136.5C 1332.17,136.5 1483.83,136.5 1635.5,136.5 Z"/></g>
<g><path style="opacity:1" fill="#c8c8c8" d="M 581.5,544.5 C 581.167,544.5 580.833,544.5 580.5,544.5C 580.833,447.999 580.499,351.665 579.5,255.5C 579.783,254.711 580.283,254.044 581,253.5C 581.5,350.499 581.667,447.499 581.5,544.5 Z"/></g>
<g><path style="opacity:1" fill="#bababa" d="M 680.5,135.5 C 681.5,271.999 681.833,408.666 681.5,545.5C 647.663,545.832 613.996,545.498 580.5,544.5C 580.833,544.5 581.167,544.5 581.5,544.5C 614.5,544.5 647.5,544.5 680.5,544.5C 680.5,408.167 680.5,271.833 680.5,135.5 Z"/></g>
<g><path style="opacity:1" fill="#fefefe" d="M 1377.5,1217.5 C 1425.75,1214.9 1473.41,1218.73 1520.5,1229C 1553.67,1237.32 1581.51,1254.16 1604,1279.5C 1622.86,1303.9 1633.36,1331.57 1635.5,1362.5C 1602.17,1362.5 1568.83,1362.5 1535.5,1362.5C 1530.22,1331.38 1512.22,1311.88 1481.5,1304C 1444.8,1296.1 1407.8,1294.43 1370.5,1299C 1342.44,1302.11 1318.94,1313.94 1300,1334.5C 1289.26,1348.67 1282.92,1364.67 1281,1382.5C 1279.43,1410.81 1279.1,1439.14 1280,1467.5C 1282.3,1513.77 1305.47,1543.61 1349.5,1557C 1386.88,1565.5 1424.54,1566.83 1462.5,1561C 1484.81,1558.69 1503.97,1549.86 1520,1534.5C 1528.17,1523.84 1533.34,1511.84 1535.5,1498.5C 1568.83,1498.5 1602.17,1498.5 1635.5,1498.5C 1629.84,1560.36 1598.18,1602.52 1540.5,1625C 1510.02,1635.36 1478.69,1641.36 1446.5,1643C 1410.32,1644.78 1374.32,1643.11 1338.5,1638C 1246.24,1622.41 1194.07,1568.24 1182,1475.5C 1177.67,1437.28 1179,1399.28 1186,1361.5C 1201.34,1292.82 1242.84,1248.65 1310.5,1229C 1332.63,1223.2 1354.96,1219.36 1377.5,1217.5 Z"/></g>
</svg>
