<?xml version="1.0" encoding="UTF-8"?>
<!DOCTYPE svg PUBLIC "-//W3C//DTD SVG 1.1//EN" "http://www.w3.org/Graphics/SVG/1.1/DTD/svg11.dtd">
<svg xmlns="http://www.w3.org/2000/svg" version="1.1" width="2481px" height="2291px" style="shape-rendering:geometricPrecision; text-rendering:geometricPrecision; image-rendering:optimizeQuality; fill-rule:evenodd; clip-rule:evenodd" xmlns:xlink="http://www.w3.org/1999/xlink">
<g><path style="opacity:0.96" fill="#a0a0a0" d="M 839.5,223.5 C 853.278,223.469 863.445,229.469 870,241.5C 876.008,253.861 880.008,266.861 882,280.5C 884.509,301.241 887.509,321.908 891,342.5C 893.606,350.986 896.606,359.319 900,367.5C 912.941,393.715 923.941,420.715 933,448.5C 936.694,460.994 937.194,473.494 934.5,486C 933.167,486.667 931.833,486.667 930.5,486C 912.079,463.989 899.913,438.822 894,410.5C 892.367,400.873 891.034,391.207 890,381.5C 879.179,368.526 871.512,353.859 867,337.5C 861.968,312.674 856.302,288.007 850,263.5C 843.995,251.498 837.162,239.998 829.5,229C 833.056,227.392 836.389,225.559 839.5,223.5 Z"/></g>
<g><path style="opacity:0.968" fill="#a0a0a0" d="M 1106.5,281.5 C 1108.72,282.203 1110.55,283.536 1112,285.5C 1121.7,304.681 1125.7,325.014 1124,346.5C 1123.2,356.643 1121.53,366.643 1119,376.5C 1111.73,399.648 1104.06,422.648 1096,445.5C 1093.74,454.416 1091.9,463.416 1090.5,472.5C 1082.54,470.369 1077.37,465.369 1075,457.5C 1073.16,437.653 1074.49,417.986 1079,398.5C 1082.32,385.906 1085.32,373.239 1088,360.5C 1089.57,341.821 1091.24,323.155 1093,304.5C 1094.46,294.897 1098.96,287.231 1106.5,281.5 Z"/></g>
<g><path style="opacity:0.972" fill="#9f9f9f" d="M 627.5,323.5 C 632.828,322.181 638.161,322.681 643.5,325C 655.093,330.919 665.26,338.753 674,348.5C 692.061,370.948 708.394,394.615 723,419.5C 735.439,445.042 746.773,471.042 757,497.5C 757.27,500.224 757.77,502.891 758.5,505.5C 757.131,510.932 754.464,511.765 750.5,508C 737.325,495.491 724.825,482.324 713,468.5C 687.617,437.412 664.95,404.412 645,369.5C 636.569,355.002 630.735,339.669 627.5,323.5 Z"/></g>
<g><path style="opacity:0.999" fill="#959595" d="M 1075.5,599.5 C 1081.42,596.254 1087.08,592.587 1092.5,588.5C 1093.17,588.5 1093.5,588.167 1093.5,587.5C 1094.17,587.5 1094.5,587.167 1094.5,586.5C 1094.83,586.5 1095.17,586.5 1095.5,586.5C 1096.17,586.5 1096.5,586.167 1096.5,585.5C 1101.73,583.216 1106.73,580.383 1111.5,577C 1110.94,576.617 1110.61,576.117 1110.5,575.5C 1130.83,564.026 1150.83,551.859 1170.5,539C 1215.13,512.099 1260.63,486.599 1307,462.5C 1388.54,495.023 1467.04,533.523 1542.5,578C 1564.21,591.047 1585.37,604.88 1606,619.5C 1605.14,594.002 1602.47,568.668 1598,543.5C 1596.4,538.901 1593.24,536.068 1588.5,535C 1567.84,534.117 1547.17,533.451 1526.5,533C 1520.75,532.255 1518.58,529.088 1520,523.5C 1520.9,522.299 1522.07,521.465 1523.5,521C 1559.53,520.059 1595.53,520.726 1631.5,523C 1643.82,523.435 1654.32,527.935 1663,536.5C 1664.89,539.618 1666.23,542.951 1667,546.5C 1668.52,562.296 1669.35,578.129 1669.5,594C 1668.83,617.526 1667.99,641.026 1667,664.5C 1711.96,700.737 1756.46,737.57 1800.5,775C 1820.81,791.484 1841.47,807.484 1862.5,823C 1866.75,826.581 1870.25,830.748 1873,835.5C 1874.18,839.26 1873.01,842.093 1869.5,844C 1858.56,846.971 1847.39,848.471 1836,848.5C 1825.5,847.913 1815,847.413 1804.5,847C 1730.15,840.907 1655.81,834.574 1581.5,828C 1363.22,807.966 1145.89,815.299 929.5,850C 866.807,860.872 804.141,871.872 741.5,883C 735.5,883.667 729.5,883.667 723.5,883C 721.637,881.582 721.137,879.749 722,877.5C 833.655,776.643 951.489,683.977 1075.5,599.5 Z"/></g>
<g><path style="opacity:0.959" fill="#a0a0a0" d="M 422.5,470.5 C 434.932,472.376 446.599,476.543 457.5,483C 485.162,498.495 512.495,514.495 539.5,531C 551.5,541.667 562.833,553 573.5,565C 586.044,572.215 598.044,580.215 609.5,589C 613.369,592.534 616.869,596.367 620,600.5C 621.57,606.053 621.903,611.719 621,617.5C 620.163,619.007 618.996,619.507 617.5,619C 590.479,600.156 563.813,580.823 537.5,561C 510.463,541.14 481.796,523.807 451.5,509C 442.591,504.939 433.258,502.772 423.5,502.5C 423.135,493.815 422.468,485.148 421.5,476.5C 421.573,474.41 421.906,472.41 422.5,470.5 Z"/></g>
<g><path style="opacity:0.968" fill="#a0a0a0" d="M 1110.5,575.5 C 1110.61,576.117 1110.94,576.617 1111.5,577C 1106.73,580.383 1101.73,583.216 1096.5,585.5C 1095.83,585.5 1095.5,585.833 1095.5,586.5C 1095.17,586.5 1094.83,586.5 1094.5,586.5C 1093.83,586.5 1093.5,586.833 1093.5,587.5C 1092.83,587.5 1092.5,587.833 1092.5,588.5C 1087.08,592.587 1081.42,596.254 1075.5,599.5C 1067.6,597.366 1059.93,594.532 1052.5,591C 1047.76,583.128 1040.76,579.128 1031.5,579C 997.506,579.15 963.506,579.483 929.5,580C 904.225,583.735 879.892,590.735 856.5,601C 801.842,624.479 750.842,653.813 703.5,689C 690.548,699.615 679.381,711.782 670,725.5C 666.784,731.264 664.117,737.264 662,743.5C 657.678,765.127 651.344,786.127 643,806.5C 628.491,832.181 614.491,858.181 601,884.5C 591.922,903.886 588.922,924.219 592,945.5C 596.235,952.139 600.068,958.972 603.5,966C 603.354,967.727 602.687,967.894 601.5,966.5C 597.431,990.709 593.931,1015.04 591,1039.5C 589.323,1051.64 590.99,1063.31 596,1074.5C 604.202,1094.67 614.869,1113.34 628,1130.5C 651.672,1154.76 679.506,1172.59 711.5,1184C 710.743,1185.51 709.743,1186.85 708.5,1188C 691.911,1190.21 675.911,1188.21 660.5,1182C 645.618,1174.13 632.452,1163.97 621,1151.5C 586.443,1115.55 567.11,1072.55 563,1022.5C 556.414,943.764 570.748,869.097 606,798.5C 631.938,744.223 666.772,696.389 710.5,655C 725.091,641.051 740.424,628.051 756.5,616C 765.229,609.968 774.562,604.968 784.5,601C 813.239,592.198 841.905,583.198 870.5,574C 935.484,555.085 1001.82,546.752 1069.5,549C 1078.66,557.089 1089,563.423 1100.5,568C 1104.3,569.979 1107.63,572.479 1110.5,575.5 Z"/></g>
<g><path style="opacity:0.964" fill="#a0a0a0" d="M 297.5,708.5 C 316.328,710.565 334.995,713.732 353.5,718C 388.928,723.717 424.595,726.383 460.5,726C 483.95,726.463 506.616,730.796 528.5,739C 534.974,741.895 539.64,746.562 542.5,753C 482.456,756.115 422.789,752.782 363.5,743C 344.97,739.952 327.303,734.286 310.5,726C 303.105,722.352 298.771,716.518 297.5,708.5 Z"/></g>
<g><path style="opacity:0.997" fill="#959595" d="M 1515.5,877.5 C 1581.37,872.828 1636.2,894.828 1680,943.5C 1684.09,981.15 1671.26,1011.65 1641.5,1035C 1629.34,1044.25 1616.34,1052.25 1602.5,1059C 1572.8,1072.51 1542.47,1084.34 1511.5,1094.5C 1510.5,1101.83 1510.66,1109.16 1512,1116.5C 1514.82,1130.74 1516.98,1145.07 1518.5,1159.5C 1517.63,1179.52 1507.63,1192.36 1488.5,1198C 1482.17,1198.67 1475.83,1198.67 1469.5,1198C 1465.72,1194.22 1461.89,1190.39 1458,1186.5C 1455.42,1168.92 1453.75,1151.26 1453,1133.5C 1450.78,1072.84 1454.12,1012.51 1463,952.5C 1464.69,946.126 1467.19,940.126 1470.5,934.5C 1464.2,932.4 1457.87,930.233 1451.5,928C 1446.33,920.145 1445.16,911.645 1448,902.5C 1449.3,898.726 1451.47,895.559 1454.5,893C 1474.2,884.826 1494.53,879.659 1515.5,877.5 Z M 1521.5,923.5 C 1536.06,922.87 1550.06,925.37 1563.5,931C 1584.87,940.429 1604.71,952.262 1623,966.5C 1620.73,978.371 1615.73,989.038 1608,998.5C 1593.08,1016.37 1574.58,1028.87 1552.5,1036C 1539.7,1039.62 1527.03,1039.29 1514.5,1035C 1510.57,1031.23 1508.57,1026.56 1508.5,1021C 1510.93,1006.57 1512.77,992.073 1514,977.5C 1517.04,966.045 1519.87,954.545 1522.5,943C 1522.37,940.747 1521.87,938.581 1521,936.5C 1518.2,932.701 1515.04,929.201 1511.5,926C 1514.99,925.262 1518.32,924.429 1521.5,923.5 Z"/></g>
<g><path style="opacity:0.997" fill="#959595" d="M 1742.5,879.5 C 1758.21,879.544 1773.87,880.378 1789.5,882C 1805.62,882.034 1819.45,887.534 1831,898.5C 1835.12,904.511 1837.45,911.178 1838,918.5C 1840.94,960.143 1841.27,1001.81 1839,1043.5C 1835.25,1117.94 1829.91,1192.28 1823,1266.5C 1819.77,1272.7 1814.61,1276.2 1807.5,1277C 1797.05,1279.02 1788.22,1276.18 1781,1268.5C 1779.72,1266.28 1778.72,1263.95 1778,1261.5C 1778.68,1153.01 1775.02,1044.68 1767,936.5C 1766.19,928.809 1765.19,921.143 1764,913.5C 1761.52,902.691 1754.68,897.525 1743.5,898C 1735.03,895.895 1732.2,890.728 1735,882.5C 1737.48,881.188 1739.98,880.188 1742.5,879.5 Z"/></g>
<g><path style="opacity:0.997" fill="#959595" d="M 1196.5,883.5 C 1203.43,883.266 1210.1,884.433 1216.5,887C 1219.87,889.365 1222.04,892.532 1223,896.5C 1228.12,914.835 1229.79,933.501 1228,952.5C 1224.4,979.396 1222.74,1006.4 1223,1033.5C 1226.57,1039.74 1230.9,1045.4 1236,1050.5C 1239.53,1054.81 1240.2,1059.47 1238,1064.5C 1235,1068.17 1232,1071.83 1229,1075.5C 1225.82,1092.48 1225.82,1109.48 1229,1126.5C 1232.46,1146.81 1235.8,1167.15 1239,1187.5C 1240.1,1195.46 1240.6,1203.46 1240.5,1211.5C 1213.9,1217.04 1196.57,1206.87 1188.5,1181C 1186.12,1174.31 1184.29,1167.48 1183,1160.5C 1179.5,1135.02 1175.17,1109.68 1170,1084.5C 1168.73,1076.1 1164.23,1070.27 1156.5,1067C 1146.83,1063.67 1137.17,1063.67 1127.5,1067C 1125.41,1067.79 1123.58,1068.96 1122,1070.5C 1115.57,1081.33 1113.23,1092.99 1115,1105.5C 1118.21,1124.58 1120.71,1143.75 1122.5,1163C 1122.67,1170.97 1121.34,1178.63 1118.5,1186C 1095.65,1188.33 1079.49,1179.17 1070,1158.5C 1067.21,1150.36 1065.21,1142.02 1064,1133.5C 1062.14,1110.85 1060.47,1088.18 1059,1065.5C 1057.19,1059.61 1056.03,1053.61 1055.5,1047.5C 1058.14,1035.74 1060.48,1023.9 1062.5,1012C 1060.32,987.547 1059.48,963.047 1060,938.5C 1060.9,925.814 1064.23,913.814 1070,902.5C 1075.96,895.007 1083.79,891.674 1093.5,892.5C 1108.45,891.385 1119.28,897.385 1126,910.5C 1126.96,913.075 1127.46,915.741 1127.5,918.5C 1123,939.158 1118.5,959.824 1114,980.5C 1111.53,993.769 1113.53,1006.44 1120,1018.5C 1125.38,1024.77 1132.22,1028.27 1140.5,1029C 1145.83,1029.67 1151.17,1029.67 1156.5,1029C 1159.03,1028.48 1161.2,1027.32 1163,1025.5C 1168.43,1011.38 1171.1,996.709 1171,981.5C 1171.33,958.833 1171.67,936.167 1172,913.5C 1171.39,895.974 1179.55,885.974 1196.5,883.5 Z"/></g>
<g><path style="opacity:0.956" fill="#9f9f9f" d="M 462.5,932.5 C 471.852,932.434 481.185,932.768 490.5,933.5C 490.026,937.281 488.359,940.448 485.5,943C 478.419,947.809 470.752,951.476 462.5,954C 447.334,958.625 432.001,962.625 416.5,966C 372.081,974.217 328.081,984.217 284.5,996C 273.92,999.522 263.92,1004.19 254.5,1010C 250.929,1013.4 247.595,1016.9 244.5,1020.5C 239.128,1019.69 233.795,1018.69 228.5,1017.5C 229.558,1013.72 231.391,1010.38 234,1007.5C 248.131,996.178 263.631,987.012 280.5,980C 339.088,955.688 399.754,939.854 462.5,932.5 Z"/></g>
<g><path style="opacity:0.998" fill="#959595" d="M 806.5,961.5 C 814.044,961.017 819.544,964.017 823,970.5C 815.766,1153.87 844.1,1331.53 908,1503.5C 910.139,1512.74 906.639,1518.24 897.5,1520C 882.092,1522.33 866.759,1522 851.5,1519C 842.76,1516.54 835.594,1511.71 830,1504.5C 767.283,1332.22 752.283,1155.89 785,975.5C 785.7,971.934 787.533,969.1 790.5,967C 795.639,964.226 800.972,962.393 806.5,961.5 Z"/></g>
<g><path style="opacity:0.997" fill="#959595" d="M 1347.5,962.5 C 1374.94,959.256 1397.78,967.922 1416,988.5C 1444.71,1023.48 1450.71,1062.15 1434,1104.5C 1413.46,1148.37 1378.96,1170.21 1330.5,1170C 1312.98,1168.23 1297.64,1161.57 1284.5,1150C 1250.1,1118.88 1241.6,1081.72 1259,1038.5C 1274.53,1006.97 1298.03,983.475 1329.5,968C 1335.53,965.832 1341.53,963.999 1347.5,962.5 Z M 1345.5,1017.5 C 1378.61,1014.78 1394.61,1029.95 1393.5,1063C 1393.84,1093.35 1380.51,1115.02 1353.5,1128C 1340.43,1132.65 1329.27,1129.82 1320,1119.5C 1312.52,1108.24 1307.69,1095.91 1305.5,1082.5C 1309.78,1060.77 1318.78,1041.27 1332.5,1024C 1336.39,1020.72 1340.73,1018.55 1345.5,1017.5 Z"/></g>
<g><path style="opacity:0.963" fill="#a0a0a0" d="M 512.5,1113.5 C 516.167,1113.5 519.833,1113.5 523.5,1113.5C 522.767,1122.46 518.767,1129.63 511.5,1135C 498.672,1143.91 485.672,1152.58 472.5,1161C 466.957,1166.87 461.79,1173.04 457,1179.5C 432.838,1195.84 407.338,1210 380.5,1222C 375.527,1223.94 370.527,1225.77 365.5,1227.5C 362.906,1226.41 360.739,1224.74 359,1222.5C 358.333,1214.5 358.333,1206.5 359,1198.5C 360.167,1197.33 361.333,1196.17 362.5,1195C 381.016,1194.04 398.349,1189.04 414.5,1180C 423.112,1174.39 431.446,1168.39 439.5,1162C 451.205,1151.29 463.205,1140.96 475.5,1131C 486.627,1122.43 498.96,1116.6 512.5,1113.5 Z"/></g>
<g><path style="opacity:0.997" fill="#959595" d="M 1009.5,1180.5 C 1020.78,1179.22 1028.95,1183.55 1034,1193.5C 1035.54,1199.23 1036.37,1205.07 1036.5,1211C 1035.46,1223.83 1034.96,1236.66 1035,1249.5C 1035.39,1253.22 1036.06,1256.89 1037,1260.5C 1038.67,1264.25 1041.51,1265.75 1045.5,1265C 1048.45,1264.19 1051.11,1262.86 1053.5,1261C 1067.17,1248.67 1080.83,1236.33 1094.5,1224C 1111.29,1210.56 1126.79,1212.06 1141,1228.5C 1143.4,1234.24 1142.73,1239.57 1139,1244.5C 1130.38,1255.46 1120.21,1264.63 1108.5,1272C 1087.74,1283.12 1067.91,1295.62 1049,1309.5C 1048.2,1313.91 1049.2,1317.91 1052,1321.5C 1059.67,1332.17 1067.33,1342.83 1075,1353.5C 1090.03,1368.86 1105.36,1383.86 1121,1398.5C 1133.6,1411.79 1142.94,1427.12 1149,1444.5C 1149.62,1449.11 1148.12,1452.94 1144.5,1456C 1133.28,1464.73 1120.95,1466.73 1107.5,1462C 1100.36,1455.87 1093.53,1449.37 1087,1442.5C 1071,1421.83 1055,1401.17 1039,1380.5C 1037.33,1393.86 1037.67,1407.19 1040,1420.5C 1044.54,1445.97 1049.7,1471.31 1055.5,1496.5C 1055.33,1505.19 1052.49,1512.85 1047,1519.5C 1039.17,1527.08 1030,1529.25 1019.5,1526C 1011.94,1524.15 1006.77,1519.65 1004,1512.5C 1000.57,1460.97 995.238,1409.64 988,1358.5C 982.77,1305.62 980.77,1252.62 982,1199.5C 988.307,1189.03 997.474,1182.69 1009.5,1180.5 Z"/></g>
<g><path style="opacity:0.997" fill="#959595" d="M 1409.5,1180.5 C 1416.8,1179.97 1423.8,1181.13 1430.5,1184C 1439.46,1193.4 1446.29,1204.23 1451,1216.5C 1454.06,1223.68 1456.73,1231.01 1459,1238.5C 1466,1264.5 1473,1290.5 1480,1316.5C 1482.37,1319.21 1485.04,1321.54 1488,1323.5C 1492.84,1315.82 1497.18,1307.82 1501,1299.5C 1510.64,1272.93 1521.64,1246.93 1534,1221.5C 1548.12,1198.07 1568.29,1190.07 1594.5,1197.5C 1600.42,1214.86 1605.26,1232.52 1609,1250.5C 1618.42,1301.37 1627.09,1352.37 1635,1403.5C 1639.35,1428.25 1645.35,1452.58 1653,1476.5C 1654.85,1484.96 1652.35,1491.79 1645.5,1497C 1634.13,1502.54 1622.13,1504.87 1609.5,1504C 1607.67,1503.73 1606.17,1502.89 1605,1501.5C 1595.39,1480.07 1588.73,1457.74 1585,1434.5C 1580.57,1399.36 1575.23,1364.36 1569,1329.5C 1566.23,1315.75 1562.23,1302.41 1557,1289.5C 1552.81,1296.55 1549.14,1303.89 1546,1311.5C 1538.94,1330.01 1532.27,1348.68 1526,1367.5C 1522.94,1375.28 1519.61,1382.95 1516,1390.5C 1516.3,1396.15 1516.3,1401.81 1516,1407.5C 1502.27,1430.71 1484.11,1434.88 1461.5,1420C 1458.51,1417.01 1456.34,1413.51 1455,1409.5C 1453.54,1394.18 1450.54,1379.18 1446,1364.5C 1443.95,1358.9 1440.79,1354.06 1436.5,1350C 1428.82,1346.5 1425.49,1349 1426.5,1357.5C 1427.4,1364.49 1427.57,1371.49 1427,1378.5C 1421.85,1397.63 1421.01,1416.97 1424.5,1436.5C 1425.79,1450.36 1419.79,1459.2 1406.5,1463C 1395.37,1466.6 1384.37,1466.27 1373.5,1462C 1366.32,1456.48 1361.48,1449.32 1359,1440.5C 1357.52,1432.89 1357.19,1425.22 1358,1417.5C 1363.84,1392.46 1369.84,1367.46 1376,1342.5C 1380.21,1291.3 1385.87,1240.3 1393,1189.5C 1397.52,1184.5 1403.02,1181.5 1409.5,1180.5 Z"/></g>
<g><path style="opacity:0.957" fill="#a0a0a0" d="M 657.5,1224.5 C 658.833,1224.5 660.167,1224.5 661.5,1224.5C 662.716,1233.21 660.883,1241.21 656,1248.5C 647,1259.5 638,1270.5 629,1281.5C 623.497,1289.67 620.163,1298.67 619,1308.5C 604.863,1321.13 591.863,1334.79 580,1349.5C 571.102,1359.07 561.602,1367.9 551.5,1376C 545.789,1379.97 540.955,1379.13 537,1373.5C 531.802,1365.55 530.802,1357.22 534,1348.5C 556.884,1341.29 574.884,1327.62 588,1307.5C 601.17,1286.49 614.837,1265.82 629,1245.5C 636.949,1236.14 646.449,1229.14 657.5,1224.5 Z"/></g>
<g><path style="opacity:0.997" fill="#959595" d="M 1259.5,1265.5 C 1287.03,1263.52 1309.53,1273.18 1327,1294.5C 1352.43,1327.08 1358.43,1363.08 1345,1402.5C 1324.61,1451.11 1288.11,1474.61 1235.5,1473C 1209.81,1467.41 1189.31,1453.91 1174,1432.5C 1158.5,1407.08 1155.17,1380.08 1164,1351.5C 1178.62,1314.75 1203.79,1287.92 1239.5,1271C 1246.14,1268.58 1252.81,1266.75 1259.5,1265.5 Z M 1250.5,1321.5 C 1263.89,1319.84 1276.56,1322.01 1288.5,1328C 1293.58,1331.74 1297.08,1336.57 1299,1342.5C 1305.27,1367.52 1301.61,1390.85 1288,1412.5C 1278.25,1424.2 1265.92,1431.2 1251,1433.5C 1240.91,1433.12 1232.91,1428.79 1227,1420.5C 1220.56,1409.68 1216.39,1398.01 1214.5,1385.5C 1218.15,1366.2 1225.65,1348.53 1237,1332.5C 1240.84,1327.81 1245.34,1324.14 1250.5,1321.5 Z"/></g>
<g><path style="opacity:0.995" fill="#959595" d="M 1784.5,1308.5 C 1801.03,1307.84 1814.86,1313.5 1826,1325.5C 1838.55,1352.18 1831.72,1372.35 1805.5,1386C 1788.91,1394.69 1771.57,1396.69 1753.5,1392C 1738.62,1384.34 1735.78,1373.51 1745,1359.5C 1753.48,1354 1762.65,1352.5 1772.5,1355C 1775.89,1357.36 1779.55,1359.19 1783.5,1360.5C 1786.41,1360.15 1788.41,1358.65 1789.5,1356C 1780.06,1343.23 1767.9,1339.73 1753,1345.5C 1747.25,1345.92 1744.75,1343.25 1745.5,1337.5C 1745.53,1331.28 1747.86,1326.11 1752.5,1322C 1761.96,1314.43 1772.62,1309.93 1784.5,1308.5 Z"/></g>
<g><path style="opacity:0.966" fill="#a0a0a0" d="M 2001.5,1356.5 C 2013.54,1356.22 2025.54,1356.72 2037.5,1358C 2068.9,1364.35 2100.23,1371.02 2131.5,1378C 2148.83,1379 2166.17,1380 2183.5,1381C 2202.18,1386.67 2220.84,1392.34 2239.5,1398C 2246.63,1402.1 2250.3,1408.26 2250.5,1416.5C 2241.13,1416.68 2231.8,1416.18 2222.5,1415C 2200.85,1410.87 2179.19,1406.87 2157.5,1403C 2137.16,1402.08 2116.82,1401.08 2096.5,1400C 2083.46,1397.16 2070.46,1394.16 2057.5,1391C 2051.2,1390.06 2044.86,1389.39 2038.5,1389C 2036.88,1388.38 2035.55,1387.38 2034.5,1386C 2001.52,1381.41 1970.36,1386.91 1941,1402.5C 1938.83,1400.17 1937.17,1397.5 1936,1394.5C 1935.5,1389.51 1935.33,1384.51 1935.5,1379.5C 1942.78,1379.34 1949.78,1377.84 1956.5,1375C 1970.73,1366.55 1985.73,1360.38 2001.5,1356.5 Z"/></g>
<g><path style="opacity:0.995" fill="#959595" d="M 1783.5,1414.5 C 1803.48,1414.4 1818.64,1422.73 1829,1439.5C 1835.45,1457.88 1832.28,1474.38 1819.5,1489C 1797.67,1502.4 1774.34,1505.74 1749.5,1499C 1735.81,1492.62 1730.98,1482.12 1735,1467.5C 1739.52,1458.15 1747.02,1453.82 1757.5,1454.5C 1761.99,1454.54 1766.32,1455.37 1770.5,1457C 1773.28,1459.87 1776.28,1462.53 1779.5,1465C 1783.21,1466.22 1785.88,1465.06 1787.5,1461.5C 1780.86,1448.6 1770.36,1442.93 1756,1444.5C 1748.48,1443.46 1746.15,1439.46 1749,1432.5C 1754.57,1424.61 1762.07,1419.44 1771.5,1417C 1775.64,1416.16 1779.64,1415.33 1783.5,1414.5 Z"/></g>
<g><path style="opacity:0.968" fill="#a0a0a0" d="M 431.5,1439.5 C 456.519,1439.18 481.519,1439.68 506.5,1441C 537.89,1444.17 569.224,1447.84 600.5,1452C 618.225,1452.74 635.891,1454.07 653.5,1456C 665.461,1459.81 676.461,1465.48 686.5,1473C 691.374,1476.87 695.541,1481.37 699,1486.5C 700.549,1489.31 701.382,1492.31 701.5,1495.5C 693.053,1495.8 684.72,1494.97 676.5,1493C 656.508,1486.59 636.175,1481.59 615.5,1478C 581.038,1477.04 546.705,1474.38 512.5,1470C 494.855,1468.55 477.189,1468.22 459.5,1469C 449.983,1469.61 441.483,1472.78 434,1478.5C 432.247,1481 430.747,1483.67 429.5,1486.5C 422.983,1487.21 416.65,1488.71 410.5,1491C 404.913,1494.71 399.413,1498.54 394,1502.5C 390.473,1496.78 387.473,1490.78 385,1484.5C 384.439,1483.98 383.772,1483.64 383,1483.5C 374.654,1487.09 366.154,1490.26 357.5,1493C 351.509,1493.5 345.509,1493.67 339.5,1493.5C 341.898,1484.97 344.898,1476.64 348.5,1468.5C 356.907,1467.07 365.24,1465.24 373.5,1463C 387.07,1457.55 400.404,1451.55 413.5,1445C 419.535,1442.82 425.535,1440.98 431.5,1439.5 Z"/></g>
<g><path style="opacity:0.997" fill="#959595" d="M 1778.5,1533.5 C 1791.93,1533.4 1796.1,1539.4 1791,1551.5C 1781.69,1557.57 1771.85,1562.74 1761.5,1567C 1673.01,1604.12 1581.01,1628.12 1485.5,1639C 1301.21,1659.48 1117.54,1654.82 934.5,1625C 913.721,1622.3 894.388,1615.63 876.5,1605C 859.904,1593.31 853.071,1577.48 856,1557.5C 858.606,1554.02 862.106,1552.35 866.5,1552.5C 954.133,1568.74 1042.47,1579.24 1131.5,1584C 1257.55,1591.93 1383.55,1591.26 1509.5,1582C 1601.04,1575.3 1690.7,1559.14 1778.5,1533.5 Z"/></g>
<g><path style="opacity:0.986" fill="#949494" d="M 1453.5,1726.5 C 1459.83,1726.5 1466.17,1726.5 1472.5,1726.5C 1473.41,1735.42 1478.08,1737.92 1486.5,1734C 1487.79,1731.98 1488.79,1729.81 1489.5,1727.5C 1495.83,1726.17 1502.17,1726.17 1508.5,1727.5C 1504.94,1741.97 1495.61,1748.63 1480.5,1747.5C 1468.08,1748.55 1459.25,1743.55 1454,1732.5C 1453.5,1730.53 1453.34,1728.53 1453.5,1726.5 Z"/></g>
<g><path style="opacity:0.998" fill="#959595" d="M 1707.5,1750.5 C 1720.05,1749.7 1732.38,1750.87 1744.5,1754C 1752.45,1757.62 1756.95,1763.79 1758,1772.5C 1759.12,1787.8 1759.62,1803.13 1759.5,1818.5C 1759.62,1833.87 1759.12,1849.2 1758,1864.5C 1755.72,1876.44 1748.56,1883.28 1736.5,1885C 1722.67,1887.42 1709,1886.76 1695.5,1883C 1688,1879.5 1683.5,1873.66 1682,1865.5C 1680.87,1849.88 1680.37,1834.21 1680.5,1818.5C 1680.37,1802.79 1680.87,1787.12 1682,1771.5C 1683.56,1763.29 1688.06,1757.45 1695.5,1754C 1699.54,1752.51 1703.54,1751.34 1707.5,1750.5 Z M 1716.5,1772.5 C 1721.44,1771.35 1724.94,1773.02 1727,1777.5C 1727.67,1804.83 1727.67,1832.17 1727,1859.5C 1722.83,1865.73 1718.16,1866.06 1713,1860.5C 1712.33,1832.5 1712.33,1804.5 1713,1776.5C 1713.69,1774.65 1714.86,1773.32 1716.5,1772.5 Z"/></g>
<g><path style="opacity:0.997" fill="#959595" d="M 764.5,1752.5 C 783.503,1752.33 802.503,1752.5 821.5,1753C 832.453,1753.96 838.953,1759.79 841,1770.5C 841.667,1778.5 841.667,1786.5 841,1794.5C 839.244,1803.42 834.077,1809.42 825.5,1812.5C 834.456,1814.29 839.956,1819.62 842,1828.5C 844.465,1843 843.799,1857.33 840,1871.5C 838.167,1876 835,1879.17 830.5,1881C 825.97,1882.63 821.304,1883.63 816.5,1884C 799.17,1884.5 781.837,1884.67 764.5,1884.5C 764.5,1840.5 764.5,1796.5 764.5,1752.5 Z M 796.5,1771.5 C 807.509,1770.01 812.509,1774.84 811.5,1786C 811.037,1790.58 810.204,1795.08 809,1799.5C 808.097,1800.7 806.931,1801.53 805.5,1802C 802.518,1802.5 799.518,1802.66 796.5,1802.5C 796.5,1792.17 796.5,1781.83 796.5,1771.5 Z M 796.5,1821.5 C 801.802,1821.2 805.969,1823.2 809,1827.5C 812.429,1838.96 812.096,1850.29 808,1861.5C 804.658,1864.13 800.824,1865.46 796.5,1865.5C 796.5,1850.83 796.5,1836.17 796.5,1821.5 Z"/></g>
<g><path style="opacity:0.993" fill="#959595" d="M 910.5,1752.5 C 921.167,1752.5 931.833,1752.5 942.5,1752.5C 942.333,1770.5 942.5,1788.5 943,1806.5C 948.667,1788.83 954.333,1771.17 960,1753.5C 970.084,1752.51 980.251,1752.18 990.5,1752.5C 983.943,1772 977.277,1791.5 970.5,1811C 977.478,1835.43 984.145,1859.93 990.5,1884.5C 980.145,1884.83 969.812,1884.5 959.5,1883.5C 953.846,1863.88 948.346,1844.22 943,1824.5C 942.5,1844.5 942.333,1864.5 942.5,1884.5C 931.833,1884.5 921.167,1884.5 910.5,1884.5C 910.5,1840.5 910.5,1796.5 910.5,1752.5 Z"/></g>
<g><path style="opacity:0.995" fill="#959595" d="M 1013.5,1752.5 C 1027.5,1752.5 1041.5,1752.5 1055.5,1752.5C 1062.02,1796.47 1068.35,1840.47 1074.5,1884.5C 1064.17,1884.5 1053.83,1884.5 1043.5,1884.5C 1042.5,1873.83 1041.5,1863.17 1040.5,1852.5C 1034.83,1852.5 1029.17,1852.5 1023.5,1852.5C 1022.26,1863.18 1020.93,1873.85 1019.5,1884.5C 1010.5,1884.5 1001.5,1884.5 992.5,1884.5C 999.933,1840.57 1006.93,1796.57 1013.5,1752.5 Z M 1032.5,1775.5 C 1034.79,1793.99 1036.79,1812.66 1038.5,1831.5C 1034.5,1831.5 1030.5,1831.5 1026.5,1831.5C 1028.5,1812.83 1030.5,1794.17 1032.5,1775.5 Z"/></g>
<g><path style="opacity:0.996" fill="#959595" d="M 1076.5,1753.5 C 1086.65,1752.51 1096.99,1752.17 1107.5,1752.5C 1113.02,1771.23 1118.86,1789.9 1125,1808.5C 1125.5,1789.84 1125.67,1771.17 1125.5,1752.5C 1135.83,1752.5 1146.17,1752.5 1156.5,1752.5C 1156.33,1770.5 1156.5,1788.5 1157,1806.5C 1162.53,1788.73 1168.37,1771.07 1174.5,1753.5C 1184.48,1752.5 1194.48,1752.17 1204.5,1752.5C 1198.44,1772.02 1191.77,1791.36 1184.5,1810.5C 1191.48,1835.1 1198.15,1859.77 1204.5,1884.5C 1194.17,1884.5 1183.83,1884.5 1173.5,1884.5C 1168.11,1864.49 1162.61,1844.49 1157,1824.5C 1156.5,1844.5 1156.33,1864.5 1156.5,1884.5C 1146.17,1884.5 1135.83,1884.5 1125.5,1884.5C 1125.67,1863.5 1125.5,1842.5 1125,1821.5C 1119.33,1842.17 1113.67,1862.83 1108,1883.5C 1097.56,1884.82 1087.06,1884.82 1076.5,1883.5C 1083.56,1859.44 1090.22,1835.27 1096.5,1811C 1090.31,1791.58 1083.64,1772.41 1076.5,1753.5 Z"/></g>
<g><path style="opacity:0.999" fill="#959595" d="M 1216.5,1752.5 C 1241.5,1752.5 1266.5,1752.5 1291.5,1752.5C 1291.5,1789.5 1291.5,1826.5 1291.5,1863.5C 1294.5,1863.5 1297.5,1863.5 1300.5,1863.5C 1300.5,1877.83 1300.5,1892.17 1300.5,1906.5C 1292.5,1906.5 1284.5,1906.5 1276.5,1906.5C 1276.5,1899.17 1276.5,1891.83 1276.5,1884.5C 1260.83,1884.5 1245.17,1884.5 1229.5,1884.5C 1229.5,1891.83 1229.5,1899.17 1229.5,1906.5C 1221.5,1906.5 1213.5,1906.5 1205.5,1906.5C 1205.5,1892.17 1205.5,1877.83 1205.5,1863.5C 1211.25,1863.4 1214.42,1860.4 1215,1854.5C 1215.33,1851.17 1215.67,1847.83 1216,1844.5C 1216.5,1813.84 1216.67,1783.17 1216.5,1752.5 Z M 1246.5,1773.5 C 1251.17,1773.5 1255.83,1773.5 1260.5,1773.5C 1260.5,1803.5 1260.5,1833.5 1260.5,1863.5C 1254.46,1863.83 1248.46,1863.5 1242.5,1862.5C 1244.77,1856.04 1245.94,1849.38 1246,1842.5C 1246.5,1819.5 1246.67,1796.5 1246.5,1773.5 Z"/></g>
<g><path style="opacity:0.997" fill="#959595" d="M 1307.5,1752.5 C 1318.17,1752.5 1328.83,1752.5 1339.5,1752.5C 1339.5,1768.17 1339.5,1783.83 1339.5,1799.5C 1351.52,1798.58 1363.18,1800.08 1374.5,1804C 1380.72,1808.62 1384.22,1814.78 1385,1822.5C 1385.67,1835.83 1385.67,1849.17 1385,1862.5C 1383.04,1875.46 1375.54,1882.63 1362.5,1884C 1344.17,1884.5 1325.84,1884.67 1307.5,1884.5C 1307.5,1840.5 1307.5,1796.5 1307.5,1752.5 Z M 1339.5,1820.5 C 1344.08,1819.92 1348.25,1820.92 1352,1823.5C 1354.93,1834.72 1355.26,1846.05 1353,1857.5C 1350.76,1863.94 1346.26,1866.28 1339.5,1864.5C 1339.5,1849.83 1339.5,1835.17 1339.5,1820.5 Z"/></g>
<g><path style="opacity:0.996" fill="#959595" d="M 1395.5,1752.5 C 1405.83,1752.5 1416.17,1752.5 1426.5,1752.5C 1426.5,1796.5 1426.5,1840.5 1426.5,1884.5C 1416.17,1884.5 1405.83,1884.5 1395.5,1884.5C 1395.5,1840.5 1395.5,1796.5 1395.5,1752.5 Z"/></g>
<g><path style="opacity:0.996" fill="#959595" d="M 1441.5,1752.5 C 1451.5,1752.5 1461.5,1752.5 1471.5,1752.5C 1471.33,1773.5 1471.5,1794.5 1472,1815.5C 1478,1794.83 1484,1774.17 1490,1753.5C 1499.75,1752.51 1509.58,1752.18 1519.5,1752.5C 1519.5,1796.5 1519.5,1840.5 1519.5,1884.5C 1509.83,1884.5 1500.17,1884.5 1490.5,1884.5C 1490.67,1863.16 1490.5,1841.83 1490,1820.5C 1483.93,1841.54 1477.77,1862.54 1471.5,1883.5C 1461.52,1884.5 1451.52,1884.83 1441.5,1884.5C 1441.5,1840.5 1441.5,1796.5 1441.5,1752.5 Z"/></g>
<g><path style="opacity:0.998" fill="#959595" d="M 1589.5,1752.5 C 1614.83,1752.5 1640.17,1752.5 1665.5,1752.5C 1665.5,1789.5 1665.5,1826.5 1665.5,1863.5C 1668.5,1863.5 1671.5,1863.5 1674.5,1863.5C 1674.5,1877.83 1674.5,1892.17 1674.5,1906.5C 1666.5,1906.5 1658.5,1906.5 1650.5,1906.5C 1650.5,1899.17 1650.5,1891.83 1650.5,1884.5C 1634.5,1884.5 1618.5,1884.5 1602.5,1884.5C 1602.5,1891.83 1602.5,1899.17 1602.5,1906.5C 1594.5,1906.5 1586.5,1906.5 1578.5,1906.5C 1578.5,1892.17 1578.5,1877.83 1578.5,1863.5C 1581.5,1863.75 1584,1862.75 1586,1860.5C 1587.85,1857.43 1588.85,1854.1 1589,1850.5C 1589.5,1817.84 1589.67,1785.17 1589.5,1752.5 Z M 1619.5,1773.5 C 1624.17,1773.5 1628.83,1773.5 1633.5,1773.5C 1633.5,1803.5 1633.5,1833.5 1633.5,1863.5C 1627.49,1863.67 1621.49,1863.5 1615.5,1863C 1617.36,1858.71 1618.53,1854.21 1619,1849.5C 1619.5,1824.17 1619.67,1798.84 1619.5,1773.5 Z"/></g>
<g><path style="opacity:0.99" fill="#959595" d="M 1773.5,1752.5 C 1788.83,1752.5 1804.17,1752.5 1819.5,1752.5C 1823.01,1781.29 1827.18,1809.96 1832,1838.5C 1835.94,1810.11 1840.1,1781.78 1844.5,1753.5C 1859.49,1752.5 1874.49,1752.17 1889.5,1752.5C 1889.5,1796.5 1889.5,1840.5 1889.5,1884.5C 1879.83,1884.5 1870.17,1884.5 1860.5,1884.5C 1860.67,1852.83 1860.5,1821.16 1860,1789.5C 1854.56,1820.48 1849.23,1851.48 1844,1882.5C 1834.76,1884.46 1825.26,1885.12 1815.5,1884.5C 1810.22,1851.47 1804.72,1818.47 1799,1785.5C 1798.5,1818.5 1798.33,1851.5 1798.5,1884.5C 1790.17,1884.5 1781.83,1884.5 1773.5,1884.5C 1773.5,1840.5 1773.5,1796.5 1773.5,1752.5 Z"/></g>
<g><path style="opacity:0.876" fill="#9f9f9f" d="M 861.5,1954.5 C 864.5,1954.5 867.5,1954.5 870.5,1954.5C 870.169,1962.86 870.502,1971.19 871.5,1979.5C 885.863,1974.19 895.696,1978.52 901,1992.5C 903,2003.17 903,2013.83 901,2024.5C 898.21,2033.95 891.877,2038.95 882,2039.5C 878.163,2038.78 874.33,2038.11 870.5,2037.5C 870.5,2046.83 870.5,2056.17 870.5,2065.5C 867.5,2065.5 864.5,2065.5 861.5,2065.5C 861.5,2056.17 861.5,2046.83 861.5,2037.5C 853.582,2040.61 845.915,2040.11 838.5,2036C 834.339,2032.85 831.839,2028.68 831,2023.5C 828.819,2012.09 829.152,2000.76 832,1989.5C 835.293,1981.56 841.293,1977.56 850,1977.5C 853.595,1977.72 857.095,1978.39 860.5,1979.5C 861.498,1971.19 861.831,1962.86 861.5,1954.5 Z M 846.5,1985.5 C 850.514,1985.33 854.514,1985.5 858.5,1986C 859.416,1986.37 860.25,1986.87 861,1987.5C 861.833,2001.51 861.666,2015.51 860.5,2029.5C 854.725,2032.32 849.058,2032.15 843.5,2029C 841.898,2027.07 840.731,2024.9 840,2022.5C 837.531,2011.27 838.198,2000.27 842,1989.5C 843.397,1987.93 844.897,1986.6 846.5,1985.5 Z M 874.5,1985.5 C 884.934,1983.12 891.101,1987.12 893,1997.5C 893.839,2006.22 893.505,2014.89 892,2023.5C 888.744,2030.6 883.244,2033.1 875.5,2031C 874.128,2030.6 872.795,2030.1 871.5,2029.5C 870.334,2015.51 870.167,2001.51 871,1987.5C 872.302,1986.92 873.469,1986.25 874.5,1985.5 Z"/></g>
<g><path style="opacity:0.848" fill="#9c9c9c" d="M 1428.5,1957.5 C 1436.81,1962.83 1445.14,1962.83 1453.5,1957.5C 1457.61,1959.29 1458.27,1961.79 1455.5,1965C 1445.25,1971.36 1435.41,1970.86 1426,1963.5C 1425.33,1962.5 1425.33,1961.5 1426,1960.5C 1427.04,1959.63 1427.88,1958.63 1428.5,1957.5 Z"/></g>
<g><path style="opacity:0.897" fill="#9e9e9e" d="M 789.5,1977.5 C 805.214,1976.06 814.381,1983.06 817,1998.5C 817.667,2005.17 817.667,2011.83 817,2018.5C 814.989,2032.01 807.155,2039.01 793.5,2039.5C 780.305,2039.16 772.805,2032.5 771,2019.5C 770.333,2011.83 770.333,2004.17 771,1996.5C 772.692,1985.64 778.859,1979.31 789.5,1977.5 Z M 792.5,1984.5 C 801.728,1985.23 806.894,1990.23 808,1999.5C 809.319,2008.8 808.319,2017.8 805,2026.5C 799.704,2031.72 793.537,2032.88 786.5,2030C 782.908,2026.98 780.742,2023.15 780,2018.5C 778.907,2009.34 779.574,2000.34 782,1991.5C 784.625,1987.78 788.125,1985.44 792.5,1984.5 Z"/></g>
<g><path style="opacity:0.883" fill="#9f9f9f" d="M 1120.5,1977.5 C 1127.17,1976.97 1133.51,1978.13 1139.5,1981C 1143.78,1984.84 1145.95,1989.67 1146,1995.5C 1146.5,2009.5 1146.67,2023.5 1146.5,2037.5C 1143.83,2037.5 1141.17,2037.5 1138.5,2037.5C 1138.8,2035.4 1138.47,2033.4 1137.5,2031.5C 1130.53,2038.56 1122.19,2040.72 1112.5,2038C 1105.59,2034.53 1102.26,2028.87 1102.5,2021C 1102.04,2013.25 1105.37,2007.92 1112.5,2005C 1120.75,2003.59 1129.08,2003.09 1137.5,2003.5C 1138.52,1997.12 1136.86,1991.62 1132.5,1987C 1124.7,1984.98 1117.04,1985.48 1109.5,1988.5C 1107.28,1986.45 1106.61,1984.12 1107.5,1981.5C 1111.83,1979.72 1116.17,1978.39 1120.5,1977.5 Z M 1122.5,2009.5 C 1127.48,2010.05 1132.48,2010.39 1137.5,2010.5C 1138.22,2018.54 1135.55,2025.04 1129.5,2030C 1114.29,2033.79 1109.12,2028.29 1114,2013.5C 1116.56,2011.38 1119.4,2010.04 1122.5,2009.5 Z"/></g>
<g><path style="opacity:0.889" fill="#9f9f9f" d="M 1581.5,1977.5 C 1587.68,1977.11 1593.68,1977.94 1599.5,1980C 1602.43,1982.26 1604.6,1985.1 1606,1988.5C 1607.41,2004.79 1607.91,2021.12 1607.5,2037.5C 1604.83,2037.5 1602.17,2037.5 1599.5,2037.5C 1599.66,2035.14 1599.5,2032.81 1599,2030.5C 1596.91,2034.3 1593.75,2036.8 1589.5,2038C 1574.1,2042.23 1565.43,2036.56 1563.5,2021C 1563.04,2013.24 1566.38,2007.91 1573.5,2005C 1581.75,2003.59 1590.08,2003.09 1598.5,2003.5C 1600.93,1992.32 1596.6,1986.32 1585.5,1985.5C 1580.66,1985.73 1575.99,1986.73 1571.5,1988.5C 1568.49,1986.64 1567.83,1984.14 1569.5,1981C 1573.54,1979.51 1577.54,1978.34 1581.5,1977.5 Z M 1583.5,2009.5 C 1588.48,2010.05 1593.48,2010.39 1598.5,2010.5C 1599.6,2026.92 1592.26,2033.42 1576.5,2030C 1571.94,2024.88 1571.44,2019.38 1575,2013.5C 1577.56,2011.38 1580.4,2010.04 1583.5,2009.5 Z"/></g>
<g><path style="opacity:0.886" fill="#9f9f9f" d="M 1644.5,1977.5 C 1657.84,1975.91 1666,1981.57 1669,1994.5C 1671.37,2006.03 1670.7,2017.36 1667,2028.5C 1663.33,2035.81 1657.33,2039.47 1649,2039.5C 1642.56,2039.61 1637.23,2037.28 1633,2032.5C 1632.5,2043.16 1632.33,2053.83 1632.5,2064.5C 1629.55,2064.78 1626.72,2064.44 1624,2063.5C 1623.17,2035.49 1623.33,2007.49 1624.5,1979.5C 1629.73,1977.2 1632.56,1978.86 1633,1984.5C 1635.99,1980.58 1639.82,1978.25 1644.5,1977.5 Z M 1642.5,1985.5 C 1651.73,1984.02 1657.56,1987.69 1660,1996.5C 1662.31,2006.39 1661.64,2016.06 1658,2025.5C 1652.56,2031.95 1646.06,2033.11 1638.5,2029C 1635.77,2026.37 1633.94,2023.21 1633,2019.5C 1632.33,2012.17 1632.33,2004.83 1633,1997.5C 1634.19,1991.82 1637.36,1987.82 1642.5,1985.5 Z"/></g>
<g><path style="opacity:0.885" fill="#9f9f9f" d="M 1810.5,1977.5 C 1822.77,1976.04 1830.94,1981.04 1835,1992.5C 1835.71,1998.87 1835.54,2005.2 1834.5,2011.5C 1822.83,2011.5 1811.17,2011.5 1799.5,2011.5C 1802.05,2030.45 1812.05,2035.78 1829.5,2027.5C 1832.01,2029.22 1832.85,2031.55 1832,2034.5C 1805.44,2045.47 1791.61,2036.64 1790.5,2008C 1790.09,1998.6 1792.76,1990.27 1798.5,1983C 1802.23,1980.3 1806.23,1978.47 1810.5,1977.5 Z M 1809.5,1985.5 C 1823.1,1984.45 1828.77,1990.78 1826.5,2004.5C 1817.5,2004.5 1808.5,2004.5 1799.5,2004.5C 1799.45,1996.26 1802.79,1989.93 1809.5,1985.5 Z"/></g>
<g><path style="opacity:0.924" fill="#9f9f9f" d="M 1869.5,1977.5 C 1884.33,1976.17 1892.83,1982.84 1895,1997.5C 1895.67,2004.83 1895.67,2012.17 1895,2019.5C 1892.16,2035.84 1882.66,2042.01 1866.5,2038C 1863.27,2036.8 1860.44,2034.97 1858,2032.5C 1857.5,2043.16 1857.33,2053.83 1857.5,2064.5C 1854.83,2064.5 1852.17,2064.5 1849.5,2064.5C 1849.33,2036.16 1849.5,2007.83 1850,1979.5C 1855.33,1977.04 1857.99,1978.71 1858,1984.5C 1861.23,1980.98 1865.06,1978.65 1869.5,1977.5 Z M 1868.5,1985.5 C 1878.91,1984.41 1884.75,1989.08 1886,1999.5C 1887.07,2007.99 1886.4,2016.33 1884,2024.5C 1879.36,2031.16 1873.19,2032.99 1865.5,2030C 1860.75,2026.33 1858.25,2021.5 1858,2015.5C 1856.6,2006.37 1857.93,1997.7 1862,1989.5C 1864.09,1987.88 1866.26,1986.54 1868.5,1985.5 Z"/></g>
<g><path style="opacity:0.874" fill="#9f9f9f" d="M 918.5,1978.5 C 920.591,1978.32 922.591,1978.65 924.5,1979.5C 925.333,1994.16 925.833,2008.82 926,2023.5C 934.969,2009.03 944.136,1994.7 953.5,1980.5C 956.333,1978.47 959.333,1978.13 962.5,1979.5C 963.5,1998.82 963.833,2018.16 963.5,2037.5C 960.5,2037.5 957.5,2037.5 954.5,2037.5C 954.667,2022.83 954.5,2008.16 954,1993.5C 945.25,2008 936.25,2022.34 927,2036.5C 923.606,2037.46 920.106,2037.79 916.5,2037.5C 915.864,2017.6 916.531,1997.93 918.5,1978.5 Z"/></g>
<g><path style="opacity:0.921" fill="#a0a0a0" d="M 981.5,1978.5 C 983.792,1978.24 985.959,1978.58 988,1979.5C 988.5,1996.5 988.667,2013.5 988.5,2030.5C 997.167,2030.5 1005.83,2030.5 1014.5,2030.5C 1014.17,2013.49 1014.5,1996.49 1015.5,1979.5C 1017.83,1978.17 1020.17,1978.17 1022.5,1979.5C 1023.5,1996.49 1023.83,2013.49 1023.5,2030.5C 1025.83,2030.5 1028.17,2030.5 1030.5,2030.5C 1030.83,2037.53 1030.5,2044.53 1029.5,2051.5C 1027.5,2052.83 1025.5,2052.83 1023.5,2051.5C 1022.51,2046.88 1022.17,2042.21 1022.5,2037.5C 1008.5,2037.5 994.5,2037.5 980.5,2037.5C 980.179,2017.76 980.513,1998.09 981.5,1978.5 Z"/></g>
<g><path style="opacity:0.91" fill="#9f9f9f" d="M 1044.5,1978.5 C 1046.79,1978.24 1048.96,1978.58 1051,1979.5C 1051.33,1994.17 1051.67,2008.83 1052,2023.5C 1060.97,2009.03 1070.14,1994.7 1079.5,1980.5C 1082.33,1978.47 1085.33,1978.13 1088.5,1979.5C 1089.5,1998.82 1089.83,2018.16 1089.5,2037.5C 1086.5,2037.5 1083.5,2037.5 1080.5,2037.5C 1080.67,2022.83 1080.5,2008.16 1080,1993.5C 1071.25,2008 1062.25,2022.34 1053,2036.5C 1049.61,2037.46 1046.11,2037.79 1042.5,2037.5C 1041.86,2017.6 1042.53,1997.93 1044.5,1978.5 Z"/></g>
<g><path style="opacity:0.861" fill="#a0a0a0" d="M 1170.5,1978.5 C 1182.5,1978.5 1194.5,1978.5 1206.5,1978.5C 1206.5,1998.17 1206.5,2017.83 1206.5,2037.5C 1203.5,2037.5 1200.5,2037.5 1197.5,2037.5C 1197.5,2020.5 1197.5,2003.5 1197.5,1986.5C 1191.17,1986.5 1184.83,1986.5 1178.5,1986.5C 1178.26,2001.8 1176.1,2016.8 1172,2031.5C 1168.68,2037.74 1163.51,2040.07 1156.5,2038.5C 1156.5,2036.17 1156.5,2033.83 1156.5,2031.5C 1161.89,2031.62 1165.05,2028.96 1166,2023.5C 1168.75,2008.63 1170.25,1993.63 1170.5,1978.5 Z"/></g>
<g><path style="opacity:0.941" fill="#a0a0a0" d="M 1224.5,1978.5 C 1226.59,1978.32 1228.59,1978.65 1230.5,1979.5C 1231.5,1987.47 1231.83,1995.47 1231.5,2003.5C 1240.25,2003.09 1248.92,2003.59 1257.5,2005C 1264.32,2010.13 1266.82,2016.96 1265,2025.5C 1263.91,2031.59 1260.41,2035.42 1254.5,2037C 1244.17,2037.5 1233.84,2037.67 1223.5,2037.5C 1223.18,2017.76 1223.51,1998.09 1224.5,1978.5 Z M 1231.5,2010.5 C 1238.17,2010.33 1244.84,2010.5 1251.5,2011C 1258.16,2017.38 1258.16,2023.71 1251.5,2030C 1244.84,2030.5 1238.17,2030.67 1231.5,2030.5C 1231.5,2023.83 1231.5,2017.17 1231.5,2010.5 Z"/></g>
<g><path style="opacity:0.94" fill="#999999" d="M 1279.5,1978.5 C 1281.92,1978.29 1284.25,1978.63 1286.5,1979.5C 1287.5,1987.47 1287.83,1995.47 1287.5,2003.5C 1296.5,2003.5 1305.5,2003.5 1314.5,2003.5C 1314.33,1995.49 1314.5,1987.49 1315,1979.5C 1317.33,1978.17 1319.67,1978.17 1322,1979.5C 1322.5,1998.83 1322.67,2018.16 1322.5,2037.5C 1319.83,2037.5 1317.17,2037.5 1314.5,2037.5C 1314.5,2028.83 1314.5,2020.17 1314.5,2011.5C 1305.5,2011.5 1296.5,2011.5 1287.5,2011.5C 1287.67,2019.84 1287.5,2028.17 1287,2036.5C 1284.28,2037.44 1281.45,2037.78 1278.5,2037.5C 1278.18,2017.76 1278.51,1998.09 1279.5,1978.5 Z"/></g>
<g><path style="opacity:0.894" fill="#a0a0a0" d="M 1341.5,1978.5 C 1343.59,1978.32 1345.59,1978.65 1347.5,1979.5C 1348.5,1987.47 1348.83,1995.47 1348.5,2003.5C 1356.17,2003.33 1363.84,2003.5 1371.5,2004C 1381.08,2009.16 1384.24,2017 1381,2027.5C 1379.17,2032 1376,2035.17 1371.5,2037C 1360.84,2037.5 1350.17,2037.67 1339.5,2037.5C 1338.86,2017.6 1339.53,1997.93 1341.5,1978.5 Z M 1348.5,2010.5 C 1354.84,2010.33 1361.18,2010.5 1367.5,2011C 1373.33,2015.48 1374.49,2020.98 1371,2027.5C 1370.1,2028.7 1368.93,2029.53 1367.5,2030C 1361.18,2030.5 1354.84,2030.67 1348.5,2030.5C 1348.5,2023.83 1348.5,2017.17 1348.5,2010.5 Z"/></g>
<g><path style="opacity:0.863" fill="#a0a0a0" d="M 1394.5,1978.5 C 1396.59,1978.32 1398.59,1978.65 1400.5,1979.5C 1401.5,1998.82 1401.83,2018.16 1401.5,2037.5C 1398.5,2037.5 1395.5,2037.5 1392.5,2037.5C 1391.86,2017.6 1392.53,1997.93 1394.5,1978.5 Z"/></g>
<g><path style="opacity:0.915" fill="#a0a0a0" d="M 1419.5,1978.5 C 1421.79,1978.24 1423.96,1978.58 1426,1979.5C 1426.33,1994.17 1426.67,2008.83 1427,2023.5C 1435.97,2009.03 1445.14,1994.7 1454.5,1980.5C 1457.33,1978.47 1460.33,1978.13 1463.5,1979.5C 1464.5,1998.82 1464.83,2018.16 1464.5,2037.5C 1461.5,2037.5 1458.5,2037.5 1455.5,2037.5C 1455.67,2022.83 1455.5,2008.16 1455,1993.5C 1446.25,2008 1437.25,2022.34 1428,2036.5C 1424.94,2037.45 1421.78,2037.78 1418.5,2037.5C 1418.18,2017.76 1418.51,1998.09 1419.5,1978.5 Z"/></g>
<g><path style="opacity:0.896" fill="#a0a0a0" d="M 1507.5,1978.5 C 1521.83,1978.5 1536.17,1978.5 1550.5,1978.5C 1550.5,1998.17 1550.5,2017.83 1550.5,2037.5C 1547.5,2037.5 1544.5,2037.5 1541.5,2037.5C 1541.5,2020.5 1541.5,2003.5 1541.5,1986.5C 1532.83,1986.5 1524.17,1986.5 1515.5,1986.5C 1515.5,2003.5 1515.5,2020.5 1515.5,2037.5C 1512.83,2037.5 1510.17,2037.5 1507.5,2037.5C 1507.5,2017.83 1507.5,1998.17 1507.5,1978.5 Z"/></g>
<g><path style="opacity:0.858" fill="#a0a0a0" d="M 1677.5,1978.5 C 1691.85,1978.17 1706.18,1978.5 1720.5,1979.5C 1721.78,1981.7 1721.78,1983.87 1720.5,1986C 1714.84,1986.5 1709.18,1986.67 1703.5,1986.5C 1703.5,2003.5 1703.5,2020.5 1703.5,2037.5C 1700.5,2037.5 1697.5,2037.5 1694.5,2037.5C 1694.5,2020.5 1694.5,2003.5 1694.5,1986.5C 1688.83,1986.5 1683.17,1986.5 1677.5,1986.5C 1677.5,1983.83 1677.5,1981.17 1677.5,1978.5 Z"/></g>
<g><path style="opacity:0.859" fill="#a0a0a0" d="M 1733.5,1978.5 C 1735.59,1978.32 1737.59,1978.65 1739.5,1979.5C 1740.5,1987.47 1740.83,1995.47 1740.5,2003.5C 1749.5,2003.5 1758.5,2003.5 1767.5,2003.5C 1767.17,1995.47 1767.5,1987.47 1768.5,1979.5C 1770.83,1978.17 1773.17,1978.17 1775.5,1979.5C 1776.5,1998.82 1776.83,2018.16 1776.5,2037.5C 1773.5,2037.5 1770.5,2037.5 1767.5,2037.5C 1767.5,2028.83 1767.5,2020.17 1767.5,2011.5C 1758.5,2011.5 1749.5,2011.5 1740.5,2011.5C 1740.5,2020.17 1740.5,2028.83 1740.5,2037.5C 1737.5,2037.5 1734.5,2037.5 1731.5,2037.5C 1730.86,2017.6 1731.53,1997.93 1733.5,1978.5 Z"/></g>
</svg>
