<?xml version="1.0" encoding="UTF-8"?>
<!DOCTYPE svg PUBLIC "-//W3C//DTD SVG 1.1//EN" "http://www.w3.org/Graphics/SVG/1.1/DTD/svg11.dtd">
<svg xmlns="http://www.w3.org/2000/svg" version="1.1" width="225px" height="225px" style="shape-rendering:geometricPrecision; text-rendering:geometricPrecision; image-rendering:optimizeQuality; fill-rule:evenodd; clip-rule:evenodd" xmlns:xlink="http://www.w3.org/1999/xlink">
<g><path style="opacity:1" fill="#9a9a9a" d="M 103.5,40.5 C 106.764,41.9274 109.264,44.2608 111,47.5C 112.432,53.4258 113.432,59.4258 114,65.5C 114.268,60.3504 115.268,55.3504 117,50.5C 120.098,44.6811 124.098,44.0144 129,48.5C 130.605,56.0404 129.438,63.2071 125.5,70C 128.971,66.844 132.304,63.1773 135.5,59C 143.298,53.1001 148.464,54.9334 151,64.5C 152.114,69.0411 151.114,73.0411 148,76.5C 142.908,80.2984 137.408,83.4651 131.5,86C 139.321,88.1584 146.155,91.9917 152,97.5C 155.406,101.445 156.072,105.779 154,110.5C 150.116,114.235 145.949,114.402 141.5,111C 136,106.833 131.167,102 127,96.5C 128.93,101.724 130.93,107.057 133,112.5C 133.887,116.325 134.721,120.158 135.5,124C 134.934,131.399 130.934,135.232 123.5,135.5C 118.739,135.214 115.572,132.88 114,128.5C 112.827,121.563 112.16,114.563 112,107.5C 110.339,114.983 106.506,121.15 100.5,126C 95.0336,128.548 90.2002,127.714 86,123.5C 85.3333,121.167 85.3333,118.833 86,116.5C 89.0834,111.412 92.9167,106.912 97.5,103C 93.7914,104.681 89.7914,106.014 85.5,107C 81.5,107.667 77.5,107.667 73.5,107C 64.7668,104.13 62.7668,98.797 67.5,91C 70.893,88.6369 74.5596,86.8035 78.5,85.5C 75.1927,83.3596 72.026,81.0263 69,78.5C 66.8633,72.5675 68.6967,68.0675 74.5,65C 77.1667,64.3333 79.8333,64.3333 82.5,65C 84.0548,66.2893 85.7215,66.956 87.5,67C 84.1831,62.4358 85.0164,58.9358 90,56.5C 91.892,57.13 93.5587,58.13 95,59.5C 98.4141,65.9969 102.081,72.3303 106,78.5C 104.173,72.6665 102.506,66.6665 101,60.5C 99.8053,53.5082 100.639,46.8416 103.5,40.5 Z"/></g>
<g><path style="opacity:1" fill="#363636" d="M 150.5,134.5 C 152.167,134.5 153.833,134.5 155.5,134.5C 155.5,138.167 155.5,141.833 155.5,145.5C 158.5,145.5 161.5,145.5 164.5,145.5C 164.5,147.167 164.5,148.833 164.5,150.5C 156.897,148.418 154.064,151.085 156,158.5C 157.458,164.059 160.958,165.892 166.5,164C 167.333,163.167 168.167,162.333 169,161.5C 169.499,156.177 169.666,150.844 169.5,145.5C 171.167,145.5 172.833,145.5 174.5,145.5C 174.334,150.179 174.501,154.845 175,159.5C 178.532,165.29 182.865,165.957 188,161.5C 189.339,156.264 189.839,150.93 189.5,145.5C 191.167,145.5 192.833,145.5 194.5,145.5C 194.667,157.171 194.5,168.838 194,180.5C 189.528,189.955 182.861,191.955 174,186.5C 173.333,184.5 173.333,182.5 174,180.5C 177.569,184.414 181.736,185.247 186.5,183C 189.391,178.483 190.058,173.649 188.5,168.5C 182.756,171.353 177.423,170.686 172.5,166.5C 157.42,173.522 149.92,168.522 150,151.5C 149.311,152.357 148.478,153.023 147.5,153.5C 143.711,149.587 139.878,149.587 136,153.5C 134.649,159.072 134.149,164.738 134.5,170.5C 132.833,170.5 131.167,170.5 129.5,170.5C 129.5,162.167 129.5,153.833 129.5,145.5C 131.766,145.141 133.599,145.808 135,147.5C 140.041,144.701 144.874,145.034 149.5,148.5C 150.493,143.88 150.827,139.214 150.5,134.5 Z"/></g>
<g><path style="opacity:1" fill="#b0b0b0" d="M 198.5,146.5 C 197.053,145.866 196.387,144.699 196.5,143C 196.528,141.93 196.861,141.097 197.5,140.5C 198.117,140.389 198.617,140.056 199,139.5C 199.796,142.039 199.629,144.372 198.5,146.5 Z"/></g>
<g><path style="opacity:1" fill="#616161" d="M 205.5,139.5 C 203.883,138.962 202.216,138.629 200.5,138.5C 200.238,139.978 200.571,141.311 201.5,142.5C 202.842,139.679 203.508,139.846 203.5,143C 203.501,146.043 202.668,146.21 201,143.5C 200.51,144.793 200.343,146.127 200.5,147.5C 201.5,147.5 202.5,147.5 203.5,147.5C 201.545,148.93 199.879,148.597 198.5,146.5C 199.629,144.372 199.796,142.039 199,139.5C 198.617,140.056 198.117,140.389 197.5,140.5C 198.148,138.414 199.648,137.414 202,137.5C 203.699,137.387 204.866,138.053 205.5,139.5 Z"/></g>
<g><path style="opacity:1" fill="#373737" d="M 111.5,143.5 C 123.057,143.388 128.39,149.055 127.5,160.5C 120.492,160.334 113.492,160.5 106.5,161C 107.167,163 108.5,164.333 110.5,165C 114.186,165.807 117.686,165.307 121,163.5C 123.132,163.677 124.132,164.677 124,166.5C 119.865,170.191 115.031,171.358 109.5,170C 101.48,166.793 98.6471,160.959 101,152.5C 103.052,147.736 106.552,144.736 111.5,143.5 Z M 110.5,149.5 C 113.649,149.211 116.649,149.711 119.5,151C 121.037,152.11 121.703,153.61 121.5,155.5C 116.5,155.5 111.5,155.5 106.5,155.5C 106.657,152.682 107.991,150.682 110.5,149.5 Z"/></g>
<g><path style="opacity:1" fill="#bebebe" d="M 205.5,139.5 C 208.337,142.995 207.67,145.661 203.5,147.5C 202.5,147.5 201.5,147.5 200.5,147.5C 200.343,146.127 200.51,144.793 201,143.5C 202.668,146.21 203.501,146.043 203.5,143C 203.508,139.846 202.842,139.679 201.5,142.5C 200.571,141.311 200.238,139.978 200.5,138.5C 202.216,138.629 203.883,138.962 205.5,139.5 Z"/></g>
<g><path style="opacity:1" fill="#3a3a3a" d="M 35.5,145.5 C 40.9071,146.24 46.2405,146.24 51.5,145.5C 51.5,160.167 51.5,174.833 51.5,189.5C 49.5,189.5 47.5,189.5 45.5,189.5C 45.1878,182.578 45.5212,175.744 46.5,169C 33.543,172.776 27.043,167.943 27,154.5C 28.6878,150.315 31.5212,147.315 35.5,145.5 Z M 37.5,150.5 C 45.9965,152.485 47.6632,156.985 42.5,164C 36.4817,165.815 32.815,163.649 31.5,157.5C 32.8334,154.507 34.8334,152.173 37.5,150.5 Z"/></g>
<g><path style="opacity:1" fill="#393939" d="M 54.5,145.5 C 56.1667,145.5 57.8333,145.5 59.5,145.5C 59.3341,150.511 59.5007,155.511 60,160.5C 63.9888,165.356 68.3221,165.689 73,161.5C 73.4994,156.177 73.666,150.844 73.5,145.5C 75.5,145.5 77.5,145.5 79.5,145.5C 79.334,150.844 79.5006,156.177 80,161.5C 85.1348,165.957 89.4681,165.29 93,159.5C 93.4992,154.845 93.6658,150.179 93.5,145.5C 95.1667,145.5 96.8333,145.5 98.5,145.5C 98.8696,151.925 98.3696,158.258 97,164.5C 90.8088,171.67 83.9755,172.337 76.5,166.5C 67.3315,173.004 60.1648,171.337 55,161.5C 54.5006,156.177 54.334,150.844 54.5,145.5 Z"/></g>
</svg>
