<?xml version="1.0" encoding="UTF-8"?>
<!DOCTYPE svg PUBLIC "-//W3C//DTD SVG 1.1//EN" "http://www.w3.org/Graphics/SVG/1.1/DTD/svg11.dtd">
<svg xmlns="http://www.w3.org/2000/svg" version="1.1" width="4258px" height="4258px" style="shape-rendering:geometricPrecision; text-rendering:geometricPrecision; image-rendering:optimizeQuality; fill-rule:evenodd; clip-rule:evenodd" xmlns:xlink="http://www.w3.org/1999/xlink">
<g><path style="opacity:1" fill="#414141" d="M 1905.5,-0.5 C 1905.83,-0.5 1906.17,-0.5 1906.5,-0.5C 2406.15,500.146 2905.81,1000.81 3405.5,1501.5C 2859.48,2047.85 2313.48,2594.19 1767.5,3140.5C 1511.2,3396.3 1255.03,3652.3 999,3908.5C 950.233,3967.66 936.233,4034.33 957,4108.5C 975.983,4171.14 1015.15,4215.97 1074.5,4243C 1089.53,4248.76 1104.87,4252.92 1120.5,4255.5C 1026.48,4243.43 952.977,4198.43 900,4120.5C 871.576,4074.56 855.576,4024.56 852,3970.5C 851.814,3151.17 851.314,2331.83 850.5,1512.5C 850.297,1449.46 851.797,1386.46 855,1323.5C 858.7,1251.3 871.034,1180.63 892,1111.5C 919.374,1029.04 961.374,955.371 1018,890.5C 1028.43,878.644 1039.1,866.977 1050,855.5C 1335.37,570.299 1620.53,284.965 1905.5,-0.5 Z"/></g>
<g><path style="opacity:0.998" fill="#7c7c7c" d="M 1767.5,3140.5 C 2139.47,3511.97 2511.3,3883.63 2883,4255.5C 2883.46,4256.09 2883.63,4256.76 2883.5,4257.5C 2304.5,4257.5 1725.5,4257.5 1146.5,4257.5C 1138.39,4255.89 1130.06,4255.22 1121.5,4255.5C 1121.17,4255.5 1120.83,4255.5 1120.5,4255.5C 1104.87,4252.92 1089.53,4248.76 1074.5,4243C 1015.15,4215.97 975.983,4171.14 957,4108.5C 936.233,4034.33 950.233,3967.66 999,3908.5C 1255.03,3652.3 1511.2,3396.3 1767.5,3140.5 Z"/></g>
<g><path style="opacity:0.439" fill="#595959" d="M 1121.5,4255.5 C 1130.06,4255.22 1138.39,4255.89 1146.5,4257.5C 1143.17,4257.5 1139.83,4257.5 1136.5,4257.5C 1131.5,4256.83 1126.5,4256.17 1121.5,4255.5 Z"/></g>
</svg>
