<?xml version="1.0" encoding="UTF-8"?>
<!DOCTYPE svg PUBLIC "-//W3C//DTD SVG 1.1//EN" "http://www.w3.org/Graphics/SVG/1.1/DTD/svg11.dtd">
<svg xmlns="http://www.w3.org/2000/svg" version="1.1" width="500px" height="500px" style="shape-rendering:geometricPrecision; text-rendering:geometricPrecision; image-rendering:optimizeQuality; fill-rule:evenodd; clip-rule:evenodd" xmlns:xlink="http://www.w3.org/1999/xlink">
<g><path style="opacity:1" fill="#a3a3a3" d="M 298.5,10.5 C 301.426,11.7689 304.092,13.6023 306.5,16C 305.299,16.9025 304.465,18.0692 304,19.5C 302.16,18.1669 301.66,18.3335 302.5,20C 299.802,21.7062 297.469,23.2062 295.5,24.5C 211.199,10.3245 139.365,33.6579 80,94.5C 54.4158,122.659 36.9158,155.325 27.5,192.5C 25.8561,192.286 24.3561,192.62 23,193.5C 22.3333,192.5 22.3333,191.5 23,190.5C 24.1313,191.604 24.9646,191.271 25.5,189.5C 24.4706,189.704 23.4706,189.204 22.5,188C 22.8333,187.667 23.1667,187.333 23.5,187C 20.2608,185.264 17.9274,182.764 16.5,179.5C 35.3799,118.12 72.3799,70.9533 127.5,38C 181.156,8.2797 238.156,-0.88697 298.5,10.5 Z"/></g>
<g><path style="opacity:1" fill="#aeaeae" d="M 298.5,10.5 C 333.584,17.7306 365.251,32.064 393.5,53.5C 393.199,56.6989 392.533,59.6989 391.5,62.5C 390.692,62.1924 390.025,61.6924 389.5,61C 390.451,60.2825 390.617,59.4491 390,58.5C 389.085,59.3279 388.419,60.3279 388,61.5C 387.692,60.6919 387.192,60.0253 386.5,59.5C 382.786,57.8968 379.119,57.2301 375.5,57.5C 350.628,42.0615 323.962,31.0615 295.5,24.5C 297.469,23.2062 299.802,21.7062 302.5,20C 301.66,18.3335 302.16,18.1669 304,19.5C 304.465,18.0692 305.299,16.9025 306.5,16C 304.092,13.6023 301.426,11.7689 298.5,10.5 Z"/></g>
<g><path style="opacity:1" fill="#b3b3b3" d="M 393.5,53.5 C 446.743,93.3406 478.91,146.341 490,212.5C 493.056,234.967 493.223,257.3 490.5,279.5C 490.725,275.944 489.892,275.61 488,278.5C 485.435,277.678 483.268,278.511 481.5,281C 482.451,281.718 482.617,282.551 482,283.5C 480.512,281.84 478.679,280.84 476.5,280.5C 485.327,186.514 451.66,112.18 375.5,57.5C 379.119,57.2301 382.786,57.8968 386.5,59.5C 387.192,60.0253 387.692,60.6919 388,61.5C 388.419,60.3279 389.085,59.3279 390,58.5C 390.617,59.4491 390.451,60.2825 389.5,61C 390.025,61.6924 390.692,62.1924 391.5,62.5C 392.533,59.6989 393.199,56.6989 393.5,53.5 Z"/></g>
<g><path style="opacity:1" fill="#393939" d="M 367.5,160.5 C 370.5,160.5 373.5,160.5 376.5,160.5C 376.5,162.5 376.5,164.5 376.5,166.5C 380.833,166.5 385.167,166.5 389.5,166.5C 389.67,167.822 389.337,168.989 388.5,170C 384.514,170.499 380.514,170.666 376.5,170.5C 376.071,177.947 376.571,185.281 378,192.5C 381.821,193.981 385.488,193.648 389,191.5C 390.022,192.354 390.855,193.354 391.5,194.5C 383.309,199.866 375.475,199.533 368,193.5C 367.5,185.841 367.334,178.174 367.5,170.5C 365.473,170.662 363.473,170.495 361.5,170C 360.663,168.989 360.33,167.822 360.5,166.5C 362.833,166.5 365.167,166.5 367.5,166.5C 367.5,164.5 367.5,162.5 367.5,160.5 Z"/></g>
<g><path style="opacity:1" fill="#313131" d="M 306.5,283.5 C 296.347,284.494 286.014,284.828 275.5,284.5C 268.02,274.902 260.52,265.236 253,255.5C 250,258.5 247,261.5 244,264.5C 243.5,271.492 243.334,278.492 243.5,285.5C 234.833,285.5 226.167,285.5 217.5,285.5C 217.667,251.165 217.5,216.832 217,182.5C 215.321,177.564 211.821,174.898 206.5,174.5C 205.526,172.257 205.192,169.924 205.5,167.5C 218.169,167.233 230.836,166.9 243.5,166.5C 243.333,194.835 243.5,223.169 244,251.5C 253.697,242.137 263.03,232.47 272,222.5C 272.798,220.741 272.631,219.074 271.5,217.5C 267.972,216.079 264.306,215.412 260.5,215.5C 260.244,213.208 260.577,211.041 261.5,209C 291.165,208.5 320.831,208.333 350.5,208.5C 350.5,210.833 350.5,213.167 350.5,215.5C 347.351,215.211 344.351,215.711 341.5,217C 339.213,219.243 339.047,221.743 341,224.5C 346.745,236.323 352.745,247.99 359,259.5C 360.167,257.833 361.333,256.167 362.5,254.5C 364.42,257.339 366.087,260.339 367.5,263.5C 359.428,279.982 350.595,295.982 341,311.5C 336.651,318.187 330.818,323.021 323.5,326C 307.701,328.531 300.868,322.031 303,306.5C 311.42,298.11 319.253,298.777 326.5,308.5C 327.723,309.614 329.056,309.781 330.5,309C 336.325,303.51 340.991,297.177 344.5,290C 333.872,269.244 323.372,248.411 313,227.5C 307.119,214.646 298.619,212.48 287.5,221C 282.667,225.833 277.833,230.667 273,235.5C 272.333,236.167 272.333,236.833 273,237.5C 284.385,252.712 295.551,268.045 306.5,283.5 Z"/></g>
<g><path style="opacity:1" fill="#363636" d="M 309.5,194.5 C 303.926,196.453 297.926,197.12 291.5,196.5C 290.167,195.833 290.167,195.167 291.5,194.5C 293.167,194.5 294.833,194.5 296.5,194.5C 296.822,188.642 296.489,182.975 295.5,177.5C 295.052,174.767 293.719,172.601 291.5,171C 285.306,169.289 280.14,170.789 276,175.5C 275.5,181.825 275.334,188.158 275.5,194.5C 277.483,194.157 278.817,194.824 279.5,196.5C 273.074,197.12 267.074,196.453 261.5,194.5C 263.144,194.714 264.644,194.38 266,193.5C 266.5,185.507 266.666,177.507 266.5,169.5C 264.5,169.5 262.5,169.5 260.5,169.5C 260.5,168.5 260.5,167.5 260.5,166.5C 265.167,166.5 269.833,166.5 274.5,166.5C 274.215,168.288 274.548,169.955 275.5,171.5C 276.107,171.376 276.44,171.043 276.5,170.5C 283.897,165.042 291.897,164.209 300.5,168C 302.049,169.214 303.215,170.714 304,172.5C 304.5,179.492 304.666,186.492 304.5,193.5C 306.415,193.216 308.081,193.549 309.5,194.5 Z"/></g>
<g><path style="opacity:1" fill="#818181" d="M 274.5,166.5 C 275.167,167.833 275.833,169.167 276.5,170.5C 276.44,171.043 276.107,171.376 275.5,171.5C 274.548,169.955 274.215,168.288 274.5,166.5 Z"/></g>
<g><path style="opacity:1" fill="#3a3a3a" d="M 333.5,165.5 C 339.976,165.293 345.976,166.793 351.5,170C 354.18,173.423 355.013,177.256 354,181.5C 344.56,182.155 335.06,182.821 325.5,183.5C 327.152,188.985 330.819,192.152 336.5,193C 341.947,193.635 347.28,193.135 352.5,191.5C 352.67,192.822 352.337,193.989 351.5,195C 343.322,199.196 334.989,199.529 326.5,196C 316.272,190.734 313.772,182.901 319,172.5C 323.232,168.712 328.065,166.379 333.5,165.5 Z"/></g>
<g><path style="opacity:1" fill="#efefef" d="M 332.5,168.5 C 341.576,166.924 345.909,170.59 345.5,179.5C 339.167,179.5 332.833,179.5 326.5,179.5C 325.933,174.407 327.933,170.741 332.5,168.5 Z"/></g>
<g><path style="opacity:1" fill="#6d6d6d" d="M 295.5,177.5 C 296.489,182.975 296.822,188.642 296.5,194.5C 294.833,194.5 293.167,194.5 291.5,194.5C 292.568,193.566 293.901,193.232 295.5,193.5C 295.5,188.167 295.5,182.833 295.5,177.5 Z"/></g>
<g><path style="opacity:1" fill="#adadad" d="M 16.5,179.5 C 17.9274,182.764 20.2608,185.264 23.5,187C 23.1667,187.333 22.8333,187.667 22.5,188C 23.4706,189.204 24.4706,189.704 25.5,189.5C 24.9646,191.271 24.1313,191.604 23,190.5C 22.3333,191.5 22.3333,192.5 23,193.5C 24.3561,192.62 25.8561,192.286 27.5,192.5C 15.4228,242.203 18.7561,290.87 37.5,338.5C 36.2113,339.501 34.8779,339.334 33.5,338C 35.5672,336.57 35.0672,335.403 32,334.5C 30.2382,334.944 30.4049,335.444 32.5,336C 31.0696,337.44 29.403,337.774 27.5,337C 28.3402,335.334 27.8402,335.167 26,336.5C 25.6667,335.833 25.3333,335.167 25,334.5C 24.6232,335.942 23.7899,336.942 22.5,337.5C 2.39947,285.41 0.39947,232.744 16.5,179.5 Z"/></g>
<g><path style="opacity:1" fill="#787878" d="M 261.5,194.5 C 267.074,196.453 273.074,197.12 279.5,196.5C 273.355,197.49 267.022,197.823 260.5,197.5C 260.263,196.209 260.596,195.209 261.5,194.5 Z"/></g>
<g><path style="opacity:1" fill="#797979" d="M 309.5,194.5 C 310.404,195.209 310.737,196.209 310.5,197.5C 303.978,197.823 297.645,197.49 291.5,196.5C 297.926,197.12 303.926,196.453 309.5,194.5 Z"/></g>
<g><path style="opacity:1" fill="#3e3e3e" d="M 367.5,208.5 C 377.839,208.334 388.172,208.5 398.5,209C 399.423,211.041 399.756,213.208 399.5,215.5C 394.924,215.568 391.424,217.568 389,221.5C 385.667,227.5 382.333,233.5 379,239.5C 377.111,236.888 375.611,234.055 374.5,231C 375.53,228.44 376.697,225.94 378,223.5C 378.667,221.5 378.667,219.5 378,217.5C 374.715,215.863 371.215,215.196 367.5,215.5C 367.5,213.167 367.5,210.833 367.5,208.5 Z"/></g>
<g><path style="opacity:1" fill="#8a8a8a" d="M 147.5,174.5 C 160.618,173.59 172.952,176.257 184.5,182.5C 186.316,181.185 187.983,179.685 189.5,178C 191.81,177.503 194.143,177.337 196.5,177.5C 196.5,190.167 196.5,202.833 196.5,215.5C 194.208,215.756 192.041,215.423 190,214.5C 187.113,207.058 183.446,200.058 179,193.5C 168.517,181.611 156.35,179.444 142.5,187C 137.798,191.922 136.298,197.755 138,204.5C 139.4,207.902 141.567,210.736 144.5,213C 158.9,218.133 173.233,223.467 187.5,229C 204.146,241.424 207.646,256.924 198,275.5C 195.359,280.144 191.525,283.311 186.5,285C 179.06,285.928 171.726,285.594 164.5,284C 175.342,280.151 179.175,272.651 176,261.5C 173.199,256.497 169.032,252.997 163.5,251C 150.599,247.702 138.266,243.035 126.5,237C 110.437,224.235 107.27,208.735 117,190.5C 125.374,181.565 135.54,176.232 147.5,174.5 Z"/></g>
<g><path style="opacity:1" fill="#8b8b8b" d="M 145.5,283.5 C 133.678,284.495 121.678,284.828 109.5,284.5C 108.505,273.679 108.172,262.679 108.5,251.5C 111.572,251.183 114.572,251.516 117.5,252.5C 121.99,267.318 131.323,277.651 145.5,283.5 Z"/></g>
<g><path style="opacity:1" fill="#8b8b8b" d="M 356.5,215.5 C 359.617,215.642 362.117,216.976 364,219.5C 372.652,236.636 381.152,253.803 389.5,271C 381.152,288.197 372.652,305.364 364,322.5C 358.684,328.133 354.518,327.3 351.5,320C 359.484,303.698 367.484,287.364 375.5,271C 367.484,254.636 359.484,238.302 351.5,222C 352.283,219.062 353.95,216.896 356.5,215.5 Z"/></g>
<g><path style="opacity:1" fill="#afafaf" d="M 490.5,279.5 C 484.555,327.7 465.888,370.033 434.5,406.5C 432.305,405.781 430.805,406.781 430,409.5C 429.632,408.09 428.799,407.09 427.5,406.5C 425.594,407.578 424.094,408.911 423,410.5C 421.103,408.084 419.103,408.084 417,410.5C 416.487,409.473 415.987,408.473 415.5,407.5C 448.384,371.393 468.717,329.06 476.5,280.5C 478.679,280.84 480.512,281.84 482,283.5C 482.617,282.551 482.451,281.718 481.5,281C 483.268,278.511 485.435,277.678 488,278.5C 489.892,275.61 490.725,275.944 490.5,279.5 Z"/></g>
<g><path style="opacity:1" fill="#c3c3c3" d="M 145.5,283.5 C 146.376,283.369 147.043,283.702 147.5,284.5C 134.673,285.825 122.006,285.825 109.5,284.5C 121.678,284.828 133.678,284.495 145.5,283.5 Z"/></g>
<g><path style="opacity:1" fill="#9d9d9d" d="M 306.5,283.5 C 307.043,283.56 307.376,283.893 307.5,284.5C 296.674,285.823 286.007,285.823 275.5,284.5C 286.014,284.828 296.347,284.494 306.5,283.5 Z"/></g>
<g><path style="opacity:1" fill="#8b8b8b" d="M 109.5,293.5 C 173.168,293.333 236.834,293.5 300.5,294C 291.335,302.505 289.001,312.671 293.5,324.5C 232.336,325.499 171.002,325.832 109.5,325.5C 109.5,314.833 109.5,304.167 109.5,293.5 Z"/></g>
<g><path style="opacity:1" fill="#f7f7f7" d="M 165.5,296.5 C 166.833,296.5 168.167,296.5 169.5,296.5C 169.5,304.167 169.5,311.833 169.5,319.5C 168.167,319.5 166.833,319.5 165.5,319.5C 165.5,311.833 165.5,304.167 165.5,296.5 Z"/></g>
<g><path style="opacity:1" fill="#f8f8f8" d="M 129.5,298.5 C 130.833,298.5 132.167,298.5 133.5,298.5C 133.5,299.833 133.5,301.167 133.5,302.5C 134.833,302.5 136.167,302.5 137.5,302.5C 137.5,303.5 137.5,304.5 137.5,305.5C 136.167,305.5 134.833,305.5 133.5,305.5C 133.5,308.833 133.5,312.167 133.5,315.5C 134.833,315.5 136.167,315.5 137.5,315.5C 137.5,316.833 137.5,318.167 137.5,319.5C 134.881,319.768 132.381,319.435 130,318.5C 129.501,314.179 129.334,309.846 129.5,305.5C 128.5,305.5 127.5,305.5 126.5,305.5C 126.5,304.5 126.5,303.5 126.5,302.5C 127.5,302.5 128.5,302.5 129.5,302.5C 129.5,301.167 129.5,299.833 129.5,298.5 Z"/></g>
<g><path style="opacity:1" fill="#f5f5f5" d="M 160.5,311.5 C 155.637,311.181 150.97,311.514 146.5,312.5C 146.874,314.95 148.374,315.95 151,315.5C 153.008,315.693 154.508,315.026 155.5,313.5C 157.167,313.5 158.833,313.5 160.5,313.5C 159.746,316.091 158.079,317.924 155.5,319C 144.123,321.056 139.957,316.556 143,305.5C 147.985,300.553 153.319,300.22 159,304.5C 160.202,306.677 160.702,309.011 160.5,311.5 Z"/></g>
<g><path style="opacity:1" fill="#f6f6f6" d="M 192.5,307.5 C 192.5,308.833 192.5,310.167 192.5,311.5C 187.786,311.173 183.12,311.507 178.5,312.5C 178.624,313.107 178.957,313.44 179.5,313.5C 180.492,315.026 181.992,315.693 184,315.5C 186.008,315.693 187.508,315.026 188.5,313.5C 190.483,313.157 191.817,313.824 192.5,315.5C 191.657,317.173 190.324,318.34 188.5,319C 177.838,321.336 173.338,317.169 175,306.5C 177.987,301.848 182.154,300.348 187.5,302C 190.079,303.076 191.746,304.909 192.5,307.5 Z"/></g>
<g><path style="opacity:1" fill="#f5f5f5" d="M 203.5,301.5 C 209.309,300.574 213.643,302.574 216.5,307.5C 214.034,308.881 212.034,308.381 210.5,306C 202.5,305 200.5,308 204.5,315C 206.5,315.667 208.5,315.667 210.5,315C 211.617,313.108 213.284,312.275 215.5,312.5C 215.822,314.722 215.155,316.556 213.5,318C 201,321.5 196.5,317 200,304.5C 201.145,303.364 202.312,302.364 203.5,301.5 Z"/></g>
<g><path style="opacity:1" fill="#f5f5f5" d="M 226.5,301.5 C 236.543,300.378 241.043,304.712 240,314.5C 239.535,315.931 238.701,317.097 237.5,318C 225.987,322.475 220.821,318.641 222,306.5C 223.193,304.503 224.693,302.836 226.5,301.5 Z"/></g>
<g><path style="opacity:1" fill="#f4f4f4" d="M 252.5,301.5 C 256.192,300.971 259.358,301.971 262,304.5C 265.373,301.114 269.206,300.614 273.5,303C 274.126,303.75 274.626,304.584 275,305.5C 275.499,310.155 275.666,314.821 275.5,319.5C 273.833,319.5 272.167,319.5 270.5,319.5C 270.5,314.833 270.5,310.167 270.5,305.5C 267.635,305.055 265.135,305.722 263,307.5C 262.501,311.486 262.334,315.486 262.5,319.5C 261.167,319.5 259.833,319.5 258.5,319.5C 258.666,315.154 258.499,310.821 258,306.5C 254.606,304.725 251.94,305.392 250,308.5C 249.501,312.152 249.335,315.818 249.5,319.5C 248.167,319.5 246.833,319.5 245.5,319.5C 245.5,313.833 245.5,308.167 245.5,302.5C 247.144,302.286 248.644,302.62 250,303.5C 250.995,302.934 251.828,302.267 252.5,301.5 Z"/></g>
<g><path style="opacity:1" fill="#929292" d="M 148.5,305.5 C 151.157,305.162 153.49,305.829 155.5,307.5C 152.554,308.655 149.554,308.821 146.5,308C 147.381,307.292 148.047,306.458 148.5,305.5 Z"/></g>
<g><path style="opacity:1" fill="#939393" d="M 181.5,305.5 C 184.346,305.03 186.679,305.863 188.5,308C 185.446,308.821 182.446,308.655 179.5,307.5C 180.243,306.818 180.909,306.151 181.5,305.5 Z"/></g>
<g><path style="opacity:1" fill="#c1c1c1" d="M 146.5,312.5 C 150.97,311.514 155.637,311.181 160.5,311.5C 160.5,312.167 160.5,312.833 160.5,313.5C 158.833,313.5 157.167,313.5 155.5,313.5C 152.713,312.523 149.713,312.19 146.5,312.5 Z"/></g>
<g><path style="opacity:1" fill="#c4c4c4" d="M 192.5,307.5 C 193.833,310.167 193.833,312.833 192.5,315.5C 191.817,313.824 190.483,313.157 188.5,313.5C 185.5,312.167 182.5,312.167 179.5,313.5C 178.957,313.44 178.624,313.107 178.5,312.5C 183.12,311.507 187.786,311.173 192.5,311.5C 192.5,310.167 192.5,308.833 192.5,307.5 Z"/></g>
<g><path style="opacity:1" fill="#8e8e8e" d="M 227.5,305.5 C 235.244,305.048 237.577,308.215 234.5,315C 225.812,316.481 223.479,313.314 227.5,305.5 Z"/></g>
<g><path style="opacity:1" fill="#8d8d8d" d="M 146.5,312.5 C 149.713,312.19 152.713,312.523 155.5,313.5C 154.508,315.026 153.008,315.693 151,315.5C 148.374,315.95 146.874,314.95 146.5,312.5 Z"/></g>
<g><path style="opacity:1" fill="#8d8d8d" d="M 188.5,313.5 C 187.508,315.026 186.008,315.693 184,315.5C 181.992,315.693 180.492,315.026 179.5,313.5C 182.5,312.167 185.5,312.167 188.5,313.5 Z"/></g>
<g><path style="opacity:1" fill="#a3a3a3" d="M 109.5,293.5 C 109.5,304.167 109.5,314.833 109.5,325.5C 171.002,325.832 232.336,325.499 293.5,324.5C 294.043,324.56 294.376,324.893 294.5,325.5C 232.504,326.5 170.504,326.833 108.5,326.5C 108.172,315.321 108.505,304.321 109.5,293.5 Z"/></g>
<g><path style="opacity:1" fill="#b5b5b5" d="M 37.5,338.5 C 79.8047,426.855 150.138,473.521 248.5,478.5C 251.028,479.166 253.694,479.832 256.5,480.5C 255.349,481.731 254.183,481.731 253,480.5C 251.214,481.787 251.047,483.287 252.5,485C 251.888,487.058 250.888,488.891 249.5,490.5C 249.846,491.696 250.346,491.696 251,490.5C 251.464,491.094 251.631,491.761 251.5,492.5C 154.477,490.098 81.9767,447.098 34,363.5C 29.8696,354.934 26.0363,346.267 22.5,337.5C 23.7899,336.942 24.6232,335.942 25,334.5C 25.3333,335.167 25.6667,335.833 26,336.5C 27.8402,335.167 28.3402,335.334 27.5,337C 29.403,337.774 31.0696,337.44 32.5,336C 30.4049,335.444 30.2382,334.944 32,334.5C 35.0672,335.403 35.5672,336.57 33.5,338C 34.8779,339.334 36.2113,339.501 37.5,338.5 Z"/></g>
<g><path style="opacity:1" fill="#bdbdbd" d="M 434.5,406.5 C 386.454,461.995 325.454,490.662 251.5,492.5C 251.631,491.761 251.464,491.094 251,490.5C 250.346,491.696 249.846,491.696 249.5,490.5C 250.888,488.891 251.888,487.058 252.5,485C 251.047,483.287 251.214,481.787 253,480.5C 254.183,481.731 255.349,481.731 256.5,480.5C 253.694,479.832 251.028,479.166 248.5,478.5C 314.088,477.523 369.755,453.857 415.5,407.5C 415.987,408.473 416.487,409.473 417,410.5C 419.103,408.084 421.103,408.084 423,410.5C 424.094,408.911 425.594,407.578 427.5,406.5C 428.799,407.09 429.632,408.09 430,409.5C 430.805,406.781 432.305,405.781 434.5,406.5 Z"/></g>
</svg>
