<?xml version="1.0" encoding="UTF-8"?>
<!DOCTYPE svg PUBLIC "-//W3C//DTD SVG 1.1//EN" "http://www.w3.org/Graphics/SVG/1.1/DTD/svg11.dtd">
<svg xmlns="http://www.w3.org/2000/svg" version="1.1" width="177px" height="55px" style="shape-rendering:geometricPrecision; text-rendering:geometricPrecision; image-rendering:optimizeQuality; fill-rule:evenodd; clip-rule:evenodd" xmlns:xlink="http://www.w3.org/1999/xlink">
<g><path style="opacity:0.814" fill="#131313" d="M 0.5,2.5 C 17.3251,1.50341 34.3251,1.17008 51.5,1.5C 52.1299,9.24283 51.4633,16.5762 49.5,23.5C 49.5,16.5 49.5,9.5 49.5,2.5C 33.1667,2.5 16.8333,2.5 0.5,2.5 Z"/></g>
<g><path style="opacity:0.721" fill="#131313" d="M 55.5,2.5 C 72.6586,1.50335 89.992,1.17001 107.5,1.5C 108.13,9.24283 107.463,16.5762 105.5,23.5C 105.5,16.5 105.5,9.5 105.5,2.5C 88.8333,2.5 72.1667,2.5 55.5,2.5 Z"/></g>
<g><path style="opacity:0.651" fill="#101010" d="M 111.5,2.5 C 118.648,1.50837 125.981,1.17503 133.5,1.5C 133.177,7.68996 133.51,13.69 134.5,19.5C 134.189,20.4778 133.522,21.1445 132.5,21.5C 131.504,15.2015 131.17,8.86818 131.5,2.5C 124.833,2.5 118.167,2.5 111.5,2.5 Z"/></g>
<g><path style="opacity:0.275" fill="#2c2c2c" d="M 148.5,2.5 C 156.316,1.50761 164.316,1.17428 172.5,1.5C 172.672,2.49162 172.338,3.15829 171.5,3.5C 164.018,2.50797 156.352,2.17464 148.5,2.5 Z"/></g>
<g><path style="opacity:0.584" fill="#050505" d="M 172.5,1.5 C 174.028,1.51731 174.528,2.18398 174,3.5C 167.873,11.2954 161.373,18.7954 154.5,26C 161,34.5 167.5,43 174,51.5C 174.528,52.816 174.028,53.4827 172.5,53.5C 172.672,52.5084 172.338,51.8417 171.5,51.5C 164.933,43.3762 158.6,35.0429 152.5,26.5C 158.509,18.498 164.842,10.8313 171.5,3.5C 172.338,3.15829 172.672,2.49162 172.5,1.5 Z"/></g>
<g><path style="opacity:0.99" fill="#555555" d="M 0.5,2.5 C 16.8333,2.5 33.1667,2.5 49.5,2.5C 49.5,9.5 49.5,16.5 49.5,23.5C 45.5,23.5 41.5,23.5 37.5,23.5C 36.5,23.5 35.5,23.5 34.5,23.5C 34.5,33.1667 34.5,42.8333 34.5,52.5C 27.8333,52.5 21.1667,52.5 14.5,52.5C 14.5,42.8333 14.5,33.1667 14.5,23.5C 9.40533,23.7787 4.40533,23.4454 -0.5,22.5C -0.5,16.1667 -0.5,9.83333 -0.5,3.5C 0.166667,3.5 0.5,3.16667 0.5,2.5 Z"/></g>
<g><path style="opacity:0.973" fill="#555555" d="M 55.5,2.5 C 72.1667,2.5 88.8333,2.5 105.5,2.5C 105.5,9.5 105.5,16.5 105.5,23.5C 101.167,23.5 96.8333,23.5 92.5,23.5C 90.5267,32.7755 89.86,42.4422 90.5,52.5C 83.8333,52.5 77.1667,52.5 70.5,52.5C 70.5,42.8333 70.5,33.1667 70.5,23.5C 65.5,23.5 60.5,23.5 55.5,23.5C 55.5,16.5 55.5,9.5 55.5,2.5 Z"/></g>
<g><path style="opacity:0.992" fill="#555555" d="M 111.5,2.5 C 118.167,2.5 124.833,2.5 131.5,2.5C 131.17,8.86818 131.504,15.2015 132.5,21.5C 133.522,21.1445 134.189,20.4778 134.5,19.5C 139.197,13.8086 143.863,8.14196 148.5,2.5C 156.352,2.17464 164.018,2.50797 171.5,3.5C 164.842,10.8313 158.509,18.498 152.5,26.5C 158.6,35.0429 164.933,43.3762 171.5,51.5C 164.018,52.492 156.352,52.8254 148.5,52.5C 143.73,45.9458 138.73,39.6125 133.5,33.5C 133.631,32.6236 133.298,31.9569 132.5,31.5C 131.503,38.4684 131.17,45.4684 131.5,52.5C 124.833,52.5 118.167,52.5 111.5,52.5C 111.5,35.8333 111.5,19.1667 111.5,2.5 Z"/></g>
<g><path style="opacity:0.627" fill="#0a0a0a" d="M 37.5,23.5 C 37.5,33.5 37.5,43.5 37.5,53.5C 29.6484,53.8254 21.9818,53.492 14.5,52.5C 21.1667,52.5 27.8333,52.5 34.5,52.5C 34.5,42.8333 34.5,33.1667 34.5,23.5C 35.5,23.5 36.5,23.5 37.5,23.5 Z"/></g>
<g><path style="opacity:0.828" fill="#0c0c0c" d="M 92.5,23.5 C 92.5,33.5 92.5,43.5 92.5,53.5C 84.9809,53.825 77.6476,53.4916 70.5,52.5C 77.1667,52.5 83.8333,52.5 90.5,52.5C 89.86,42.4422 90.5267,32.7755 92.5,23.5 Z"/></g>
<g><path style="opacity:0.645" fill="#0f0f0f" d="M 133.5,33.5 C 133.5,40.1667 133.5,46.8333 133.5,53.5C 125.981,53.825 118.648,53.4916 111.5,52.5C 118.167,52.5 124.833,52.5 131.5,52.5C 131.17,45.4684 131.503,38.4684 132.5,31.5C 133.298,31.9569 133.631,32.6236 133.5,33.5 Z"/></g>
<g><path style="opacity:0.275" fill="#2c2c2c" d="M 171.5,51.5 C 172.338,51.8417 172.672,52.5084 172.5,53.5C 164.316,53.8257 156.316,53.4924 148.5,52.5C 156.352,52.8254 164.018,52.492 171.5,51.5 Z"/></g>
</svg>
