<?xml version="1.0" standalone="no"?>
<!DOCTYPE svg PUBLIC "-//W3C//DTD SVG 20010904//EN"
 "http://www.w3.org/TR/2001/REC-SVG-20010904/DTD/svg10.dtd">
<svg version="1.0" xmlns="http://www.w3.org/2000/svg"
 width="64.000000pt" height="64.000000pt" viewBox="0 0 64.000000 64.000000"
 preserveAspectRatio="xMidYMid meet">

<g transform="translate(0.000000,64.000000) scale(0.100000,-0.100000)"
fill="#000000" stroke="none">
<path d="M60 332 c0 -195 3 -271 12 -280 9 -9 75 -12 234 -12 219 0 223 0 238
22 9 12 16 42 16 65 l0 43 -45 0 -45 0 1 68 c0 64 1 66 16 44 18 -25 38 -29
47 -7 3 8 15 15 26 15 24 0 26 17 4 48 -13 18 -13 26 -4 38 18 21 16 89 -3
118 -9 13 -32 30 -52 37 -29 11 -35 18 -35 41 l0 28 -205 0 -205 0 0 -268z
m400 236 c0 -17 -10 -27 -40 -40 -57 -24 -79 -75 -58 -134 12 -35 12 -44 1
-60 -19 -26 -16 -44 7 -44 11 0 23 -7 26 -15 9 -22 29 -18 47 7 15 21 16 14
16 -104 l1 -128 -179 0 c-150 0 -182 3 -195 16 -14 13 -16 51 -16 263 0 136 3
251 7 254 3 4 91 7 195 7 l188 0 0 -22z m49 -52 c54 -28 66 -97 25 -145 -54
-65 -164 -26 -164 57 0 43 14 68 48 86 34 19 56 20 91 2z m-88 -186 c21 -12
23 -18 10 -38 -7 -12 -12 -12 -32 0 -13 7 -25 13 -27 14 -1 1 0 9 4 18 7 19
18 20 45 6z m133 -6 c4 -9 5 -17 4 -18 -2 -1 -14 -7 -27 -14 -20 -12 -25 -12
-32 0 -13 19 -11 26 9 37 25 15 39 13 46 -5z m-14 -208 c0 -52 -18 -73 -49
-56 -16 8 -21 21 -21 49 0 45 5 51 42 51 26 0 28 -2 28 -44z"/>
<path d="M150 480 c0 -5 14 -10 30 -10 17 0 30 5 30 10 0 6 -13 10 -30 10 -16
0 -30 -4 -30 -10z"/>
<path d="M178 423 c18 -2 45 -2 60 0 15 2 0 4 -33 4 -33 0 -45 -2 -27 -4z"/>
<path d="M163 373 c9 -2 25 -2 35 0 9 3 1 5 -18 5 -19 0 -27 -2 -17 -5z"/>
<path d="M150 320 c0 -13 157 -13 165 0 4 6 -25 10 -79 10 -51 0 -86 -4 -86
-10z"/>
<path d="M193 263 c26 -2 67 -2 90 0 23 2 2 3 -48 3 -50 0 -68 -1 -42 -3z"/>
<path d="M193 213 c26 -2 67 -2 90 0 23 2 2 3 -48 3 -50 0 -68 -1 -42 -3z"/>
<path d="M150 160 c0 -13 157 -13 165 0 4 6 -25 10 -79 10 -51 0 -86 -4 -86
-10z"/>
<path d="M450 480 c0 -6 -11 -15 -25 -20 -26 -10 -32 -24 -15 -35 6 -3 10 -16
10 -29 0 -20 5 -23 45 -24 41 0 45 2 45 23 0 13 5 27 10 30 17 11 11 25 -15
35 -14 5 -25 14 -25 20 0 5 -7 10 -15 10 -8 0 -15 -5 -15 -10z m46 -65 c-8
-18 -19 -25 -38 -25 -19 0 -26 4 -22 14 3 8 0 17 -7 21 -8 6 -5 13 12 25 20
16 25 16 45 4 19 -13 20 -18 10 -39z"/>
</g>
</svg>
