<?xml version="1.0" encoding="UTF-8"?>
<!DOCTYPE svg PUBLIC "-//W3C//DTD SVG 1.1//EN" "http://www.w3.org/Graphics/SVG/1.1/DTD/svg11.dtd">
<svg xmlns="http://www.w3.org/2000/svg" version="1.1" width="64px" height="64px" style="shape-rendering:geometricPrecision; text-rendering:geometricPrecision; image-rendering:optimizeQuality; fill-rule:evenodd; clip-rule:evenodd" xmlns:xlink="http://www.w3.org/1999/xlink">
<g><path style="opacity:0.714" fill="#000000" d="M 23.5,-0.5 C 28.8333,-0.5 34.1667,-0.5 39.5,-0.5C 41.2143,0.738379 43.2143,1.40505 45.5,1.5C 45.6495,2.55198 45.4828,3.55198 45,4.5C 41.8333,7.66667 38.6667,10.8333 35.5,14C 30.7243,14.3458 26.0577,15.1792 21.5,16.5C 21.33,15.1779 21.6634,14.0113 22.5,13C 26.0458,11.8263 29.7125,11.1596 33.5,11C 35.8333,8.66667 38.1667,6.33333 40.5,4C 21.2447,0.257284 8.74473,7.75728 3,26.5C 2.27376,31.2387 2.6071,35.9053 4,40.5C 6.33333,38.1667 8.66667,35.8333 11,33.5C 11.3333,30.5 11.6667,27.5 12,24.5C 12.5885,22.1367 14.0885,21.1367 16.5,21.5C 15.1792,26.0577 14.3458,30.7243 14,35.5C 10.8333,38.6667 7.66667,41.8333 4.5,45C 3.55198,45.4828 2.55198,45.6495 1.5,45.5C 1.40505,43.2143 0.738379,41.2143 -0.5,39.5C -0.5,34.1667 -0.5,28.8333 -0.5,23.5C 3.16667,11.1667 11.1667,3.16667 23.5,-0.5 Z"/></g>
<g><path style="opacity:0.632" fill="#000000" d="M 49.5,8.5 C 49.5,7.83333 49.1667,7.5 48.5,7.5C 48.5,6.83333 48.1667,6.5 47.5,6.5C 48.6332,3.02912 50.9666,1.02912 54.5,0.5C 54.822,2.72241 54.1554,4.55575 52.5,6C 54.1075,5.98128 55.7741,5.81461 57.5,5.5C 57.1854,7.22586 57.0187,8.89253 57,10.5C 58.4443,8.84464 60.2776,8.17798 62.5,8.5C 62.0283,11.8153 60.195,14.1486 57,15.5C 54.6303,12.9614 52.1303,10.6281 49.5,8.5 Z"/></g>
<g><path style="opacity:0.657" fill="#000000" d="M 47.5,6.5 C 48.1667,6.5 48.5,6.83333 48.5,7.5C 49.1667,7.5 49.5,7.83333 49.5,8.5C 51.4466,12.0585 53.1133,15.7252 54.5,19.5C 50.5046,18.9993 46.8379,17.6659 43.5,15.5C 43.5,14.8333 43.1667,14.5 42.5,14.5C 42.5,13.8333 42.1667,13.5 41.5,13.5C 41.5,12.5 41.5,11.5 41.5,10.5C 43.2259,10.8146 44.8925,10.9813 46.5,11C 44.9568,8.95513 45.2901,7.45513 47.5,6.5 Z"/></g>
<g><path style="opacity:0.658" fill="#000000" d="M 41.5,13.5 C 42.1667,13.5 42.5,13.8333 42.5,14.5C 43.1667,14.5 43.5,14.8333 43.5,15.5C 45.1271,17.6298 46.9604,19.6298 49,21.5C 49.4828,22.448 49.6495,23.448 49.5,24.5C 48.1779,24.67 47.0113,24.3366 46,23.5C 46.1985,28.1218 44.0318,30.1218 39.5,29.5C 39.8197,34.5751 37.4863,36.4085 32.5,35C 29.9832,32.6506 27.6499,30.1506 25.5,27.5C 26.723,26.3861 28.0563,26.2195 29.5,27C 31.3333,28.8333 33.1667,30.6667 35,32.5C 34.2797,29.7348 32.6131,27.4015 30,25.5C 29.5172,24.552 29.3505,23.552 29.5,22.5C 30.8221,22.33 31.9887,22.6634 33,23.5C 33.0043,20.1484 34.5043,17.815 37.5,16.5C 38.3857,15.675 38.719,14.675 38.5,13.5C 39.5,13.5 40.5,13.5 41.5,13.5 Z M 39.5,17.5 C 45.087,20.5958 44.587,22.2624 38,22.5C 38.1343,20.8107 38.6343,19.144 39.5,17.5 Z M 39.5,29.5 C 35.3568,26.9081 35.8568,25.2414 41,24.5C 40.8657,26.1893 40.3657,27.856 39.5,29.5 Z"/></g>
<g><path style="opacity:0.532" fill="#000000" d="M 16.5,16.5 C 17.5,16.5 18.5,16.5 19.5,16.5C 19.5,17.5 19.5,18.5 19.5,19.5C 18.5,19.5 17.5,19.5 16.5,19.5C 16.5,18.5 16.5,17.5 16.5,16.5 Z"/></g>
<g><path style="opacity:0.708" fill="#000000" d="M 63.5,23.5 C 63.5,28.8333 63.5,34.1667 63.5,39.5C 59.8333,51.8333 51.8333,59.8333 39.5,63.5C 34.1667,63.5 28.8333,63.5 23.5,63.5C 21.7857,62.2616 19.7857,61.595 17.5,61.5C 17.3505,60.448 17.5172,59.448 18,58.5C 21.1667,55.3333 24.3333,52.1667 27.5,49C 41.3333,48.5 48.5,41.3333 49,27.5C 52.1667,24.3333 55.3333,21.1667 58.5,18C 59.448,17.5172 60.448,17.3505 61.5,17.5C 61.595,19.7857 62.2616,21.7857 63.5,23.5 Z M 58.5,22.5 C 62.8752,44.3613 53.8752,57.028 31.5,60.5C 28.433,60.3934 25.433,59.8934 22.5,59C 24.8333,56.6667 27.1667,54.3333 29.5,52C 44.3333,51.8333 51.8333,44.3333 52,29.5C 54.3722,27.2968 56.5389,24.9635 58.5,22.5 Z"/></g>
<g><path style="opacity:0.618" fill="#000000" d="M 19.5,48.5 C 18.1667,46.5 16.5,44.8333 14.5,43.5C 13.1146,38.1873 15.1146,35.6873 20.5,36C 19.6634,34.9887 19.33,33.8221 19.5,32.5C 23.5025,32.9713 26.6692,34.9713 29,38.5C 30.6884,36.1517 32.5217,35.9851 34.5,38C 33.0725,41.8348 30.5725,43.3348 27,42.5C 27.3127,47.8854 24.8127,49.8854 19.5,48.5 Z M 22.5,38.5 C 23.5,38.8333 24.1667,39.5 24.5,40.5C 22.9328,41.6808 22.0995,43.3474 22,45.5C 20.5,44 19,42.5 17.5,41C 19.6526,40.9005 21.3192,40.0672 22.5,38.5 Z"/></g>
<g><path style="opacity:0.67" fill="#000000" d="M 14.5,43.5 C 14.5,46.8333 16.1667,48.5 19.5,48.5C 22.512,51.3686 21.8453,52.7019 17.5,52.5C 17.8432,54.4832 17.1765,55.8166 15.5,56.5C 15.5,55.8333 15.1667,55.5 14.5,55.5C 13.8373,51.504 11.504,49.1707 7.5,48.5C 7.5,47.8333 7.16667,47.5 6.5,47.5C 7.18342,45.8235 8.51676,45.1568 10.5,45.5C 10.2981,41.1547 11.6314,40.488 14.5,43.5 Z"/></g>
<g><path style="opacity:0.596" fill="#000000" d="M 6.5,47.5 C 7.16667,47.5 7.5,47.8333 7.5,48.5C 7.7035,50.3904 7.03683,51.8904 5.5,53C 6.83333,53 8.16667,53 9.5,53C 10.2123,54.425 10.379,55.925 10,57.5C 11.1096,55.9632 12.6096,55.2965 14.5,55.5C 15.1667,55.5 15.5,55.8333 15.5,56.5C 14.3909,60.1298 12.0576,61.9631 8.5,62C 5.44891,59.2857 2.78224,56.2857 0.5,53C 1.70702,50.2926 3.70702,48.4593 6.5,47.5 Z"/></g>
</svg>
